<?xml version="1.0" encoding="utf-8"?>
<!-- Generator: Adobe Illustrator 25.3.0, SVG Export Plug-In . SVG Version: 6.00 Build 0)  -->
<svg version="1.1" id="Illustration" xmlns="http://www.w3.org/2000/svg" xmlns:xlink="http://www.w3.org/1999/xlink" x="0px"
	 y="0px" viewBox="0 0 3066.08 2076.07" style="enable-background:new 0 0 3066.08 2076.07;" xml:space="preserve">
<style type="text/css">
	.st0{fill:#F8EFF2;}
	.st1{fill:#2E2E2E;}
	.st2{fill:#FFFFFF;}
	.st3{fill:#D395AB;}
	.st4{fill:#BB5A7D;}
	.st5{fill:#C1C7D6;}
</style>
<path id="die" class="st0" d="M405.94,2070.23c-45.45-65.47-122.02-194.51-146.98-374.38c-11.42-82.31-27.46-286.36,76.6-487.72
	c62.8-121.52,109.43-126.13,303.74-318.55c296.4-293.52,327.05-402.71,585.25-592.66c185.19-136.24,271.52-153.6,314.85-159.28
	c231.17-30.3,421.12,116.74,455.6,144.46c233.59,187.75,160,387.05,418.56,622.29c136.3,124.01,188.32,97.34,285.22,188.91
	c136.67,129.15,253.59,390.46,147.2,974.87C2032.63,2068.87,1219.29,2069.55,405.94,2070.23z"/>
<g id="decor">
	<g>
		<path class="st1" d="M2446.11,84.46c-11.34,0-20.56-9.24-20.56-20.6c0-11.34,9.22-20.58,20.56-20.58
			c11.35,0,20.57,9.24,20.57,20.58C2466.69,75.22,2457.46,84.46,2446.11,84.46z"/>
		<path class="st1" d="M2666.7,84.46c-11.34,0-20.56-9.24-20.56-20.6c0-11.34,9.22-20.58,20.56-20.58s20.56,9.24,20.56,20.58
			C2687.27,75.22,2678.04,84.46,2666.7,84.46z"/>
		<path class="st1" d="M2887.29,84.46c-11.35,0-20.57-9.24-20.57-20.6c0-11.34,9.22-20.58,20.57-20.58
			c11.34,0,20.56,9.24,20.56,20.58C2907.86,75.22,2898.63,84.46,2887.29,84.46z"/>
		<path class="st1" d="M2446.11,302.61c-11.34,0-20.56-9.24-20.56-20.58c0-11.34,9.22-20.58,20.56-20.58
			c11.35,0,20.57,9.24,20.57,20.58C2466.69,293.37,2457.46,302.61,2446.11,302.61z"/>
		<ellipse class="st1" cx="2666.7" cy="282.03" rx="20.56" ry="20.58"/>
		<path class="st1" d="M2887.29,302.61c-11.35,0-20.57-9.24-20.57-20.58c0-11.34,9.22-20.58,20.57-20.58
			c11.34,0,20.56,9.24,20.56,20.58C2907.86,293.37,2898.63,302.61,2887.29,302.61z"/>
		<path class="st1" d="M2446.11,521.12c-11.34,0-20.56-9.24-20.56-20.6c0-11.34,9.22-20.58,20.56-20.58
			c11.35,0,20.57,9.24,20.57,20.58C2466.69,511.88,2457.46,521.12,2446.11,521.12z"/>
		<path class="st1" d="M2666.7,521.12c-11.34,0-20.56-9.24-20.56-20.6c0-11.34,9.22-20.58,20.56-20.58s20.56,9.24,20.56,20.58
			C2687.27,511.88,2678.04,521.12,2666.7,521.12z"/>
		<path class="st1" d="M2887.29,521.12c-11.35,0-20.57-9.24-20.57-20.6c0-11.34,9.22-20.58,20.57-20.58
			c11.34,0,20.56,9.24,20.56,20.58C2907.86,511.88,2898.63,521.12,2887.29,521.12z"/>
	</g>
	<g>
		<path class="st1" d="M392.36,1678.91c-8.68,0-15.73-7.07-15.73-15.77c0-8.68,7.06-15.75,15.73-15.75
			c8.69,0,15.74,7.07,15.74,15.75C408.1,1671.84,401.05,1678.91,392.36,1678.91z"/>
		<path class="st1" d="M561.15,1678.91c-8.68,0-15.73-7.07-15.73-15.77c0-8.68,7.06-15.75,15.73-15.75s15.73,7.07,15.73,15.75
			C576.88,1671.84,569.83,1678.91,561.15,1678.91z"/>
		<path class="st1" d="M729.94,1678.91c-8.69,0-15.74-7.07-15.74-15.77c0-8.68,7.06-15.75,15.74-15.75
			c8.68,0,15.73,7.07,15.73,15.75C745.67,1671.84,738.62,1678.91,729.94,1678.91z"/>
		<path class="st1" d="M392.36,1845.83c-8.68,0-15.73-7.07-15.73-15.75c0-8.68,7.06-15.75,15.73-15.75
			c8.69,0,15.74,7.07,15.74,15.75C408.1,1838.76,401.05,1845.83,392.36,1845.83z"/>
		<ellipse class="st1" cx="561.15" cy="1830.08" rx="15.73" ry="15.75"/>
		<path class="st1" d="M729.94,1845.83c-8.69,0-15.74-7.07-15.74-15.75c0-8.68,7.06-15.75,15.74-15.75
			c8.68,0,15.73,7.07,15.73,15.75C745.67,1838.76,738.62,1845.83,729.94,1845.83z"/>
		<path class="st1" d="M392.36,2013.03c-8.68,0-15.73-7.07-15.73-15.77c0-8.68,7.06-15.75,15.73-15.75
			c8.69,0,15.74,7.07,15.74,15.75C408.1,2005.96,401.05,2013.03,392.36,2013.03z"/>
		<path class="st1" d="M561.15,2013.03c-8.68,0-15.73-7.07-15.73-15.77c0-8.68,7.06-15.75,15.73-15.75s15.73,7.07,15.73,15.75
			C576.88,2005.96,569.83,2013.03,561.15,2013.03z"/>
		<path class="st1" d="M729.94,2013.03c-8.69,0-15.74-7.07-15.74-15.77c0-8.68,7.06-15.75,15.74-15.75
			c8.68,0,15.73,7.07,15.73,15.75C745.67,2005.96,738.62,2013.03,729.94,2013.03z"/>
	</g>
	<g>
		<path class="st1" d="M553.65,1725.68c-2.94,0-5.46-2.22-5.76-5.21c-1.35-13.12-3.46-26.41-6.29-39.5
			c-0.68-3.13,1.31-6.22,4.45-6.89c3.13-0.67,6.22,1.32,6.89,4.45c2.91,13.5,5.1,27.21,6.49,40.76c0.33,3.19-1.99,6.04-5.18,6.36
			C554.05,1725.67,553.85,1725.68,553.65,1725.68z M536.62,1646.33c-2.44,0-4.71-1.55-5.51-4c-4.05-12.38-8.84-25-14.25-37.5
			c-1.27-2.94,0.08-6.35,3.02-7.63c2.94-1.27,6.35,0.08,7.63,3.02c5.55,12.83,10.47,25.78,14.63,38.5c1,3.05-0.67,6.32-3.71,7.32
			C537.83,1646.24,537.22,1646.33,536.62,1646.33z M504.52,1571.72c-2.08,0-4.09-1.12-5.13-3.08c-6.04-11.37-12.8-23.12-20.09-34.91
			c-1.68-2.72-0.84-6.3,1.88-7.98c2.72-1.68,6.3-0.84,7.98,1.88c7.43,12.01,14.32,23.98,20.47,35.58c1.5,2.83,0.43,6.34-2.4,7.84
			C506.37,1571.5,505.44,1571.72,504.52,1571.72z M461.94,1502.46c-1.84,0-3.65-0.87-4.78-2.5c-7.11-10.29-14.84-21.04-23.63-32.86
			c-1.91-2.57-1.38-6.2,1.19-8.12c2.57-1.91,6.2-1.38,8.12,1.19c8.87,11.93,16.68,22.79,23.86,33.19c1.82,2.63,1.16,6.25-1.48,8.07
			C464.22,1502.13,463.08,1502.46,461.94,1502.46z M413.6,1437.04c-1.74,0-3.46-0.78-4.6-2.27l-6.66-8.65
			c-6.05-7.86-12.23-15.63-18.39-23.11c-2.04-2.47-1.68-6.13,0.79-8.16c2.47-2.04,6.13-1.68,8.16,0.79
			c6.24,7.57,12.5,15.45,18.63,23.41l6.66,8.66c1.95,2.54,1.48,6.18-1.06,8.13C416.08,1436.65,414.83,1437.04,413.6,1437.04z
			 M361.84,1374.41c-1.58,0-3.15-0.64-4.29-1.9c-8.84-9.72-17.95-19.27-27.86-29.2c-2.26-2.27-2.26-5.94,0.01-8.2
			c2.27-2.26,5.94-2.26,8.2,0.01c10.03,10.06,19.26,19.73,28.23,29.58c2.16,2.37,1.98,6.04-0.39,8.19
			C364.63,1373.91,363.24,1374.41,361.84,1374.41z M304.65,1316.72c-1.44,0-2.87-0.53-4-1.6l-3.85-3.66
			c-8.97-8.52-17.44-16.57-25.51-24.63c-2.27-2.26-2.27-5.94,0-8.2c2.26-2.27,5.94-2.27,8.2,0c7.96,7.96,16.38,15.96,25.3,24.42
			l3.85,3.66c2.32,2.21,2.41,5.88,0.21,8.2C307.72,1316.11,306.19,1316.72,304.65,1316.72z M248,1258.59c-1.68,0-3.35-0.73-4.5-2.14
			c-8.98-11.03-16.73-22.15-23.7-34c-1.62-2.76-0.7-6.32,2.06-7.94c2.76-1.62,6.32-0.7,7.94,2.06
			c6.66,11.34,14.08,21.98,22.69,32.55c2.02,2.48,1.65,6.14-0.83,8.16C250.58,1258.16,249.29,1258.59,248,1258.59z M206.84,1188.94
			c-2.28,0-4.44-1.35-5.36-3.58c-1.57-3.79-3.12-7.73-4.61-11.71c-0.41-1.08-4.09-11.08-8.44-27.62c-0.82-3.1,1.04-6.27,4.13-7.09
			c3.1-0.81,6.27,1.04,7.08,4.13c4.21,15.99,7.7,25.48,8.09,26.51c1.44,3.85,2.94,7.67,4.46,11.34c1.23,2.96-0.18,6.35-3.14,7.58
			C208.33,1188.8,207.58,1188.94,206.84,1188.94z M185.46,1110.58c-2.78,0-5.23-2-5.71-4.83c-2.31-13.59-4.04-27.34-5.14-40.86
			c-0.26-3.19,2.12-5.99,5.31-6.25c3.19-0.25,5.99,2.12,6.25,5.31c1.07,13.18,2.75,26.59,5.01,39.85c0.54,3.16-1.59,6.15-4.74,6.69
			C186.12,1110.56,185.79,1110.58,185.46,1110.58z M179,1029.6c-0.03,0-0.05,0-0.08,0c-3.2-0.04-5.76-2.68-5.72-5.88
			c0.19-13.94,1.09-27.79,2.68-41.16c0.38-3.18,3.26-5.44,6.44-5.08c3.18,0.38,5.45,3.26,5.08,6.44
			c-1.54,12.97-2.42,26.41-2.6,39.95C184.75,1027.05,182.17,1029.6,179,1029.6z M188.74,949.02c-0.45,0-0.9-0.05-1.35-0.16
			c-3.12-0.74-5.04-3.87-4.29-6.99c3.16-13.25,7.18-26.55,11.93-39.52c1.1-3.01,4.43-4.55,7.44-3.45c3.01,1.1,4.55,4.43,3.45,7.44
			c-4.6,12.55-8.48,25.41-11.54,38.23C193.74,947.23,191.36,949.02,188.74,949.02z M216.56,872.84c-0.87,0-1.75-0.2-2.58-0.61
			c-2.87-1.43-4.03-4.91-2.61-7.78c6.04-12.13,12.87-24.2,20.31-35.9c1.72-2.7,5.3-3.5,8.01-1.78c2.7,1.72,3.5,5.3,1.78,8.01
			c-7.22,11.35-13.85,23.08-19.71,34.85C220.74,871.66,218.69,872.84,216.56,872.84z M260.03,804.28c-1.25,0-2.51-0.4-3.57-1.23
			c-2.52-1.97-2.97-5.62-1-8.14c8.31-10.64,17.32-21.16,26.78-31.26c2.19-2.34,5.86-2.46,8.2-0.27c2.34,2.19,2.46,5.86,0.27,8.2
			c-9.23,9.85-18.01,20.1-26.11,30.47C263.46,803.51,261.75,804.28,260.03,804.28z M315.5,744.93c-1.58,0-3.16-0.64-4.31-1.91
			c-2.15-2.38-1.96-6.04,0.41-8.19c10.01-9.04,20.62-17.91,31.55-26.34c2.54-1.96,6.18-1.49,8.14,1.05
			c1.96,2.54,1.49,6.18-1.05,8.14c-10.69,8.25-21.08,16.92-30.86,25.77C318.27,744.44,316.88,744.93,315.5,744.93z M379.78,695.23
			c-1.88,0-3.73-0.91-4.84-2.6c-1.77-2.67-1.04-6.27,1.63-8.04c11.26-7.45,23.03-14.68,35-21.47c2.79-1.58,6.33-0.6,7.91,2.18
			c1.58,2.79,0.61,6.33-2.18,7.91c-11.73,6.66-23.28,13.75-34.32,21.05C381.99,694.92,380.88,695.23,379.78,695.23z M450.43,655.07
			c-2.15,0-4.22-1.2-5.22-3.27c-1.4-2.88-0.19-6.35,2.69-7.75c12.16-5.9,24.76-11.53,37.45-16.74c2.96-1.22,6.35,0.2,7.57,3.16
			c1.22,2.96-0.2,6.35-3.16,7.57c-12.46,5.12-24.84,10.65-36.79,16.45C452.15,654.88,451.28,655.07,450.43,655.07z M525.61,624.16
			c-2.41,0-4.66-1.51-5.49-3.92c-1.04-3.03,0.58-6.33,3.61-7.37c12.8-4.39,25.98-8.48,39.15-12.17c3.09-0.86,6.29,0.94,7.15,4.02
			c0.86,3.09-0.94,6.29-4.02,7.15c-12.96,3.62-25.92,7.65-38.51,11.97C526.87,624.06,526.23,624.16,525.61,624.16z M603.88,602.24
			c-2.66,0-5.06-1.84-5.66-4.55c-0.69-3.13,1.29-6.22,4.42-6.91c6.41-1.41,12.94-2.76,19.41-4.01c3.15-0.61,6.19,1.45,6.79,4.6
			c0.61,3.15-1.45,6.19-4.6,6.79c-6.37,1.23-12.8,2.56-19.12,3.95C604.72,602.2,604.3,602.24,603.88,602.24z"/>
	</g>
	<g>
		<path class="st1" d="M2656.02,2061.53c-0.26,0-0.52-0.02-0.79-0.05c-3.17-0.43-5.4-3.35-4.97-6.53
			c1.62-11.92,3.22-23.65,4.8-35.21c0.44-3.17,3.37-5.39,6.54-4.96c3.17,0.43,5.39,3.36,4.96,6.53c-1.58,11.55-3.19,23.29-4.8,35.2
			C2661.37,2059.42,2658.88,2061.53,2656.02,2061.53z M2666.38,1986.04c-0.27,0-0.54-0.02-0.81-0.06c-3.17-0.44-5.39-3.37-4.95-6.54
			c1.9-13.69,3.78-27.11,5.63-40.28c0.45-3.17,3.39-5.38,6.55-4.93c3.17,0.45,5.38,3.38,4.94,6.55
			c-1.85,13.16-3.73,26.58-5.63,40.26C2671.72,1983.94,2669.23,1986.04,2666.38,1986.04z M2677.72,1905.52
			c-0.27,0-0.55-0.02-0.83-0.06c-3.17-0.45-5.38-3.39-4.92-6.56c1.96-13.72,3.89-27.14,5.8-40.26c0.46-3.17,3.4-5.37,6.57-4.91
			c3.17,0.46,5.37,3.4,4.91,6.57c-1.9,13.11-3.83,26.52-5.79,40.23C2683.04,1903.43,2680.56,1905.52,2677.72,1905.52z
			 M2689.41,1825.04c-0.28,0-0.57-0.02-0.85-0.06c-3.17-0.47-5.36-3.42-4.89-6.59c2.03-13.76,4.04-27.17,6-40.23
			c0.48-3.17,3.43-5.35,6.6-4.87c3.17,0.48,5.35,3.43,4.87,6.6c-1.97,13.05-3.97,26.44-6,40.2
			C2694.72,1822.97,2692.24,1825.04,2689.41,1825.04z M2701.54,1744.64c-0.29,0-0.59-0.02-0.89-0.07c-3.17-0.49-5.34-3.45-4.85-6.62
			c2.11-13.71,4.23-27.24,6.28-40.19c0.5-3.17,3.48-5.31,6.63-4.82c3.16,0.5,5.32,3.47,4.82,6.64c-2.05,12.94-4.16,26.45-6.27,40.15
			C2706.82,1742.59,2704.35,1744.64,2701.54,1744.64z M2714.26,1664.33c-0.31,0-0.62-0.02-0.94-0.08c-3.16-0.52-5.31-3.5-4.79-6.66
			c2.27-13.9,4.51-27.4,6.66-40.14c0.53-3.16,3.52-5.28,6.69-4.75c3.16,0.53,5.29,3.53,4.75,6.69c-2.15,12.71-4.38,26.2-6.64,40.07
			C2719.51,1662.31,2717.05,1664.33,2714.26,1664.33z M2727.81,1584.16c-0.33,0-0.67-0.03-1.01-0.09c-3.16-0.56-5.26-3.56-4.71-6.72
			c2.45-13.93,4.89-27.41,7.24-40.06c0.58-3.15,3.6-5.23,6.76-4.64c3.15,0.58,5.23,3.61,4.64,6.76
			c-2.34,12.61-4.77,26.05-7.22,39.95C2733.02,1582.18,2730.57,1584.16,2727.81,1584.16z M2742.71,1504.23
			c-0.38,0-0.76-0.04-1.14-0.11c-3.14-0.63-5.18-3.68-4.56-6.82c2.86-14.36,5.66-27.79,8.33-39.91c0.69-3.13,3.78-5.1,6.91-4.42
			c3.13,0.69,5.11,3.78,4.42,6.91c-2.65,12.04-5.43,25.39-8.28,39.68C2747.84,1502.32,2745.42,1504.23,2742.71,1504.23z
			 M2760.37,1424.89c-0.48,0-0.97-0.06-1.46-0.19c-3.1-0.8-4.96-3.97-4.16-7.07c4.27-16.48,8.3-29.76,11.99-39.47
			c1.14-2.99,4.49-4.5,7.48-3.36c2.99,1.14,4.5,4.49,3.36,7.48c-3.54,9.31-7.44,22.18-11.6,38.25
			C2765.31,1423.15,2762.95,1424.89,2760.37,1424.89z M2793.99,1352.09c-1.19,0-2.39-0.37-3.42-1.12c-2.58-1.89-3.14-5.52-1.25-8.11
			c7.84-10.69,15.15-21.98,21.75-33.56c1.58-2.78,5.12-3.76,7.91-2.17c2.78,1.58,3.75,5.13,2.17,7.91
			c-6.81,11.97-14.38,23.64-22.47,34.68C2797.53,1351.27,2795.77,1352.09,2793.99,1352.09z M2834.15,1281.54
			c-0.76,0-1.53-0.15-2.27-0.46c-2.95-1.25-4.32-4.66-3.07-7.61c1.46-3.44,2.89-6.96,4.24-10.46c3.43-8.87,6.52-18.01,9.19-27.17
			c0.9-3.07,4.11-4.84,7.19-3.94c3.07,0.9,4.84,4.12,3.94,7.19c-2.76,9.47-5.96,18.92-9.51,28.1c-1.4,3.62-2.88,7.26-4.39,10.82
			C2838.55,1280.22,2836.4,1281.54,2834.15,1281.54z M2856.94,1203.66c-0.32,0-0.65-0.03-0.98-0.08c-3.16-0.54-5.28-3.54-4.74-6.69
			c2.21-12.94,3.75-26.32,4.57-39.76c0.2-3.2,2.94-5.64,6.14-5.43c3.2,0.2,5.63,2.95,5.43,6.14c-0.85,13.85-2.44,27.65-4.72,41
			C2862.17,1201.66,2859.71,1203.66,2856.94,1203.66z M2862.02,1122.63c-3.1,0-5.67-2.46-5.79-5.58c-0.49-13-1.6-26.46-3.31-40.01
			c-0.4-3.18,1.85-6.08,5.03-6.48c3.17-0.4,6.08,1.85,6.48,5.03c1.75,13.88,2.89,27.69,3.39,41.03c0.12,3.2-2.38,5.89-5.58,6.01
			C2862.17,1122.62,2862.09,1122.63,2862.02,1122.63z M2852.08,1041.98c-2.71,0-5.13-1.91-5.68-4.67c-1.66-8.34-3.34-15.94-4.9-22.9
			c-1.25-5.59-2.55-10.97-3.97-16.46c-0.8-3.1,1.06-6.27,4.16-7.07c3.1-0.8,6.27,1.06,7.07,4.16c1.45,5.61,2.78,11.12,4.06,16.83
			c1.58,7.03,3.27,14.71,4.96,23.17c0.63,3.14-1.41,6.2-4.55,6.82C2852.83,1041.94,2852.45,1041.98,2852.08,1041.98z
			 M2831.47,963.33c-2.42,0-4.67-1.52-5.49-3.94c-4.27-12.57-9.08-25.24-14.29-37.64c-1.24-2.95,0.15-6.35,3.1-7.59
			c2.95-1.24,6.35,0.15,7.59,3.1c5.32,12.65,10.22,25.57,14.58,38.4c1.03,3.03-0.59,6.33-3.63,7.36
			C2832.72,963.23,2832.09,963.33,2831.47,963.33z M2800.01,888.38c-2.12,0-4.17-1.17-5.19-3.2c-6-11.93-12.49-23.82-19.3-35.35
			c-1.63-2.76-0.71-6.32,2.04-7.94c2.76-1.63,6.32-0.71,7.94,2.05c6.94,11.75,13.56,23.87,19.67,36.03
			c1.44,2.86,0.29,6.35-2.58,7.79C2801.77,888.19,2800.88,888.38,2800.01,888.38z M2758.68,818.39c-1.85,0-3.67-0.88-4.79-2.52
			c-7.54-11.02-15.56-21.94-23.84-32.46c-1.98-2.52-1.54-6.16,0.97-8.15c2.52-1.98,6.16-1.55,8.14,0.97
			c8.43,10.72,16.61,21.85,24.3,33.08c1.81,2.64,1.13,6.25-1.51,8.06C2760.95,818.06,2759.81,818.39,2758.68,818.39z
			 M2708.72,754.33c-1.62,0-3.24-0.68-4.38-2c-9.11-10.5-18.27-20.48-27.23-29.66c-2.24-2.29-2.19-5.97,0.1-8.2
			c2.3-2.24,5.97-2.19,8.2,0.1c9.11,9.35,18.42,19.49,27.68,30.16c2.1,2.42,1.84,6.08-0.58,8.18
			C2711.42,753.86,2710.07,754.33,2708.72,754.33z M2651.95,696.34c-1.37,0-2.75-0.48-3.86-1.47c-9.85-8.78-19.97-17.16-30.93-25.63
			c-2.54-1.96-3-5.6-1.05-8.14c1.96-2.54,5.6-3,8.14-1.05c11.18,8.63,21.5,17.19,31.56,26.15c2.39,2.13,2.6,5.8,0.47,8.19
			C2655.14,695.69,2653.55,696.34,2651.95,696.34z M2587.94,646.51c-1.15,0-2.31-0.34-3.32-1.05c-6.5-4.56-12.94-8.99-19.75-13.69
			c-4.48-3.09-9.01-6.21-13.6-9.4c-2.63-1.83-3.28-5.44-1.46-8.07c1.83-2.63,5.44-3.28,8.07-1.46c4.58,3.18,9.1,6.3,13.57,9.38
			c6.83,4.71,13.29,9.16,19.83,13.74c2.62,1.84,3.26,5.46,1.42,8.08C2591.57,645.64,2589.77,646.51,2587.94,646.51z M2521.51,599.83
			c-1.2,0-2.4-0.37-3.44-1.13c-11.27-8.32-21.85-16.48-32.34-24.95c-2.49-2.01-2.88-5.66-0.87-8.16c2.01-2.49,5.66-2.88,8.16-0.87
			c10.36,8.36,20.81,16.42,31.95,24.65c2.58,1.9,3.12,5.53,1.22,8.11C2525.04,599.02,2523.29,599.83,2521.51,599.83z M596.13,578.95
			c-0.66,0-1.33-0.11-1.98-0.35c-3.01-1.09-4.56-4.42-3.47-7.43c4.72-12.98,9.56-25.82,14.4-38.16c1.17-2.98,4.53-4.45,7.52-3.29
			c2.98,1.17,4.45,4.53,3.29,7.52c-4.8,12.26-9.61,25.01-14.3,37.9C600.72,577.49,598.5,578.95,596.13,578.95z M2458.32,548.85
			c-1.36,0-2.73-0.48-3.83-1.45c-9.91-8.73-20.04-18-30.12-27.58c-2.32-2.21-2.42-5.88-0.21-8.2c2.21-2.32,5.88-2.42,8.2-0.21
			c9.97,9.47,19.99,18.65,29.79,27.28c2.4,2.12,2.64,5.78,0.52,8.19C2461.53,548.19,2459.93,548.85,2458.32,548.85z M625.81,503.28
			c-0.75,0-1.52-0.15-2.26-0.46c-2.95-1.25-4.33-4.65-3.08-7.6c5.41-12.76,10.96-25.32,16.51-37.34c1.34-2.91,4.79-4.18,7.7-2.84
			c2.91,1.34,4.18,4.79,2.84,7.7c-5.5,11.91-11,24.36-16.36,37.01C630.22,501.95,628.07,503.28,625.81,503.28z M2399.39,492.94
			c-1.5,0-3-0.58-4.14-1.73c-9.62-9.79-19.07-19.76-28.09-29.66c-2.16-2.37-1.99-6.04,0.38-8.19c2.37-2.16,6.04-1.99,8.19,0.38
			c8.92,9.79,18.27,19.66,27.79,29.34c2.25,2.28,2.21,5.96-0.07,8.2C2402.33,492.39,2400.86,492.94,2399.39,492.94z M2344.69,432.88
			c-1.65,0-3.3-0.7-4.44-2.07c-8.72-10.37-17.34-21.08-25.64-31.82c-1.96-2.54-1.49-6.18,1.04-8.14c2.54-1.96,6.18-1.49,8.14,1.04
			c8.2,10.62,16.73,21.2,25.34,31.45c2.06,2.45,1.74,6.11-0.71,8.17C2347.33,432.43,2346.01,432.88,2344.69,432.88z M659.92,429.5
			c-0.88,0-1.77-0.2-2.61-0.63c-2.86-1.45-4-4.94-2.56-7.79c6.29-12.42,12.75-24.57,19.21-36.09c1.57-2.79,5.1-3.79,7.9-2.23
			c2.79,1.57,3.79,5.1,2.23,7.9c-6.38,11.39-12.76,23.38-18.98,35.66C664.08,428.34,662.04,429.5,659.92,429.5z M2295.01,368.6
			c-1.81,0-3.6-0.85-4.73-2.44c-7.41-10.41-14.77-21.09-23.14-33.61c-1.78-2.66-1.07-6.27,1.6-8.05c2.66-1.78,6.27-1.07,8.05,1.6
			c8.31,12.42,15.6,23.01,22.94,33.33c1.86,2.61,1.25,6.23-1.36,8.09C2297.35,368.25,2296.17,368.6,2295.01,368.6z M699.73,358.66
			c-1.05,0-2.12-0.29-3.08-0.89c-2.71-1.7-3.53-5.28-1.83-8c7.44-11.87,15.1-23.33,22.77-34.08c1.86-2.61,5.48-3.22,8.09-1.35
			c2.61,1.86,3.21,5.48,1.36,8.09c-7.53,10.56-15.06,21.83-22.38,33.51C703.54,357.69,701.66,358.66,699.73,358.66z M1408.38,326.51
			l-0.8,0c-3.2-0.01-5.8-2.61-5.79-5.81c0.01-3.2,2.6-5.79,5.8-5.79c0,0,0.01,0,0.01,0l0.77,0c12.86,0,26.05-0.7,39.2-2.09
			c3.19-0.34,6.04,1.98,6.38,5.16c0.33,3.19-1.98,6.04-5.16,6.38C1435.23,325.78,1421.64,326.51,1408.38,326.51z M1367.06,324.13
			c-0.22,0-0.45-0.01-0.68-0.04c-13.51-1.57-27.19-3.95-40.65-7.07c-3.12-0.72-5.06-3.84-4.34-6.96c0.72-3.12,3.84-5.07,6.96-4.34
			c13.04,3.02,26.28,5.33,39.37,6.84c3.18,0.37,5.46,3.25,5.09,6.43C1372.47,321.95,1369.97,324.13,1367.06,324.13z M1488.28,318.01
			c-2.66,0-5.06-1.84-5.66-4.55c-0.69-3.13,1.29-6.22,4.41-6.91c13.48-2.97,25.92-6.68,38.05-11.35c2.99-1.15,6.35,0.34,7.5,3.33
			c1.15,2.99-0.34,6.35-3.33,7.5c-12.68,4.88-25.67,8.75-39.72,11.85C1489.11,317.96,1488.69,318.01,1488.28,318.01z
			 M1288.01,305.94c-0.62,0-1.26-0.1-1.88-0.31c-12.57-4.31-25.09-9.23-38.28-15.04c-2.93-1.29-4.26-4.72-2.97-7.65
			c1.29-2.93,4.72-4.26,7.65-2.97c12.89,5.68,25.11,10.48,37.37,14.68c3.03,1.04,4.64,4.34,3.6,7.37
			C1292.67,304.43,1290.42,305.94,1288.01,305.94z M2249.59,301.22c-1.89,0-3.74-0.92-4.85-2.61c-8.43-12.8-15.5-23.39-22.66-33.46
			c-1.86-2.61-1.24-6.23,1.37-8.09c2.61-1.86,6.23-1.24,8.09,1.37c7.26,10.21,14.4,20.9,22.9,33.8c1.76,2.68,1.02,6.27-1.66,8.03
			C2251.79,300.91,2250.68,301.22,2249.59,301.22z M747.02,292.61c-1.3,0-2.61-0.44-3.69-1.33c-2.47-2.04-2.82-5.7-0.78-8.17
			c8.99-10.88,18.25-21.16,27.51-30.58c2.25-2.28,5.92-2.31,8.2-0.06c2.28,2.25,2.31,5.92,0.06,8.2
			c-9.03,9.17-18.06,19.21-26.84,29.83C750.35,291.89,748.69,292.61,747.02,292.61z M1563.89,289.11c-2.05,0-4.03-1.09-5.09-3.01
			c-1.54-2.81-0.52-6.33,2.29-7.88c11.65-6.41,23.37-13.61,34.71-20.57c2.73-1.68,6.3-0.82,7.98,1.91c1.68,2.73,0.82,6.3-1.91,7.98
			c-11.45,7.04-23.3,14.31-35.19,20.85C1565.79,288.88,1564.83,289.11,1563.89,289.11z M1213.54,273.47c-0.9,0-1.8-0.21-2.65-0.65
			c-10.62-5.48-22.04-11.65-35.95-19.43c-2.8-1.56-3.79-5.1-2.23-7.89c1.56-2.79,5.1-3.79,7.89-2.23
			c13.79,7.71,25.1,13.83,35.6,19.25c2.85,1.47,3.96,4.97,2.5,7.81C1217.67,272.33,1215.64,273.47,1213.54,273.47z M1633.66,247.46
			c-2,0-3.95-1.04-5.03-2.9c-1.6-2.77-0.65-6.32,2.12-7.92c11.85-6.84,23.19-13.01,34.69-18.87l1.31-0.66
			c2.86-1.45,6.35-0.31,7.8,2.55c1.45,2.86,0.31,6.35-2.55,7.8l-1.28,0.65c-11.31,5.76-22.49,11.84-34.15,18.58
			C1635.64,247.21,1634.64,247.46,1633.66,247.46z M2201.81,235.62c-1.61,0-3.21-0.67-4.35-1.97c-9.28-10.54-18.59-19.5-28.47-27.39
			c-2.5-2-2.91-5.65-0.91-8.15c2-2.5,5.65-2.91,8.15-0.91c10.41,8.32,20.2,17.74,29.94,28.79c2.12,2.4,1.88,6.07-0.52,8.19
			C2204.54,235.14,2203.17,235.62,2201.81,235.62z M804.15,234.97c-1.68,0-3.34-0.72-4.49-2.12c-2.03-2.48-1.67-6.13,0.81-8.16
			c10.95-8.98,22.24-17.11,33.55-24.18c2.72-1.7,6.3-0.87,7.99,1.85c1.7,2.72,0.87,6.29-1.85,7.99
			c-10.89,6.8-21.77,14.64-32.34,23.31C806.75,234.54,805.45,234.97,804.15,234.97z M1142.35,234.12c-0.96,0-1.94-0.24-2.84-0.75
			c-10.44-5.88-22.82-12.78-35.52-19.41c-2.84-1.48-3.94-4.98-2.46-7.83c1.48-2.84,4.98-3.94,7.82-2.46
			c12.85,6.7,25.34,13.66,35.85,19.59c2.79,1.57,3.78,5.11,2.21,7.9C1146.35,233.06,1144.38,234.12,1142.35,234.12z M1706.01,210.44
			c-2.2,0-4.31-1.26-5.28-3.4c-1.33-2.92-0.04-6.36,2.87-7.68c12.58-5.73,25.24-11.16,37.62-16.12c2.97-1.19,6.35,0.25,7.54,3.23
			c1.19,2.97-0.25,6.35-3.23,7.54c-12.22,4.9-24.71,10.25-37.13,15.91C1707.63,210.27,1706.81,210.44,1706.01,210.44z
			 M1070.02,197.03c-0.77,0-1.54-0.15-2.29-0.48c-13.18-5.68-25.44-10.17-37.49-13.73c-3.07-0.91-4.83-4.13-3.92-7.21
			c0.91-3.07,4.13-4.83,7.21-3.92c12.5,3.69,25.19,8.33,38.79,14.2c2.94,1.27,4.3,4.68,3.03,7.62
			C1074.4,195.72,1072.27,197.03,1070.02,197.03z M873.03,192.34c-2.25,0-4.39-1.31-5.33-3.51c-1.27-2.94,0.09-6.35,3.04-7.62
			c12.84-5.53,26.1-9.97,39.42-13.2c3.12-0.75,6.25,1.16,7.01,4.27c0.76,3.11-1.15,6.25-4.27,7.01
			c-12.68,3.08-25.33,7.32-37.57,12.58C874.57,192.18,873.79,192.34,873.03,192.34z M2138.65,185.45c-0.91,0-1.82-0.21-2.68-0.66
			c-11.19-5.85-23.12-10.9-36.5-15.46c-3.03-1.03-4.65-4.33-3.62-7.36c1.03-3.03,4.33-4.65,7.36-3.62
			c13.95,4.74,26.42,10.03,38.14,16.16c2.84,1.48,3.94,4.99,2.45,7.83C2142.76,184.32,2140.74,185.45,2138.65,185.45z
			 M1781.5,180.26c-2.41,0-4.67-1.52-5.49-3.93c-1.04-3.03,0.58-6.33,3.62-7.36c13.39-4.57,26.59-8.63,39.22-12.06
			c3.09-0.84,6.28,0.98,7.12,4.08c0.84,3.09-0.98,6.28-4.08,7.12c-12.39,3.37-25.35,7.36-38.51,11.85
			C1782.75,180.16,1782.12,180.26,1781.5,180.26z M992.21,174.66c-0.24,0-0.48-0.01-0.73-0.05c-8.88-1.11-17.85-1.67-26.67-1.67
			c-4.24,0-8.55,0.13-12.8,0.39c-3.19,0.2-5.95-2.24-6.14-5.44c-0.19-3.2,2.24-5.95,5.44-6.14c4.48-0.27,9.02-0.41,13.5-0.41
			c9.29,0,18.75,0.59,28.11,1.76c3.18,0.4,5.43,3.3,5.04,6.48C997.59,172.51,995.09,174.66,992.21,174.66z M1860,159.23
			c-2.74,0-5.18-1.95-5.7-4.75c-0.58-3.15,1.5-6.18,4.65-6.76c13.08-2.42,26.75-4.45,40.64-6.03c3.19-0.36,6.06,1.93,6.42,5.11
			c0.36,3.18-1.92,6.06-5.11,6.42c-13.62,1.55-27.02,3.54-39.84,5.91C1860.7,159.2,1860.35,159.23,1860,159.23z M2062.15,158.9
			c-0.4,0-0.81-0.04-1.22-0.13c-12.65-2.71-25.96-4.85-39.57-6.38c-3.18-0.36-5.47-3.23-5.12-6.41c0.36-3.18,3.22-5.47,6.41-5.12
			c13.98,1.57,27.68,3.78,40.7,6.57c3.13,0.67,5.13,3.75,4.46,6.89C2067.23,157.03,2064.82,158.9,2062.15,158.9z M1940.78,150.02
			c-3.08,0-5.65-2.43-5.79-5.54c-0.15-3.2,2.33-5.91,5.53-6.06c13.88-0.64,27.75-0.77,41.09-0.4c3.2,0.09,5.73,2.76,5.64,5.96
			c-0.09,3.2-2.75,5.72-5.96,5.64c-13.06-0.36-26.65-0.23-40.24,0.39C1940.96,150.02,1940.87,150.02,1940.78,150.02z"/>
	</g>
	<g>
		<g>
			<path class="st1" d="M295.44,487.91c-0.86,0-1.72-0.33-2.38-0.98l-32.14-32.14c-1.31-1.31-1.31-3.44,0-4.75
				c1.31-1.31,3.44-1.31,4.75,0l32.14,32.14c1.31,1.31,1.31,3.44,0,4.75C297.16,487.58,296.3,487.91,295.44,487.91z"/>
		</g>
		<g>
			<path class="st1" d="M263.29,487.91c-0.86,0-1.72-0.33-2.38-0.98c-1.31-1.31-1.31-3.44,0-4.75l32.14-32.14
				c1.31-1.31,3.44-1.31,4.75,0c1.31,1.31,1.31,3.44,0,4.75l-32.14,32.14C265.01,487.58,264.15,487.91,263.29,487.91z"/>
		</g>
	</g>
	<g>
		<g>
			<path class="st1" d="M58.94,1892.94c-2.07,0-4.07-1.11-5.12-3.06l-37.09-69.18c-1.51-2.82-0.45-6.34,2.37-7.85
				c2.82-1.51,6.34-0.45,7.85,2.37l37.09,69.18c1.51,2.82,0.45,6.34-2.37,7.85C60.81,1892.71,59.87,1892.94,58.94,1892.94z"/>
		</g>
		<g>
			<path class="st1" d="M5.81,1876.89c-2.07,0-4.07-1.11-5.12-3.06c-1.51-2.82-0.45-6.34,2.37-7.85l69.18-37.09
				c2.82-1.51,6.34-0.45,7.85,2.37c1.51,2.82,0.45,6.34-2.37,7.85L8.54,1876.2C7.67,1876.67,6.73,1876.89,5.81,1876.89z"/>
		</g>
	</g>
	<g>
		<g>
			<path class="st1" d="M3044.24,1819.23c-2.07,0-4.07-1.11-5.12-3.06l-37.09-69.18c-1.51-2.82-0.45-6.34,2.37-7.85
				c2.83-1.51,6.34-0.45,7.85,2.37l37.09,69.18c1.51,2.82,0.45,6.34-2.37,7.85C3046.1,1819.01,3045.17,1819.23,3044.24,1819.23z"/>
		</g>
		<g>
			<path class="st1" d="M2991.1,1803.19c-2.07,0-4.07-1.11-5.12-3.06c-1.51-2.82-0.45-6.34,2.37-7.85l69.18-37.09
				c2.83-1.51,6.34-0.45,7.85,2.37c1.51,2.82,0.45,6.34-2.37,7.85l-69.18,37.09C2992.97,1802.96,2992.03,1803.19,2991.1,1803.19z"/>
		</g>
	</g>
	<g>
		<g>
			<path class="st1" d="M1493.17,90.01c-0.09,0-0.19,0-0.28-0.01c-3.2-0.15-5.67-2.87-5.51-6.07l3.78-78.41
				c0.15-3.2,2.87-5.66,6.07-5.51c3.2,0.15,5.67,2.87,5.51,6.07l-3.78,78.41C1498.81,87.59,1496.24,90.01,1493.17,90.01z"/>
		</g>
		<g>
			<path class="st1" d="M1534.26,52.69c-0.09,0-0.19,0-0.28-0.01l-78.41-3.78c-3.2-0.15-5.67-2.87-5.51-6.07
				c0.15-3.2,2.85-5.68,6.07-5.51l78.41,3.78c3.2,0.15,5.67,2.87,5.51,6.07C1539.9,50.28,1537.34,52.69,1534.26,52.69z"/>
		</g>
	</g>
	<g>
		<g>
			<path class="st1" d="M2737.21,1063.87c-2.07,0-4.07-1.11-5.12-3.06L2695,991.64c-1.51-2.82-0.45-6.34,2.37-7.85
				c2.82-1.51,6.34-0.45,7.85,2.37l37.09,69.18c1.51,2.82,0.45,6.34-2.37,7.85C2739.08,1063.65,2738.14,1063.87,2737.21,1063.87z"/>
		</g>
		<g>
			<path class="st1" d="M2684.07,1047.83c-2.07,0-4.07-1.11-5.12-3.06c-1.51-2.82-0.45-6.34,2.37-7.85l69.18-37.09
				c2.82-1.51,6.34-0.45,7.85,2.37c1.51,2.82,0.45,6.34-2.37,7.85l-69.18,37.09C2685.94,1047.61,2685,1047.83,2684.07,1047.83z"/>
		</g>
	</g>
</g>
<g>
	<g>
		<path class="st1" d="M2489.02,1904.11H528.39c-40.69,0-73.8-33.11-73.8-73.8V469.86c0-40.69,33.11-73.8,73.8-73.8h1960.63
			c40.69,0,73.8,33.11,73.8,73.8v1360.46C2562.82,1871.01,2529.71,1904.11,2489.02,1904.11z M528.39,407.66
			c-34.3,0-62.2,27.9-62.2,62.2v1360.46c0,34.3,27.9,62.2,62.2,62.2h1960.63c34.3,0,62.2-27.9,62.2-62.2V469.86
			c0-34.3-27.9-62.2-62.2-62.2H528.39z"/>
	</g>
	<path class="st2" d="M2489.02,1898.32H528.39c-37.56,0-68-30.44-68-68V469.86c0-37.56,30.44-68,68-68h1960.63
		c37.56,0,68,30.44,68,68v1360.46C2557.02,1867.87,2526.57,1898.32,2489.02,1898.32z"/>
	<g>
		<path class="st1" d="M2489.02,1904.11H528.39c-40.69,0-73.8-33.11-73.8-73.8V469.86c0-40.69,33.11-73.8,73.8-73.8h1960.63
			c40.69,0,73.8,33.11,73.8,73.8v1360.46C2562.82,1871.01,2529.71,1904.11,2489.02,1904.11z M528.39,407.66
			c-34.3,0-62.2,27.9-62.2,62.2v1360.46c0,34.3,27.9,62.2,62.2,62.2h1960.63c34.3,0,62.2-27.9,62.2-62.2V469.86
			c0-34.3-27.9-62.2-62.2-62.2H528.39z"/>
	</g>
</g>
<g>
	<g>
		<path class="st1" d="M2026.65,556.38h-690.19c-3.2,0-5.8-2.6-5.8-5.8c0-3.2,2.6-5.8,5.8-5.8h690.19c3.2,0,5.8,2.6,5.8,5.8
			C2032.45,553.78,2029.85,556.38,2026.65,556.38z"/>
	</g>
	<g>
		<g>
			<path class="st1" d="M1585.43,649.58h-248.97c-3.2,0-5.8-2.6-5.8-5.8c0-3.2,2.6-5.8,5.8-5.8h248.97c3.2,0,5.8,2.6,5.8,5.8
				C1591.23,646.98,1588.63,649.58,1585.43,649.58z"/>
		</g>
		<g>
			<path class="st1" d="M1989.57,649.58h-329.13c-3.2,0-5.8-2.6-5.8-5.8c0-3.2,2.6-5.8,5.8-5.8h329.13c3.2,0,5.8,2.6,5.8,5.8
				C1995.37,646.98,1992.77,649.58,1989.57,649.58z"/>
		</g>
	</g>
	<g>
		<g>
			<path class="st1" d="M1448.49,745.17h-112.03c-3.2,0-5.8-2.6-5.8-5.8c0-3.2,2.6-5.8,5.8-5.8h112.03c3.2,0,5.8,2.6,5.8,5.8
				C1454.29,742.57,1451.69,745.17,1448.49,745.17z"/>
		</g>
		<g>
			<path class="st1" d="M1746.57,745.17H1508.7c-3.2,0-5.8-2.6-5.8-5.8c0-3.2,2.6-5.8,5.8-5.8h237.87c3.2,0,5.8,2.6,5.8,5.8
				C1752.37,742.57,1749.78,745.17,1746.57,745.17z"/>
		</g>
		<g>
			<path class="st1" d="M1914.1,742.78h-89.09c-3.2,0-5.8-2.6-5.8-5.8c0-3.2,2.6-5.8,5.8-5.8h89.09c3.2,0,5.8,2.6,5.8,5.8
				C1919.9,740.19,1917.3,742.78,1914.1,742.78z"/>
		</g>
	</g>
</g>
<g>
	<g>
		<g>
			<path class="st1" d="M925.68,1201.17H618.56c-3.2,0-5.8-2.6-5.8-5.8c0-3.2,2.6-5.8,5.8-5.8h307.12c3.2,0,5.8,2.6,5.8,5.8
				C931.48,1198.57,928.88,1201.17,925.68,1201.17z"/>
		</g>
		<g>
			<path class="st1" d="M1274.48,1201.17h-275.4c-3.2,0-5.8-2.6-5.8-5.8c0-3.2,2.6-5.8,5.8-5.8h275.4c3.2,0,5.8,2.6,5.8,5.8
				C1280.28,1198.57,1277.68,1201.17,1274.48,1201.17z"/>
		</g>
	</g>
	<g>
		<g>
			<path class="st1" d="M740.98,1320.82H618.56c-3.2,0-5.8-2.6-5.8-5.8s2.6-5.8,5.8-5.8h122.42c3.2,0,5.8,2.6,5.8,5.8
				S744.18,1320.82,740.98,1320.82z"/>
		</g>
		<g>
			<path class="st1" d="M1117.8,1320.82H818.75c-3.2,0-5.8-2.6-5.8-5.8s2.6-5.8,5.8-5.8h299.05c3.2,0,5.8,2.6,5.8,5.8
				S1121.01,1320.82,1117.8,1320.82z"/>
		</g>
	</g>
	<g>
		<g>
			<path class="st1" d="M925.68,1440.48H618.56c-3.2,0-5.8-2.6-5.8-5.8s2.6-5.8,5.8-5.8h307.12c3.2,0,5.8,2.6,5.8,5.8
				S928.88,1440.48,925.68,1440.48z"/>
		</g>
		<g>
			<path class="st1" d="M1088.1,1440.48H982.53c-3.2,0-5.8-2.6-5.8-5.8s2.6-5.8,5.8-5.8h105.58c3.2,0,5.8,2.6,5.8,5.8
				S1091.31,1440.48,1088.1,1440.48z"/>
		</g>
		<g>
			<path class="st1" d="M1240.91,1440.48h-94.59c-3.2,0-5.8-2.6-5.8-5.8s2.6-5.8,5.8-5.8h94.59c3.2,0,5.8,2.6,5.8,5.8
				S1244.12,1440.48,1240.91,1440.48z"/>
		</g>
	</g>
	<g>
		<g>
			<path class="st1" d="M825.29,1560.14H618.56c-3.2,0-5.8-2.6-5.8-5.8s2.6-5.8,5.8-5.8h206.73c3.2,0,5.8,2.6,5.8,5.8
				S828.5,1560.14,825.29,1560.14z"/>
		</g>
		<g>
			<path class="st1" d="M1221.46,1560.14H913.72c-3.2,0-5.8-2.6-5.8-5.8s2.6-5.8,5.8-5.8h307.74c3.2,0,5.8,2.6,5.8,5.8
				S1224.67,1560.14,1221.46,1560.14z"/>
		</g>
	</g>
	<g>
		<path class="st1" d="M1067.59,1679.8H618.56c-3.2,0-5.8-2.6-5.8-5.8s2.6-5.8,5.8-5.8h449.03c3.2,0,5.8,2.6,5.8,5.8
			S1070.8,1679.8,1067.59,1679.8z"/>
	</g>
	<g>
		<path class="st1" d="M1313.08,1799.46H618.56c-3.2,0-5.8-2.6-5.8-5.8c0-3.2,2.6-5.8,5.8-5.8h694.52c3.2,0,5.8,2.6,5.8,5.8
			C1318.88,1796.87,1316.28,1799.46,1313.08,1799.46z"/>
	</g>
</g>
<path class="st1" d="M2034.49,1037.06v-68.68c9.53-3.4,16.41-12.42,16.41-23.11c0-13.57-11.05-24.62-24.62-24.62
	c-2.82,0-5.5,0.57-8.03,1.45l-36.77-45.97c2.35-3.75,3.77-8.16,3.77-12.92c0-13.57-11.05-24.62-24.62-24.62
	c-6.9,0-13.12,2.87-17.6,7.46l-64.69-29.85c0.07-0.75,0.23-1.46,0.23-2.22c0-13.57-11.05-24.62-24.62-24.62
	c-10.68,0-19.71,6.89-23.11,16.41h-93.29c-3.4-9.53-12.42-16.41-23.11-16.41c-13.57,0-24.62,11.05-24.62,24.62
	c0,1.02,0.18,1.99,0.3,2.98l-40.7,20.35c-4.43-4.26-10.42-6.92-17.04-6.92c-13.57,0-24.62,11.05-24.62,24.62
	c0,4.76,1.42,9.17,3.76,12.93l-36.77,45.96c-2.53-0.88-5.19-1.45-8.02-1.45c-13.57,0-24.62,11.05-24.62,24.62
	c0,10.68,6.89,19.71,16.41,23.11v52.27c-9.53,3.39-16.41,12.42-16.41,23.1c0,13.57,11.05,24.62,24.62,24.62
	c9.12,0,17-5.04,21.25-12.42l44.8,8.15c1.9,11.69,11.99,20.68,24.22,20.68c0.34,0,0.64-0.08,0.97-0.1l15.66,39.14
	c-5.12,4.52-8.42,11.05-8.42,18.4c0,13.57,11.05,24.62,24.62,24.62c8.26,0,15.53-4.12,20-10.37l70.43,20.12
	c0.63,10,7.2,18.33,16.26,21.57v60.47c-9.53,3.4-16.41,12.42-16.41,23.11c0,13.57,11.05,24.62,24.62,24.62s24.62-11.05,24.62-24.62
	c0-10.68-6.89-19.71-16.41-23.11v-60.47c9.53-3.4,16.41-12.42,16.41-23.11c0-7.86-3.77-14.8-9.54-19.31l9.8-29.39l73.63,24.54
	c0.2,10.48,6.98,19.29,16.36,22.64v85.09c-9.53,3.4-16.41,12.42-16.41,23.11c0,13.57,11.05,24.62,24.62,24.62
	c13.57,0,24.62-11.05,24.62-24.62c0-10.68-6.89-19.71-16.41-23.11v-85.08c9.53-3.4,16.41-12.42,16.41-23.11c0-3-0.62-5.83-1.6-8.49
	l62.97-52.47c3.68,2.18,7.92,3.52,12.5,3.52c13.57,0,24.62-11.05,24.62-24.62C2050.9,1049.48,2044.02,1040.45,2034.49,1037.06z
	 M1681.57,1051.5c-0.02-0.98-0.16-1.93-0.3-2.88l67.32-34.9l20.82,67.07L1681.57,1051.5z M1663.26,1028.24l-11.37-87.22l56.24-2.81
	c3.57,8.65,11.93,14.77,21.76,15.17l13.78,44.4l-69.89,36.24C1670.83,1031.29,1667.24,1029.3,1663.26,1028.24z M1589.48,927.72
	c-0.52-1.26-1.18-2.44-1.9-3.58l36.77-45.96c0.95,0.33,1.89,0.68,2.88,0.89l6.06,46.46L1589.48,927.72z M1643.5,876.85
	c7.98-4.08,13.5-12.29,13.5-21.85c0-1.02-0.18-1.99-0.3-2.98l40.7-20.35c4.43,4.26,10.42,6.92,17.04,6.92
	c5.04,0,9.72-1.53,13.63-4.14l50.96,38.22l-36.9,34.43c-3.4-1.76-7.2-2.86-11.28-2.86c-11.11,0-20.42,7.44-23.47,17.58l-57.64,2.88
	L1643.5,876.85z M1831.41,823.8l-40.19,37.5l-52.17-39.12h91.79C1831.04,822.72,1831.18,823.27,1831.41,823.8z M1854.29,940.42
	l-66.04,34.24l-35.25-35.25c1.53-3.22,2.47-6.76,2.47-10.55c0-3.5-0.75-6.8-2.07-9.81l38.96-36.37l62.8,47.1
	c-0.72,2.31-1.22,4.73-1.22,7.29C1853.95,938.22,1854.14,939.31,1854.29,940.42z M1739.07,928.86c0,4.52-3.68,8.21-8.21,8.21
	c-4.53,0-8.21-3.68-8.21-8.21s3.68-8.21,8.21-8.21C1735.39,920.66,1739.07,924.34,1739.07,928.86z M1772.97,982.58l-14.52,7.53
	l-9.92-31.96L1772.97,982.58z M1763.4,1006.04l21.75-11.28l38.45,38.45c-1.53,3.21-2.46,6.75-2.46,10.55
	c0,7.87,3.77,14.8,9.54,19.31l-11.44,34.32l-30.64-10.22L1763.4,1006.04z M1845.75,1051.96c-4.53,0-8.21-3.68-8.21-8.21
	c0-4.52,3.68-8.21,8.21-8.21c4.53,0,8.21,3.68,8.21,8.21C1853.95,1048.27,1850.28,1051.96,1845.75,1051.96z M1845.75,1019.13
	c-3.79,0-7.34,0.93-10.55,2.47l-34.77-34.77l61.38-31.83c4.4,4.12,10.27,6.69,16.76,6.69c4.58,0,8.82-1.34,12.5-3.53l37.36,31.13
	l-66.33,36.18C1857.74,1021.58,1852.05,1019.13,1845.75,1019.13z M1948.97,884.76c3.49,1.9,7.43,3.08,11.67,3.08
	c2.82,0,5.49-0.57,8.02-1.45l36.77,45.97c-2.34,3.77-3.76,8.17-3.76,12.92c0,1.32,0.19,2.6,0.39,3.87l-58.12,31.71l-42.34-35.29
	c0.98-2.66,1.6-5.5,1.6-8.49c0-3.34-0.68-6.52-1.89-9.42L1948.97,884.76z M2013.8,1039.07l-56.3-46.92l52.45-28.61
	c2.36,2.12,5.1,3.76,8.15,4.84v68.68C2016.58,1037.6,2015.15,1038.26,2013.8,1039.07z M1886.78,937.07c0,4.52-3.68,8.21-8.21,8.21
	c-4.53,0-8.21-3.68-8.21-8.21s3.68-8.21,8.21-8.21C1883.1,928.86,1886.78,932.55,1886.78,937.07z M1941.99,1000.6l58.81,49.01
	l-127.41-11.59L1941.99,1000.6z M2034.49,945.28c0,4.52-3.68,8.21-8.21,8.21c-4.53,0-8.21-3.68-8.21-8.21s3.68-8.21,8.21-8.21
	C2030.82,937.07,2034.49,940.76,2034.49,945.28z M1960.64,855.01c4.53,0,8.21,3.68,8.21,8.21s-3.68,8.21-8.21,8.21
	c-4.53,0-8.21-3.68-8.21-8.21S1956.11,855.01,1960.64,855.01z M1936.24,860.99c-0.07,0.75-0.22,1.46-0.22,2.22
	c0,3.34,0.68,6.52,1.89,9.42l-47.67,42.89c-3.48-1.9-7.42-3.08-11.66-3.08c-5.04,0-9.72,1.53-13.63,4.14l-60.38-45.29l38.12-35.57
	c3.39,1.77,7.19,2.86,11.28,2.86c6.9,0,13.13-2.87,17.6-7.46L1936.24,860.99z M1853.95,805.77c4.53,0,8.21,3.68,8.21,8.21
	s-3.68,8.21-8.21,8.21c-4.53,0-8.21-3.68-8.21-8.21S1849.42,805.77,1853.95,805.77z M1714.45,805.77c4.53,0,8.21,3.68,8.21,8.21
	s-3.68,8.21-8.21,8.21c-4.53,0-8.21-3.68-8.21-8.21S1709.92,805.77,1714.45,805.77z M1632.38,846.8c4.53,0,8.21,3.68,8.21,8.21
	c0,4.52-3.68,8.21-8.21,8.21s-8.21-3.68-8.21-8.21C1624.18,850.49,1627.85,846.8,1632.38,846.8z M1566.73,928.86
	c4.53,0,8.21,3.68,8.21,8.21s-3.68,8.21-8.21,8.21s-8.21-3.68-8.21-8.21S1562.2,928.86,1566.73,928.86z M1566.73,1043.75
	c-4.53,0-8.21-3.68-8.21-8.21c0-4.52,3.68-8.21,8.21-8.21s8.21,3.68,8.21,8.21C1574.94,1040.07,1571.26,1043.75,1566.73,1043.75z
	 M1574.94,1012.44v-52.27c7.34-2.62,13.01-8.57,15.26-16.07l45.23-2.26l11.44,87.73c-4.71,2.13-8.56,5.73-11.13,10.18l-44.79-8.13
	C1589.51,1022.68,1583.27,1015.41,1574.94,1012.44z M1648.8,1051.96c0-4.52,3.68-8.21,8.21-8.21c4.53,0,8.21,3.68,8.21,8.21
	c0,4.52-3.68,8.21-8.21,8.21C1652.47,1060.17,1648.8,1056.48,1648.8,1051.96z M1673.2,1070.35c1.14-1,2.17-2.11,3.11-3.31
	l99.09,33.03l14.63,47.13c-2.04,1.53-3.84,3.32-5.32,5.39l-70.43-20.12c-0.81-12.83-11.42-23.07-24.46-23.07
	c-0.33,0-0.64,0.08-0.96,0.1L1673.2,1070.35z M1689.83,1142.23c-4.53,0-8.21-3.68-8.21-8.21c0-4.52,3.68-8.21,8.21-8.21
	c4.53,0,8.21,3.68,8.21,8.21C1698.03,1138.54,1694.36,1142.23,1689.83,1142.23z M1804.72,1281.73c-4.53,0-8.21-3.68-8.21-8.21
	c0-4.52,3.68-8.21,8.21-8.21s8.21,3.68,8.21,8.21C1812.92,1278.05,1809.25,1281.73,1804.72,1281.73z M1804.72,1175.05
	c-4.53,0-8.21-3.68-8.21-8.21c0-4.52,3.68-8.21,8.21-8.21s8.21,3.68,8.21,8.21C1812.92,1171.37,1809.25,1175.05,1804.72,1175.05z
	 M1805,1140.06l-10.43-33.6l19.47,6.49L1805,1140.06z M1846.21,1068.32c9.7-0.18,18-5.99,21.84-14.3l134.47,12.23
	c0.21,0.82,0.46,1.62,0.75,2.41l-62.97,52.47c-3.68-2.18-7.91-3.52-12.49-3.52c-7.86,0-14.8,3.77-19.31,9.54l-73.71-24.57
	L1846.21,1068.32z M1927.81,1281.73c-4.53,0-8.21-3.68-8.21-8.21c0-4.52,3.68-8.21,8.21-8.21c4.53,0,8.21,3.68,8.21,8.21
	C1936.02,1278.05,1932.34,1281.73,1927.81,1281.73z M1927.81,1150.43c-4.53,0-8.21-3.68-8.21-8.21c0-4.52,3.68-8.21,8.21-8.21
	c4.53,0,8.21,3.68,8.21,8.21C1936.02,1146.75,1932.34,1150.43,1927.81,1150.43z M2026.29,1068.37c-4.53,0-8.21-3.68-8.21-8.21
	c0-4.52,3.68-8.21,8.21-8.21c4.53,0,8.21,3.68,8.21,8.21C2034.49,1064.69,2030.82,1068.37,2026.29,1068.37z"/>
<path class="st3" d="M2181.13,1093.32c-29.26,14.32-58.53,28.65-87.79,42.97c-0.58,42.19,0.12,98.17,5.12,163.86
	c4.25,55.75,9.61,126.16,28.52,209.01c14.49,63.51,40.74,151.03,91.51,250.28c28.16-33.24,65.79-82.05,102.55-145.77
	c47.28-81.95,70.62-149.54,97.4-228.43c22.09-65.07,48.04-152.53,69.05-258.71c-22.48-13.85-44.96-27.69-67.44-41.54
	c-39.75,42.71-91.35,86.26-157.42,120.38c-8.75,4.52-17.44,8.71-26.05,12.6c-10.35-11.94-22.64-28.55-33.23-50.12
	C2189.01,1138.66,2183.45,1111.91,2181.13,1093.32z"/>
<path class="st4" d="M2093.34,1136.29c-34.37,18.97-83.61,50.84-131.3,101.91c-29.98,32.12-47.72,59.37-72.06,97.18
	c-44.52,69.15-89.84,140.51-135.84,214.05c-44.89-92.23-89.78-184.45-134.67-276.68c-69.11,25.32-138.23,50.64-207.34,75.95
	c83.32,195.89,151.37,341.17,182.47,399.1c6.3,11.73,23.33,42.7,56.68,69.08c34.61,27.39,65.38,32.88,73.64,34.15
	c3.56,0.55,14.58,2.1,29.3,1.39c53.98-2.62,96.49-32.84,115.01-46.33c46.56-33.91,72.65-75.2,86.21-101.53
	c-6.39,121.21-12.79,242.41-19.18,363.62c222.1,0,444.21,0,666.31,0c81.13,0,162.27,0,243.4,0c6.43-57.23,10.04-105.62,12.18-142.85
	c2.8-48.72,2.95-76.02,2.01-102.29c-0.21-5.88-1.22-32.43-4.42-62.8c-7.99-75.78-25.78-138.9-34.34-168.2
	c-49.22-168.43-73.82-252.64-122.7-309.08c-46.77-54.01-108.5-96.33-129.05-109.9c-31.96-21.1-60.63-36.21-82.16-46.54
	c-31.78,125.54-73.98,263.29-130.54,409.23c-38.08,98.25-78.31,188.97-118.85,272.04c-36.5-70.6-75.3-161.23-103.83-270.21
	C2092.35,1377.48,2088.13,1237.15,2093.34,1136.29z"/>
<path class="st2" d="M1423.24,1339.22c0,0-32.54-41.64-41.21-50.27c-8.67-8.63-31.89-31.78-38.78-45.55
	c-6.89-13.78-23.2-47.85-23.2-60.9c0-13.05,5.69-32.33,20.25-31.75c14.55,0.58,22.27,5.94,22.27,5.94s5.78-20.47,12.81-25.79
	c7.02-5.31,19.85-7.3,27.69-3.5c7.84,3.8,11.96,5.8,11.96,5.8s-3.63-25.38,19.58-29.73c23.2-4.35,34.08,2.9,34.08,2.9l2.9-2.54
	c0,0-14.86-38.43-17.04-55.1c-2.17-16.68-11.09-42-6.09-53.26s12.61-18.51,26.75-15.25c14.14,3.26,23.56,13.05,29.73,28.64
	c6.16,15.59,24.29,60.18,28.64,75.04c4.35,14.86,18.13,67.06,21.03,70.69c2.9,3.62,11.62-0.54,13.6-6.07
	c1.98-5.53,20.82-42.98,30.85-52.46c10.03-9.48,28.05-19.05,39.28-12.89c11.24,6.16,12,23.97,12.16,31.2
	c0.16,7.23-24.13,66.68-27.75,78.28s-22.84,84.83-22.84,84.83l-172.95,63.82L1423.24,1339.22z"/>
<path class="st5" d="M2070.23,711.83c-54.9-23.18-75.19-90.91-68.19-127.61c7-36.7,36.48-70.05,78.53-77.3
	c19.33-81.2,89.9-91.01,137.27-86.83c47.37,4.18,79.27,37.53,92.32,68.47c72.5-15.47,109.23,16.92,124.22,48.33
	c14.98,31.42,16.43,75.4,5.32,101.98c25.62,53.17,1.45,104.4-15.47,119.87c-15.95-12.08-38.37-15.47-56.88-6.28
	c-21.9-19.33-37.85-75.4-26.73-105.37c-60.9,8.22-108.67-2.09-122-28.84c-44.75,35.12-108.07,42.37-138.04,11.92
	C2065.11,661.58,2070.23,711.83,2070.23,711.83z"/>
<g>
	<path class="st2" d="M2070.39,687.5c-27.93-30.53-37.83-74.9-32.63-102.17c7-36.7,36.48-70.05,78.53-77.3
		c15.61-65.55,64.6-84.56,107.82-87.26c-1.78-0.25-3.53-0.53-5.36-0.69c-47.37-4.18-117.93,5.63-137.27,86.83
		c-42.05,7.25-71.53,40.6-78.53,77.3c-7,36.7,13.28,104.44,68.19,127.61C2071.14,711.83,2070.12,701.59,2070.39,687.5z"/>
</g>
<path class="st2" d="M2185.56,1249.43c7.18,9.34,12.23,56.8,19.41,66.14c7.18,9.34,14.36,18.68,21.54,28.01
	c18.05-14.62,53.8-66.19,71.85-80.81c-15.3-25.66-36.9-32.64-63.6-40.04C2210.07,1225.27,2202.67,1227.82,2185.56,1249.43z"/>
<g>
	<path class="st2" d="M1758.67,1559.14c65.43-89.97,118.94-163.66,160.39-224.13c19.12-27.9,51.8-76.51,111.59-121.77
		c14.04-10.63,26.28-18.58,34.73-23.8c-0.27-13.31-0.48-24.04-0.63-31.11c-3.99,1.29-10.17,3.45-17.43,6.76
		c-27.84,12.67-45.59,30.29-55.1,40.28c-60.85,63.97-88.31,109.83-88.31,109.83c-35.29,58.97-80.39,129.02-139.83,217.96
		L1758.67,1559.14z"/>
</g>
<g>
	<path class="st1" d="M2235.9,932.36c16.23-10.6,22.37-23.54,21.64-38.53c-0.56-11.45-2.8-16.78-8.21-17.49
		c-6.85-0.9-18.35,9.43-37.01,22.63c-13.62,9.64-36.02,18.23-32.64,29.98C2182.6,939.07,2210.12,949.19,2235.9,932.36z"/>
	<path class="st2" d="M2256.57,900.59c-15.29-5.02-45.92,6.77-37.76,36.68C2238.17,931.86,2255.82,909.65,2256.57,900.59z"/>
	<g>
		<path class="st1" d="M2206.29,945.4c-8.36,0-14.65-1.91-17.46-2.96c-8.17-3.04-13.79-8.01-15.41-13.64
			c-3.77-13.09,10.87-21.75,23.79-29.4c3.84-2.27,7.81-4.62,11.07-6.93c4.36-3.08,8.4-6.07,11.96-8.7
			c13.47-9.94,21.59-15.94,29.14-14.95c12.21,1.6,12.94,16.57,13.25,22.96c0.87,17.9-7.29,32.59-24.26,43.67
			C2226.49,943.21,2215.21,945.4,2206.29,945.4z M2247.64,880.31c-3.17,0-12.37,6.79-20.51,12.8c-3.61,2.66-7.7,5.68-12.15,8.83
			c-3.64,2.57-7.82,5.05-11.86,7.44c-8.37,4.95-19.84,11.74-18.55,16.21c0.38,1.3,2.9,3.97,8.31,5.98
			c9.31,3.47,24.49,3.75,39.16-5.83l0,0c13.65-8.91,19.69-19.52,19.02-33.39c-0.36-7.43-1.52-11.81-3.17-12.02
			C2247.81,880.32,2247.72,880.31,2247.64,880.31z"/>
	</g>
	<g>
		<path class="st1" d="M2213,940.97c-6.32-13.66-4.32-27.14,5.48-36.97c10.64-10.67,28.06-14.4,40.51-8.68l-4.84,10.54
			c-8-3.67-20.31-0.83-27.46,6.33c-4.43,4.44-8.58,12.2-3.17,23.91L2213,940.97z"/>
	</g>
</g>
<g>
	<path class="st1" d="M2205.7,1005.13c-38.73,0-69.32-12.27-91.09-36.6c-21.09-23.57-33.68-58.28-37.42-103.17l-13.83-166.05
		c-2.01-24.19,1.64-47.75,10.87-70.03c1.23-2.96,4.62-4.36,7.58-3.14c2.96,1.23,4.37,4.62,3.14,7.58
		c-8.51,20.55-11.88,42.3-10.02,64.63l13.83,166.05c3.53,42.32,15.13,74.75,34.5,96.4c22.25,24.87,55.29,35.65,98.19,32.05
		l1.28-0.11c9.54-0.79,25.5-2.11,53.46-8.85c3.11-0.75,6.25,1.17,7,4.28c0.75,3.11-1.17,6.25-4.28,7
		c-28.83,6.95-45.35,8.31-55.22,9.13l-1.27,0.11C2216.69,1004.89,2211.11,1005.13,2205.7,1005.13z"/>
</g>
<g>
	<path class="st1" d="M2389.74,849.63c-6.42,0-12.7-1.15-18.74-3.43c-3-1.13-4.51-4.48-3.38-7.47c1.13-3,4.48-4.51,7.47-3.38
		c5.83,2.2,11.96,3.05,18.21,2.53c11.13-0.93,21.23-6.13,28.45-14.66c7.21-8.53,10.68-19.35,9.75-30.48
		c-1.91-22.97-22.15-40.12-45.14-38.2c-5.76,0.48-11.24,2.1-16.28,4.8c-2.82,1.52-6.34,0.45-7.85-2.37
		c-1.51-2.82-0.46-6.34,2.37-7.85c6.45-3.46,13.45-5.53,20.81-6.14c29.34-2.44,55.22,19.44,57.66,48.79
		c2.44,29.35-19.45,55.22-48.79,57.66C2392.76,849.57,2391.24,849.63,2389.74,849.63z"/>
</g>
<g>
	<path class="st1" d="M2413.36,798.5c-3.02,0-5.56-2.33-5.78-5.39c-0.3-4.23-1.62-10.01-6.16-13.53
		c-4.01-3.11-10.04-4.05-17.45-2.71c-3.15,0.57-6.17-1.52-6.74-4.68c-0.57-3.15,1.52-6.17,4.67-6.74
		c10.73-1.94,19.94-0.23,26.62,4.96c6.27,4.87,9.94,12.43,10.62,21.87c0.23,3.19-2.18,5.97-5.37,6.2
		C2413.63,798.5,2413.49,798.5,2413.36,798.5z"/>
</g>
<ellipse transform="matrix(0.9965 -0.083 0.083 0.9965 -57.6777 178.0934)" class="st1" cx="2112.87" cy="782.66" rx="10.63" ry="18.13"/>
<g>
	<path class="st1" d="M2072.21,743.22c-1.45,0-2.91-0.54-4.04-1.64c-2.3-2.23-2.36-5.9-0.13-8.2
		c16.91-17.45,43.93-27.13,68.82-24.64c3.19,0.32,5.51,3.16,5.2,6.35s-3.16,5.52-6.35,5.2c-21.18-2.11-45.03,6.4-59.34,21.17
		C2075.24,742.63,2073.72,743.22,2072.21,743.22z"/>
</g>
<path class="st1" d="M2253.28,770.97c0.83,9.98,6.25,17.67,12.1,17.18s9.92-8.97,9.09-18.95c-0.83-9.98-6.25-17.67-12.1-17.18
	C2256.52,752.51,2252.45,760.99,2253.28,770.97z"/>
<g>
	<path class="st1" d="M2302.19,729.29c-1.43,0-2.86-0.53-3.98-1.58c-16.27-15.38-43.9-21.69-67.19-15.36
		c-3.09,0.84-6.28-0.98-7.12-4.07c-0.84-3.09,0.98-6.28,4.07-7.12c26.98-7.34,59.14,0.11,78.2,18.12c2.33,2.2,2.43,5.87,0.23,8.2
		C2305.26,728.68,2303.73,729.29,2302.19,729.29z"/>
</g>
<g>
	<path class="st1" d="M2170.18,861.52c-6.92,0-12.53-1.65-16.74-4.94c-4.61-3.6-7.29-8.87-7.95-15.68
		c-1.34-13.81,10.05-26.61,22.01-32.12c6.88-3.17,8.98-19.49,5.64-43.67c-0.44-3.17,1.78-6.1,4.95-6.54
		c3.18-0.45,6.1,1.78,6.54,4.95c4.33,31.27,0.2,50.05-12.27,55.79c-7.97,3.67-16.09,12.54-15.32,20.46c0.35,3.57,1.5,6.07,3.54,7.66
		c2.14,1.67,6.62,3.37,15.79,1.98c3.17-0.48,6.12,1.7,6.6,4.87c0.48,3.17-1.7,6.12-4.87,6.6
		C2175.29,861.31,2172.65,861.52,2170.18,861.52z"/>
</g>
<g>
	<path class="st1" d="M2187.53,1101.89c-0.92,0-1.86-0.22-2.72-0.68c-2.83-1.51-3.9-5.02-2.39-7.85
		c12.1-22.68,9.07-76.04,8.08-93.58c-0.18-3.2,2.26-5.94,5.46-6.12c3.19-0.17,5.94,2.26,6.12,5.46c1.8,31.83,2.79,76.79-9.43,99.69
		C2191.61,1100.78,2189.6,1101.89,2187.53,1101.89z"/>
</g>
<g>
	<path class="st1" d="M2414.79,1092.94c-2.59,0-4.95-1.75-5.62-4.37c-23.8-93.54-26.88-202.31-27.1-244.73
		c-0.02-3.2,2.57-5.81,5.77-5.83c0.01,0,0.02,0,0.03,0c3.19,0,5.78,2.58,5.8,5.77c0.22,41.99,3.26,149.63,26.75,241.93
		c0.79,3.1-1.09,6.26-4.19,7.05C2415.75,1092.88,2415.27,1092.94,2414.79,1092.94z"/>
</g>
<g>
	<path class="st1" d="M2299.67,1268.58c-1.98,0-3.89-1.01-4.97-2.8c-5.49-9.1-12.49-16.98-20.81-23.41
		c-14.25-11.02-29.16-15.22-39.17-16.81c-2.62-0.42-4.62-2.55-4.87-5.2c-0.24-2.64,1.34-5.11,3.84-6
		c38.15-13.53,73.81-32.76,105.99-57.14c28.56-21.64,54.04-47.13,75.74-75.74c1.84-2.43,5.25-3.02,7.8-1.35l50.93,33.34
		c1.32,0.86,2.23,2.22,2.52,3.77c0.29,1.55-0.05,3.15-0.97,4.43c-23.93,33.78-52.34,64.08-84.43,90.05
		c-27.34,22.13-57.32,41.06-89.12,56.28C2301.36,1268.4,2300.51,1268.58,2299.67,1268.58z M2254.7,1218.78
		c8.29,2.99,17.4,7.53,26.29,14.41c8.06,6.24,15.03,13.66,20.78,22.12c29.27-14.43,56.91-32.11,82.22-52.6
		c29.71-24.04,56.18-51.9,78.75-82.85l-41.36-27.08c-21.61,27.72-46.71,52.49-74.68,73.69
		C2318.42,1187.88,2287.55,1205.44,2254.7,1218.78z"/>
</g>
<g>
	<path class="st1" d="M2187.53,1249.78c-0.03,0-0.05,0-0.08,0c-1.55-0.02-3.02-0.66-4.1-1.78c-12.69-13.18-23.84-27.77-33.14-43.37
		c-16.06-26.94-26.6-56.63-31.31-88.23c-0.4-2.67,1.1-5.26,3.61-6.25l56.49-22.22c1.66-0.65,3.52-0.51,5.05,0.39
		c1.53,0.9,2.57,2.45,2.82,4.21c1.61,11.61,4.05,23.18,7.24,34.39c9.15,32.09,24.65,62.15,46.07,89.32c1.28,1.62,1.6,3.79,0.84,5.71
		c-0.75,1.92-2.47,3.29-4.51,3.61c-7.68,1.2-15.12,3.46-22.13,6.74c-8.44,3.94-16.11,9.27-22.79,15.83
		C2190.51,1249.18,2189.05,1249.78,2187.53,1249.78z M2131.1,1119.23c4.8,28.4,14.57,55.12,29.08,79.46
		c7.88,13.23,17.17,25.7,27.65,37.13c6.54-5.66,13.8-10.37,21.65-14.04c5.14-2.4,10.48-4.32,15.96-5.76
		c-19.46-26.4-33.74-55.27-42.48-85.93c-2.68-9.39-4.84-19.02-6.47-28.72L2131.1,1119.23z"/>
</g>
<g>
	<path class="st1" d="M1756.27,1559.61c-1.02,0-2.05-0.27-2.99-0.83c-2.74-1.65-3.63-5.22-1.98-7.96
		c12.46-20.69,24.63-41.17,36.4-60.98c51.03-85.87,99.23-166.98,151.16-231.11c57.75-71.32,115.19-115.76,180.77-139.84
		c3.01-1.11,6.34,0.44,7.44,3.45c1.1,3.01-0.44,6.34-3.45,7.44c-138.73,50.94-221.35,189.97-325.95,365.99
		c-11.78,19.82-23.96,40.31-36.43,61.03C1760.16,1558.61,1758.24,1559.61,1756.27,1559.61z"/>
</g>
<g>
	<path class="st1" d="M2602.58,2073.98c-3.17,0-5.76-2.55-5.8-5.72l-2.89-221.17l-82.54-290.24c-0.88-3.08,0.91-6.29,3.99-7.17
		c3.08-0.87,6.29,0.91,7.17,3.99l82.96,291.72l0.01,0.77l2.9,221.94c0.04,3.2-2.52,5.83-5.72,5.88
		C2602.63,2073.98,2602.6,2073.98,2602.58,2073.98z"/>
</g>
<g>
	<path class="st1" d="M2845.99,2073.98c-0.24,0-0.47-0.01-0.71-0.04c-3.18-0.39-5.44-3.28-5.05-6.46
		c0.26-2.09,25.48-210.46,8.5-315.05c-12.31-75.79-55.49-278.02-103.63-385.22c-42.15-93.85-132.64-173.56-276.65-243.67
		c-2.88-1.4-4.08-4.87-2.68-7.75c1.4-2.88,4.87-4.08,7.75-2.68c72.1,35.1,129.6,71.62,175.8,111.63
		c49.02,42.46,83.81,87.5,106.36,137.72c48.61,108.25,92.12,311.85,104.5,388.12c17.25,106.23-7.38,309.71-8.44,318.32
		C2851.38,2071.83,2848.87,2073.98,2845.99,2073.98z"/>
</g>
<g>
	<path class="st1" d="M1747.73,1858.34c-4.53,0-9.08-0.17-13.65-0.51c-36.65-2.71-67.18-17.09-96.09-45.26
		c-29.52-28.75-58.25-72.68-90.42-138.26c-68.07-138.73-140.11-321.66-140.83-323.49l-2.17-5.53l217.83-79.8l139.1,285.78
		c1.4,2.88,0.2,6.35-2.68,7.75c-2.88,1.4-6.35,0.2-7.75-2.68l-134.51-276.36l-196.83,72.1c12.57,31.62,77.05,192.35,138.26,317.11
		c60.07,122.43,109.68,172.07,176.96,177.06c81.11,6.01,153.03-43.53,219.8-151.46c1.69-2.72,5.26-3.57,7.98-1.88
		c2.72,1.69,3.57,5.26,1.88,7.98c-35.15,56.82-72.78,98.71-111.82,124.5C1819.63,1847.29,1784.35,1858.34,1747.73,1858.34z"/>
</g>
<g>
	<path class="st1" d="M1428.43,1348.53c-1.44,0-2.88-0.53-4.01-1.61c-61.39-58.66-96.13-123.71-104.34-143.83
		c-10.03-24.59-5.86-44.11,11.75-54.98c6.11-3.77,13.59-4.79,21.08-2.89c8.01,2.04,15.29,7.32,19,13.79l0.1,0.18l17.69,33.53
		c6.13,11.03,15.01,18.69,24.36,21.01c5.2,1.29,10.04,0.71,13.65-1.64c9.35-6.09,13.92-13.82,5.86-31.77
		c-1.31-2.92-0.01-6.36,2.91-7.67c2.92-1.32,6.36-0.01,7.67,2.91c9.28,20.64,5.97,35.77-10.11,46.24
		c-6.33,4.12-14.42,5.25-22.78,3.18c-12.48-3.1-24.05-12.83-31.74-26.69l-0.06-0.11l-17.67-33.48c-2.18-3.75-6.78-6.97-11.74-8.23
		c-3.12-0.79-7.76-1.17-12.13,1.52c-12.57,7.75-14.96,21.46-7.1,40.72c7.95,19.48,41.69,82.57,101.61,139.83
		c2.32,2.21,2.4,5.88,0.19,8.2C1431.49,1347.93,1429.96,1348.53,1428.43,1348.53z"/>
</g>
<g>
	<path class="st1" d="M1599.16,1284.42c-0.45,0-0.91-0.05-1.37-0.16c-3.11-0.75-5.03-3.88-4.28-7
		c0.85-3.54,21.14-87.17,40.17-127.14c11.93-25.06,14.82-49.6,7.02-59.68c-3.49-4.51-9.11-5.94-17.17-4.38
		c-20.91,4.05-38.4,40.53-51.17,67.16l-1.18,2.46c-3.59,7.47-8.84,8.12-10.91,8.02c-2.09-0.07-7.28-1.08-10.34-8.83
		c-12.77-32.3-20.97-60.13-28.21-84.68c-6.58-22.33-12.26-41.62-19.53-57.39c-6.64-14.41-14.7-23.64-23.31-26.68
		c-6.65-2.35-12.09-0.5-14.75,0.81c-14,6.92-13.6,16.22-6.02,49.92c5.08,22.57,11.73,41.62,16.58,55.53
		c3.47,9.93,5.97,17.11,6.74,22.05c0.64,4.15-1.72,6.54-3.93,7.32c-2.37,0.83-5.63,0.2-7.55-3.11
		c-5.37-9.27-20.32-16.51-31.52-11.96c-13.16,5.34-18.01,13.85-15.75,27.6c0.48,2.89-0.96,5.68-3.57,6.93
		c-2.61,1.25-5.67,0.63-7.62-1.55c-7.69-8.57-18.66-11.7-27.31-7.78c-8.99,4.07-13.17,14.5-11.47,28.6
		c0.38,3.18-1.89,6.07-5.07,6.45c-3.19,0.39-6.07-1.89-6.45-5.07c-2.31-19.18,4.5-34.34,18.2-40.55c9.91-4.49,21.54-3.26,31.4,2.79
		c1.39-12.88,9.29-22.5,23.28-28.18c10.04-4.07,21.29-2.28,30.5,2.61c-0.27-0.76-0.54-1.54-0.82-2.34
		c-4.95-14.18-11.72-33.59-16.95-56.81c-6.93-30.8-11.5-51.14,12.2-62.86c4.29-2.12,13.09-5.12,23.76-1.35
		c11.8,4.17,21.88,15.2,29.98,32.77c7.61,16.53,13.41,36.2,20.12,58.96c7.17,24.32,15.29,51.88,27.87,83.7
		c0,0.01,0.01,0.02,0.01,0.03l1.17-2.44c14.61-30.46,32.78-68.36,59.42-73.53c15.69-3.04,24.19,3.03,28.55,8.66
		c10.87,14.04,8.68,41.54-5.72,71.77c-18.51,38.88-39.16,124.02-39.36,124.88C1604.15,1282.63,1601.77,1284.42,1599.16,1284.42z"/>
</g>
<g>
	<path class="st1" d="M1469.66,1206.76c-11.55,0-26.87-7.52-42.24-37.34c-3.97-7.71-15.92-30.82-15.92-30.82l10.3-5.33
		c0,0,11.95,23.12,15.93,30.83c9.05,17.57,23.17,36.93,39.06,29.38c5.17-2.53,8.51-6.19,10.17-11.16
		c4.09-12.3-1.68-33.82-17.14-63.94c-1.46-2.85-0.34-6.35,2.51-7.81c2.85-1.46,6.34-0.34,7.81,2.51
		c17.42,33.93,23.08,57.1,17.83,72.9c-2.65,7.98-8.08,14.02-16.14,17.95C1478.6,1205.46,1474.45,1206.76,1469.66,1206.76z"/>
</g>
<g>
	<path class="st1" d="M1366.41,1249.79c-11.68,0-26.38-8.22-41.99-37.12c-1.52-2.82-0.47-6.34,2.35-7.86
		c2.82-1.52,6.34-0.47,7.86,2.35c9.25,17.12,23.33,36.16,37.89,29.66c4.33-2,7.02-4.85,8.39-8.95c3.79-11.34-2.65-32.61-19.13-63.22
		c-1.52-2.82-0.46-6.34,2.36-7.86c2.82-1.52,6.34-0.46,7.86,2.36c18.57,34.49,24.9,57.5,19.92,72.4c-2.39,7.15-7.3,12.47-14.6,15.84
		C1374.08,1248.82,1370.42,1249.79,1366.41,1249.79z"/>
</g>
<g>
	<path class="st1" d="M2421.8,765.65c-1.64,0-3.27-0.69-4.42-2.04c-2.08-2.43-1.79-6.09,0.64-8.17c0.25-0.22,11.82-10.41,19.54-29.4
		c10.38-25.53,9.29-54.12-3.25-84.99l-0.84-2.06l0.76-2.09c11.33-31.32,10.67-58.94-2.13-89.56
		c-14.98-35.82-55.61-70.93-120.81-52.01l-5.62,1.63l-1.58-5.64c-14-49.92-71.07-68.68-118.18-64.97
		c-42.36,3.33-94.1,26.73-100.54,81.72l-0.48,4.1l-4.03,0.89c-60.87,13.4-72.48,56.32-73.99,80.72
		c-3,48.57,27.16,102.77,64.52,115.98c3.02,1.07,4.6,4.38,3.53,7.4c-1.07,3.02-4.38,4.6-7.4,3.54
		c-20.55-7.26-39.51-24.88-53.4-49.61c-13.54-24.12-20.41-52.55-18.84-78.02c1.34-21.72,8.7-41.22,21.29-56.4
		c13.65-16.45,33.08-27.88,57.83-34.01c3.95-24.99,16.97-46.37,37.84-62.03c19.33-14.5,45.16-23.68,72.75-25.84
		c49.98-3.93,110.33,15.79,128.54,67.91c69.36-17.56,112.88,20.96,129.27,60.16c13.73,32.82,14.7,62.49,3.08,95.89
		c16.19,41.37,10.17,72.95,2.17,92.27c-8.89,21.47-21.95,32.77-22.5,33.24C2424.47,765.19,2423.13,765.65,2421.8,765.65z"/>
</g>
<g>
	<path class="st1" d="M2366.61,760.16c-1.64,0-3.26-0.69-4.41-2.03c-18.84-22.05-38.47-68-27.42-105.86
		c-17.35,5.14-38.56,6.3-58.33,3.05c-18.02-2.97-42.6-10.83-60.54-31.29c-30.65,22.05-69.11,31.63-104,25.7
		c-23.15-3.94-41.16-14.28-50.71-29.13c-1.73-2.69-0.95-6.28,1.74-8.02c2.7-1.73,6.28-0.95,8.02,1.74
		c7.65,11.9,23.29,20.64,42.9,23.97c33.47,5.69,70.65-4.33,99.46-26.81l4.62-3.61l3.56,4.67c27.54,36.13,85.3,38.56,116.41,26.42
		c3-1.17,6.37-0.47,8.58,1.79c2.21,2.26,2.83,5.64,1.6,8.61c-12.85,30.92,1.9,76.62,22.93,101.23c2.08,2.44,1.79,6.1-0.64,8.18
		C2369.28,759.7,2367.94,760.16,2366.61,760.16z"/>
</g>
<path class="st2" d="M1989.71,1384.17c9.67,16.55,5.82,98.12,5.32,141.62c-2.1,181.32-23.93,480.32-21.75,540.37
	c-14.15-0.14-33.84-2.42-33.84-2.42L1989.71,1384.17z"/>
<g>
	<path class="st1" d="M1941.94,2069.4l-11.34-2.44l-0.03,0.17c0.06-0.38,1.57-10.25,3.46-84.75c1.63-63.9,21.39-305.49,34.48-465.35
		c4.78-58.41,8.91-108.86,10.97-136.21c0.24-3.19,3.03-5.59,6.22-5.35c3.19,0.24,5.59,3.03,5.35,6.22
		c-2.07,27.39-6.2,77.85-10.98,136.28c-13.07,159.73-32.82,401.12-34.44,464.7C1943.67,2059.39,1942.11,2068.6,1941.94,2069.4z"/>
</g>
<g>
	<path class="st1" d="M2263.87,822.71c-29.02,0-52.62-23.61-52.62-52.62s23.61-52.62,52.62-52.62c29.02,0,52.62,23.61,52.62,52.62
		S2292.89,822.71,2263.87,822.71z M2263.87,729.06c-22.62,0-41.02,18.4-41.02,41.02s18.4,41.02,41.02,41.02s41.02-18.4,41.02-41.02
		S2286.5,729.06,2263.87,729.06z"/>
</g>
<g>
	<path class="st1" d="M2109.96,834.21c-29.02,0-52.62-23.61-52.62-52.62c0-29.02,23.61-52.62,52.62-52.62
		c29.02,0,52.62,23.61,52.62,52.62C2162.58,810.61,2138.98,834.21,2109.96,834.21z M2109.96,740.56c-22.62,0-41.02,18.4-41.02,41.02
		s18.4,41.02,41.02,41.02c22.62,0,41.02-18.4,41.02-41.02S2132.58,740.56,2109.96,740.56z"/>
</g>
<g>
	<path class="st1" d="M2160.46,783.65c-1.96,0-3.88-1-4.97-2.8c-1.66-2.74-0.78-6.31,1.96-7.96c6.5-3.93,13.52-6.76,20.86-8.43
		c10.7-2.43,22.09-2.3,32.93,0.39c3.11,0.77,5,3.92,4.23,7.03c-0.77,3.11-3.92,5-7.03,4.23c-9.09-2.25-18.62-2.37-27.56-0.34
		c-6.13,1.39-11.99,3.76-17.43,7.05C2162.51,783.38,2161.48,783.65,2160.46,783.65z"/>
</g>
<g>
	<path class="st1" d="M2315.4,774.32c-2.52,0-4.83-1.65-5.57-4.19c-0.89-3.08,0.88-6.29,3.96-7.19l56.17-16.28
		c3.08-0.89,6.29,0.88,7.19,3.96c0.89,3.08-0.88,6.29-3.95,7.19l-56.17,16.28C2316.48,774.24,2315.94,774.32,2315.4,774.32z"/>
</g>
<polygon class="st2" points="2191.78,1286.16 2131.23,1970.26 2163.54,2070.27 2308,2066.93 2337.63,1971.19 2276.4,1286.16 "/>
<g>
	<path class="st1" d="M2311.24,2076.07h-153.21l-32.68-105.18l0.1-1.14l60.55-684.1c0.28-3.19,3.09-5.56,6.29-5.27
		c3.19,0.28,5.55,3.1,5.27,6.29l-60.45,682.96l29.47,94.84h136.11l29.06-93.89l-64.71-677.16c-0.3-3.19,2.03-6.02,5.22-6.33
		c3.19-0.32,6.02,2.03,6.33,5.22l64.93,679.47L2311.24,2076.07z"/>
</g>
<g>
	<path class="st1" d="M2226.51,1349.39c-0.02,0-0.03,0-0.05,0c-1.7-0.01-3.31-0.77-4.4-2.08c-12.73-15.21-22.91-32.23-30.26-50.58
		c-6.45-16.11-10.63-33.04-12.42-50.33c-0.19-1.81,0.49-3.61,1.83-4.85c3.96-3.67,8.16-7.13,12.46-10.28
		c6.69-4.9,16.81-12.3,31.5-16.64c3.44-1.02,6.97-1.82,10.49-2.38c0.75-0.12,1.52-0.09,2.26,0.08c13.51,3.22,26.13,8.9,37.48,16.87
		c10.93,7.67,20.27,17.17,27.76,28.25c1.47,2.17,1.3,5.07-0.42,7.05l-71.85,82.9C2229.79,1348.66,2228.19,1349.39,2226.51,1349.39z
		 M2191.24,1248.1c1.83,15.21,5.64,30.11,11.33,44.31c6.05,15.11,14.15,29.25,24.1,42.13l64.32-74.21
		c-6.22-8.37-13.69-15.63-22.25-21.64c-9.83-6.9-20.72-11.88-32.38-14.8c-2.65,0.47-5.3,1.1-7.9,1.86
		c-12.77,3.78-21.54,10.2-27.95,14.88C2197.34,1242.95,2194.23,1245.46,2191.24,1248.1z"/>
</g>
<g>
	<path class="st1" d="M2307.99,1645.44c-0.89,0-1.79-0.2-2.63-0.64c-2.85-1.46-3.98-4.95-2.53-7.8
		c0.39-0.76,39.22-76.98,80.49-177.72c38.02-92.8,85.96-225.98,98.4-333.43c0.37-3.18,3.26-5.47,6.43-5.09
		c3.18,0.37,5.46,3.25,5.09,6.43c-12.6,108.79-60.92,243.08-99.23,336.59c-41.45,101.17-80.47,177.74-80.86,178.5
		C2312.13,1644.29,2310.1,1645.44,2307.99,1645.44z"/>
</g>
<g>
	<path class="st1" d="M2156.78,1634.36c-2.54,0-4.87-1.68-5.58-4.24c-26.13-93.53-44.49-189.81-54.55-286.17
		c-7.17-68.7-10.24-138.6-9.11-207.75c0.05-3.2,2.73-5.75,5.89-5.7c3.2,0.05,5.76,2.69,5.7,5.89
		c-1.12,68.69,1.93,138.11,9.05,206.36c9.99,95.72,28.22,191.36,54.18,284.26c0.86,3.08-0.94,6.28-4.03,7.15
		C2157.82,1634.29,2157.3,1634.36,2156.78,1634.36z"/>
</g>
<g>
	<path class="st1" d="M2333.38,1932.41c-0.4,0-0.81-0.04-1.22-0.13c-3.13-0.67-5.13-3.75-4.46-6.88l33.94-158.97l35.29-238.64
		l84.9-92.4l18.72-299.46c0.2-3.2,2.94-5.63,6.15-5.43c3.2,0.2,5.63,2.95,5.43,6.15l-18.98,303.56l-85.27,92.8l-34.82,235.48
		l-0.04,0.18l-33.97,159.15C2338.46,1930.55,2336.05,1932.41,2333.38,1932.41z"/>
</g>
<g>
	<path class="st1" d="M2140.64,1869.75c-2.29,0-4.46-1.37-5.38-3.62l-47.9-118.21l-0.04-1l-10.51-241.55l-32.09-51.62l12.2-301.02
		c0.13-3.2,2.81-5.69,6.03-5.56c3.2,0.13,5.69,2.83,5.56,6.03l-12.06,297.45l31.81,51.17l0.07,1.52l10.54,242.07l47.15,116.35
		c1.2,2.97-0.23,6.35-3.2,7.55C2142.1,1869.62,2141.36,1869.75,2140.64,1869.75z"/>
</g>
<g id="platform">
	<path class="st1" d="M2867.95,2076.07H264.04c-3.2,0-5.8-2.6-5.8-5.8c0-3.2,2.6-5.8,5.8-5.8h2603.91c3.2,0,5.8,2.6,5.8,5.8
		C2873.75,2073.47,2871.16,2076.07,2867.95,2076.07z"/>
</g>
<path class="st4" d="M1165.87,780.14c-13.99-5.84-27.92-11.87-41.54-18.5c-3.22-1.57-6.23-5.41-7.47-8.87
	c-5-13.97-9.46-28.14-13.68-42.37c-0.84-2.81-0.74-6.71,0.58-9.22c7.88-14.92,16.43-29.49,24.27-44.43c1.17-2.23,0.93-6.75-0.6-8.61
	c-10.75-13.04-22.12-25.57-33.03-38.49c-2.91-3.45-5.41-3.87-9.49-2.16c-15.11,6.33-30.3,12.46-45.65,18.18
	c-2.74,1.02-7.18,0.91-9.86-0.26c-13.88-6.02-27.61-12.42-41.13-19.19c-3.09-1.55-6.45-4.71-7.49-7.85
	c-4.85-14.65-9.11-29.51-13.17-44.41c-1.64-6.05-4-8.26-13.72-7.09c-13.08,1.58-26.3,0.42-39.12-2.6
	c-8.72-2.05-11.72-0.43-14.11,5.34c-5.81,13.99-12.26,27.72-18.03,41.73c-2.42,5.87-6.03,7.58-13.7,9.07
	c-11.46,2.24-22.7,5.67-33.15,10.86c-7.01,3.48-10.85,3.76-16.14,0.66c-13.82-8.1-27.97-15.65-41.81-23.72
	c-5.15-3-8.08-1.9-13.32,4.18c-9.18,10.64-19.84,19.83-31.56,27.6c-6.6,4.37-6.75,7.5-4.57,12.73
	c6.18,14.78,12.22,29.64,17.69,44.69c1.12,3.06,0.57,7.61-0.95,10.59c-6.84,13.5-14.07,26.81-21.69,39.88
	c-1.87,3.22-5.33,6.58-8.75,7.64c-15.57,4.82-31.34,8.99-47.14,13.05c-5.67,1.46-7.86,3.9-7.27,11.77
	c1.04,13.79,0.25,27.63-2.48,41.19c-1.62,8.05-0.91,11.17,4.84,13.44c15.44,6.08,30.83,12.33,45.92,19.2
	c3.23,1.47,6.12,5.44,7.52,8.92c5.41,13.51,9.69,27.49,15.39,40.87c2.31,5.43,2.26,9.35-0.6,14.27
	c-7.62,13.11-14.66,26.56-22.25,39.69c-2.49,4.3-2.58,7.26,1.04,11.17c7.26,7.85,12.81,13.99,19.82,22.07l9.54,10.3
	c4.09,4.41,10.2,6.3,16.07,4.98c2.58-0.58,5.49-1.43,8.55-2.65c11.63-4.66,21.52-8.48,33.08-13.33c4.67-1.96,8.05-1.49,12.58,1.12
	c13.1,7.54,26.85,13.96,40.09,21.27c2.78,1.54,5.58,4.71,6.49,7.71c4.81,15.87,9.18,31.89,13.35,47.94
	c1.57,6.02,4.7,7.35,13.35,6.51c12.45-1.22,25.05-0.8,37.21,2.15c10.3,2.5,13.4,1.5,15.92-4.92c5.96-15.17,12.25-30.23,19-45.06
	c1.4-3.07,4.96-5.98,8.2-7.25c14.35-5.62,28.88-10.82,43.51-15.68c3-0.99,7.27-0.98,9.98,0.44c16.18,8.46,32.08,17.46,48.68,26.62
	c14.27-12.72,28.5-25.16,42.3-38.06c1.72-1.6,2.24-6.17,1.33-8.62c-5.69-15.28-12.11-30.29-17.87-45.54
	c-1.06-2.8-1.19-6.74-0.06-9.44c6.01-14.31,12.34-28.51,19.14-42.46c1.38-2.83,4.97-5.98,7.96-6.97c14.65-4.87,29.5-9.18,44.39-13.3
	c3.73-1.03,6.37-4.34,6.54-8.21c0.74-16.35,1.75-32.69,3.13-48.99C1172.4,784.43,1170.53,782.09,1165.87,780.14z M1013.84,804.24
	c-3.4,52.79-48.6,92.49-101.49,89.13c-52.82-3.35-92.51-48.57-89.11-101.5c3.42-53.24,48.58-92.58,102.23-89.06
	C977.58,706.24,1017.22,751.73,1013.84,804.24z"/>
<g>
	<g>
		<path d="M916.71,1101.99c-2.36,0-5.18-0.51-8.55-1.32c-11.06-2.68-23.35-3.38-36.52-2.1c-8.53,0.85-13.52-0.2-15.57-8.04
			c-4.9-18.8-9.13-34.01-13.33-47.87c-0.72-2.36-3.08-5.14-5.51-6.49c-5.85-3.24-11.81-6.3-17.77-9.35
			c-7.39-3.8-15.02-7.72-22.35-11.94c-4.15-2.38-6.87-2.63-10.75-1c-8.35,3.5-15.85,6.48-23.76,9.62l-9.34,3.72
			c-2.85,1.14-5.83,2.07-8.87,2.76c-6.58,1.43-13.49-0.67-18.05-5.6l-9.54-10.3c-7.19-8.3-12.71-14.37-19.81-22.08
			c-4.02-4.34-4.4-8.29-1.32-13.62c3.66-6.35,7.21-12.77,10.74-19.19c3.79-6.86,7.57-13.73,11.51-20.5
			c2.46-4.23,2.58-7.47,0.48-12.41c-3.21-7.52-6.01-15.33-8.7-22.89c-2.13-5.94-4.33-12.09-6.71-18.02
			c-1.15-2.87-3.66-6.53-6.44-7.8c-15.95-7.26-32.11-13.76-45.82-19.16c-7.28-2.87-7.77-7.57-6.12-15.78
			c2.66-13.2,3.47-26.87,2.44-40.62c-0.63-8.35,1.77-12.12,8.82-13.94c15.18-3.9,31.39-8.17,47.05-13.02
			c2.63-0.81,5.74-3.57,7.56-6.7c7.5-12.86,14.78-26.24,21.63-39.77c1.34-2.64,1.71-6.57,0.85-8.94
			c-5.75-15.8-12.15-31.42-17.65-44.6c-2.43-5.82-2.33-10.18,5.33-15.26c11.84-7.84,22.32-17,31.15-27.22
			c5.18-6,9.25-8.51,15.94-4.61c6.7,3.9,13.48,7.69,20.25,11.47c7.21,4.03,14.44,8.07,21.57,12.25c4.58,2.68,7.64,2.51,14.17-0.73
			c9.82-4.88,21.15-8.59,33.67-11.03c7.74-1.51,10.24-3.12,12.18-7.83c2.99-7.26,6.16-14.44,9.34-21.62
			c2.95-6.68,5.9-13.37,8.7-20.11c2.92-7.03,7.24-8.76,16.51-6.57c13.41,3.15,26.33,4,38.4,2.55c10.04-1.22,13.87,0.89,15.98,8.61
			c4.84,17.84,8.9,31.5,13.13,44.3c0.77,2.33,3.54,5.19,6.44,6.64c13.37,6.7,27.18,13.14,41.03,19.14c2.2,0.95,6.07,1.05,8.31,0.22
			c13.73-5.11,28.63-11.05,45.57-18.15c5.02-2.1,8.45-1.32,11.88,2.74c4.71,5.58,9.51,11.09,14.3,16.59
			c6.21,7.12,12.62,14.49,18.74,21.91c2.03,2.46,2.43,7.86,0.84,10.9c-4.06,7.72-8.29,15.34-12.53,22.96
			c-3.97,7.13-7.94,14.26-11.75,21.48c-0.98,1.87-1.17,5.16-0.42,7.66c4.96,16.69,9.29,30.12,13.64,42.26
			c1.13,3.16,3.89,6.47,6.43,7.71c14.5,7.06,29.08,13.29,41.43,18.45c5.71,2.38,7.84,5.76,7.35,11.66
			c-1.3,15.37-2.33,31.37-3.13,48.91c-0.21,4.77-3.45,8.84-8.06,10.12c-12.16,3.37-28.18,7.92-44.29,13.27
			c-2.46,0.82-5.61,3.58-6.74,5.9c-6.33,12.98-12.58,26.83-19.1,42.36c-0.87,2.06-0.82,5.47,0.09,7.91
			c2.7,7.16,5.56,14.27,8.42,21.39c3.22,8.03,6.44,16.06,9.45,24.16c1.14,3.07,0.57,8.6-1.85,10.87
			c-10.63,9.95-21.73,19.8-32.48,29.33l-9.87,8.76c-0.66,0.6-1.62,0.7-2.39,0.27l-12.31-6.82c-12.44-6.9-24.2-13.43-36.32-19.77
			c-2.01-1.06-5.69-1.19-8.36-0.31c-15.55,5.17-29.74,10.28-43.41,15.64c-2.95,1.16-5.98,3.81-7.06,6.18
			c-6.41,14.07-12.61,28.77-18.96,44.96C924.34,1100.01,921.39,1101.99,916.71,1101.99z M884.14,1093.79c8.83,0,17.2,0.94,25,2.83
			c10.12,2.47,11.61,1.13,13.5-3.65c6.38-16.25,12.6-31.03,19.04-45.16c1.53-3.35,5.36-6.78,9.34-8.32
			c13.73-5.39,28-10.53,43.61-15.72c3.11-1.03,8.05-1.28,11.6,0.57c12.17,6.36,23.95,12.9,36.41,19.82l11.02,6.1l8.77-7.8
			c10.72-9.51,21.8-19.34,32.39-29.25c0.93-0.87,1.52-4.44,0.79-6.38c-3-8.07-6.21-16.06-9.41-24.06
			c-2.87-7.14-5.73-14.28-8.45-21.47c-1.31-3.5-1.31-7.91-0.03-10.98c6.56-15.6,12.83-29.52,19.2-42.56
			c1.62-3.33,5.64-6.86,9.16-8.03c16.2-5.38,32.29-9.95,44.49-13.33c2.86-0.79,4.88-3.33,5.02-6.3c0.81-17.6,1.84-33.65,3.14-49.08
			c0.34-4.09-0.74-5.77-4.81-7.47c-12.4-5.18-27.05-11.44-41.65-18.55c-3.52-1.71-7.03-5.85-8.52-10.04
			c-4.38-12.21-8.74-25.71-13.72-42.47c-1.05-3.54-0.75-7.97,0.74-10.78c3.82-7.24,7.8-14.4,11.78-21.56
			c4.23-7.59,8.45-15.19,12.49-22.88c0.81-1.54,0.6-5.15-0.36-6.33c-6.08-7.38-12.48-14.72-18.67-21.82
			c-4.81-5.52-9.62-11.04-14.34-16.64c-2.27-2.68-3.74-3.01-7.1-1.58c-17,7.12-31.95,13.08-45.73,18.21
			c-3.23,1.21-8.25,1.07-11.41-0.3c-13.92-6.04-27.8-12.51-41.24-19.24c-3.2-1.6-7.24-5.12-8.53-9.06
			c-4.26-12.87-8.33-26.6-13.2-44.52c-1.23-4.54-2.21-6.67-11.46-5.57c-12.56,1.52-25.96,0.63-39.85-2.64
			c-8.26-1.94-9.92-0.24-11.72,4.12c-2.82,6.77-5.78,13.48-8.74,20.2c-3.16,7.15-6.31,14.3-9.28,21.53
			c-2.8,6.79-7.15,8.74-15.23,10.32c-12.15,2.38-23.13,5.97-32.63,10.68c-7.74,3.84-12.31,3.98-18.11,0.59
			c-7.11-4.17-14.31-8.18-21.5-12.2c-6.79-3.8-13.58-7.6-20.31-11.51c-3.85-2.26-5.74-2.02-10.7,3.74
			c-9.07,10.51-19.83,19.92-31.99,27.97c-5.76,3.82-5.61,5.82-3.79,10.19c5.52,13.23,11.95,28.9,17.73,44.79
			c1.25,3.44,0.8,8.59-1.06,12.25c-6.89,13.6-14.2,27.05-21.74,39.98c-1.95,3.35-5.78,7.29-9.93,8.58
			c-15.75,4.87-32.01,9.16-47.24,13.07c-4.39,1.13-6.25,2.38-5.71,9.6c1.07,14.13,0.22,28.18-2.51,41.76
			c-1.59,7.86-0.66,9.42,3.57,11.09c13.76,5.42,29.98,11.94,46.02,19.24c4.12,1.87,7.2,6.58,8.58,10.04
			c2.41,6.01,4.62,12.19,6.76,18.17c2.68,7.5,5.45,15.25,8.61,22.66c2.64,6.19,2.44,10.71-0.71,16.13
			c-3.92,6.75-7.69,13.59-11.45,20.42c-3.56,6.45-7.11,12.9-10.79,19.27c-2.2,3.81-2.03,5.68,0.77,8.72
			c6.96,7.54,12.71,13.87,19.86,22.13l9.5,10.25c3.57,3.85,8.96,5.51,14.09,4.36c2.82-0.64,5.59-1.5,8.24-2.56l9.35-3.72
			c7.89-3.13,15.35-6.1,23.68-9.59c5.11-2.14,9.16-1.81,14.43,1.24c7.24,4.17,14.84,8.07,22.19,11.84
			c5.99,3.08,11.98,6.16,17.87,9.41c3.38,1.87,6.45,5.54,7.47,8.92c4.22,13.92,8.47,29.17,13.37,48.03c1.1,4.19,2.4,5.78,11.14,4.96
			C875.63,1094,879.94,1093.79,884.14,1093.79z"/>
	</g>
	<g>
		<path d="M907.33,937.14c-2.08,0-4.16-0.06-6.25-0.2c-26.11-1.65-49.93-13.33-67.07-32.86c-17.15-19.53-25.67-44.69-23.99-70.85
			c1.68-26.17,13.3-49.96,32.71-67.01c19.62-17.22,45.09-25.75,71.73-23.99c53.26,3.5,93.78,49.99,90.32,103.63
			C1001.45,897.4,958.36,937.14,907.33,937.14z M901.33,932.8c51.69,3.23,95.98-35.86,99.28-87.19
			c3.31-51.36-35.47-95.87-86.44-99.22c-25.56-1.67-49.93,6.48-68.7,22.97c-18.58,16.31-29.7,39.09-31.3,64.15
			c-1.61,25.05,6.54,49.14,22.97,67.84C853.54,920.04,876.34,931.21,901.33,932.8L901.33,932.8z"/>
	</g>
</g>
</svg>
