<?xml version="1.0" encoding="utf-8"?>
<!-- Generator: Adobe Illustrator 25.3.0, SVG Export Plug-In . SVG Version: 6.00 Build 0)  -->
<svg version="1.1" id="Layer_1" xmlns="http://www.w3.org/2000/svg" xmlns:xlink="http://www.w3.org/1999/xlink" x="0px" y="0px"
	 viewBox="0 0 246.09 213.75" style="enable-background:new 0 0 246.09 213.75;" xml:space="preserve">
<style type="text/css">
	.st0{fill:#F8EFF2;}
	.st1{fill:#BB5A7D;}
	.st2{fill:#2E2E2E;}
	.st3{fill:#FFFFFF;}
	.st4{fill:#3A3A3A;}
</style>
<path class="st0" d="M244.39,199.82c-4.03,5.72-14.21,9.35-19.45,10.42c-16.41,3.34-35.4-0.18-51.96-1.13
	c-20.92-1.2-41.86-2.22-62.82-2.13c-19.85,0.08-38.67,2.92-58.27,5.48c-12.4,1.62-25.61,2.4-37.62-1.78
	c-6.1-2.12-14.14-7.98-13.71-15.21c0.93-15.77,26.6-12.25,36.1-11.12c36.67,4.37,73.76-0.09,110.55,0.89
	c12.59,0.33,25.39,0.28,38.03-0.49c11.96-0.73,23.73-1.99,35.81-2c7.81,0,19.57-0.29,23.91,7.9
	C246.79,194.11,246.24,197.19,244.39,199.82z"/>
<path class="st1" d="M61.11,145.18l10.18,2.53l2.65-4.41l58.81-101.2l35.94,104.85l50.66-15.65l-40.29,66.63
	c0,0-42.53,2.5-65.46,2.51c-24.37,0.01-60.11-2.51-60.11-2.51L0,129.04L61.11,145.18z"/>
<path class="st2" d="M104.02,80.58l0.1,15.53c0,0-16.21-4.28-24.66-9.11c-8.46-4.83-15.05-9.8-15.05-9.8s4.69-14.89,5.65-23.27
	c0.75-6.59,1.08-5.91,1.08-5.91s-6.21,3.95-14.18,3.01c-7.97-0.94-12.09-5.25-13.76-11.57c-1.66-6.32-1.71-13.04-1.53-15.56
	c0.17-2.52,0.24-3.2,0.24-3.2l10.41-1.04c0,0-1.67,16.29,5.73,17.26c0,0,2.73,1.54,9.73-3.14c6.99-4.68,14.97-9.08,17.41-9.88
	l-4,41.68l13.98-41.01l4.38,3.46c0,0,11.34,3.1,17.59,11.23c6.26,8.13,8.21,18.33,7.83,25.56c-0.38,7.23-3.79,19.71-12.91,28.07
	l-7.77-12.15c0,0,7.77-10.04,8.9-16.94c1.13-6.91-2.35-9.98-5.48-10.9L104.02,80.58z"/>
<path class="st3" d="M80.59,13.52l1.38,0.06c0,0,0.42-0.77,0.4-1.44c-0.01-0.67-0.36-0.89-0.36-0.89l-1.32-0.06l0.04-0.85l0.94-3.81
	c0,0,1.75-1.9,5.22-1.57c3.47,0.32,5.38,0.94,5.38,0.94s0.88,2.49,0.67,6.22c0,0,1.63-2.25,3.46-1.26c1.83,0.99,2.07,4.24-1.05,5.52
	l-0.07,7.99l-1.09,2.95c0,0-3.43,1.18-5.73,0.96c-2.3-0.22-3.26-1.87-3.26-1.87l0.11-2.49c0,0-3,0.33-4.53-1.88
	C79.28,19.82,80.59,13.52,80.59,13.52z"/>
<path class="st3" d="M108.66,87.61L104.42,81c0,0-3.15-1.07-4.12-0.98c-0.97,0.09-1.74,0.08-2.52,1.75s-1.06,3.34-1.06,3.34
	s-2.46,2.15-2.21,2.62c0.25,0.47,2.2,0.02,3.54-0.39c1.35-0.4,2.74,0.67,4.91,0.94C105.13,88.55,107.43,88.7,108.66,87.61z"/>
<polygon class="st4" points="51.34,132.95 50.68,137.74 48.27,137.39 47.9,136.3 46.71,137.21 30.01,136.11 39.08,132.03 "/>
<path class="st3" d="M85.78,0.84c3.34-1.02,7.59-0.76,9.92,2.38c0,0,2.61,0.62,2.7,3.53c0.08,2.91-1.23,4.75-1.23,4.75
	s-1.46-1.88-3.07-0.46l-0.58,0.3c0,0,0.67-3.45-0.25-5.04c0,0-2.29-1.44-5.53-1.46c-3.24-0.01-5.94,1.39-5.94,1.39l-0.9,2.27
	c0,0,0.04-1.57,0.24-3.05C81.41,3.4,82.45,1.86,85.78,0.84z"/>
<path class="st3" d="M102.13,95.54l3.21,55.95l-19.73-4.73l-8.4-47.89c0,0-9.97-2.66-14.93-2.34c-4.95,0.32-6.37,2.63-6.73,5.47
	c-0.22,1.74-0.1,31.06-0.1,31.06l-20.1-1.38l1.17-36.62c0,0-1.33-9.24,7.38-13.23c9.12-4.17,20.17-4.92,20.17-4.92
	s8.06,7.57,21.08,12.46C98.19,94.26,102.13,95.54,102.13,95.54z"/>
<path class="st1" d="M38.46,12.73c0.01-1.66-0.21-1.88-0.21-1.88l26.54,0.04l0.28,0.85l17.17,0.27c0.58,0.86-0.29,2.43-0.29,2.43
	l-16.8,0.25l-0.48,0.9l-27.34-0.15C37.33,15.44,38.45,14.5,38.46,12.73z"/>
<path class="st3" d="M43.11,10.18c0,0-0.16-1.61,3.54-1.79c3.71-0.18,4.55,0.16,5.05,0.44c0.5,0.28,2.1,0.54,1.98,3.27l0.74,2.61
	c0,0-1.22,3.91-3.63,5l-6.88,0.58l-0.93-5.59l8.35-0.05l-0.52-1.71c0,0-0.31,1-1.58,0.94c-1.27-0.06-1.55-1.84-1.55-1.84
	s-0.34,1.93-2,1.84c-1.65-0.09-1.63-1.01-1.63-1.01s1.12-1.66,0.05-2.55L43.11,10.18z"/>
<path class="st3" d="M36.34,12.78c0,1.31,0.37,2.37,0.82,2.37c0.45,0,0.82-1.06,0.82-2.37c0-1.31-0.37-2.37-0.82-2.37
	C36.71,10.41,36.34,11.47,36.34,12.78z"/>
<g>
	<path class="st3" d="M41.75,133.54c-0.02,0-4.66-0.41-4.66-0.41c-0.12-0.01-0.21-0.12-0.2-0.24c0.01-0.12,0.1-0.2,0.24-0.2
		l4.64,0.41c0.12,0.01,0.21,0.12,0.2,0.24C41.96,133.46,41.86,133.54,41.75,133.54z"/>
</g>
<g>
	<path class="st3" d="M39.72,134.48c-0.02,0-4.66-0.41-4.66-0.41c-0.12-0.01-0.21-0.12-0.2-0.24c0.01-0.12,0.1-0.2,0.24-0.2
		l4.64,0.41c0.12,0.01,0.21,0.12,0.2,0.24C39.93,134.39,39.84,134.48,39.72,134.48z"/>
</g>
<polygon class="st1" points="90.52,34.31 89.18,36.39 87.64,46.9 82.68,61.19 84.62,42.58 86.75,35.74 86.56,32.96 89.34,29.82 "/>
<path class="st3" d="M115.07,21.69h74.67l-11.19-1.17c0,0,0.95-5-5.58-6.34c-6.53-1.33-7.75,3.75-7.75,3.75s3.41-7.92-11.14-8.42
	c-14.55-0.5-13.12,8.17-13.12,8.17s0.67-1.86-4.05-2.09c-4.72-0.24-5.13,3.76-5.13,3.76L115.07,21.69z"/>
<path class="st3" d="M180.1,61.99h30.7l-10.17-2.27c0,0-0.1-3.03-5.83-3.18c-5.73-0.16-5.26,3.82-5.26,3.82L180.1,61.99z"/>
<path class="st3" d="M67.31,67.37l-7.64-0.92c0,0,2.48-6.43-6.19-7.83C44.82,57.21,42.35,65,42.35,65s-0.31-2.17-5.88-2.17
	c-5.57,0-7.12,4.42-7.12,4.42l-18.67,2.21l55.84,0.16L67.31,67.37z"/>
<g>
	<g>
		<path class="st2" d="M186.49,95.18c-0.09,0-0.18-0.04-0.25-0.11c-0.14-0.14-0.14-0.37,0-0.51l3.7-3.7c0.14-0.14,0.37-0.14,0.51,0
			c0.14,0.14,0.14,0.37,0,0.51l-3.7,3.7C186.67,95.14,186.58,95.18,186.49,95.18z"/>
	</g>
	<g>
		<path class="st2" d="M190.18,95.18c-0.09,0-0.18-0.04-0.25-0.11l-3.7-3.7c-0.14-0.14-0.14-0.37,0-0.51c0.14-0.14,0.37-0.14,0.51,0
			l3.7,3.7c0.14,0.14,0.14,0.37,0,0.51C190.36,95.14,190.27,95.18,190.18,95.18z"/>
	</g>
	<g>
		<path class="st2" d="M182.1,89.19c-0.78,0-1.41-0.63-1.41-1.41s0.63-1.41,1.41-1.41c0.78,0,1.41,0.63,1.41,1.41
			S182.88,89.19,182.1,89.19z M182.1,87.08c-0.38,0-0.7,0.31-0.7,0.7c0,0.38,0.31,0.7,0.7,0.7c0.38,0,0.7-0.31,0.7-0.7
			C182.8,87.4,182.49,87.08,182.1,87.08z"/>
	</g>
</g>
<g>
	<g>
		<path class="st2" d="M17.18,29.65c-0.78,0-1.41-0.63-1.41-1.41s0.63-1.41,1.41-1.41c0.78,0,1.42,0.63,1.42,1.41
			S17.96,29.65,17.18,29.65z M17.18,27.53c-0.38,0-0.7,0.31-0.7,0.7c0,0.38,0.31,0.7,0.7,0.7c0.38,0,0.7-0.31,0.7-0.7
			C17.88,27.85,17.56,27.53,17.18,27.53z"/>
	</g>
</g>
<g>
	<path class="st2" d="M35.74,116.56H19.51c-0.2,0-0.36-0.16-0.36-0.36c0-0.2,0.16-0.36,0.36-0.36h16.23c0.2,0,0.36,0.16,0.36,0.36
		C36.1,116.4,35.94,116.56,35.74,116.56z"/>
</g>
<g>
	<path class="st2" d="M123.01,203.85c-23.48,0-57.6-2.49-57.94-2.51c-0.11-0.01-0.21-0.06-0.27-0.15l-0.24-0.35L11.32,127.6
		c-0.09-0.12-0.09-0.29-0.01-0.41c0.09-0.12,0.24-0.18,0.39-0.14l23.63,6.29c0.19,0.05,0.31,0.25,0.25,0.44
		c-0.05,0.19-0.25,0.3-0.44,0.25l-22.65-6.03l52.8,72.63c2.66,0.19,35.12,2.5,57.72,2.5c27.76,0,64.5-2.31,67.45-2.5l39.74-65.72
		l-94.65,24.58c-0.06,0.01-0.12,0.02-0.18,0l-88.76-21.93c-0.19-0.05-0.31-0.24-0.26-0.43c0.05-0.19,0.24-0.31,0.43-0.26
		l88.67,21.91l95.41-24.77c0.14-0.03,0.29,0.02,0.38,0.13c0.09,0.12,0.1,0.27,0.02,0.4l-40.29,66.63c-0.06,0.1-0.17,0.17-0.28,0.17
		C190.31,201.36,151.83,203.85,123.01,203.85z"/>
</g>
<g>
	<path class="st2" d="M179.51,148.06c-0.15,0-0.29-0.09-0.34-0.24L144.27,46l-40.66,69.97c-0.1,0.17-0.32,0.23-0.49,0.13
		c-0.17-0.1-0.23-0.32-0.13-0.49l41.06-70.65c0.07-0.12,0.21-0.19,0.35-0.18c0.14,0.01,0.26,0.11,0.3,0.24l35.16,102.55
		c0.06,0.19-0.04,0.39-0.22,0.46C179.59,148.05,179.55,148.06,179.51,148.06z"/>
</g>
<g>
	<path class="st2" d="M127.12,157.41c-0.02,0-0.04,0-0.06,0c-0.2-0.03-0.33-0.22-0.29-0.41l12.15-73.06l-29.64,68.73
		c-0.08,0.18-0.29,0.27-0.47,0.19c-0.18-0.08-0.27-0.29-0.19-0.47l30.8-71.44c0.07-0.17,0.25-0.25,0.43-0.2
		c0.17,0.05,0.28,0.22,0.25,0.4l-12.63,75.97C127.44,157.29,127.29,157.41,127.12,157.41z"/>
</g>
<g>
	<path class="st2" d="M125.14,203.85c-0.03,0-0.05,0-0.08-0.01c-0.19-0.04-0.31-0.24-0.27-0.43l10.32-44.35
		c0.04-0.19,0.23-0.31,0.43-0.27c0.19,0.04,0.31,0.24,0.27,0.43l-10.32,44.35C125.45,203.73,125.31,203.85,125.14,203.85z"/>
</g>
<g>
	<path class="st2" d="M221.08,116.56h-52.36c-0.2,0-0.36-0.16-0.36-0.36c0-0.2,0.16-0.36,0.36-0.36h52.36c0.2,0,0.36,0.16,0.36,0.36
		C221.44,116.4,221.28,116.56,221.08,116.56z"/>
</g>
<g>
	<path class="st2" d="M80.39,116.56H55.33c-0.2,0-0.36-0.16-0.36-0.36c0-0.2,0.16-0.36,0.36-0.36h25.06c0.2,0,0.36,0.16,0.36,0.36
		C80.75,116.4,80.59,116.56,80.39,116.56z"/>
</g>
<g>
	<g>
		<path class="st2" d="M53.77,13.28c-0.22-0.01-0.37-0.18-0.36-0.38c0.08-1.34-0.19-2.36-0.82-3.03c-0.66-0.71-1.71-1.06-3.2-1.08
			c-0.15,0-0.34-0.01-0.56-0.02c-1.54-0.05-5.16-0.17-5.39,1.33c-0.03,0.2-0.22,0.33-0.41,0.3c-0.2-0.03-0.33-0.21-0.3-0.41
			c0.34-2.14,4.25-2,6.13-1.94c0.22,0.01,0.4,0.01,0.54,0.01c1.7,0.02,2.91,0.44,3.72,1.31c0.77,0.82,1.11,2.02,1.01,3.56
			C54.12,13.13,53.96,13.28,53.77,13.28z"/>
	</g>
	<g>
		<path class="st2" d="M45.86,14.23c-1.93,0-2.02-1.34-2.02-1.35c0-0.08,0.02-0.16,0.06-0.22c0.04-0.05,0.88-1.32-0.15-2.2
			c-0.15-0.13-0.17-0.35-0.04-0.51c0.13-0.15,0.36-0.17,0.51-0.04c1.14,0.97,0.77,2.33,0.36,3.02c0.07,0.2,0.34,0.63,1.44,0.57
			c0.43-0.02,0.76-0.15,0.96-0.39c0.35-0.4,0.29-1,0.29-1.01c-0.02-0.19,0.11-0.36,0.3-0.39c0.2-0.03,0.37,0.1,0.4,0.29
			c0.01,0.06,0.29,1.5,1.42,1.5c1.07,0,1.18-0.83,1.19-0.86c0.02-0.2,0.2-0.34,0.4-0.31c0.2,0.02,0.34,0.2,0.31,0.4
			c-0.06,0.51-0.54,1.49-1.89,1.49c-0.8,0-1.33-0.44-1.67-0.95c-0.06,0.11-0.13,0.21-0.22,0.31c-0.34,0.4-0.84,0.61-1.48,0.64
			C45.98,14.22,45.92,14.23,45.86,14.23z"/>
	</g>
	<g>
		<g>
			<path class="st2" d="M50.67,138.1c-0.02,0-0.04,0-0.06,0l-2.39-0.43c-0.14-0.03-0.25-0.13-0.28-0.26l-0.15-0.57l-0.87,0.66
				c-0.07,0.05-0.16,0.08-0.24,0.07l-16.69-1.1c-0.16-0.01-0.3-0.13-0.33-0.29c-0.03-0.16,0.06-0.32,0.21-0.39l9.07-4.08
				c0.18-0.08,0.39,0,0.47,0.18c0.08,0.18,0,0.39-0.18,0.47l-7.75,3.49l15.12,1l1.19-0.91c0.09-0.07,0.22-0.1,0.33-0.05
				c0.11,0.04,0.2,0.13,0.23,0.25l0.22,0.88l1.8,0.32l0.62-4.42c0.03-0.19,0.2-0.33,0.41-0.31c0.2,0.03,0.33,0.21,0.31,0.41
				l-0.67,4.79c-0.01,0.1-0.07,0.18-0.14,0.24C50.82,138.08,50.74,138.1,50.67,138.1z"/>
		</g>
	</g>
	<g>
		<path class="st2" d="M85.04,24.25c-1.6,0-2.82-0.39-3.7-1.18c-1.99-1.79-1.69-5.25-1.42-8.3c0.03-0.35,0.06-0.7,0.09-1.04
			c0.02-0.2,0.19-0.35,0.38-0.33c0.2,0.02,0.35,0.19,0.33,0.39c-0.03,0.34-0.06,0.69-0.09,1.05c-0.25,2.88-0.54,6.15,1.19,7.7
			c1.14,1.02,3.03,1.25,5.79,0.71c0.2-0.04,0.38,0.09,0.42,0.28s-0.09,0.38-0.28,0.42C86.75,24.15,85.85,24.25,85.04,24.25z"/>
	</g>
	<g>
		<path class="st2" d="M80.69,11.55c-0.2,0-0.36-0.16-0.36-0.36c0-2.43,0.97-4.76,1.01-4.86c0.08-0.18,0.29-0.27,0.47-0.19
			c0.18,0.08,0.27,0.29,0.19,0.47c-0.01,0.02-0.95,2.3-0.95,4.58C81.05,11.39,80.89,11.55,80.69,11.55z"/>
	</g>
	<g>
		<path class="st2" d="M95.42,16.74c-0.61,0-1.2-0.25-1.67-0.69c-0.14-0.14-0.15-0.36-0.02-0.51c0.14-0.14,0.36-0.15,0.51-0.02
			c0.34,0.32,0.75,0.5,1.18,0.5c0.53,0,1.02-0.26,1.39-0.72c0.39-0.49,0.6-1.13,0.6-1.83c-0.01-1.4-0.91-2.53-2-2.53
			c-0.77,0-1.86,0.57-2.19,1.36c-0.08,0.18-0.28,0.27-0.47,0.19c-0.18-0.08-0.27-0.29-0.19-0.47c0.46-1.11,1.83-1.8,2.84-1.81
			c1.5,0,2.72,1.45,2.73,3.24c0.01,0.86-0.26,1.67-0.76,2.28c-0.51,0.64-1.2,0.99-1.94,0.99C95.43,16.74,95.42,16.74,95.42,16.74z"
			/>
	</g>
	<g>
		<path class="st2" d="M95.68,15.27c-0.08,0-0.16-0.03-0.22-0.08l-1.71-1.36c-0.08-0.07-0.13-0.16-0.13-0.27
			c0-0.11,0.04-0.21,0.12-0.28l1.82-1.65c0.15-0.13,0.37-0.12,0.51,0.02c0.13,0.15,0.12,0.37-0.02,0.51l-1.5,1.37l1.38,1.1
			c0.15,0.12,0.18,0.35,0.06,0.5C95.89,15.22,95.78,15.27,95.68,15.27z"/>
	</g>
	<g>
		<path class="st2" d="M83.22,16.08c-0.11,0-0.27-0.07-0.34-0.15c-0.22-0.25-0.33-0.78,0.47-4.72c0.04-0.2,0.07-0.34,0.08-0.38
			c-0.02-0.2,0.13-0.34,0.32-0.35c0.23-0.02,0.37,0.16,0.39,0.36c0.01,0.07,0.01,0.07-0.09,0.52c-0.52,2.55-0.62,3.57-0.62,3.96
			c0.32-0.11,0.76-0.36,1.04-0.54c0.16-0.11,0.39-0.06,0.5,0.1c0.11,0.17,0.06,0.39-0.1,0.5c-0.17,0.11-1.07,0.68-1.64,0.71
			C83.22,16.08,83.22,16.08,83.22,16.08z"/>
	</g>
	<g>
		<path class="st2" d="M85.21,18.08c-0.06,0-1.89-0.21-3.03-0.23c-0.2,0-0.36-0.16-0.35-0.36c0-0.2,0.2-0.35,0.36-0.35
			c1.17,0.01,2.98,0.22,3.06,0.23c0.2,0.02,0.34,0.2,0.32,0.4C85.55,17.95,85.39,18.08,85.21,18.08z"/>
	</g>
	<path class="st2" d="M87.63,13.37c-0.21-0.01-0.38-0.2-0.37-0.41l0.06-1.1c0.01-0.21,0.2-0.38,0.41-0.37
		c0.21,0.01,0.38,0.2,0.37,0.41L88.04,13C88.03,13.21,87.85,13.38,87.63,13.37z"/>
	<g>
		<g>
			<path class="st2" d="M97.17,11.92c-0.05,0-0.1-0.01-0.15-0.03c-0.18-0.08-0.26-0.3-0.17-0.48c1.25-2.64,1.52-4.77,0.8-6.17
				c-0.68-1.33-2.02-1.58-2.07-1.59c-0.11-0.02-0.2-0.09-0.25-0.18c-1.66-3-6.56-3.24-10.69-2.15c-2.3,0.61-3.71,1.6-4.2,2.94
				c-0.71,1.93,0.73,4.01,0.75,4.03c0.11,0.16,0.08,0.39-0.09,0.5c-0.16,0.11-0.39,0.08-0.5-0.09c-0.07-0.1-1.67-2.4-0.83-4.69
				c0.58-1.58,2.15-2.72,4.69-3.4c4.02-1.06,9.38-1.07,11.42,2.35c0.46,0.12,1.71,0.57,2.41,1.92c0.84,1.62,0.58,3.92-0.79,6.81
				C97.43,11.84,97.3,11.92,97.17,11.92z"/>
		</g>
		<g>
			<path class="st2" d="M92.96,12.2c-0.23-0.02-0.38-0.19-0.36-0.39c0-0.03,0.28-3.17-0.6-5.62c-1.15-0.33-7.87-2.1-10.05,0.51
				c-0.13,0.15-0.35,0.17-0.5,0.05c-0.15-0.13-0.17-0.35-0.05-0.51c2.68-3.21,10.65-0.79,10.98-0.69c0.1,0.03,0.19,0.11,0.23,0.21
				c1.02,2.63,0.72,5.96,0.71,6.11C93.3,12.06,93.14,12.2,92.96,12.2z"/>
		</g>
	</g>
	<g>
		<g>
			<path class="st2" d="M81.12,66.54c-0.06,0-0.11-0.01-0.16-0.04c-0.16-0.08-0.23-0.27-0.18-0.44l14.17-41.61
				c0.04-0.11,0.13-0.2,0.24-0.23c0.11-0.03,0.24-0.01,0.33,0.07l4.18,3.46c0.06,0.05,0.1,0.12,0.12,0.2l1.73,7.93
				c0.04,0.19-0.07,0.37-0.26,0.42l-4.18,1.11l1.38,4.65c0.03,0.11,0.01,0.22-0.05,0.31L81.41,66.39
				C81.34,66.49,81.23,66.54,81.12,66.54z M95.46,25.18L82.25,63.96L97.76,42.1l-1.43-4.84c-0.03-0.09-0.02-0.19,0.03-0.28
				c0.05-0.08,0.13-0.15,0.22-0.17l4.21-1.12l-1.63-7.47L95.46,25.18z"/>
		</g>
	</g>
	<g>
		<g>
			<path class="st2" d="M81.12,66.54c-0.17,0-0.32-0.12-0.35-0.29l-5.13-25.94c-0.02-0.09,0-0.18,0.05-0.26l2.52-4.12l-2.89-2.06
				c-0.16-0.11-0.2-0.34-0.09-0.5l5.14-7.33c0.04-0.05,0.09-0.09,0.14-0.12l4.64-2.16c0.12-0.05,0.25-0.04,0.36,0.03
				c0.1,0.07,0.16,0.2,0.15,0.33l-4.19,42.08c-0.02,0.18-0.16,0.31-0.34,0.32C81.13,66.54,81.13,66.54,81.12,66.54z M76.37,40.31
				L81,63.74l3.89-39.05l-3.98,1.85l-4.88,6.96l2.87,2.04c0.15,0.11,0.2,0.32,0.1,0.48L76.37,40.31z"/>
		</g>
	</g>
	<g>
		<path class="st2" d="M104.25,96.46c-0.03,0-0.06,0-0.09-0.01c-0.12-0.03-12.08-3.28-23.2-8.41c-10.6-4.89-16.92-10.82-16.99-10.87
			c-0.11-0.11-0.14-0.27-0.08-0.41c0.04-0.08,3.58-7.67,5.83-22.27c0.02-0.12,2.01-11.3,3.09-15.94c0.04-0.19,0.23-0.31,0.43-0.27
			c0.19,0.04,0.31,0.24,0.27,0.43c-1.08,4.61-3.06,15.78-3.08,15.89c-2.04,13.26-5.16,20.81-5.78,22.22c1.11,1,7.13,6.2,16.61,10.57
			c9.82,4.53,20.3,7.58,22.62,8.23l-0.23-7.17c-0.01-0.2,0.15-0.36,0.35-0.37c0.19,0,0.36,0.15,0.37,0.35l0.24,7.66
			c0,0.11-0.05,0.22-0.14,0.29C104.4,96.44,104.33,96.46,104.25,96.46z"/>
	</g>
	<g>
		<path class="st2" d="M112.19,93.24c-0.15-0.02-0.24-0.08-0.3-0.17l-7.71-11.99c-0.07,0.05-0.16,0.08-0.26,0.07
			c-0.2-0.03-0.33-0.21-0.31-0.4l3.75-27.9c0.01-0.11,0.08-0.21,0.18-0.26c0.1-0.06,0.21-0.06,0.32-0.02
			c3.06,1.32,4.96,3.42,5.64,6.23c2.01,8.34-7.23,20.25-8.65,22.01l7.4,11.52c2.16-2.17,14.81-15.82,12.17-34.66
			c-2.73-19.45-14.83-25.87-25.06-29.29c-0.19-0.06-0.29-0.27-0.23-0.45c0.06-0.19,0.27-0.29,0.45-0.23
			c10.43,3.48,22.76,10.03,25.54,29.87c2.93,20.86-12.54,35.44-12.7,35.59C112.36,93.21,112.28,93.24,112.19,93.24z M108.01,53.42
			l-3.6,26.78c1.68-2.13,10.25-13.54,8.39-21.24C112.21,56.52,110.6,54.65,108.01,53.42z"/>
	</g>
	<g>
		<path class="st2" d="M59.57,37.53c-0.3,0-0.61-0.01-0.92-0.04c-8.01-0.76-6.63-17.15-6.56-17.85c0.02-0.2,0.2-0.34,0.39-0.33
			c0.2,0.02,0.34,0.19,0.33,0.39c-0.01,0.16-1.39,16.37,5.92,17.07c3.79,0.36,6.84-1.78,10.7-4.48c3.03-2.12,6.47-4.53,11.11-6.36
			c0.19-0.07,0.39,0.02,0.47,0.2c0.07,0.18-0.02,0.39-0.2,0.46c-4.57,1.8-7.96,4.18-10.96,6.28C66.16,35.45,63.2,37.53,59.57,37.53z
			"/>
	</g>
	<g>
		<path class="st2" d="M59.44,51.51c-3.1,0-5.77-0.63-7.88-1.4c-12.78-4.65-10-28.43-9.88-29.44c0.02-0.17,0.15-0.3,0.32-0.31
			l10.41-1.04c0.21-0.02,0.37,0.12,0.39,0.32c0.02,0.2-0.12,0.37-0.32,0.39l-10.12,1.01c-0.28,2.73-2.08,24.21,9.44,28.4
			c4.28,1.56,11.02,2.55,18.85-1.54c0.48-0.25,0.61-0.32,0.81-0.18c0.11,0.08,0.17,0.22,0.15,0.35c-0.03,0.17-0.16,0.29-0.32,0.3
			c-0.07,0.03-0.17,0.09-0.31,0.16C66.77,50.74,62.85,51.51,59.44,51.51z"/>
	</g>
	<g>
		<path class="st2" d="M85.81,147.12c-0.17,0-0.32-0.12-0.35-0.3c-0.08-0.46-7.76-43.92-8.41-47.64c-0.93-0.15-2.1-0.41-3.44-0.72
			c-6.17-1.39-15.49-3.5-17.41,2.02c-0.41,1.17-0.41,2.45-0.4,3.69l0,9.4c0,6.52,0,13.03,0.02,19.55c0,0.1-0.04,0.2-0.11,0.26
			c-0.07,0.07-0.17,0.11-0.27,0.1l-20.08-1.43c-0.19-0.01-0.34-0.17-0.33-0.36c0-0.3,0.44-30.3,1.43-40.75
			c1-10.63,16.45-12.81,27.72-14.4c0.2-0.03,0.38,0.11,0.41,0.3c0.03,0.2-0.11,0.38-0.31,0.41c-11.04,1.56-26.15,3.69-27.1,13.76
			c-0.93,9.81-1.37,36.99-1.42,40.35l19.36,1.38c-0.02-6.39-0.02-12.78-0.02-19.17l0-9.4c0-1.24,0-2.64,0.44-3.93
			c2.13-6.13,11.82-3.94,18.24-2.49c1.45,0.33,2.7,0.61,3.64,0.75c0.04,0.01,0.08,0.02,0.11,0.03c0.16,0.08,0.16,0.08,8.65,48.15
			c0.03,0.2-0.1,0.38-0.29,0.42C85.85,147.12,85.83,147.12,85.81,147.12z"/>
	</g>
	<g>
		<path class="st2" d="M105.49,152.03c-0.19,0-0.35-0.15-0.36-0.34l-3.23-56.13c-0.01-0.2,0.14-0.37,0.34-0.38
			c0.2-0.02,0.37,0.14,0.38,0.34l3.23,56.13c0.01,0.2-0.14,0.37-0.34,0.38C105.5,152.03,105.5,152.03,105.49,152.03z"/>
	</g>
	<g>
		<path class="st2" d="M66.07,14.23c-0.15,0-0.27-0.12-0.27-0.26c0-0.15,0.11-0.27,0.26-0.27l15.7-0.32
			c0.05-0.01,0.24-0.2,0.24-0.88c0-0.78-0.3-0.88-0.3-0.89l-15.5-0.3c-0.15,0-0.27-0.13-0.26-0.27c0-0.15,0.15-0.25,0.27-0.26
			l15.56,0.31c0.12,0.02,0.76,0.18,0.76,1.41c0,1.38-0.69,1.42-0.77,1.42L66.07,14.23C66.08,14.23,66.08,14.23,66.07,14.23z"/>
	</g>
	<g>
		<path class="st2" d="M43.98,10.45H38.1c-0.15,0-0.27-0.12-0.27-0.27s0.12-0.27,0.27-0.27h5.88c0.15,0,0.27,0.12,0.27,0.27
			S44.13,10.45,43.98,10.45z"/>
	</g>
	<g>
		<path class="st2" d="M65.85,15h-11.4c-0.15,0-0.27-0.12-0.27-0.27s0.12-0.27,0.27-0.27h11.22c0.1-0.28,0.28-0.96,0.28-2.01
			c0-1.17-0.17-1.77-0.26-2.01H53.31c-0.15,0-0.27-0.12-0.27-0.27s0.12-0.27,0.27-0.27h12.54c0.09,0,0.18,0.05,0.23,0.12
			c0.04,0.06,0.4,0.67,0.4,2.42c0,1.56-0.37,2.36-0.39,2.39C66.05,14.94,65.96,15,65.85,15z"/>
	</g>
	<g>
		<path class="st2" d="M51.43,15H38.1c-0.15,0-0.27-0.12-0.27-0.27s0.12-0.27,0.27-0.27h13.32c0.15,0,0.27,0.12,0.27,0.27
			S51.57,15,51.43,15z"/>
	</g>
	<g>
		<path class="st2" d="M38.1,15c-0.72,0-1.04-1.32-1.04-2.54s0.33-2.54,1.04-2.54c0.72,0,1.04,1.32,1.04,2.54S38.82,15,38.1,15z
			 M38.1,10.45c-0.13,0-0.51,0.69-0.51,2.01s0.38,2.01,0.51,2.01c0.13,0,0.5-0.69,0.5-2.01C38.61,11.15,38.23,10.46,38.1,10.45z"/>
	</g>
	<g>
		<path class="st2" d="M77.35,99.23c-0.18,0-0.33-0.13-0.36-0.31l-0.89-7.06c-0.03-0.2,0.11-0.38,0.31-0.4
			c0.2-0.02,0.38,0.11,0.4,0.31l0.89,7.06c0.03,0.2-0.11,0.38-0.31,0.4C77.38,99.23,77.36,99.23,77.35,99.23z"/>
	</g>
	<g>
		<path class="st2" d="M95.29,24.93c-0.2,0-0.36-0.17-0.36-0.37l0.14-8.19c0-0.2,0.16-0.35,0.36-0.35c0.2,0,0.36,0.17,0.36,0.37
			l-0.14,8.19C95.64,24.77,95.48,24.93,95.29,24.93z"/>
	</g>
	<g>
		<path class="st2" d="M89.42,28.65c-0.14,0-0.27,0-0.39-0.01c-3.14-0.25-4.19-2.04-4.24-2.12c-0.04-0.06-0.05-0.14-0.04-0.21
			l0.21-2.42c0.02-0.2,0.17-0.35,0.39-0.33c0.2,0.02,0.34,0.19,0.33,0.39l-0.2,2.3c0.23,0.33,1.22,1.49,3.61,1.67
			c1.48,0.11,4.38-0.6,5.07-0.98c0.17-0.1,0.39-0.03,0.49,0.14c0.1,0.17,0.03,0.39-0.14,0.49C93.69,28.01,91.04,28.65,89.42,28.65z"
			/>
	</g>
	<g>
		<path class="st2" d="M51.15,20.03c-0.13,0-0.26-0.07-0.32-0.2c-0.09-0.18-0.01-0.39,0.17-0.48c1.8-0.88,2.88-4,3.07-4.61
			c-0.41-1.25-1.21-3.28-1.73-3.69c-0.06-0.05-0.12-0.08-0.26,0.02c-0.45,0.31-0.88,1.41-0.73,1.9c0.25,0.85,0.52,1.66,0.52,1.66
			c0.06,0.19-0.04,0.39-0.22,0.45c-0.19,0.06-0.39-0.04-0.46-0.22c0,0-0.28-0.82-0.53-1.69c-0.23-0.78,0.32-2.21,1.02-2.69
			c0.37-0.25,0.78-0.25,1.11,0.01c0.89,0.7,1.9,3.79,2.01,4.14c0.02,0.07,0.02,0.14,0,0.21c-0.05,0.16-1.21,4.04-3.48,5.16
			C51.25,20.01,51.2,20.03,51.15,20.03z"/>
	</g>
	<g>
		<path class="st2" d="M43.93,20.75c-0.18,0-0.33-0.13-0.35-0.31l-0.82-5.52c-0.03-0.2,0.11-0.38,0.3-0.41
			c0.2-0.03,0.38,0.11,0.41,0.3l0.82,5.52c0.03,0.2-0.11,0.38-0.3,0.41C43.97,20.75,43.95,20.75,43.93,20.75z"/>
	</g>
	<g>
		<path class="st2" d="M88.67,10.94h-1.78c-0.2,0-0.36-0.16-0.36-0.36c0-0.2,0.16-0.36,0.36-0.36h1.78c0.2,0,0.36,0.16,0.36,0.36
			C89.03,10.78,88.87,10.94,88.67,10.94z"/>
	</g>
	<g>
		<path class="st2" d="M82.79,10.94h-1.78c-0.2,0-0.36-0.16-0.36-0.36c0-0.2,0.16-0.36,0.36-0.36h1.78c0.2,0,0.36,0.16,0.36,0.36
			C83.15,10.78,82.99,10.94,82.79,10.94z"/>
	</g>
	<g>
		<path class="st2" d="M105.44,88.91c-1.74,0-3.54-0.52-4.82-0.89c-0.68-0.2-1.33-0.38-1.58-0.37c-0.42,0.01-1.07,0.2-1.7,0.38
			c-1.25,0.35-2.32,0.66-2.85,0.16c-0.14-0.13-0.22-0.32-0.21-0.53c0.03-0.83,1.51-2.13,2.09-2.62c0.22-0.77,1.26-4.23,2.53-5.07
			c1.39-0.92,5.33,0.52,5.78,0.69c0.19,0.07,0.28,0.28,0.21,0.46c-0.07,0.19-0.28,0.28-0.46,0.21c-1.55-0.58-4.31-1.31-5.13-0.76
			c-0.95,0.63-1.96,3.66-2.27,4.77c-0.02,0.07-0.06,0.14-0.12,0.18c-1.04,0.85-1.95,1.88-1.91,2.17c0.21,0.19,1.42-0.16,2.14-0.36
			c0.7-0.2,1.36-0.39,1.87-0.4c0.39-0.01,0.98,0.16,1.81,0.4c2.01,0.58,5.38,1.55,7.4,0.11c0.16-0.11,0.38-0.08,0.5,0.08
			c0.12,0.16,0.08,0.39-0.08,0.5C107.72,88.68,106.59,88.91,105.44,88.91z"/>
	</g>
	<g>
		<path class="st2" d="M80.52,116.56H55.46c-0.2,0-0.36-0.16-0.36-0.36c0-0.2,0.16-0.36,0.36-0.36h25.06c0.2,0,0.36,0.16,0.36,0.36
			C80.88,116.4,80.72,116.56,80.52,116.56z"/>
	</g>
	<g>
		<path class="st2" d="M91.16,36.67c-0.12,0-0.22-0.07-0.26-0.19l-2.35-7.65l-3.98,5.5c-0.09,0.12-0.26,0.15-0.38,0.06
			c-0.12-0.09-0.15-0.25-0.06-0.38l4.29-5.94c0.06-0.08,0.16-0.12,0.26-0.11c0.1,0.02,0.18,0.09,0.21,0.19l2.51,8.17
			c0.04,0.14-0.04,0.29-0.18,0.34C91.22,36.66,91.19,36.67,91.16,36.67z"/>
	</g>
</g>
<g>
	<path class="st2" d="M194.3,127.75h-11.57c-0.2,0-0.36-0.16-0.36-0.36c0-0.2,0.16-0.36,0.36-0.36h11.57c0.2,0,0.36,0.16,0.36,0.36
		C194.66,127.59,194.5,127.75,194.3,127.75z"/>
</g>
<g>
	<path class="st2" d="M31.71,180.34H6.55c-0.2,0-0.36-0.16-0.36-0.36c0-0.2,0.16-0.36,0.36-0.36h25.17c0.2,0,0.36,0.16,0.36,0.36
		C32.07,180.18,31.91,180.34,31.71,180.34z"/>
</g>
<g>
	<path class="st2" d="M16.17,187.24H7.75c-0.2,0-0.36-0.16-0.36-0.36c0-0.2,0.16-0.36,0.36-0.36h8.42c0.2,0,0.36,0.16,0.36,0.36
		C16.53,187.08,16.37,187.24,16.17,187.24z"/>
</g>
<g>
	<path class="st2" d="M225.43,209.91h-21.37c-0.2,0-0.36-0.16-0.36-0.36c0-0.2,0.16-0.36,0.36-0.36h21.37c0.2,0,0.36,0.16,0.36,0.36
		C225.79,209.75,225.63,209.91,225.43,209.91z"/>
</g>
<g>
	<path class="st2" d="M72.71,213.14H51.34c-0.2,0-0.36-0.16-0.36-0.36c0-0.2,0.16-0.36,0.36-0.36h21.37c0.2,0,0.36,0.16,0.36,0.36
		C73.06,212.98,72.9,213.14,72.71,213.14z"/>
</g>
<g>
	<path class="st2" d="M241.36,174.55h-12.48c-0.2,0-0.36-0.16-0.36-0.36c0-0.2,0.16-0.36,0.36-0.36h12.48c0.2,0,0.36,0.16,0.36,0.36
		C241.72,174.39,241.56,174.55,241.36,174.55z"/>
</g>
<g>
	<path class="st2" d="M230.96,180.84h-5.53c-0.2,0-0.36-0.16-0.36-0.36c0-0.2,0.16-0.36,0.36-0.36h5.53c0.2,0,0.36,0.16,0.36,0.36
		C231.32,180.68,231.16,180.84,230.96,180.84z"/>
</g>
<g>
	<path class="st2" d="M85.88,52.47c-0.19-0.02-0.29-0.16-0.27-0.31l2.44-16.46c0-0.04,0.02-0.07,0.04-0.11l1.79-2.77
		c0.08-0.13,0.25-0.16,0.37-0.08c0.12,0.08,0.16,0.25,0.08,0.37l-1.76,2.72l-2.43,16.4C86.13,52.37,86.01,52.47,85.88,52.47z"/>
</g>
<g>
	<path class="st2" d="M83.43,43.23c-0.03,0-0.05,0-0.08-0.01c-0.14-0.04-0.22-0.19-0.18-0.34l2.44-7.82l-0.18-2.73
		c-0.01-0.15,0.1-0.28,0.25-0.29c0.15,0,0.28,0.1,0.29,0.25l0.18,2.78c0,0.03,0,0.07-0.01,0.1l-2.45,7.87
		C83.65,43.16,83.54,43.23,83.43,43.23z"/>
</g>
<g>
	<path class="st2" d="M88.32,36.01c-0.02,0-0.05,0-0.07-0.01l-2.44-0.65c-0.14-0.04-0.23-0.19-0.19-0.33
		c0.04-0.14,0.18-0.23,0.33-0.19l2.44,0.65c0.14,0.04,0.23,0.19,0.19,0.33C88.54,35.93,88.44,36.01,88.32,36.01z"/>
</g>
<g>
	<path class="st2" d="M96.77,85.58c-0.12,0-0.24-0.06-0.31-0.17c-0.1-0.17-0.05-0.39,0.12-0.49c0.02-0.01,0.54-0.33,1.24-0.48
		c0.7-0.15,1.91,0.13,2.04,0.16c0.19,0.05,0.31,0.24,0.27,0.43c-0.05,0.19-0.24,0.31-0.43,0.27c-0.32-0.08-1.26-0.26-1.73-0.16
		c-0.57,0.12-1,0.38-1.01,0.39C96.9,85.56,96.84,85.58,96.77,85.58z"/>
</g>
<g>
	<path class="st2" d="M191.91,19.94h-74.67c-0.19,0-0.34-0.15-0.36-0.33c-0.01-0.19,0.12-0.35,0.31-0.38l16.46-2.3
		c0.21-0.96,1.2-4.03,5.45-3.8c1.74,0.09,2.98,0.4,3.7,0.93c0.15-1.1,0.62-2.58,1.94-3.91c2.06-2.07,5.54-3.12,10.33-3.12
		c0.39,0,0.79,0.01,1.2,0.02c5.5,0.19,9.14,1.45,10.83,3.75c0.73,1,0.97,2.05,1,2.93c0.87-1.11,2.4-2.23,4.99-2.23
		c0.67,0,1.39,0.08,2.14,0.23c5.71,1.17,5.97,5.11,5.9,6.37l10.83,1.13c0.19,0.02,0.33,0.19,0.32,0.38
		C192.25,19.79,192.1,19.94,191.91,19.94z M122.39,19.22h62.62l-4.33-0.45c-0.1-0.01-0.19-0.06-0.25-0.14
		c-0.06-0.08-0.08-0.18-0.07-0.28c0.04-0.19,0.79-4.68-5.3-5.92c-0.7-0.14-1.37-0.22-1.99-0.22c-3.52,0-4.82,2.32-5.21,3.32
		c-0.07,0.27-0.15,0.44-0.15,0.44c-0.08,0.17-0.27,0.25-0.44,0.2c-0.18-0.06-0.28-0.24-0.24-0.42c0,0,0.04-0.18,0.16-0.48
		c0.23-0.82,0.46-2.49-0.69-4.05c-1.55-2.11-5-3.27-10.27-3.45c-0.4-0.01-0.79-0.02-1.17-0.02c-4.59,0-7.9,0.98-9.83,2.91
		c-1.53,1.54-1.79,3.3-1.79,4.26c0.14,0.42,0.03,0.75,0.02,0.79c-0.06,0.15-0.21,0.25-0.37,0.23c-0.16-0.01-0.29-0.14-0.32-0.3
		c0,0-0.04-0.22-0.04-0.58c-0.17-0.35-0.88-1.07-3.67-1.21c-4.29-0.22-4.73,3.3-4.75,3.44c-0.02,0.16-0.14,0.3-0.31,0.32
		L122.39,19.22z"/>
</g>
<g>
	<path class="st2" d="M212.96,60.24h-30.69c-0.19,0-0.34-0.14-0.36-0.33c-0.02-0.19,0.11-0.35,0.3-0.38l9.12-1.59
		c0.01-0.51,0.15-1.49,0.91-2.35c0.95-1.07,2.52-1.59,4.73-1.53c5.02,0.14,5.96,2.43,6.14,3.25l9.93,2.22
		c0.18,0.04,0.3,0.21,0.28,0.39C213.29,60.1,213.14,60.24,212.96,60.24z M186.42,59.52h23.29l-7-1.56
		c-0.16-0.04-0.28-0.17-0.28-0.34c-0.01-0.11-0.2-2.69-5.48-2.84l-0.32,0c-1.8,0-3.09,0.43-3.86,1.29
		c-0.85,0.96-0.73,2.12-0.73,2.13c0.02,0.19-0.11,0.36-0.29,0.4L186.42,59.52z"/>
</g>
<g>
	<path class="st2" d="M67,68.52H13.2c-0.19,0-0.35-0.15-0.36-0.34c-0.01-0.19,0.13-0.36,0.32-0.38l18.46-2.18
		c0.41-0.91,2.33-4.45,7.37-4.45c3.72,0,5.22,0.97,5.83,1.7c0.9-1.95,3.98-7.09,11.25-5.91c3.03,0.49,5.09,1.64,6.11,3.42
		c1.02,1.77,0.71,3.64,0.49,4.46l5.19,0.71c0.2,0.03,0.33,0.21,0.31,0.4c-0.03,0.2-0.2,0.33-0.4,0.31l-5.61-0.77
		c-0.11-0.02-0.2-0.08-0.26-0.17c-0.06-0.09-0.07-0.21-0.03-0.31c0.01-0.02,0.85-2.28-0.31-4.28c-0.91-1.58-2.79-2.61-5.6-3.07
		c-8.25-1.34-10.72,6.07-10.74,6.14c-0.05,0.16-0.2,0.27-0.37,0.25c-0.17-0.01-0.3-0.14-0.33-0.31c0-0.01-0.42-1.86-5.52-1.86
		c-5.25,0-6.76,4.14-6.78,4.18c-0.05,0.13-0.16,0.22-0.3,0.24L19.28,67.8H67c0.2,0,0.36,0.16,0.36,0.36
		C67.36,68.36,67.2,68.52,67,68.52z"/>
</g>
</svg>
