<?xml version="1.0" encoding="utf-8"?>
<!-- Generator: Adobe Illustrator 25.3.0, SVG Export Plug-In . SVG Version: 6.00 Build 0)  -->
<svg version="1.1" id="_x3C_Layer_x3E_" xmlns="http://www.w3.org/2000/svg" xmlns:xlink="http://www.w3.org/1999/xlink" x="0px"
	 y="0px" viewBox="0 0 1514.88 1238.61" style="enable-background:new 0 0 1514.88 1238.61;" xml:space="preserve">
<style type="text/css">
	.st0{fill-rule:evenodd;clip-rule:evenodd;fill:#FFFFFF;}
	.st1{fill-rule:evenodd;clip-rule:evenodd;fill:#2E2E2E;}
	.st2{fill:#D395AB;}
	.st3{fill-rule:evenodd;clip-rule:evenodd;fill:#D395AB;}
	.st4{fill:#2E2E2E;}
	.st5{fill-rule:evenodd;clip-rule:evenodd;fill:#D6D6D6;}
	.st6{fill-rule:evenodd;clip-rule:evenodd;fill:#BB5A7D;}
	.st7{fill-rule:evenodd;clip-rule:evenodd;fill:#F7F7F7;}
	.st8{fill:#FFFFFF;}
</style>
<rect x="14.59" y="15.55" class="st0" width="1090.13" height="922.67"/>
<g>
	<g>
		<path class="st1" d="M1430.84,315.45l-27.2,27.2l-27.21-27.2l27.21-27.2L1430.84,315.45z"/>
	</g>
</g>
<g>
	<g>
		<path class="st2" d="M1423.8,258.04c-1.85-1.65-2.01-4.48-0.36-6.33c2.11-2.37,51.06-58.66-2.23-107.5
			c-5.05-4.63-10.39-8.06-15.83-10.53c-6.8,19.29-20.17,36.22-33.73,47.85c-21.04,18.04-43.27,25.13-56.63,18.04
			c-16.26-8.62-19.22-19.75-18.85-27.57c0.81-16.7,18.2-34.86,43.28-45.17c17.16-7.06,39.34-10.56,59.97-4.71
			c2.43-10.86,2.32-22.28-1.63-33.64c-26.1-75.2-149.31-76-153.24-76c-2.46,0-4.47-1.99-4.48-4.45c-0.02-2.48,1.97-4.5,4.45-4.52
			c1.35-0.03,33.46-0.14,69.53,9.67c48.46,13.17,80.35,38.19,92.21,72.36c4.67,13.46,4.68,26.91,1.65,39.58
			c6.83,2.91,13.36,7,19.36,12.49c59.86,54.85,3.44,119.43,2.87,120.08c-0.89,0.99-2.11,1.49-3.34,1.49
			C1425.72,259.17,1424.66,258.8,1423.8,258.04z M1342.86,135.12c-21.58,8.88-37.1,24.22-37.73,37.31
			c-0.37,7.6,4.37,14.06,14.09,19.21c9.78,5.18,28.94-1.78,46.6-16.93c12.56-10.78,24.99-26.45,31.18-44.14
			C1373.93,123.95,1351,131.77,1342.86,135.12z"/>
	</g>
</g>
<g>
	<g>
		<path class="st3" d="M1484.94,404.2c0,23.11-18.73,41.85-41.85,41.85c-23.11,0-41.85-18.74-41.85-41.85
			c0-23.12,18.73-41.84,41.85-41.84C1466.21,362.35,1484.94,381.08,1484.94,404.2z"/>
	</g>
</g>
<g>
	<g>
		<path class="st4" d="M14.59,943.74V20.23c0-2.26,2.01-4.09,4.48-4.09h1087.51c2.48,0,4.48,1.83,4.48,4.09v923.52
			c0,2.26-2.01,4.09-4.48,4.09H19.07C16.6,947.84,14.59,946.01,14.59,943.74z M1102.1,24.32H23.56v915.33H1102.1V24.32z"/>
	</g>
</g>
<g>
	<g>
		<path class="st1" d="M221.9,211.39c1.42,3.86,2.91,8.08,4.1,12c2.23,7.36,7.32,19.21-1.17,23.41c-7.4,0.26-11.15-3.79-14.93-7.02
			c-9.64-8.26-19.81-16.53-30.15-24.59c-2.07-1.61-4.51-4.34-6.44-4.68c-3.67-0.64-9.01,0.48-13.46,0.59c-4.81,0.11-9.73,0-14.34,0
			c-9.26,0-19.29,1.2-26.93-1.46c-11.37-3.98-12.99-18.98-14.34-33.37c-1.75-18.59-1.41-39.8,0.29-57.66
			c0.86-9.03,1.17-19.09,3.81-26.63c4.04-11.56,15.42-11.08,31.02-10.54c26.93,0.93,51.76-1.37,75.8-2.63
			c16.8-0.88,34.07-0.75,50.93-1.46c50.77-2.14,101.42-3.8,153.95-3.8c40.5,0,83.08-2.07,122.63-0.59c28.92,1.08,56.15,1.65,84,3.8
			c10.02,0.78,23.39,1.36,29.85,5.27c7.75,4.69,9.47,15.72,10.54,27.8c0.75,8.52,1.17,18.9,1.17,28.68
			c0,24.57-2.21,40.83-17.85,47.41c-12.63,5.31-31.37,6.56-48.59,7.32c-18.32,0.8-37.57,1.32-55.02,0.59
			c-18.34-0.77-36.87-2.01-55.02-1.17c-17.88,0.83-35.33,2.17-53.27,2.93c-56.31,2.37-110.59,1.24-164.78,3.8
			c-14,0.66-27.52-0.3-40.68-0.88c-4.26-0.19-8.87-0.49-12.88,1.17C218.02,203.51,220.45,207.45,221.9,211.39z M217.51,231.88
			c-1.5-9.01-7.63-18.01-9.07-28.1c-0.24-1.68,0.12-3.52,0-5.56c-0.18-3.1-1.14-4.7,0.59-7.02c2.96-3.98,18.88-3.18,25.76-2.93
			c9.44,0.35,18.3,0.88,28.1,0.88c20.35,0,37.34-2.05,55.9-2.05c20.15,0,39.25,0.08,57.95-0.29c18.43-0.36,37.38-1.46,56.49-1.46
			c18.84,0,37.09-2.06,55.32-2.93c18.4-0.88,37.54,0.08,56.49,0.88c28.44,1.2,57.11,0.4,83.41-2.93
			c10.65-1.35,21.08-3.49,25.17-9.95c5.29-8.36,4.66-27.04,4.1-40.39c-0.32-7.62-0.76-13.7-1.46-21.07
			c-0.61-6.34-0.72-14.41-4.68-17.56c-2.1-1.67-8.67-2.34-13.17-2.93c-33.6-4.41-69.95-3.3-105.95-4.98c-15.86-0.74-36.61,0-53.56,0
			c-17.76,0-35.6,0.04-52.39,0.29c-34.52,0.53-70.63,0.17-103.9,1.76c-33.26,1.58-67.25,2.27-102.14,3.51
			c-16.38,0.58-32.51,2.49-49.75,3.22c-8.45,0.36-17.81-0.25-26.05-0.29c-6.75-0.04-23.03-1.77-25.46,1.46
			c-3.14,4.17-3.74,18.77-4.39,25.46c-2.19,22.65-2.71,49.06,1.76,69.95c0.72,3.35,2.03,9.43,4.98,10.54
			c6.75,2.53,17.93,1.17,28.1,1.17c4.72,0,9.83,0.21,14.63,0c5.06-0.22,10.39-1.06,13.76-0.29c2.05,0.47,2.98,2.23,4.98,4.1
			c4.43,4.15,10.6,8.46,14.93,12C204.89,222.07,210.82,226.68,217.51,231.88z"/>
	</g>
	<g>
		<path class="st1" d="M384.05,409.24c-26.6,0-53.57-0.59-81.95-0.59c-25.48,0-53.84-2.05-80.19-2.05c-12.8,0-25.46,1.56-38.63,2.63
			c-12.27,1-28,3.34-38.05-0.29c-5.1-1.85-12.19-12.96-12.88-19.32c-1.08-10,0-20.56,0-31.02c0-9.91,0.29-20.1,0.29-31.02
			c0-17.71,1.46-43.66,13.17-49.46c6.16-3.05,17.72-2.55,26.34-2.93c9.6-0.42,20.73-0.7,29.56-0.29
			c35.23,1.64,70.33,4.14,106.53,5.85c17.56,0.83,35.78,2.05,54.15,2.05c18.48,0,37.1-0.59,55.9-0.59
			c64.73,0,130.45,0.59,196.39,0.59c7.28,0,23.08-2.37,23.12,5.27c0.03,6.36-7.45,5.3-14.93,5.27c8.85,10.3,7.98,27.66,8.49,45.95
			c0.39,13.98,4.59,38.9-1.17,50.34c-3.9,7.75-15.73,10.47-26.05,13.17c-8.74,2.28-20.58,3.72-29.56,4.98
			c-9.68,1.36-20.55,2.73-31.32,3.22c-11,0.5-22.31,0.31-31.9,2.63c-8.96,2.17-16.3,7.99-23.41,12.88
			c-11.4,7.84-21.83,15.75-32.78,24c-3.46,2.61-12.93,11.33-18.44,9.37c-7.37-2.63,0.09-12.89,2.34-16.68
			c7.89-13.31,16.28-25.35,23.41-37.75C436.58,406.77,410.69,409.24,384.05,409.24z M455.46,436.46
			c10.77-6.6,20.61-14.61,31.61-21.95c5.55-3.7,11.17-7.41,17.56-9.66c6.54-2.3,14.09-3.37,23.12-3.8
			c17.16-0.82,33.53-2.23,49.76-4.39c7.73-1.03,15.28-1.78,23.12-3.81c5.79-1.49,16.89-3.85,19.61-7.32
			c2.96-3.78,2.09-14.44,1.76-21.37c-0.36-7.64-0.48-14.77-0.88-23.12c-0.68-14.43,0.8-34.77-6.73-41.27
			c-2.36-2.04-5.41-1.23-7.02-4.1c-0.34-0.61-0.12-1.99-1.46-2.34c-34.09,0.31-68.45-0.29-102.73-0.29
			c-68.51,0-135.88,1.37-202.53-2.34c-16.4-0.91-32.79-1.55-48.88-2.63c-25.96-1.74-49.17-3.6-75.8-2.34
			c-3.83,0.18-8.52,0.38-12.88,0.58c-4.27,0.2-9.54-0.32-12.29,1.17c-4.17,2.26-6,14.94-6.73,20.78
			c-2.2,17.59-1.17,35.95-1.17,53.85c0,8.72-1.29,18.58,0.29,26.93c0.7,3.68,4.02,9.04,6.73,10.24c4.11,1.83,13.34,1.07,19.61,0.59
			c20.01-1.56,39.61-4.46,60-3.51c54.53,2.54,110.85,2.34,168,2.34c13.43,0,27.03-1.44,40.39-2.34c6.47-0.44,12.48-0.62,20.19-1.17
			c8.47-0.6,17.34-2.58,18.15,4.68c0.43,3.88-1.99,7.57-3.8,10.54C467.23,418.92,460.24,428.37,455.46,436.46z"/>
	</g>
</g>
<g>
	<g>
		<path class="st3" d="M195.3,331.28c-9.08,9.42-26.89,1.49-28.47-8.18c-1.84-11.23,8.76-18.73,19.69-17.57
			c5.42,0.58,10.56,4.26,7.57,10C201.96,316.57,198.94,327.5,195.3,331.28z M187.42,323.7c1.06-1.66,0.8-4.65,1.82-6.36
			c-4.3-1.71-11.66-0.84-11.51,3.33C177.84,323.77,183.98,325.75,187.42,323.7z"/>
	</g>
	<g>
		<path class="st3" d="M108.36,784.45c-0.46-10.57,2.42-21.02,2.42-32.11c0-34.35,1.22-68.95,2.73-102.08
			c0.99-21.84,3.33-44.18,3.33-66.64c0-22.78-0.02-45.63,1.51-68.16c7.89-2.51,16.72-1.42,25.45-1.82
			c25.67-1.17,53.22-1.98,79.67-2.12c17.61-0.1,35.38-1.02,53.31-1.21c53.3-0.56,104.76-3.03,160.55-3.03
			c31.34,0,62-1.21,94.21-1.21c5.33,0,8.77-0.66,9.69-3.94c2.53-9.02-9.66-6.75-17.87-6.66c-13.1,0.14-28.01-0.13-40.59,0.3
			c-53.74,1.86-109.29,0.23-161.76,2.73c-17.6,0.84-35.55,1.11-53.62,1.21c-17.97,0.1-35.9,1.21-53.62,1.21
			c-25.72,0-53.34,0.86-79.97,2.12c-10.39,0.49-20.4,0.01-24.23,5.15c-4.09,5.48-2.95,24.52-3.33,33.62
			c-0.56,13.23-0.3,24.83-0.3,36.35c0,25.55-1.75,47.65-3.03,70.28c-1.91,33.85-2.15,70.66-3.03,107.23
			c-0.12,5.11-1,10.52-1.82,16.66c-1.16,8.75-2.41,18.4,3.94,21.51c4.45,2.18,14.58,2.23,22.72,2.42c8.52,0.21,17.07,0.3,24.84,0.3
			c17.17,0,32,1.82,48.47,1.82c17.54,0,34.24,0.45,49.98-0.3c16.01-0.76,31.06-3.3,45.44-4.85c48.43-5.22,94.35-4.84,146.01-4.85
			c8.05,0,16.14,0.53,24.23,0.91c8.44,0.4,19.21,1.61,26.35-0.3c3.31-0.89,6.73-2.9,10.6-4.24c15.1-5.25,38.07-1.82,45.44-14.54
			c6.68-11.54,7.98-30.95,10-46.95c5.23-41.5,7.02-87.32,8.48-133.89c0.22-6.88,2.2-22.34-6.06-21.81
			c-7.11,0.46-4.63,15.1-4.85,22.72c-0.73,26.3-2.46,55.41-3.63,80.27c-1.21,25.55-3.66,51.96-8.18,76.03
			c-1.36,7.26-3.56,19.05-7.88,20.9c-6.51,2.79-16.05,2.89-24.54,4.24c-4.36,0.69-8.19,1.52-11.81,2.73
			c-4.24,1.41-7.73,3.74-11.81,4.24c-7.55,0.93-15.86-0.22-23.93-0.61c-7.86-0.38-16.09-0.61-23.93-0.61
			c-48.23,0-98.26-0.13-142.37,4.55c-14.86,1.58-29.35,3.78-44.23,4.85c-15.56,1.11-31.62,0.61-48.17,0.61
			C171.26,787.48,139.44,785.22,108.36,784.45z"/>
	</g>
	<g>
		<path class="st3" d="M363.72,583.31c-6.64-9.51-13.46-18.85-19.08-29.38c16.38-2.11,34.09-6.66,54.22-6.66
			c7.15,0,15.01,0.94,15.15-5.15c0.2-8.58-17.48-5.75-25.75-5.15c-11.07,0.8-24.08,2.93-35.44,4.54c-8.42,1.2-18.03,1.55-19.39,9.09
			c-1,5.56,1.83,9.84,4.54,14.24c4.29,6.96,10.31,15.4,14.84,22.11c2.3,3.4,5.12,8.3,10,8.48c5.61,0.21,9.88-5.81,12.72-9.09
			c7.06-8.16,13.9-13.5,22.72-20.3c3.33-2.57,10.19-6.63,10-11.51c-0.11-2.77-2.86-5.1-5.15-5.15c-3.63-0.08-8.1,5.34-10.9,7.57
			C381.59,565.41,370.88,573.24,363.72,583.31z"/>
	</g>
	<g>
		<path class="st3" d="M201.36,550.9c4.95,13.18-5.09,24.8-19.08,23.02c-8.31-1.05-17.36-9.68-16.06-20.3
			c1.15-9.35,13.26-15.31,23.02-13.94C195.95,540.63,199.96,547.17,201.36,550.9z M188.03,550.59c-2.67-1-10.35,1.7-10.91,4.54
			c-1.49,7.62,12.72,11.21,14.54,3.94C192.51,555.68,190.11,551.37,188.03,550.59z"/>
	</g>
	<g>
		<path class="st3" d="M274.66,561.2c2.14,6.65,6.26,12.95,9.39,18.78c5.97,11.13,13.12,25.61,18.78,37.56
			c2.7,5.7,8.82,14.83,8.18,19.99c-1.03,8.37-17.21,7.74-26.96,8.18c-5.86,0.27-11.04,0.35-16.96,0.61
			c-4.39,0.19-13.39,1.06-16.66-0.3c-8.21-3.41-3.59-19.31-1.52-27.57c3.06-12.14,6.1-25.46,9.09-36.96
			c1.79-6.9,4.4-12.57,4.85-18.48c0.11-1.42-0.62-4.99,0-6.66c0.78-2.1,3.89-3.27,6.06-3.03C274.1,553.9,273.3,556.96,274.66,561.2z
			 M270.73,577.86c-5.61,18.22-10.12,37.68-13.94,57.86c13.87-0.56,28.11-0.77,41.5-1.82C290.13,614.19,280.3,596.15,270.73,577.86z
			"/>
	</g>
	<g>
		<path class="st3" d="M193.78,676.91c-7.75-12.95-14.55-26.85-20.9-41.2c10.19,2.17,22.11,5.58,33.62,8.48
			c5.82,1.47,16.23,3.79,14.84-4.85c-0.69-4.28-6.47-4.29-11.21-5.45c-8.43-2.06-17.44-4.45-26.35-6.66
			c-4.62-1.15-9.24-3.09-13.03-3.33c-3.1-0.2-7.29,0.3-8.78,1.51c-4.88,3.97,0.85,14.65,3.03,19.39
			c7.29,15.83,13.96,28.25,22.42,42.71c1.64,2.8,3.21,5.94,6.97,6.06c7.29,0.22,8.9-11.01,11.21-17.87c1.3-3.88,2.38-7.18,3.63-10.9
			c1.58-4.7,7.84-15.03-1.21-15.45c-5.85-0.27-7.69,7.81-9.09,11.81C197,666.69,195.7,671.37,193.78,676.91z"/>
	</g>
	<g>
		<path class="st3" d="M392.8,686.3c-9.22,8.09-26.78-0.14-24.84-14.24c0.77-5.58,5.77-14.06,13.33-15.45
			c8.25-1.51,16.07,5.66,13.03,11.81C400.05,672.94,395.92,683.57,392.8,686.3z M385.23,678.43c2.39-1.78-0.53-5.89,1.52-8.18
			C382.04,661.45,372.93,680.42,385.23,678.43z"/>
	</g>
</g>
<g>
	<g>
		<path class="st1" d="M1120.27,31.09h-31.09V0h31.09V31.09z"/>
	</g>
	<g>
		<path class="st1" d="M32.57,31.09H1.48V0h31.09V31.09z"/>
	</g>
</g>
<g>
	<g>
		<path class="st5" d="M1118.79,958.9h-31.09v-31.09h31.09V958.9z"/>
	</g>
	<g>
		<path class="st1" d="M31.09,958.9H0v-31.09h31.09V958.9z"/>
	</g>
</g>
<g>
	<g>
		<path class="st6" d="M818.19,883.62c0,0,119.47-317.43,129.13-367.06c9.66-49.61,25.8-85.24,59.48-108.79
			c33.68-23.55,227.46-17.03,227.46-17.03s59.37-15.73,124.94,65.75c40.52,50.36,56.52,165.81,36.73,335.57
			c-20.65,177.1-30.28,327.57-105.17,396.14c-33.07,30.27-184.35,34.59-260.94,34.68c-76.6,0.09-470.84-2.58-473.76-3.59
			c-2.92-1-15.27,10.63-40.95-63.96c-25.68-74.6,7.36-141.68,24.81-173.07c17.46-31.38,72.93-64.25,72.93-64.25L818.19,883.62z"/>
	</g>
</g>
<g>
	<path class="st3" d="M785.82,602.96c18.49,25.49-15.69,75.89-50.67,101.24c-34.98,25.37-78.32,25.27-96.8-0.23
		c-18.49-25.48-5.12-66.7,29.86-92.07C703.19,586.53,767.34,577.46,785.82,602.96z"/>
	<path class="st2" d="M680.55,727.64c-19.75-0.05-36.03-7.52-45.83-21.04c-9.81-13.52-11.85-31.3-5.76-50.1
		c5.93-18.29,18.93-35.42,36.61-48.24c17.72-12.85,42.84-21.96,67.18-24.38c26.55-2.63,47.21,3.36,56.69,16.43
		c9.48,13.08,7.7,32.78-5,55.49c-10.72,19.15-28.16,38.6-46.66,52.01c-17.62,12.78-37.87,19.81-57.05,19.81
		C680.68,727.64,680.61,727.64,680.55,727.64z M733.64,592.81c-22.49,2.23-46.56,10.93-62.8,22.71
		c-16.16,11.72-28,27.25-33.35,43.75c-5.19,15.99-3.59,30.93,4.48,42.06c8.07,11.14,21.78,17.3,38.76,17.34
		c17.29,0,35.68-6.43,51.78-18.11c17.5-12.69,33.99-31.05,44.1-49.13c6.31-11.28,15.44-32.25,5.57-45.85
		c-6.29-8.67-19.59-13.35-37.3-13.35C741.32,592.23,737.56,592.42,733.64,592.81z"/>
</g>
<g>
	<g>
		<g>
			<path class="st3" d="M388.85,561.01c-12.82,28.78,38.34,75.8,77.77,93.43c39.44,17.63,81.79,8.6,94.61-20.18
				c12.82-28.76-8.75-66.38-48.18-84C473.61,532.62,401.66,532.25,388.85,561.01z"/>
		</g>
	</g>
	<g>
		<g>
			<path class="st2" d="M464.79,658.53c-41.27-18.45-94.24-67.48-80.03-99.34c3.69-8.27,11.43-14.72,23.02-19.15
				c27.74-10.62,75.78-7.87,107.1,6.13c41.62,18.6,64.25,58.94,50.45,89.92c-5.45,12.23-15.76,21.53-29.83,26.92
				c-8.54,3.27-18.12,4.89-28.11,4.89C493.43,667.88,478.66,664.73,464.79,658.53z M410.98,548.4c-9.29,3.56-15.35,8.41-18.04,14.43
				c-11.4,25.57,37.95,70.72,75.5,87.51c21.67,9.69,45.54,11.29,63.84,4.28c11.8-4.52,20.39-12.19,24.84-22.19
				c11.79-26.47-8.81-61.5-45.92-78.09c-17.21-7.7-40.42-11.78-61.75-11.78C434.93,542.57,421.27,544.46,410.98,548.4z"/>
		</g>
	</g>
</g>
<g>
	<g>
		<g>
			<path class="st3" d="M558.47,145.56c30.01-9.56,74.89,32.35,88.03,73.5c13.15,41.14-0.53,82.24-30.53,91.8
				c-30.01,9.57-64.99-16.04-78.14-57.18C524.69,212.55,528.46,155.14,558.47,145.56z"/>
		</g>
	</g>
	<g>
		<g>
			<path class="st2" d="M533.56,255.05c-6.88-21.51-9.13-46.9-6.03-67.92c3.63-24.64,14.13-40.92,29.57-45.84
				c33.27-10.6,80.09,33.9,93.67,76.41c6.64,20.79,6.96,42.29,0.9,60.52c-6.23,18.73-18.43,31.84-34.34,36.91
				c-4.66,1.49-9.42,2.2-14.21,2.2C574.68,317.33,545.44,292.23,533.56,255.05z M559.83,149.83c-16.19,5.17-21.63,26.41-23.43,38.61
				c-2.91,19.73-0.78,43.61,5.7,63.88c12.37,38.73,44.9,63.08,72.5,54.27c13.11-4.18,23.25-15.26,28.55-31.2
				c5.47-16.44,5.14-35.96-0.93-54.96c-6.14-19.21-19.73-39.31-36.36-53.75c-13.52-11.74-26.99-18.02-38.17-18.02
				C564.92,148.67,562.29,149.05,559.83,149.83z"/>
		</g>
	</g>
</g>
<g>
	<g>
		<path class="st4" d="M625.01,923.69c0.39,0,0.78-0.05,1.17-0.15c2.39-0.64,3.81-3.1,3.17-5.49
			c-0.28-1.02-27.61-102.81-35.19-138.97c-7.92-37.85-7.66-77.24,0.84-127.71c8.35-49.56,2.11-85.06-9.23-149.52
			c-1.07-6.1-2.19-12.47-3.35-19.15c-9.85-56.71-6.9-64.36,5.52-96.55c4.28-11.09,9.6-24.88,15.83-44.37
			c24.72-77.22-12.44-152.29-14.03-155.44c-1.12-2.21-3.81-3.1-6.02-1.98c-2.21,1.11-3.1,3.81-1.99,6.02
			c0.37,0.74,37.07,75.03,13.5,148.67c-6.16,19.24-11.43,32.9-15.66,43.88c-12.82,33.23-16.26,42.16-5.99,101.31
			c1.16,6.69,2.28,13.06,3.36,19.17c11.53,65.54,17.31,98.44,9.22,146.48c-8.7,51.63-8.94,92.04-0.78,131.04
			c7.63,36.41,35.03,138.43,35.31,139.46C621.22,922.37,623.03,923.69,625.01,923.69z"/>
	</g>
</g>
<g>
	<g>
		<g>
			<path class="st3" d="M737.57,366c24.65,19.61,10.52,80.12-16.31,113.96c-26.84,33.83-68.58,45.37-93.24,25.77
				c-24.65-19.61-22.88-62.93,3.97-96.76C658.83,375.13,712.92,346.4,737.57,366z"/>
		</g>
	</g>
	<g>
		<g>
			<path class="st2" d="M625.23,509.23c-26.55-21.12-25.09-67.35,3.25-103.05c20.85-26.29,55.33-47.6,81.98-50.66
				c12.26-1.41,22.32,0.93,29.91,6.96c12.76,10.15,17.3,30.01,12.78,55.92c-4,22.93-14.61,46.98-28.37,64.34
				c-16.19,20.41-38.86,34.09-60.65,36.59c-2.48,0.28-4.92,0.43-7.31,0.43C644.78,519.76,633.97,516.18,625.23,509.23z
				 M711.48,364.43c-24.12,2.77-56.78,23.11-75.98,47.32c-25.27,31.84-27.37,72.42-4.69,90.46c8.57,6.82,19.73,9.66,32.29,8.21
				c19.47-2.24,39.9-14.67,54.64-33.26c25.98-32.77,39.21-90.03,17.04-107.67c-4.53-3.6-10.46-5.41-17.68-5.41
				C715.31,364.1,713.43,364.21,711.48,364.43z"/>
		</g>
	</g>
</g>
<g>
	<g>
		<g>
			<path class="st3" d="M416.16,339.01c21.7-22.83,81.42-6.35,112.76,23.36c31.34,29.73,39.16,72.33,17.46,95.14
				c-21.7,22.83-64.7,17.25-96.04-12.46C418.99,415.33,394.46,361.84,416.16,339.01z"/>
		</g>
	</g>
	<g>
		<g>
			<path class="st2" d="M447.25,448.31c-25.12-23.82-43.13-58.47-43.8-84.25c-0.3-11.74,2.88-21.21,9.46-28.13
				c23.73-24.97,86.37-7.83,119.09,23.19c18.92,17.95,30.55,41.75,31.11,63.68c0.39,15.05-4.28,28.12-13.49,37.81
				c-9.83,10.35-23.67,15.36-38.85,15.36C489.87,475.96,466.41,466.47,447.25,448.31z M419.41,342.1
				c-4.88,5.14-7.24,12.44-6.99,21.72c0.6,23.22,17.85,56.02,41.01,77.98c29.5,27.97,69.74,33.63,89.71,12.62
				c7.54-7.92,11.35-18.78,11.03-31.4c-0.5-19.6-11.09-41.06-28.32-57.4c-14.75-13.98-36.4-25.3-57.92-30.27
				c-7.49-1.73-14.49-2.58-20.81-2.58C434.93,332.77,425.26,335.94,419.41,342.1z"/>
		</g>
	</g>
</g>
<g>
	<g>
		<path class="st4" d="M595.55,667.92c0.73,0,1.47-0.18,2.16-0.56c2.17-1.2,2.96-3.92,1.76-6.09c-0.42-0.76-10.77-18.97-52.42-45.62
			c-41.54-26.58-86.05-32.49-87.93-32.73c-2.46-0.3-4.7,1.43-5.01,3.88c-0.31,2.45,1.42,4.7,3.88,5.02
			c0.44,0.06,44.45,5.94,84.23,31.39c39.74,25.43,49.3,42.23,49.4,42.39C592.44,667.08,593.97,667.92,595.55,667.92z"/>
	</g>
</g>
<g>
	<g>
		<path class="st4" d="M579,486.65c1.08,0,2.17-0.39,3.03-1.18c1.83-1.67,1.95-4.51,0.28-6.33c-0.24-0.26-24.34-26.46-57.3-51.77
			c-32.57-25.01-55.93-44.95-56.16-45.14c-1.88-1.61-4.71-1.39-6.32,0.5c-1.61,1.88-1.39,4.71,0.5,6.32
			c0.23,0.2,23.78,20.29,56.53,45.44c32.35,24.84,55.92,50.46,56.15,50.72C576.57,486.16,577.78,486.65,579,486.65z"/>
	</g>
</g>
<g>
	<g>
		<path class="st4" d="M592.63,558.32c1.72,0,3.37-1,4.11-2.68c0.23-0.52,23.4-52.76,49.76-76.61
			c27.37-24.77,43.89-45.75,44.58-46.63c1.53-1.95,1.18-4.77-0.77-6.29c-1.95-1.53-4.77-1.18-6.29,0.76
			c-0.16,0.21-16.78,21.3-43.53,45.52c-27.79,25.14-50.98,77.43-51.95,79.65c-1,2.27,0.03,4.91,2.3,5.91
			C591.42,558.2,592.03,558.32,592.63,558.32z"/>
	</g>
</g>
<g>
	<g>
		<path class="st0" d="M1104.83,469.24l-31.38-0.3c0,0-24.03-10.78-54.1-2.1c-30.68,8.86-66.96,62.47-66.96,62.47l-54.4,94.16
			l-5.38-0.6l-17.04-26.6l-38.85-92.06c0,0,7.91-9.36,11.95-19.13c4.04-9.77,4.48-14.65,4.48-14.65l-51.71,2.69l6.87-14.34
			c0,0,16.99-3.24,23.32-5.69c6.32-2.43,4.23-33.9-4.48-54.99c-8.71-21.1-36.47,0.59-36.47,0.59s-0.32-1.56-0.6-5.38
			c-0.28-3.81,14.68-11.3,17.63-14.65c2.95-3.35,0.12-4.93-1.79-9.86c-1.91-4.94-16.14,2.99-16.14,2.99s-10.76,6.9-14.35,18.82
			c-3.59,11.92,1.5,23.92,1.5,23.92s-1.92,9.03-1.8,20.31c0.13,11.3,1.22,51.07,6.57,69.35c5.35,18.29,40.36,150.35,40.36,150.35
			s-6.35,6.1-8.67,11.35c-2.32,5.27,1.62,19.07,3.28,26.3c1.67,7.25,9.27,5.69,9.27,5.69l7.48,16.74l-23.62,23
			c0,0-70.35-32.09-105.81-51.1c-35.47-19-94.28-43.74-147.06-47.53c-52.78-3.79-98.04,33.78-98.04,33.78L243.7,828.52
			c0,0-57.28-4.51-58.29-4.49c-1.01,0.02-22.36-21.04-41.85-32.28c-19.48-11.24-52.31,14.65-52.31,14.65s7.32,24.7,31.09,52.9
			C146.1,887.52,237.12,943,237.12,943l176.96-100.74L270.9,1120.55l-30.19,23c0,0-30.47-2.31-60.08,2.4
			c-29.61,4.7-45.43,37.66-45.43,37.66s48.38,30.62,99.83,37.66c33.65,4.59,120.76,5.97,120.76,5.97l11.65-94.15l169.78-233.15
			l289.94,52.01c0,0,15.16,10.2,59.78,17.64c44.62,7.43,94.55-27.48,121.65-72.64c18.99-31.64,31.98-102.22,31.98-102.22
			s11.03,7.16,39.15,7.17c28.12,0,84.3-84.39,108.5-128.23c24.2-43.85,58.57-81.29,54.69-127.04
			c-3.87-45.75-58.88-59.48-58.88-59.48s-9.26-3.59-20.92-6.88c-11.66-3.28-12.26-18.82-12.26-18.82s30.34,9.86,55.89,10.76
			c25.55,0.91,34.43-16.48,42.14-32.28c7.72-15.8-2.05-15.85-8.67-29.29c-6.62-13.45-8.49-28.59-12.26-70.55
			c-3.76-41.95-7.47-53.2-7.47-53.2s8.75-0.86,22.41-4.79c13.67-3.93,25.64-48.41,17.64-70.53c-8.01-22.14-47.33-40.57-73.53-35.57
			c-26.2,4.99-35.27,43.05-35.27,43.05s-29.2-2.94-65.16,9.26c-35.96,12.21-63.71,38.08-81.9,62.77
			c-18.19,24.69-0.7,57.03,9.27,76.82c9.97,19.8,3.09,32.36,2.09,47.53c-1,15.15-3.24,16.96,17.94,26.3
			c21.18,9.35,74.13,15.55,74.13,15.55L1104.83,469.24z"/>
	</g>
</g>
<g>
	<g>
		<path class="st0" d="M1160.15,373.39c0,0-32.88-12.26-57.69-27.79c-24.8-15.53-43.94-43.64-43.94-43.64l-16.44,31.09
			c0,0,2.35,10.68,2.99,20.02c0.64,9.33,6.28,25.41,6.28,25.41l-5.08,5.07c0,0-0.66,4.98,1.79,12.26
			c2.45,7.27,12.29,23.68,31.08,37.06c18.8,13.4,34.08-3.28,34.08-3.28l-5.98,28.69c0,0-77.66-11.33-86.38-22.12
			c-8.73-10.79-0.15-46.51-1.8-61.27c-1.65-14.78-19.52-32.79-19.13-63.97c0.39-31.16,47.96-63.45,81.9-82.79
			c33.94-19.35,73.53-8.97,73.53-8.97s3.66-24.74,24.51-40.05c20.85-15.31,36.93-0.9,57.09,10.46
			c20.16,11.36,30.83,33.16,24.21,64.27c-6.62,31.11-38.56,30.78-38.56,30.78s5.26,38.24,8.07,67.55
			c2.82,29.31,6.79,50.99,13.75,66.95c6.96,15.96,5.13,29.73-11.96,45.43c-17.08,15.71-81-1.49-81-1.49l6.57-54.4L1160.15,373.39z"
			/>
	</g>
</g>
<g>
	<g>
		<path class="st1" d="M1172.97,379.81c0,0-32.88-12.25-57.69-27.79c-24.8-15.53-55.34-51.62-55.34-51.62l-19.53,30.73
			c0,0,1.94,18.28,2.58,27.62c0.64,9.33,2.58,24.59,2.58,24.59l3.33,14.65c0,0,2.69,5.67,5.15,12.96c2.45,7.27,11,17.39,31.07,23.64
			c22.04,6.87,28.1-4.99,28.1-4.99l-3.71,30.77c0,0-65.53-5.53-74.26-16.32c-8.73-10.79-2.04-58.62-3.7-73.38
			c-1.65-14.78-19.19-22.15-18.8-53.33c0.39-31.16,47.96-63.45,81.9-82.79c33.94-19.35,73.53-8.97,73.53-8.97
			s3.66-24.74,24.51-40.05c20.85-15.31,36.93-0.9,57.09,10.46c7.36,13.37,17.41,29.19,10.79,60.31
			c-6.62,31.11-37.71,27.52-37.71,27.52s6.03,48.83,8.84,78.15c2.82,29.31,6.55,40.46,13.52,56.42c6.96,15.96,17.17,36.89,0.09,52.6
			c-17.08,15.71-81-1.49-81-1.49l6.57-54.4L1172.97,379.81z"/>
	</g>
</g>
<g>
	<g>
		<g>
			<path class="st0" d="M940.26,685.32l94.15,24.22c0,0,5.02,27.78,1.8,46.63c-3.23,18.84-9.27,32.58-9.27,32.58
				s30.39,14.75,49.32,13.14c18.92-1.6,40.2-20.09,59.18-45.43c18.99-25.35,83.91-139.3,97.44-166.49
				c13.53-27.19,6.27-59.37-8.36-78.9c-14.65-19.54-38.52-26.04-51.12-26.01c-12.6,0.04-23.21,11.36-34.67,21.22
				c-11.46,9.86-39.53,21.61-60.68,18.24c-21.14-3.38-18.99-15.08-20.32-30.19c-1.33-15.12,19.73-24.51,19.73-24.51
				s-36.7-18.55-76.82,6.88c-29.95,18.98-49.52,54.99-60.37,73.22c-10.86,18.25-45.74,76.82-45.74,76.82L940.26,685.32z"/>
		</g>
	</g>
	<g>
		<path class="st5" d="M850.59,705.35c6.72-3.01,19.43-2.08,19.43-2.08l8.97,21.21l-40.35-7.46
			C838.63,717.02,843.87,708.36,850.59,705.35z"/>
	</g>
</g>
<g>
	<g>
		<path class="st1" d="M264.59,1130.65l-23.91,16.44l-34.08-1.5c0,0,18.34,7.73,33.18,21.82c14.84,14.09,30.19,34.37,30.19,34.37
			l62.77,3.3c0,0,5.51-6.44,11.96-17.34c6.45-10.91,18.23-19.73,18.23-19.73l2.09-24.21c0,0-6.57-14.18-48.42-24.81
			c-33.13-8.41-50.52,3.29-50.52,3.29L264.59,1130.65z"/>
	</g>
	<g>
		<path class="st1" d="M161.47,872.69c14.48,11.96,63.07,42.74,63.07,42.74s8.97-1.83,28.09-5.38c19.13-3.55,34.68,4.48,34.68,4.48
			l17.04-9.56c0,0-15.43,2.57-43.64-32.88c-24.51-30.78-12.26-47.53-12.26-47.53l-7.18,5.97l-55.29-5.07l-8.37-7.48
			c0,0-11.39,2.92-23.01,6.28c-11.62,3.36-17.94,14.65-17.94,14.65S146.98,860.74,161.47,872.69z"/>
	</g>
</g>
<g>
	<g>
		<path class="st0" d="M1039.2,799.42c0,0-16.77,127.08-91.16,158.12c-57.98,24.21-121.06-3.59-121.06-3.59
			s-40.68-2.57-102.82-13.45c-62.14-10.87-188.01-40.64-188.01-40.64L369.36,1130.6c0,0-10.15-12.17-36.17-26.3
			c-26.01-14.13-53.5-0.3-53.5-0.3L413.3,840.37l-97.14,54.1c0,0-18.6-11-38.86-31.98c-20.26-20.99-8.07-50.81-8.07-50.81
			s156.99-119.39,216.11-151.25c59.11-31.86,92.72-26.5,140.48-5.38c49.05,21.71,257.66,112.99,257.66,112.99l17.33,5.67
			l13.75-29.28L1039.2,799.42z"/>
	</g>
</g>
<g>
	<g>
		<path class="st1" d="M1352.59,746.05c-15.28,76.19-34.94,147.43-59.47,214.88c-8.12,22.33-16.15,44.79-25.1,66.34
			c-17.89,43.08-36.08,85.65-58.58,124.04c-12.15,20.71-23.38,36.82-42.44,49c-18.2,11.65-42.74,17.1-71.13,20.33
			c-26.45,3-54.96,6.28-85.18,6.28c-29.39,0-59.83,0.89-90.25,0.89c-60.28,0-121.65-0.61-181.71-0.61
			c-51.72,0.02-105.92-1.49-158.4-1.49c-7.4,0-15.28,0.35-22.41-0.3c-6.1-0.55-12.32-12.1-15.54-16.43
			c-12.4-16.71-22.58-34.6-29.29-56.49c-8.74-28.51-10.96-70.99-4.19-101.61c6.83-30.89,19.83-56.9,35.26-79.2
			c15.78-22.79,37.78-38.2,60.97-52.6c-22.05-4.55-43.64-9.55-65.75-14.04c-56.49,76.49-112.01,153.98-168.26,230.72
			c-2.96,26.53-6.43,54.94-10.16,82.19c-0.69,5.07-0.77,9.79-3.59,11.35c-2.65,1.48-11.12,0.35-16.14,0.3
			c-27.49-0.29-55.82-1.1-82.49-2.09c-10.75-0.4-20.25-1.9-30.18-3.58c-19.34-3.26-37.09-7.26-54.99-12.86
			c-12.74-3.97-23.92-8.83-34.37-16.43c-3.3-2.4-8.72-5.74-8.37-8.97c0.42-3.87,5.12-8.65,7.77-11.95
			c8.61-10.79,18.32-21.66,30.79-27.8c9.24-4.54,20.34-5.46,32.87-6.28c12.76-0.83,26.42-0.78,37.96,0c1.75,0.12,5.1-3.02,7.17-4.78
			c2.27-1.95,4.29-3.94,5.98-5.38c4.44-3.77,9.18-6.51,12.25-10.16c3.32-3.93,5.76-11.27,8.67-16.73
			c43.76-82.03,86.36-169.93,129.71-249.85c-49.71,28.35-103.05,59.18-154.51,89.36c-3.39,1.98-7.73,5.67-11.05,5.67
			c-3.32,0.01-8.52-4.34-11.96-6.57c-25.77-16.69-52.45-34.12-76.21-52.01c-14.54-10.95-26.86-20.66-37.65-35.86
			c-7.18-10.12-14.05-21.82-20.92-34.07c-1.83-3.27-6.2-9.49-5.67-13.15c0.55-3.92,7.59-6.44,11.36-8.37
			c11.43-5.87,29-15.62,45.12-9.86c19.02,6.78,31.26,21.54,45.43,32.58c16.04,0.76,34.94,4.24,51.41,4.77
			c1.99,0.07,5.91-3.16,8.96-5.38c60.7-44.15,120.62-87.48,181.71-131.49c21.23-15.31,42.4-31.09,66.35-42.44
			c25.46-12.07,59.61-16.96,92.04-10.46c14.28,2.87,26.64,9.2,39.75,14.64c64.21,26.66,125.72,55.35,188.29,83.68
			c8.1-5.75,15.72-11.97,25.7-15.85c-0.36,1.63-1.3,2.98-0.9,5.09c0.41,2.14,1.95,2.88,2.39,4.18c-3.5,1-6.56,3.15-9.56,5.09
			c-2.87,1.85-6.2,3.5-7.77,5.97c23.04,10.43,47.75,21.4,71.72,32.58c3.62,1.68,10.45,4.56,6.58,9.25
			c-2.31,2.81-7.73,0.17-10.76-1.19c-91.93-41.34-181.39-84.19-275.85-123.43c-7.1-2.95-13.93-5.9-21.22-8.37
			c-7.57-2.58-15.66-4.08-24.51-5.07c-40.28-4.57-68.64,8.81-93.25,23.31c-12.39,7.29-23.98,15.87-35.27,23.9
			c-58.16,41.39-113.51,81.83-171.54,124.04c0.73,10.86,0.59,19.62,3.59,27.79c8.51,23.17,24.1,38.02,45.13,49.01
			c30.66-17.05,60.08-35.35,90.85-52.3c18.54-35.57,36.35-74.21,84.28-80.1c12.89-1.58,29.63-1.45,43.94,0.31
			c1.7,0.2,5.01,1.19,5.68,0.89c1.85-0.82,0.19-5.44,4.19-5.97c3.35-0.45,9.95,5.71,12.85,7.76c1.44,1.03,2.98,1.5,4.19,2.39
			c1.29,0.97,2.05,2.59,3.29,3.58c3.54,2.88,7.89,5.57,11.65,8.37c51.74,38.42,102.63,77.11,155.41,114.16
			c21.1,14.82,41.96,29.96,64.55,43.04c11.13,6.44,24.19,11.95,36.76,17.33c12.74,5.45,26.24,10.49,40.65,13.15
			c51.24,9.47,88.38-19.75,111.18-47.22c8.38-10.09,15.52-20.73,20.92-32.87c10.84-24.43,17.96-52.14,23.91-83.68
			c-37.89-14.19-76.53-30.08-114.17-45.43c-3.81-1.55-7.53-3.49-11.35-4.78c-4.08-1.38-8.12-2.31-11.96-3.88
			c-8.5-3.5-12.8-7.87-17.03-14.95c-3.82-6.38-7.24-13.46-11.06-20.62c-6.56-0.11-11.17-1-16.43,0c-8.58,1.66-12.73,9.66-21.22,8.37
			c-6.47-0.99-7.35-8.73-8.97-15.24c-4.66-1.86-8.13-2.8-9.86-6.27c-4.11-8.24-4.67-26.62-0.6-35.27c1.43-3.04,5.34-5.53,5.38-7.77
			c0.05-3.4-3.37-12.39-4.48-16.43c-10.57-38.38-20.84-75.49-31.68-114.17c-1.48-5.31-3.39-10.5-4.78-16.14
			c-1.41-5.72-1.6-12.03-2.39-18.52c-2.54-20.71-4.37-45.12-2.99-68.15c0.19-3.13-0.45-5.94-0.6-8.97
			c-0.62-13.02-0.28-29.3,5.68-35.86c3-3.31,8.12-5.83,13.74-7.76c7.42-2.57,19.05-6.27,21.82,2.08c1.53,4.62,1.24,11.76-0.6,15.85
			c-0.54,1.19-1.65,2.12-1.5,3.28c5.79-1.64,14.12-0.62,17.94,2.69c5.19,4.51,7.79,15.58,9.56,26.89
			c1.84,11.71,3.21,23.73,2.09,33.78c-0.48,4.31-3.24,6.89-6.27,8.07c-7.75,2.98-13.41,1.67-23.32,3.58c0,0.29-0.36,0.23-0.59,0.29
			c-2.78,3.62-5.27,20.22-12.25,18.54c-5.46-1.31-1.96-8.32-0.3-11.96c2.23-4.91,3.61-9.43,5.68-12.55
			c2.45-3.7,10.03-3.25,15.54-4.18c4.32-0.73,8-1.22,12.55-2.1c0.34-4.02,0.51-8.88,0-12.86c0.04-0.34-0.07-0.53-0.3-0.59
			c-20.3,0.16-33.52,6.7-42.44,19.42c-2.6,3.71-6.36,9.63-6.57,14.05c-0.18,3.67,1,8.26,1.5,12.55c0.47,4.05,0.96,8.32,1.49,12.25
			c1.11,8.26,3.5,15.71,5.38,22.41c12.11,43.12,24.22,88.07,36.17,130.01c4.12-1.96,8.94-4.6,14.05-6.87
			c4.69-2.1,10.3-5.28,14.94-5.69c4.29-0.36,8.03,2.16,12.25,3.29c-0.23-3.35-2.13-7.63-3.29-11.05
			c-13.18,2.55-34.37,6.15-39.15-6.88c-1.79-4.88-1.13-11.66,3.58-14.94c5.06-3.52,12.98-5.18,19.72-6.87
			c7.25-1.83,14.67-2.99,23.32-2.99c-11.02-24.76-22.55-51.47-34.08-77.41c-1.87-4.21-5.4-8.49-4.78-13.15
			c0.36-2.78,3.12-6.51,4.78-9.86c3.2-6.45,5.69-12.82,8.37-20.91c1.55-4.7,1.84-8.95,6.58-8.37c7.61,0.94-0.14,16.57-1.5,20.31
			c-1.06,2.94-2.52,6.9-4.19,10.47c-1.01,2.17-5.48,8.69-4.78,10.45c3.69,9.27,8.54,18.73,12.86,28.4
			c8.34,18.66,17.27,38.5,25.4,57.07c1.15,2.64,1.62,5.38,3.29,7.17c1.72,1.87,3.4,2.85,5.08,5.09c3.09,4.08,5.26,8.38,7.17,13.15
			c15.44-26.4,30.69-52.98,46.62-78.89c2.07-14.75,5.95-29.19,9.27-43.34c3.32-14.19,6.54-28.57,11.35-41.54
			c9.48-25.54,29.81-41.43,49.91-56.19c3.8-14.25,1.28-27.97-4.19-38.55c-5.04-9.76-12.6-18.32-14.64-30.79
			c-2.31-14.05,1.75-27.59,6.87-37.36c5.49-10.46,11.69-17.65,19.73-25.7c14.52-14.53,32.6-27.31,52.9-37.96
			c20.05-10.51,45.79-16.87,75.62-12.25c1.28-11.82,6.04-20.09,12.25-26.9c11.93-13.1,32.36-23.64,56.19-15.85
			c9.46,3.09,17.51,8.21,24.81,14.04c14.74,11.82,26.71,26.54,26,52.01c-0.32,11.58-3.79,21.04-9.26,29.58
			c-6.89,10.77-15.34,19.91-32.28,20.93c5.59,29.38,6.82,63.11,10.17,94.74c2.7,1.28,5.87,1.45,8.67,1.79
			c20.91,2.56,41.13,6.87,56.48,15.53c43.49,24.57,64.35,73.58,70.53,135.39c1.24,12.4,2.07,25.98,2.39,39.46c0,2.78,0,5.57,0,8.36
			C1372.77,643.29,1362.78,695.25,1352.59,746.05z M1157.73,217.96c34.35,9.18,56.03,31.05,67.24,63.36
			c15.22-0.27,22.31-8.83,28.09-19.13c3.93-7.01,6.54-15.61,6.57-24.51c0.08-17.59-7.79-29.53-18.23-38.85
			c-10.6-9.46-22.65-17.96-37.66-19.13c-11.43-0.89-19.33,2.82-26.9,8.07C1166.41,195.03,1159.73,202.95,1157.73,217.96z
			 M1105.13,451.96c1.3-5.37,2.19-11.15,3.59-16.43c-5.25,1.24-10.02,4.17-17.03,4.18c-9.43,0.02-18.33-5.27-25.41-10.46
			c-11.54-8.5-18.56-16.49-23.01-31.39c-1.31-4.37-3.81-11.65-2.99-15.83c0.62-3.11,4.98-4.71,8.07-7.17
			c5.64-4.5,12.07-10.77,11.66-20.92c-0.25-6.06-6.45-10.59-11.66-13.14c-4.22-2.09-13.16-2-13.75-6.88
			c-0.33-2.79,2.59-6.69,3.89-9.26c4.35-8.59,9.84-17.22,14.94-23.92c-4.03-4.49-9.19-10.6-13.75-16.13
			c-1.61-1.96-3.73-4.04-3.59-6.28c0.15-2.31,2.14-3.8,4.19-3.88c3.23-0.13,5.35,3.77,7.47,6.27
			c14.77,17.44,28.74,33.46,44.83,50.22c8.81,9.16,16.37,17.65,30.48,23.9c9.24,4.09,19.68,7.73,30.19,10.47
			c3.75,0.97,8.16,1.22,8.37,5.07c0.47,9.04-19.03,1.15-23.61-0.3c-13.59-4.29-26.44-9.66-35.27-17.03
			c-2.41-2.01-4.91-3.91-7.17-5.97c-2.26-2.06-3.94-4.75-6.57-6.28c-3.87-2.25-14.1-1.16-14.65-6.28c-0.35-3.3,1.4-4.37,4.19-5.09
			c-4.28-5.27-9.45-10.53-14.34-16.13c-0.82-0.93-3.85-5.35-4.48-5.38c-0.84-0.03-3.57,4.23-4.18,5.09
			c-3.92,5.38-7.1,11.57-9.86,17.63c8.47,2.78,16.19,6.83,20.32,13.45c5.1,8.16,2.22,20.84-2.69,28.4
			c-3.5,5.38-9.05,8.25-13.75,12.84c2.03,14.41,6.72,22.26,14.34,29.89c6.02,6.02,16.94,15.95,28.4,15.54
			c8.45-0.3,16.43-5.52,23.9-8.37c3.61-1.38,7.26-2.86,11.36-4.79c2.79-1.3,14.56-8.46,14.94-0.29c0.24,4.93-8.33,7.23-10.76,8.38
			c-4.97,2.31-8.94,3.78-13.45,5.66c-0.75,5.77-2.53,13.6-4.18,20.92c-2.68,11.83-3.81,20.43-12.25,26.3
			c-3.08,2.15-12.31,7.54-13.15,0.6c-0.42-3.45,2.3-4.45,3.59-5.67c-3.21,0.55-6.77-0.76-9.87,0c-1.53,0.37-4.08,2.62-6.28,4.18
			c-5.23,3.73-13.57,9.89-15.84,15.54c-3.66,9.13,0.78,20.83,6.58,24.51c7.42,4.7,19.64,4.63,29.58,3.58
			c10.24-1.1,18.24-5.57,25.11-8.98c16.97-8.38,24.69-21.44,40.64-27.79c-6.29-2.7-15.6-8.49-16.74-17.04
			c-0.77-5.87,1.05-13.31,1.8-19.42c1.68-13.74,2.96-23.06,5.07-37.36c0.92-6.21,0.81-15.23,5.98-15.24
			c7.31-0.01,3.36,10.9,2.39,17.63c-2.11,14.71-4.34,31.05-5.68,45.43c14.32,2.94,28.83,6.46,45.13,7.78
			c5.44,0.43,11.54,0.89,16.44-0.3c6.95-1.69,13.33-6.77,17.63-11.35c4.67-4.99,11-13.14,9.27-23.02
			c-1.62-9.28-8.42-18.49-11.65-27.5c-3.61-10.04-4.34-21.66-5.38-33.76c-2.03-23.76-3.45-48.32-7.17-71.13
			c-1.91-11.7-4.25-20.87-9.27-29.89c-4.75-8.56-9.77-15.73-16.74-22.41c-13.87-13.34-33.63-21.67-56.48-23.02
			c-38.78-2.27-65.48,14.31-87.27,30.19c-10.73,7.82-22.29,16.73-31.08,27.79c-8.36,10.52-17.15,24.09-16.14,42.44
			c0.9,16.38,13.36,26.44,18.53,41.84c2.94,8.77,2.97,17.86,1.79,26.59c-1.47,10.92-6.81,30.14,0.6,38.55
			c3.56,4.06,10.91,6.27,17.33,8.38C1060.16,446.13,1082.41,449.14,1105.13,451.96z M779.67,403.55c1.05,0.44,2.56-1.6,3.88-2.69
			c1.48-1.2,3.16-2.17,4.19-3.28c-1.54-15.19,19.98-7.31,16.44-24.51c-7.1,0.91-17.34,3.69-20.92,7.76
			C778.88,385.83,780.72,394.21,779.67,403.55z M1155.94,467.81c-1.69,0.32,1.31,2.79,2.1,3.59c4.43,4.48,11.84,6.16,18.23,8.66
			c5.12,2.01,10.06,2.79,15.25,4.19c28.85,7.76,49.96,29.61,53.49,63.06c1.29,12.27,0.39,25.83-2.69,35.55
			c-2.99,9.46-8.26,18.25-12.56,26.3c-26.76,50.23-56.98,97.64-88.46,144.66c-5.36,7.99-10.19,15.92-15.84,23
			c-5.61,7.03-13.09,12.84-20.92,17.93c-7.81,5.09-17.05,9.15-28.1,10.76c-11.78,1.72-22.79-1.24-32.87-4.18
			c-8.67,47.11-19.38,86.7-44.53,117.46c-11.88,14.52-25.33,28.03-42.74,38.24c-16.93,9.95-38.79,17.52-64.85,16.13
			c-18.38-0.97-34.26-6.45-48.71-12.25c-2.56-1.02-4.75-2.29-7.17-2.99c-2.61-0.74-5.49-0.84-8.67-1.18
			c-23.41-2.55-47.82-5.49-72.33-8.68c-41.08-5.33-79.68-14.17-119.24-22.42c-5.72-1.2-11.78-3.65-16.43-3.58
			c-1.83,0.03-2,1-4.19,2.38c-9.88,6.29-20.96,12.34-29.89,18.83c-10.89,7.93-20.99,17.15-28.69,27.2
			c-16.23,21.23-29.41,46.55-36.76,74.71c-7.56,28.98-7.26,70.19,0.6,99.83c6.52,24.58,19.2,45.67,33.47,64.24
			c1.6,2.09,4.76,6.71,6.57,7.17c3.26,0.86,8.79,0.3,13.45,0.3c67.86,0,136.66,1.79,204.13,1.79c73.84,0,147.51-0.3,218.76-0.3
			c18.42,0.01,36.17-0.58,53.5-1.49c8.25-0.43,16.46-2.06,24.5-2.99c24.9-2.85,50.34-4.71,70.24-12.25
			c13.04-4.94,24.51-11.92,33.47-21.23c17.35-18.01,30.37-43.73,42.15-67.55c12.41-25.09,23.3-49.47,34.07-75.61
			c21.38-51.88,41.43-105.34,57.68-161.98c16.18-56.39,29.88-115.92,40.94-178.72c5.35-30.39,11.28-63.35,12.85-97.13
			c1.65-35.42-1.18-70.64-8.37-100.72c-6.91-28.91-19.26-53.03-37.95-71.73c-9.02-9.01-19.77-16.88-33.18-21.82
			c-6.58-2.41-13.84-4.31-21.52-5.97c-7.76-1.68-16.56-3.9-24.51-4.18c-2.63-0.1-1.45,2.01-0.9,3.88
			c3.1,10.53,11.04,19.99,12.85,31.09c2.51,15.34-7.33,27.52-14.94,34.07c-4.53,3.9-9.73,7.34-15.84,9.57
			c-6.58,2.4-13.69,2.23-22.41,1.49C1186.45,473.91,1170.61,471.19,1155.94,467.81z M780.57,420.88c1.09,0.35,2.9-1.12,4.48-2.1
			c10.5-6.45,24.7-10.85,41.25-11.65c-1.57-5.38-2.31-10.3-8.67-10.76c-12.69-0.89-31.04,10.43-35.57,18.83
			C781.1,417,780.93,419.43,780.57,420.88z M1010.99,411.62c-0.25-0.05-0.28,0.12-0.3,0.31c-15.43,11.12-29.65,24.24-37.95,42.74
			c-4.22,9.39-6.62,20.39-9.27,31.07c-2.61,10.53-5.18,21.4-7.77,32.27c11.75-19.13,23.77-35.05,42.74-46.02
			c9.48-5.48,19.95-9.87,33.17-11.06c6.91-0.62,13.89-0.12,20.93,0.61c6.41,0.66,12.72,2.35,19.12,2.98c7.33,0.74,17.76,0.09,26,0
			c3.09-0.02,5.13,0.1,5.38-3.28c-13.43-2.25-30.01-4.7-45.73-8.07c-22.55-4.84-46.8-8.97-46.92-34.66
			C1010.39,416.3,1010.74,413.65,1010.99,411.62z M779.97,452.26c9.97-14.64,25.99-23.22,50.21-23.61
			c-0.68-4.21-0.64-9.12-2.09-12.56c-21.22,2.6-42.06,5.57-48.42,23.02C779.45,443.83,780.07,447.68,779.97,452.26z M900.41,628.89
			c11.52,15.48,23.67,30.33,36.46,44.54c9.98-18.41,20.49-36.29,30.48-54.7c-4.04-10.54-10.96-19.42-11.06-33.17
			c-0.11-15.87,8.85-29.71,17.03-39.45c9.13-10.85,20.42-18.57,34.07-22.41c1.96-3.98,0.18-16.77,6.57-17.03
			c5.73-0.24,4.32,6.45,3.59,10.46c-0.89,4.86-1.14,10.92-2.69,12.85c-1.36,1.71-5.23,2.28-7.47,2.99
			c-12.78,4.05-22.46,12.12-29.89,22.7c-5.53,7.89-12.39,17.2-12.26,29.89c0.11,9.72,4.32,17.95,8.07,25.41
			c1.37,2.71,3.52,4.9,3.59,7.48c0.07,2.73-2.2,5.38-3.89,8.35c-10.13,17.84-20.66,36.91-30.19,54.4c2.48,4.42,8.04,4.36,12.55,5.38
			c33.56,7.66,68.79,15.69,102.51,23.02c24.43-42.77,48.74-86.54,72.92-130.6c1.67-3.06,3.92-6.86,6.58-6.89
			c2.17-0.01,3.79,1.76,4.18,3.3c0.69,2.68-2.05,6.49-3.59,9.26c-23.22,41.77-48,85.73-70.53,127.32c5.01,1.94,14.2,0.48,14.34,6.58
			c0.05,2.24-0.76,4.86-6.28,4.17c-9.14-1.12-18.7-4.1-26.9-5.97c-29.33-6.7-59.14-13.13-89.36-20.02
			c-5.88-1.34-13.15-2.05-17.63-4.19c-3.1-1.48-6.48-6.59-9.27-9.85c-8.61-10.09-17.51-21.04-25.7-31.09
			c-5.47-6.72-11.54-13.58-15.84-22.11c-3.61-7.17-7.86-20.83-15.24-23.02c-10.9-3.22-24.68,1.49-34.07,4.48
			c-3.26,1.03-8.16,1.85-8.67,4.48c-0.69,3.6,3.93,6.45,7.17,6.88c4.17,0.53,9.88-0.82,14.65-1.51c4.7-0.67,9.92-2.82,13.45-1.79
			c3.94,1.15,4.38,6.86,5.68,11.06c1.25,4.03,2.94,7.14,3.89,12.56c4.08,2.24,13.52,1.26,13.45,7.47c-0.11,8.29-14.89,1.34-19.13,0
			c-2.36-0.75-5.11-1.85-7.77-2.68c-2.69-0.85-6.15-2.4-8.07-2.4c-2.25,0-6.34,2.12-9.86,3.59c-3.62,1.51-6.99,3.09-9.26,4.19
			c-9.13,4.41-17.4,8.24-18.23,19.73c1.32,0.54,2.29-0.88,3.29-1.5c13.56-8.27,26.4-17.18,49.32-15.83
			c6.34,0.36,17.63,0.19,17.93,5.68c0.4,7.38-12.08,3.71-17.93,3.29c-24.79-1.84-37.14,10.75-52.01,19.43
			c0.91,2.74,0.25,7.49,2.39,8.96c3.08,2.11,6.33-1.05,7.77-2.09c11.23-8.09,20.92-13.43,40.05-14.34
			c6.91-0.33,16.91-0.48,17.04,4.79c0.13,6.01-8.25,4.18-14.05,4.18c-19.92,0-30.69,6.24-40.94,15.24c0.48,3,1.29,5.68,2.09,8.37
			c8.18-4.32,14.31-8.67,28.1-8.67c4.36,0,9.64-0.4,12.85,1.2c3.62,1.79,7.14,12.15,8.97,15.84c2.72,5.5,6.4,12.63,9.86,15.54
			c5.53,4.66,12.01,5.15,18.83,7.48c6.29,2.13,12.43,5.42,18.83,8.07c37.7,15.66,74.95,31.44,115.66,44.52
			c6.94,2.23,14.54,4.76,21.82,4.79c20.49,0.07,37.53-12.4,48.11-24.21c5.13-5.72,9.48-12.79,14.05-19.42
			c13.26-19.27,26.92-40.37,39.15-60.37c17.47-28.59,34.12-55.12,49.32-83.69c4.12-7.73,7.94-14.57,11.36-22.11
			c3.57-7.89,5.13-15.95,5.68-27.5c1.53-32.39-13.9-52.19-35.86-63.06c-7.03-3.47-17.21-6.94-26.9-6.28
			c-9.21,0.64-16.57,6.02-22.41,10.76c-5.84,4.73-11.35,10.57-18.23,14.95c-3.83,2.44-8.93,4.37-14.05,6.87
			c-4.82,2.38-9.22,4.32-14.94,5.69c-19.65,4.68-42.42,0.27-49.61-11.96c-4.21-7.15-5.7-21.61-0.9-29.89
			c3.58-6.19,8.81-8.99,14.34-14.63c-8.1-0.94-14.96-2.56-23.01-2.99c-24.8-1.32-42.23,8.49-55.89,20.03
			c-13.9,11.73-22.59,29.04-31.98,43.93C937.07,565,918.13,597.8,900.41,628.89z M287.74,1096.32c35.11-9,63.34,10,83.38,24.49
			c51.42-70.07,102.11-141.44,154.21-211.89c2.91-3.93,7.17-12.23,11.06-13.15c3.61-0.84,11.74,1.9,16.74,2.99
			c83.12,18.22,163.89,37.2,254.93,46.92c-23.15-11.71-43.68-26.73-64.56-41.25c-58.89-40.94-117.61-84.69-175.43-128.2
			c-2.69-2.03-5.51-5.38-8.07-5.98c-10.97-2.55-27.26-4.54-38.85-5.08c-23.17-1.1-43.4,4.5-57.08,13.75
			c-14.05,9.5-22.77,23.69-31.38,39.14c-16.89,30.35-33.27,61.98-49.01,92.05C351.05,972.45,319.71,1034.23,287.74,1096.32z
			 M96.17,808.51c8.11,15.43,16.13,29.55,25.7,42.44c9.6,12.93,22.04,22.83,35.27,32.58c25.94,19.1,53.94,36.96,81.3,54.69
			c13.35-7.36,26.13-15.3,39.45-22.71c-11.71-2.67-26.46-1.91-37.06,0.89c-4.24,1.13-9.32,3.56-13.14,3.29
			c-4.12-0.29-10.11-5.43-14.05-7.78c-13.41-7.98-27.05-16.3-39.15-25.69c-11.54-8.97-21.96-20.95-31.68-33.17
			c-2.54-3.21-8.63-9.51-8.67-12.85c-0.04-3.83,6.25-9.17,8.97-11.66c6.89-6.31,13.95-11.15,26.01-11.96
			c0.65-1.15-1.77-2.01-2.99-2.99c-7.97-6.35-18.54-15.56-29.89-18.22c-1.01-0.24-3.9-0.43-5.68-0.3
			C117.32,796.01,106,803.46,96.17,808.51z M263.83,819.57c-2.98,1.73-6.68,4.7-10.45,7.46c-3.19,2.34-7.25,6.38-10.46,7.17
			c-3.25,0.82-9.96-0.42-14.65-0.9c-9.79-0.98-19.18-2.01-29.29-2.98c-5.04-0.49-10.46-0.2-14.34-1.5
			c-2.18-0.72-3.83-3.41-5.68-3.87c-3.17-0.81-8.13,0.16-11.06,0.59c-11.49,1.68-17.28,7.85-23.61,14.65
			c11.16,14.6,22.13,28.57,37.36,40.04c12.12,9.13,26.58,18.02,40.94,26.61c2.16,1.28,4.45,3.43,5.98,3.58
			c1.47,0.14,4.62-1.16,6.87-1.79c6.13-1.73,13.66-3.88,21.23-3.89c12.26-0.02,22.38,1.8,34.07,3.3
			c7.07-4.29,14.24-8.47,21.52-12.55c-12.77-7.97-24.72-16.37-33.17-28.7c-8.11-11.8-15.61-26.24-15.25-46.31
			C263.83,820.17,263.83,819.86,263.83,819.57z M281.77,1107.37c-3.14,4.91-4.96,12.36-8.96,17.34c-3.5,4.33-9.63,8.23-14.05,11.96
			c-1.92,1.61-4.55,3.74-7.17,5.97c-2.49,2.12-5.08,5.05-7.18,5.69c-4.78,1.44-11.15-0.9-16.14-0.31
			c21.71,10.97,32.48,32.88,47.52,50.51c18.94,0.9,37.42,2.24,56.49,3c7.24-12.99,14.26-26.17,26.3-34.37
			c2.46-12.73,1.2-30.21,6.87-39.15C346.85,1112.81,314.21,1094.18,281.77,1107.37z M141.3,1184.79
			c18.81,16.09,47.6,22.42,77.11,28.08c9.77,1.89,19.79,4.58,29.59,5.38c17.09,1.39,34.43,0.74,51.7,1.5
			c17.1,0.75,34.25,0.55,51.7,1.19c2.02-13.02,3.64-26.44,5.38-39.74c-0.58-0.6-2.17,1.17-2.99,2.09
			c-4.76,5.3-7.97,12.4-11.66,19.72c-1.32,2.63-3.04,6.31-5.08,7.17c-3.3,1.4-11.48,0-16.14-0.29c-12.92-0.83-20.07-0.97-32.87-1.79
			c-5.28-0.34-12.2,0.21-16.14-1.2c-3.54-1.27-6.77-7.61-9.57-11.35c-3.2-4.31-6.03-7.94-8.97-11.66
			c-5.95-7.54-12.88-17.17-19.43-22.12c-8.04-6.07-19.52-9.52-29.59-13.14c-2.99-1.09-12.05,0.62-16.14,1.19
			C164.54,1153.12,153.56,1169.92,141.3,1184.79z"/>
	</g>
	<g>
		<path class="st1" d="M1092.29,396.68c-3.39-0.48-5.64,2.68-7.77,4.78c-1.28,1.26-3.9,4.47-6.58,5.38
			c-2.37,0.81-9.19-0.04-10.76,1.8c-0.97,1.15-1.22,4.48,0,5.98c2.31,2.85,12.17,1.52,14.94,0.31c2.47-1.09,5.28-3.93,7.77-6.29
			c1.95-1.84,6.28-4.32,6.28-7.77C1096.17,398.28,1093.94,396.9,1092.29,396.68z"/>
	</g>
</g>
<g>
	<g>
		<path class="st1" d="M1049.18,361.84l2.63,9.2c1.11,3.89,2.48,5.63,6.32,4.36c3.81-1.25,7.83-6.96,6.73-10.82l-1.59-6.75
			c-1.11-3.89-5.16-6.14-9.05-5.03C1050.33,353.9,1048.07,357.95,1049.18,361.84z"/>
	</g>
	<g>
		<path class="st1" d="M1092.53,356.16l2.63,9.19c1.11,3.89,5.16,6.15,9.05,5.04c3.89-1.11,6.14-5.18,5.03-9.06l-2.63-9.2
			c-1.11-3.89-5.17-6.14-9.05-5.03C1093.66,348.21,1091.42,352.27,1092.53,356.16z"/>
	</g>
</g>
<g>
	<g>
		<path class="st4" d="M1020.71,793.43c-2.43-0.5-3.99-2.87-3.49-5.29c0.48-2.36,2.73-3.9,5.08-3.53
			c2.42-0.92,9.15-11.57,12.33-33.69c3.09-21.43-0.01-35.59-2.57-37.31c-2.35-0.56-3.85-2.89-3.35-5.27c0.5-2.43,2.87-3.98,5.3-3.48
			c12.51,2.59,11.85,30.98,9.49,47.34c-2.1,14.62-7.48,33.74-15.74,39.55c-2.03,1.43-3.92,1.85-5.43,1.85
			C1021.73,793.6,1021.18,793.53,1020.71,793.43z"/>
	</g>
</g>
<g>
	<g>
		<path class="st3" d="M1212.34,370.67c0,24.27-19.67,43.94-43.93,43.94c-24.27,0-43.94-19.67-43.94-43.94
			c0-24.27,19.67-43.94,43.94-43.94C1192.67,326.73,1212.34,346.4,1212.34,370.67z"/>
	</g>
</g>
<g>
	<g>
		<path class="st3" d="M1086.4,221.88c13.34-4.52,33.9-4.85,33.9-4.85s75.64-0.77,73.83,57.69c-1.26,40.49-11.84,60.32-11.96,60.07
			l-14.65-2.08c0.04,0.02,14.18-33.78,4.33-64.2c-18.24-56.33-113.63-31.15-113.63-31.15S1068.67,227.89,1086.4,221.88z"/>
	</g>
</g>
<g>
	<g>
		<g>
			<path class="st0" d="M517.08,672.49l-3.33,14.92c-1.48,6.66,3.89,13.24,12,14.71l366.74,66.82c8.11,1.48,15.89-2.7,17.37-9.34
				l3.34-14.94c1.48-6.64-3.89-13.22-12-14.7l-366.73-66.82C526.34,661.67,518.56,665.85,517.08,672.49z"/>
		</g>
	</g>
	<g>
		<g>
			<path class="st4" d="M891.67,773.36l-366.74-66.82c-5.59-1.02-10.43-4.07-13.28-8.36c-2.37-3.57-3.18-7.73-2.29-11.74l3.33-14.92
				c2-8.95,12.11-14.69,22.55-12.78l366.73,66.82c5.59,1.02,10.44,4.07,13.29,8.37c2.36,3.57,3.18,7.73,2.29,11.72l-3.33,14.94
				c-1.74,7.79-9.63,13.14-18.53,13.14C894.37,773.72,893.03,773.61,891.67,773.36z M521.45,673.47l-3.33,14.92
				c-0.45,2.04,0.3,3.75,1.01,4.83c1.51,2.28,4.21,3.92,7.41,4.5l366.74,66.82c5.66,1.03,11.25-1.67,12.19-5.91l3.33-14.94
				c0.45-2.03-0.3-3.74-1.01-4.81c-1.51-2.28-4.22-3.92-7.42-4.5c0,0-366.73-66.82-366.73-66.82c-0.82-0.15-1.63-0.22-2.43-0.22
				C526.47,667.34,522.27,669.84,521.45,673.47z"/>
		</g>
	</g>
</g>
<g>
	<g>
		<g>
			<path class="st0" d="M453.43,471.66l37.5,181c1.84,8.9,10.79,17.41,19.97,18.99l254.47,43.83c9.18,1.58,23.36-12.67,21.51-21.57
				l-37.52-180.94c-1.85-8.9-10.8-17.41-19.98-18.99l-254.52-43.84C465.67,448.56,451.58,462.75,453.43,471.66z"/>
		</g>
	</g>
	<g>
		<g>
			<path class="st4" d="M764.61,719.89l-254.47-43.83c-11.01-1.9-21.38-11.78-23.6-22.5l-37.5-181c-1.14-5.52,1.63-12.4,7.43-18.39
				c4.71-4.87,12.21-9.65,19.16-8.45l254.52,43.84c11.01,1.9,21.38,11.78,23.61,22.5L791.27,693c1.14,5.51-1.64,12.38-7.45,18.39
				c-4.23,4.38-10.71,8.69-17.01,8.69C766.08,720.08,765.34,720.02,764.61,719.89z M474.1,454.56c-2.74-0.48-7.45,1.99-11.19,5.85
				c-3.51,3.63-5.61,7.89-5.1,10.34l37.5,181c1.48,7.12,8.96,14.21,16.34,15.48l254.47,43.83c2.77,0.49,7.49-2.01,11.25-5.9
				c4.11-4.25,5.53-8.34,5.11-10.34l-37.52-180.93c-1.48-7.12-8.97-14.21-16.35-15.48L474.1,454.56L474.1,454.56z"/>
		</g>
	</g>
</g>
<g>
	<g>
		<g>
			<path class="st0" d="M485.34,660.43c59.11-31.86,92.72-26.5,140.48-5.38c49.05,21.71,257.66,112.99,257.66,112.99l17.33,5.67
				l5.65-0.43c4.1,2.3,5.75-1.72,9.93,0.44c3.67,1.9,7.38,3.74,11.15,5.44c10.61,4.8,21.29,9.53,32.25,13.49
				c3.62,1.3,7.3,2.46,11.04,3.33c1.87,0.44,3.75,0.82,5.65,1.11c1.54,0.24,3.09,0.48,4.65,0.71v53.21H407.91l5.39-10.64
				l-19.1,10.64h-13.28V729.43C420.47,701.23,461.11,673.48,485.34,660.43z"/>
		</g>
	</g>
	<g>
		<g>
			<path class="st1" d="M668.65,851.01c-33.73-24.62-67.3-49.74-100.58-74.78c-2.69-2.03-5.51-5.38-8.07-5.98
				c-10.97-2.55-27.26-4.54-38.85-5.08c-23.17-1.1-43.4,4.5-57.08,13.75c-14.05,9.5-22.77,23.69-31.38,39.14
				c-6.04,10.86-12.02,21.89-17.93,32.95h-26.35c7.73-4.47,15.5-8.89,23.36-13.22c18.54-35.57,36.35-74.21,84.28-80.1
				c12.89-1.58,29.63-1.45,43.94,0.31c1.7,0.2,5.01,1.19,5.68,0.89c1.85-0.82,0.19-5.44,4.19-5.97c3.35-0.45,9.95,5.71,12.85,7.76
				c1.44,1.03,2.98,1.5,4.19,2.39c1.29,0.97,2.05,2.59,3.29,3.58c3.54,2.88,7.89,5.57,11.65,8.37
				c34.2,25.39,68.02,50.9,102.25,75.98H668.65z"/>
		</g>
		<g>
			<path class="st1" d="M430,688.37c21.23-15.31,42.4-31.09,66.35-42.44c25.46-12.07,59.61-16.96,92.04-10.46
				c14.28,2.87,26.64,9.2,39.75,14.64c64.21,26.66,245.9,109.57,269.87,120.74c3.62,1.68,10.45,4.56,6.58,9.25
				c-2.31,2.81-7.73,0.17-10.76-1.19c-91.93-41.34-181.39-84.19-275.85-123.43c-7.1-2.95-13.93-5.9-21.22-8.37
				c-7.57-2.58-15.66-4.08-24.51-5.07c-40.28-4.57-68.64,8.81-93.25,23.31c-12.39,7.29-23.98,15.87-35.27,23.9
				c-21.22,15.12-42.08,30.09-62.82,45.08v-10.57C397.22,712,413.57,700.21,430,688.37z"/>
		</g>
	</g>
</g>
<g>
	<g>
		<path class="st1" d="M885.78,353.9l-11.59,114.43c0,3.88-3.14,7.02-7.02,7.02h-63.16c-3.88,0-7.02-3.15-7.02-7.02L785.42,353.9
			c0-9.7,10.21-7.02,22.8-7.02h54.75C875.56,346.88,885.78,344.2,885.78,353.9z"/>
	</g>
</g>
<g>
	<g>
		<g>
			<path class="st7" d="M885.78,391.25l-3.71,39.5c0,1.34-3.77,2.43-8.41,2.43h-75.76c-4.65,0-8.41-1.09-8.41-2.43l-4.06-39.5
				c0-3.35,10.21-2.43,22.8-2.43h54.75C875.56,388.82,885.78,387.9,885.78,391.25z"/>
		</g>
	</g>
	<g>
		<g>
			<path class="st8" d="M885.78,391.25l-3.71,39.5c0,1.34-3.77,2.43-8.41,2.43h-75.76c-4.65,0-8.41-1.09-8.41-2.43l-4.06-39.5
				c0-3.35,10.21-2.43,22.8-2.43h54.75C875.56,388.82,885.78,387.9,885.78,391.25z"/>
			<path class="st4" d="M789.33,430.76l-4.06-39.51c0-0.44,0.17-0.84,0.5-1.16c1.7-1.68,7.55-1.59,15.66-1.48
				c2.18,0.03,4.43,0.06,6.8,0.06h54.75c2.37,0,4.62-0.03,6.8-0.06c8.11-0.12,13.97-0.2,15.66,1.48c0.33,0.32,0.5,0.72,0.5,1.17
				l-3.71,39.48c0,1.45-3.76,2.58-8.56,2.58h-75.76C793.09,433.32,789.33,432.19,789.33,430.76z M869.77,388.91
				c-2.18,0.03-4.43,0.06-6.8,0.06h-54.75c-2.37,0-4.62-0.03-6.8-0.06c-7.73-0.11-13.83-0.2-15.44,1.39
				c-0.27,0.27-0.41,0.58-0.41,0.93l4.06,39.51c0,1.1,3.32,2.28,8.26,2.28h75.76c4.94,0,8.26-1.18,8.27-2.29l3.71-39.48
				c0-0.37-0.13-0.68-0.41-0.95c-1.22-1.2-5-1.44-10.11-1.44C873.46,388.86,871.66,388.88,869.77,388.91z"/>
		</g>
	</g>
	<g>
		<g>
			<path class="st4" d="M785,431.05l-4.04-39.34c-0.02-0.15-0.02-0.31-0.02-0.46c0-1.6,0.64-3.11,1.79-4.25
				c2.99-2.95,8.59-2.86,18.76-2.72c2.13,0.03,4.39,0.06,6.74,0.06h54.75c2.35,0,4.61-0.03,6.74-0.06
				c10.17-0.14,15.78-0.22,18.77,2.72c1.15,1.14,1.79,2.65,1.79,4.25c0,0.14-0.01,0.28-0.02,0.42l-3.7,39.36
				c-0.2,4.22-4.87,6.63-12.89,6.63h-75.76C789.89,437.66,785.22,435.25,785,431.05z M881.07,393.41
				c-2.57-0.29-7.29-0.22-11.24-0.17c-2.17,0.03-4.47,0.06-6.86,0.06h-54.75c-2.39,0-4.7-0.03-6.86-0.06
				c-3.94-0.06-8.63-0.12-11.21,0.16l3.59,34.89c0.93,0.2,2.34,0.39,4.16,0.39h75.76c1.81,0,3.22-0.19,4.14-0.39L881.07,393.41z"/>
		</g>
	</g>
</g>
<g>
	<g>
		<g>
			<path class="st5" d="M793.68,336.05l3.26-10.06c0-2.29,3.15-4.16,7.03-4.16h63.26c3.88,0,7.03,1.87,7.03,4.16l3.26,10.06
				c0,5.77-8.52,4.18-19.05,4.18h-45.72C802.21,340.23,793.68,341.81,793.68,336.05z"/>
		</g>
	</g>
	<g>
		<g>
			<path class="st0" d="M793.68,336.05l3.26-10.06c0-2.29,3.15-4.16,7.03-4.16h63.26c3.88,0,7.03,1.87,7.03,4.16l3.26,10.06
				c0,5.77-8.52,4.18-19.05,4.18h-45.72C802.21,340.23,793.68,341.81,793.68,336.05z"/>
			<path class="st4" d="M794.6,338.85c-0.72-0.7-1.06-1.61-1.06-2.8l3.26-10.08c0.02-2.37,3.23-4.29,7.18-4.29h63.26
				c3.94,0,7.15,1.92,7.18,4.29c0,0,3.25,10.03,3.26,10.08c0,1.19-0.35,2.11-1.06,2.8c-2,1.94-6.61,1.81-12.45,1.63
				c-1.82-0.05-3.7-0.11-5.68-0.11h-45.72c-1.98,0-3.86,0.06-5.68,0.11c-1.6,0.05-3.1,0.09-4.48,0.09
				C798.89,340.58,796.05,340.26,794.6,338.85z M864.15,340.18c5.77,0.17,10.33,0.31,12.24-1.55c0.65-0.63,0.97-1.47,0.97-2.57
				c0,0-3.25-10.03-3.26-10.08c0-2.21-3.08-4.02-6.88-4.02h-63.26c-3.79,0-6.88,1.8-6.88,4.02l-3.26,10.08
				c0,1.09,0.32,1.94,0.97,2.57c1.91,1.86,6.47,1.72,12.24,1.55c1.82-0.05,3.71-0.11,5.69-0.11h45.72
				C860.44,340.08,862.32,340.13,864.15,340.18z"/>
		</g>
	</g>
	<g>
		<g>
			<path class="st4" d="M791.58,341.96c-1.09-1.05-2.38-2.94-2.38-5.91c0-0.47,0.07-0.94,0.22-1.38l3.09-9.54
				c0.54-4.49,5.29-7.78,11.46-7.78h63.26c6.17,0,10.91,3.29,11.46,7.78l3.09,9.54c0.14,0.45,0.22,0.91,0.22,1.38
				c0,2.98-1.29,4.86-2.38,5.91c-3.31,3.22-8.74,3.06-15.6,2.86c-1.75-0.05-3.62-0.11-5.55-0.11h-45.72c-1.93,0-3.8,0.05-5.55,0.11
				c-1.61,0.05-3.13,0.09-4.57,0.09C797.9,344.91,794.12,344.42,791.58,341.96z M864.27,335.85c2.86,0.09,6.61,0.2,8.4-0.16
				l-2.7-8.32c-0.05-0.17-0.1-0.33-0.13-0.5c-0.44-0.25-1.36-0.56-2.63-0.56h-63.26c-1.27,0-2.19,0.32-2.63,0.56
				c-0.03,0.17-0.08,0.34-0.13,0.5l-2.7,8.32c1.8,0.36,5.55,0.25,8.41,0.16c1.84-0.05,3.79-0.11,5.82-0.11h45.72
				C860.48,335.74,862.44,335.8,864.27,335.85z"/>
		</g>
	</g>
</g>
<g>
	<g>
		<g>
			<path class="st0" d="M775.59,359.25l4.66-16.87c0-3.87,4.5-7.01,10.06-7.01h90.56c5.56,0,10.06,3.13,10.06,7.01l4.66,16.87
				c0,9.69-12.21,7.02-27.27,7.02h-65.46C787.8,366.28,775.59,368.94,775.59,359.25z"/>
		</g>
	</g>
	<g>
		<g>
			<path class="st4" d="M774.24,367.33c-2.08-2.01-3.13-4.72-3.13-8.07c0-0.4,0.05-0.81,0.16-1.19l4.53-16.38
				c0.44-6.1,6.66-10.79,14.51-10.79h90.56c7.86,0,14.08,4.69,14.52,10.79l4.53,16.38c0.11,0.39,0.16,0.79,0.16,1.19
				c0,3.35-1.05,6.07-3.13,8.07c-4.32,4.18-11.53,3.93-20.65,3.61c-2.57-0.09-5.22-0.18-7.97-0.18h-65.46
				c-2.75,0-5.41,0.09-7.97,0.18c-2.32,0.08-4.51,0.15-6.56,0.15C782.3,371.09,777.47,370.44,774.24,367.33z M876.61,361.98
				c5.58,0.19,12.53,0.43,14.11-1.1c0.23-0.22,0.33-0.66,0.37-1.1l-4.48-16.2c-0.11-0.39-0.16-0.79-0.16-1.19
				c0-0.73-1.96-2.52-5.58-2.52h-90.56c-3.62,0-5.57,1.79-5.57,2.52c0,0.4-0.05,0.81-0.16,1.19l-4.48,16.2
				c0.04,0.44,0.14,0.87,0.37,1.1c1.59,1.53,8.53,1.29,14.11,1.1c2.64-0.09,5.37-0.19,8.28-0.19h65.46
				C871.23,361.79,873.97,361.89,876.61,361.98z"/>
		</g>
	</g>
</g>
<g>
	<g>
		<path class="st7" d="M848.67,485.08c-4.04,9.78-11.95,19.13-11.95,19.13l29.6,70.13h-65.59c-8.41-31.46-16.63-62.01-19.01-70.13
			c-5.35-18.29-6.45-58.05-6.57-69.35c-0.12-11.29,1.8-20.31,1.8-20.31s-5.08-11.99-1.5-23.92c3.59-11.92,14.35-18.82,14.35-18.82
			s14.23-7.93,16.14-2.99c1.91,4.93,4.75,6.51,1.79,9.86c-2.96,3.34-17.91,10.83-17.63,14.65c0.28,3.81,0.6,5.38,0.6,5.38
			s27.75-21.69,36.47-0.59c8.71,21.09,10.8,52.56,4.48,54.99c-6.33,2.45-23.32,5.69-23.32,5.69l-6.87,14.34l51.71-2.69
			C853.16,470.43,852.71,475.31,848.67,485.08z"/>
	</g>
</g>
<g>
	<g>
		<path class="st1" d="M802.64,465.76h71.82l-0.26,2.56c0,3.88-3.14,7.02-7.02,7.02h-63.16c-0.48,0-0.94-0.05-1.38-0.14V465.76z"/>
	</g>
</g>
<g>
	<g>
		<path class="st1" d="M846.61,497.7c-1.01,2.17-5.48,8.69-4.78,10.45c3.69,9.27,8.54,18.73,12.86,28.4
			c5.5,12.33,11.26,25.15,16.89,37.79h-9.99c-7.96-18.12-16.11-36.82-24.24-55.13c-1.87-4.21-5.4-8.49-4.78-13.15
			c0.36-2.78,3.12-6.51,4.78-9.86c3.2-6.45,5.69-12.82,8.37-20.91c1.55-4.7,1.84-8.95,6.58-8.37c7.61,0.94-0.14,16.57-1.5,20.31
			C849.74,490.17,848.28,494.12,846.61,497.7z"/>
	</g>
	<g>
		<path class="st1" d="M839.74,451.67c1.12-10.05-0.26-22.07-2.09-33.78c-1.77-11.31-4.36-22.39-9.56-26.89
			c-3.82-3.31-12.15-4.33-17.94-2.69c-0.16-1.16,0.96-2.09,1.5-3.28c1.84-4.09,2.13-11.23,0.6-15.85
			c-2.77-8.35-14.4-4.64-21.82-2.08c-5.62,1.93-10.75,4.45-13.74,7.76c-5.96,6.57-6.3,22.84-5.68,35.86
			c0.14,3.03,0.79,5.83,0.6,8.97c-1.38,23.03,0.45,47.44,2.99,68.15c0.8,6.49,0.99,12.8,2.39,18.52c1.39,5.64,3.3,10.83,4.78,16.14
			c4.91,17.51,9.7,34.71,14.46,51.84h9.08c-5.14-18.66-10.3-37.36-15.47-55.74c-1.88-6.7-4.27-14.16-5.38-22.41
			c-0.52-3.92-1.02-8.19-1.49-12.25c-0.5-4.29-1.67-8.88-1.5-12.55c0.22-4.42,3.98-10.35,6.57-14.05
			c8.92-12.72,22.13-19.26,42.44-19.42c0.23,0.06,0.35,0.25,0.3,0.59c0.51,3.98,0.34,8.84,0,12.86c-4.55,0.87-8.23,1.36-12.55,2.1
			c-5.51,0.93-13.09,0.48-15.54,4.18c-2.07,3.12-3.44,7.64-5.68,12.55c-1.66,3.64-5.16,10.65,0.3,11.96
			c6.98,1.68,9.47-14.92,12.25-18.54c0.24-0.07,0.59,0,0.59-0.29c9.91-1.92,15.57-0.6,23.32-3.58
			C836.5,458.57,839.27,455.98,839.74,451.67z M787.74,397.58c-1.03,1.11-2.71,2.08-4.19,3.28c-1.32,1.09-2.84,3.13-3.88,2.69
			c1.04-9.34-0.79-17.72,3.59-22.72c3.58-4.08,13.82-6.86,20.92-7.76C807.72,390.26,786.2,382.39,787.74,397.58z M826.3,407.13
			c-16.54,0.81-30.75,5.2-41.25,11.65c-1.59,0.97-3.4,2.45-4.48,2.1c0.36-1.45,0.53-3.89,1.5-5.68c4.53-8.4,22.88-19.73,35.57-18.83
			C823.99,396.83,824.73,401.76,826.3,407.13z M830.18,428.65c-24.22,0.39-40.24,8.97-50.21,23.61c0.1-4.58-0.52-8.43-0.3-13.14
			c6.36-17.45,27.2-20.42,48.42-23.02C829.54,419.53,829.51,424.44,830.18,428.65z"/>
	</g>
</g>
<g>
	<g>
		<g>
			<path class="st3" d="M1359.29,825.47c0,0,43.02-31.25,55-90.56c15.92-78.79-25.18-279.8-47.18-278.45
				c-25.73,1.59-83.64,190.62-72.98,280.84c7.42,62.79,47.82,88.78,47.82,88.78L1359.29,825.47z"/>
		</g>
	</g>
	<g>
		<g>
			<path class="st2" d="M1339.52,829.84c-1.72-1.11-42.27-27.87-49.85-92.02c-9.53-80.67,35.95-243.16,65.02-277.96
				c4.22-5.05,8.19-7.63,12.14-7.87c3.14-0.21,6.2,1.4,9.1,4.73c23.33,26.79,57.74,204.87,42.75,279.08
				c-12.18,60.33-54.94,91.98-56.76,93.3c-2,1.45-4.8,1.01-6.26-0.99c-1.46-2-1.02-4.8,0.98-6.26c0.42-0.3,41.77-31.04,53.24-87.83
				c8.1-40.12,0.78-111.13-8.77-164.21c-5.29-29.38-11.77-56.61-18.26-76.68c-9.22-28.54-14.92-31.87-15.6-32.18
				c-0.5,0.09-2.38,0.69-5.69,4.66c-13.3,15.93-31.47,63.28-45.21,117.8c-15.53,61.67-22.02,117.57-17.79,153.36
				c7.07,59.76,45.42,85.29,45.81,85.54c2.08,1.34,2.68,4.11,1.34,6.19c-0.86,1.33-2.3,2.06-3.77,2.06
				C1341.11,830.56,1340.27,830.33,1339.52,829.84z"/>
		</g>
	</g>
</g>
<g>
	<g>
		<path class="st4" d="M1331.47,1118.4c-2.46-0.24-4.26-2.44-4.02-4.9c0.24-2.41,23.94-242.42,25.1-394.37
			c0.54-71.49,3.39-172.59,4.64-176.7c0.72-2.37,3.23-3.7,5.6-2.98c2.26,0.69,3.58,3.01,3.06,5.28
			c-0.85,6.07-3.75,97.24-4.33,174.47c-1.16,152.35-24.9,392.77-25.14,395.18c-0.23,2.31-2.18,4.04-4.46,4.04
			C1331.77,1118.42,1331.62,1118.41,1331.47,1118.4z"/>
	</g>
</g>
<g>
	<g>
		<g>
			<path class="st3" d="M1300.91,954.47c0,0,43.07-30.91,41.08-91.38c-3.6-109.77-110.23-197.31-123.18-185.57
				c-21.23,19.25-9.02,136.48,6.01,203.8c8.14,36.45,23.01,57.76,36.24,65.63c13.68,8.15,31.77,10.41,31.77,10.41L1300.91,954.47z"
				/>
		</g>
	</g>
	<g>
		<g>
			<path class="st2" d="M1292.27,961.81c-0.78-0.1-19.19-2.47-33.51-11.01c-16.88-10.04-30.84-35.01-38.32-68.51
				c-13.74-61.57-29.21-185.81-4.65-208.1c3.26-2.96,8.49-2.94,15.53,0.04c15.47,6.55,43.47,29.2,68.41,63.46
				c20.36,27.96,44.99,72.39,46.72,125.24c2.05,62.15-41.1,93.85-42.94,95.17c-1.99,1.43-4.77,0.99-6.22-0.98
				c0.01,0.26,0,0.52-0.03,0.79c-0.29,2.27-2.22,3.93-4.44,3.93C1292.65,961.84,1292.46,961.83,1292.27,961.81z M1221.68,680.97
				c-16.93,15.99-9.77,121.92,7.52,199.37c10.14,45.41,28.71,59.51,34.16,62.76c12.67,7.55,29.86,9.79,30.03,9.81
				c1.27,0.16,2.34,0.83,3.04,1.78c-0.07-1.47,0.58-2.95,1.86-3.87c0.41-0.3,41.1-30.18,39.21-87.59
				c-2.62-79.92-61.51-149.2-98.01-174.09c-9.99-6.81-15.44-8.21-17.32-8.21C1221.96,680.93,1221.8,680.95,1221.68,680.97z"/>
		</g>
	</g>
</g>
<g>
	<g>
		<path class="st4" d="M1318.33,1180.84c2.41,0,4.4-1.91,4.48-4.33c0.03-0.84,2.58-85.48-19.18-236.45
			c-10.04-69.61-28.17-130.57-55.44-186.35c-1.09-2.23-3.78-3.15-6-2.06c-2.23,1.09-3.15,3.77-2.06,6
			c26.85,54.93,44.72,115.02,54.62,183.7c21.64,150.08,19.12,234.04,19.09,234.87c-0.08,2.47,1.86,4.55,4.33,4.63
			C1318.23,1180.84,1318.28,1180.84,1318.33,1180.84z"/>
	</g>
</g>
<g>
	<g>
		<g>
			<path class="st3" d="M1403.88,967.31c0,0,30.12,9.23,75.55-68.11c40.71-69.31,32.87-249.2,23.47-252.78
				c-9.4-3.58-78.37,55.42-117.92,170.58c-43.73,127.31,6.41,144.82,6.41,144.82L1403.88,967.31z"/>
		</g>
	</g>
	<g>
		<g>
			<path class="st2" d="M1407.48,972.21c11.01,0,38.66-7.49,75.81-70.74c38.68-65.85,34.42-228.66,25.66-253.61
				c-0.74-2.11-1.92-4.67-4.46-5.63c-2.28-0.87-5.01-0.49-8.59,1.19c-17.84,8.36-78.26,64.68-115.17,172.13
				c-44.66,130.03,6.95,149.73,9.17,150.51c2.34,0.83,4.9-0.42,5.71-2.75c0.81-2.32-0.4-4.86-2.71-5.69
				c-0.7-0.27-44.99-18.91-3.69-139.14c20.51-59.71,47.84-101.22,67.16-125.52c22.54-28.36,38.98-39.81,44.29-41.84
				c7.24,19.81,12.6,181.66-25.1,245.84c-42.4,72.19-70.2,66.14-70.47,66.06c-2.37-0.73-4.82,0.62-5.55,2.99
				c-0.73,2.37,0.66,4.89,3.02,5.62C1403.22,971.79,1404.89,972.21,1407.48,972.21z"/>
		</g>
	</g>
</g>
<g>
	<g>
		<path class="st4" d="M1353.08,1173.22c2.08,0,3.95-1.46,4.38-3.57c0.29-1.39,29.13-140.1,46.58-209.92
			c17.43-69.7,54.5-177.13,54.87-178.2c0.81-2.34-0.43-4.89-2.77-5.7c-2.34-0.81-4.89,0.43-5.7,2.77
			c-0.37,1.08-37.57,108.89-55.09,178.96c-17.5,69.99-46.37,208.88-46.66,210.27c-0.5,2.42,1.05,4.8,3.48,5.3
			C1352.47,1173.19,1352.78,1173.22,1353.08,1173.22z"/>
	</g>
</g>
<g>
	<g>
		<g>
			<path class="st3" d="M1430.4,1098.56l-19.94,123.62c0,6.6-4.29,11.96-9.58,11.96h-139.54c-5.29,0-9.58-5.35-9.58-11.96
				l-19.54-123.62c0-6.6,5.35-11.96,11.96-11.96h174.26C1425.05,1086.6,1430.4,1091.95,1430.4,1098.56z"/>
		</g>
	</g>
	<g>
		<g>
			<path class="st2" d="M1247.28,1222.55l-19.48-123.29c-0.04-0.23-0.05-0.47-0.05-0.7c0-9.07,7.38-16.44,16.44-16.44h174.26
				c9.07,0,16.44,7.38,16.44,16.44c0,0.24-0.02,0.48-0.06,0.71l-19.89,123.29c-0.17,8.89-6.41,16.06-14.06,16.06h-139.54
				C1253.7,1238.61,1247.45,1231.44,1247.28,1222.55z M1418.44,1091.08h-174.26c-4.02,0-7.31,3.19-7.47,7.16l19.47,123.23
				c0.04,0.23,0.05,0.46,0.05,0.7c0,4.05,2.34,7.47,5.1,7.47h139.54c2.76,0,5.09-3.42,5.09-7.47c0-0.24,0.02-0.48,0.06-0.71
				l19.87-123.22C1425.74,1094.26,1422.46,1091.08,1418.44,1091.08z"/>
		</g>
	</g>
</g>
<g>
	<g>
		<g>
			<path class="st3" d="M1442.17,1070.37l12.36,33.1c0,6.61-5.36,11.96-11.97,11.96h-223.7c-6.61,0-11.96-5.35-11.96-11.96
				l12.36-33.1c0-6.61,4.82-11.97,10.77-11.97h201.36C1437.35,1058.4,1442.17,1063.76,1442.17,1070.37z"/>
		</g>
	</g>
	<g>
		<g>
			<path class="st2" d="M1202.42,1103.47c0-0.54,0.1-1.07,0.28-1.57l12.1-32.39c0.42-8.67,7.09-15.59,15.23-15.59h201.36
				c8.14,0,14.82,6.92,15.23,15.59l12.1,32.39c0.19,0.5,0.28,1.03,0.28,1.57c0,9.07-7.38,16.44-16.45,16.44h-223.7
				C1209.8,1119.91,1202.42,1112.53,1202.42,1103.47z M1437.97,1071.94c-0.19-0.5-0.28-1.03-0.28-1.57c0-4.13-2.82-7.48-6.29-7.48
				h-201.36c-3.47,0-6.29,3.36-6.29,7.48c0,0.54-0.1,1.07-0.28,1.57l-12.04,32.25c0.36,3.79,3.56,6.76,7.44,6.76h223.7
				c3.89,0,7.09-2.97,7.45-6.76L1437.97,1071.94z"/>
		</g>
	</g>
</g>
<g id="platform">
	<path class="st4" d="M1515.15,1238.52H0.9c-0.95,0-1.73-1.54-1.73-3.45s0.77-3.45,1.73-3.45h1514.26c0.95,0,1.73,1.54,1.73,3.45
		S1516.11,1238.52,1515.15,1238.52z"/>
</g>
<path class="st4" d="M1015.22,201.28v-31.98c4.44-1.58,7.64-5.79,7.64-10.76c0-6.32-5.14-11.46-11.46-11.46
	c-1.31,0-2.56,0.27-3.74,0.68l-17.12-21.41c1.09-1.75,1.75-3.8,1.75-6.01c0-6.32-5.14-11.46-11.46-11.46c-3.21,0-6.11,1.34-8.2,3.47
	l-30.12-13.9c0.03-0.35,0.11-0.68,0.11-1.04c0-6.32-5.14-11.46-11.46-11.46c-4.98,0-9.18,3.21-10.76,7.64h-43.44
	c-1.58-4.44-5.79-7.64-10.76-7.64c-6.32,0-11.46,5.14-11.46,11.46c0,0.47,0.08,0.93,0.14,1.39l-18.95,9.48
	c-2.06-1.98-4.85-3.22-7.94-3.22c-6.32,0-11.46,5.14-11.46,11.46c0,2.22,0.66,4.27,1.75,6.02l-17.12,21.4
	c-1.18-0.41-2.42-0.68-3.73-0.68c-6.32,0-11.46,5.14-11.46,11.46c0,4.98,3.21,9.18,7.64,10.76v24.34
	c-4.44,1.58-7.64,5.78-7.64,10.76c0,6.32,5.14,11.46,11.46,11.46c4.25,0,7.91-2.35,9.9-5.78l20.86,3.79
	c0.88,5.45,5.58,9.63,11.28,9.63c0.16,0,0.3-0.04,0.45-0.05l7.29,18.23c-2.38,2.11-3.92,5.14-3.92,8.57
	c0,6.32,5.14,11.46,11.46,11.46c3.84,0,7.23-1.92,9.31-4.83l32.79,9.37c0.29,4.65,3.35,8.54,7.57,10.04v28.16
	c-4.44,1.58-7.64,5.79-7.64,10.76c0,6.32,5.14,11.46,11.46,11.46s11.46-5.14,11.46-11.46c0-4.98-3.21-9.18-7.64-10.76v-28.16
	c4.44-1.58,7.64-5.79,7.64-10.76c0-3.66-1.76-6.89-4.44-8.99l4.56-13.69l34.29,11.43c0.09,4.88,3.25,8.98,7.62,10.54v39.62
	c-4.44,1.58-7.64,5.79-7.64,10.76c0,6.32,5.14,11.46,11.46,11.46s11.46-5.14,11.46-11.46c0-4.98-3.21-9.18-7.64-10.76v-39.62
	c4.44-1.58,7.64-5.79,7.64-10.76c0-1.39-0.29-2.72-0.75-3.96l29.32-24.43c1.71,1.02,3.69,1.64,5.82,1.64
	c6.32,0,11.46-5.14,11.46-11.46C1022.87,207.06,1019.66,202.86,1015.22,201.28z M850.88,208c-0.01-0.46-0.08-0.9-0.14-1.34
	l31.35-16.25l9.69,31.23L850.88,208z M842.35,197.17l-5.3-40.61l26.19-1.31c1.66,4.03,5.56,6.88,10.13,7.06l6.42,20.68l-32.55,16.88
	C845.88,198.59,844.21,197.66,842.35,197.17z M808,150.36c-0.24-0.58-0.55-1.13-0.88-1.67l17.12-21.4c0.44,0.15,0.88,0.32,1.34,0.42
	l2.82,21.63L808,150.36z M833.16,126.67c3.71-1.9,6.29-5.72,6.29-10.17c0-0.47-0.08-0.93-0.14-1.39l18.95-9.48
	c2.06,1.98,4.85,3.22,7.94,3.22c2.35,0,4.53-0.71,6.35-1.93l23.73,17.8l-17.18,16.03c-1.58-0.82-3.35-1.33-5.25-1.33
	c-5.17,0-9.51,3.47-10.93,8.19l-26.84,1.34L833.16,126.67z M920.66,101.97l-18.71,17.46l-24.29-18.22h42.74
	C920.49,101.47,920.55,101.73,920.66,101.97z M931.31,156.27l-30.75,15.95l-16.41-16.41c0.71-1.5,1.15-3.15,1.15-4.91
	c0-1.63-0.35-3.17-0.96-4.57l18.14-16.94l29.24,21.93c-0.34,1.08-0.57,2.2-0.57,3.39C931.16,155.25,931.24,155.76,931.31,156.27z
	 M877.66,150.89c0,2.11-1.71,3.82-3.82,3.82s-3.82-1.72-3.82-3.82s1.71-3.82,3.82-3.82S877.66,148.79,877.66,150.89z M893.45,175.91
	l-6.76,3.5l-4.62-14.88L893.45,175.91z M888.99,186.83l10.13-5.25l17.9,17.9c-0.71,1.49-1.15,3.14-1.15,4.91
	c0,3.66,1.76,6.89,4.44,8.99l-5.33,15.98l-14.27-4.76L888.99,186.83z M927.33,208.21c-2.11,0-3.82-1.72-3.82-3.82
	c0-2.11,1.71-3.82,3.82-3.82s3.82,1.72,3.82,3.82C931.16,206.5,929.44,208.21,927.33,208.21z M927.33,192.93
	c-1.77,0-3.42,0.43-4.91,1.15l-16.19-16.19l28.58-14.82c2.05,1.92,4.78,3.11,7.8,3.11c2.13,0,4.11-0.62,5.82-1.64l17.4,14.5
	l-30.89,16.85C932.92,194.07,930.27,192.93,927.33,192.93z M975.4,130.35c1.62,0.89,3.46,1.43,5.43,1.43c1.31,0,2.56-0.27,3.73-0.68
	l17.12,21.41c-1.09,1.75-1.75,3.8-1.75,6.02c0,0.62,0.09,1.21,0.18,1.8l-27.07,14.77l-19.72-16.43c0.46-1.24,0.75-2.56,0.75-3.96
	c0-1.56-0.32-3.03-0.88-4.39L975.4,130.35z M1005.59,202.21l-26.22-21.85l24.42-13.32c1.1,0.99,2.38,1.75,3.79,2.25v31.98
	C1006.88,201.53,1006.22,201.84,1005.59,202.21z M946.44,154.72c0,2.11-1.71,3.82-3.82,3.82s-3.82-1.72-3.82-3.82
	s1.71-3.82,3.82-3.82S946.44,152.61,946.44,154.72z M972.15,184.3l27.38,22.82l-59.33-5.4L972.15,184.3z M1015.22,158.54
	c0,2.11-1.71,3.82-3.82,3.82s-3.82-1.72-3.82-3.82s1.71-3.82,3.82-3.82S1015.22,156.43,1015.22,158.54z M980.83,116.5
	c2.11,0,3.82,1.72,3.82,3.82s-1.71,3.82-3.82,3.82s-3.82-1.72-3.82-3.82S978.72,116.5,980.83,116.5z M969.47,119.29
	c-0.03,0.35-0.1,0.68-0.1,1.04c0,1.56,0.32,3.03,0.88,4.39l-22.2,19.97c-1.62-0.89-3.45-1.43-5.43-1.43c-2.35,0-4.53,0.71-6.35,1.93
	l-28.12-21.09l17.75-16.57c1.58,0.83,3.35,1.33,5.25,1.33c3.21,0,6.11-1.34,8.2-3.47L969.47,119.29z M931.16,93.57
	c2.11,0,3.82,1.72,3.82,3.82s-1.71,3.82-3.82,3.82s-3.82-1.72-3.82-3.82S929.05,93.57,931.16,93.57z M866.19,93.57
	c2.11,0,3.82,1.72,3.82,3.82s-1.71,3.82-3.82,3.82c-2.11,0-3.82-1.72-3.82-3.82S864.08,93.57,866.19,93.57z M827.98,112.68
	c2.11,0,3.82,1.72,3.82,3.82s-1.71,3.82-3.82,3.82s-3.82-1.72-3.82-3.82S825.87,112.68,827.98,112.68z M797.41,150.89
	c2.11,0,3.82,1.72,3.82,3.82s-1.71,3.82-3.82,3.82s-3.82-1.72-3.82-3.82S795.3,150.89,797.41,150.89z M797.41,204.39
	c-2.11,0-3.82-1.72-3.82-3.82s1.71-3.82,3.82-3.82s3.82,1.72,3.82,3.82S799.52,204.39,797.41,204.39z M801.23,189.81v-24.34
	c3.42-1.22,6.06-3.99,7.11-7.48l21.06-1.05l5.33,40.85c-2.19,0.99-3.99,2.67-5.18,4.74l-20.86-3.79
	C808.01,194.58,805.11,191.19,801.23,189.81z M835.62,208.21c0-2.11,1.71-3.82,3.82-3.82c2.11,0,3.82,1.72,3.82,3.82
	s-1.71,3.82-3.82,3.82C837.33,212.04,835.62,210.32,835.62,208.21z M846.99,216.78c0.53-0.47,1.01-0.98,1.45-1.54l46.14,15.38
	l6.81,21.95c-0.95,0.71-1.79,1.55-2.48,2.51l-32.79-9.37c-0.38-5.98-5.32-10.74-11.39-10.74c-0.15,0-0.3,0.04-0.45,0.05
	L846.99,216.78z M854.73,250.25c-2.11,0-3.82-1.72-3.82-3.82c0-2.11,1.71-3.82,3.82-3.82s3.82,1.72,3.82,3.82
	C858.55,248.53,856.84,250.25,854.73,250.25z M908.23,315.21c-2.11,0-3.82-1.72-3.82-3.82s1.71-3.82,3.82-3.82s3.82,1.72,3.82,3.82
	S910.34,315.21,908.23,315.21z M908.23,265.53c-2.11,0-3.82-1.72-3.82-3.82s1.71-3.82,3.82-3.82s3.82,1.72,3.82,3.82
	S910.34,265.53,908.23,265.53z M908.36,249.24l-4.86-15.64l9.06,3.02L908.36,249.24z M927.55,215.83c4.52-0.08,8.38-2.79,10.17-6.66
	l62.62,5.69c0.1,0.38,0.21,0.76,0.35,1.12l-29.32,24.43c-1.71-1.02-3.68-1.64-5.82-1.64c-3.66,0-6.89,1.76-8.99,4.44l-34.32-11.44
	L927.55,215.83z M965.55,315.21c-2.11,0-3.82-1.72-3.82-3.82s1.71-3.82,3.82-3.82s3.82,1.72,3.82,3.82S967.66,315.21,965.55,315.21z
	 M965.55,254.07c-2.11,0-3.82-1.72-3.82-3.82c0-2.11,1.71-3.82,3.82-3.82s3.82,1.72,3.82,3.82
	C969.37,252.35,967.66,254.07,965.55,254.07z M1011.4,215.86c-2.11,0-3.82-1.72-3.82-3.82c0-2.11,1.71-3.82,3.82-3.82
	s3.82,1.72,3.82,3.82C1015.22,214.14,1013.51,215.86,1011.4,215.86z"/>
</svg>
