<?xml version="1.0" encoding="utf-8"?>
<!-- Generator: Adobe Illustrator 25.3.0, SVG Export Plug-In . SVG Version: 6.00 Build 0)  -->
<svg version="1.1" id="Illustration" xmlns="http://www.w3.org/2000/svg" xmlns:xlink="http://www.w3.org/1999/xlink" x="0px"
	 y="0px" viewBox="0 0 2342.46 1777.66" style="enable-background:new 0 0 2342.46 1777.66;" xml:space="preserve">
<style type="text/css">
	.st0{fill:#FFFFFF;}
	.st1{fill:#2E2E2E;}
	.st2{fill:#00000C;}
	.st3{fill:#C1C7D6;}
	.st4{fill:#BB5A7D;}
</style>
<g>
	<path class="st0" d="M1996.63,1192.36H483.67c-42.54,0-77.03-34.49-77.03-77.03V80.66c0-42.54,34.49-77.03,77.03-77.03h1512.96
		c42.54,0,77.03,34.49,77.03,77.03v1034.68C2073.66,1157.88,2039.17,1192.36,1996.63,1192.36z"/>
	<path class="st1" d="M1996.63,1195.99H483.67c-44.47,0-80.66-36.18-80.66-80.66V80.66C403.01,36.18,439.19,0,483.67,0h1512.96
		c44.47,0,80.66,36.18,80.66,80.66v1034.68C2077.29,1159.81,2041.1,1195.99,1996.63,1195.99z M483.67,7.26
		c-40.47,0-73.39,32.92-73.39,73.39v1034.68c0,40.47,32.92,73.39,73.39,73.39h1512.96c40.47,0,73.39-32.92,73.39-73.39V80.66
		c0-40.47-32.92-73.39-73.39-73.39H483.67z"/>
</g>
<g>
	<path class="st2" d="M1374.54,547.44H715.35c-15.96,0-28.94-12.98-28.94-28.93c0-15.96,12.98-28.94,28.94-28.94h659.19
		c15.96,0,28.94,12.98,28.94,28.94C1403.48,534.46,1390.5,547.44,1374.54,547.44z M715.35,496.83c-11.95,0-21.67,9.72-21.67,21.67
		c0,11.95,9.72,21.67,21.67,21.67h659.19c11.95,0,21.67-9.72,21.67-21.67c0-11.95-9.72-21.67-21.67-21.67H715.35z"/>
</g>
<g>
	<path class="st1" d="M1374.54,694.4H715.35c-15.96,0-28.94-12.98-28.94-28.93c0-15.96,12.98-28.94,28.94-28.94h659.19
		c15.96,0,28.94,12.98,28.94,28.94C1403.48,681.41,1390.5,694.4,1374.54,694.4z M715.35,643.79c-11.95,0-21.67,9.72-21.67,21.67
		c0,11.95,9.72,21.67,21.67,21.67h659.19c11.95,0,21.67-9.72,21.67-21.67c0-11.95-9.72-21.67-21.67-21.67H715.35z"/>
</g>
<g>
	<g>
		<path class="st1" d="M736.74,75.85H470.58c-2.01,0-3.63-1.63-3.63-3.63c0-2.01,1.63-3.63,3.63-3.63h266.16
			c2.01,0,3.63,1.63,3.63,3.63C740.38,74.22,738.75,75.85,736.74,75.85z"/>
	</g>
	<g>
		<path class="st1" d="M856.09,76.66h-63.46c-2.01,0-3.63-1.63-3.63-3.63c0-2.01,1.63-3.63,3.63-3.63h63.46
			c2.01,0,3.63,1.63,3.63,3.63C859.72,75.04,858.09,76.66,856.09,76.66z"/>
	</g>
	<g>
		<path class="st1" d="M1104.84,76.66H911.97c-2.01,0-3.63-1.63-3.63-3.63c0-2.01,1.63-3.63,3.63-3.63h192.87
			c2.01,0,3.63,1.63,3.63,3.63C1108.47,75.04,1106.84,76.66,1104.84,76.66z"/>
	</g>
	<g>
		<path class="st1" d="M1366.4,75.85h-205.67c-2.01,0-3.63-1.63-3.63-3.63c0-2.01,1.63-3.63,3.63-3.63h205.67
			c2.01,0,3.63,1.63,3.63,3.63C1370.03,74.22,1368.4,75.85,1366.4,75.85z"/>
	</g>
	<g>
		<path class="st1" d="M642.7,161.11H470.58c-2.01,0-3.63-1.63-3.63-3.63c0-2.01,1.63-3.63,3.63-3.63H642.7
			c2.01,0,3.63,1.63,3.63,3.63C646.33,159.49,644.71,161.11,642.7,161.11z"/>
	</g>
	<g>
		<path class="st1" d="M968.94,161.11h-274.6c-2.01,0-3.63-1.63-3.63-3.63c0-2.01,1.63-3.63,3.63-3.63h274.6
			c2.01,0,3.63,1.63,3.63,3.63C972.57,159.49,970.94,161.11,968.94,161.11z"/>
	</g>
	<g>
		<path class="st1" d="M1056.99,161.11h-52.76c-2.01,0-3.63-1.63-3.63-3.63c0-2.01,1.63-3.63,3.63-3.63h52.76
			c2.01,0,3.63,1.63,3.63,3.63C1060.63,159.49,1059,161.11,1056.99,161.11z"/>
	</g>
	<g>
		<path class="st1" d="M1358.74,161.11h-253.91c-2.01,0-3.63-1.63-3.63-3.63c0-2.01,1.63-3.63,3.63-3.63h253.91
			c2.01,0,3.63,1.63,3.63,3.63C1362.38,159.49,1360.75,161.11,1358.74,161.11z"/>
	</g>
	<g>
		<path class="st1" d="M735.3,259.65H469.14c-2.01,0-3.63-1.63-3.63-3.63c0-2.01,1.63-3.63,3.63-3.63H735.3
			c2.01,0,3.63,1.63,3.63,3.63C738.93,258.03,737.31,259.65,735.3,259.65z"/>
	</g>
	<g>
		<path class="st1" d="M854.64,260.47h-63.46c-2.01,0-3.63-1.63-3.63-3.63c0-2.01,1.63-3.63,3.63-3.63h63.46
			c2.01,0,3.63,1.63,3.63,3.63C858.28,258.84,856.65,260.47,854.64,260.47z"/>
	</g>
	<g>
		<path class="st1" d="M1103.4,260.47H910.53c-2.01,0-3.63-1.63-3.63-3.63c0-2.01,1.63-3.63,3.63-3.63h192.87
			c2.01,0,3.63,1.63,3.63,3.63C1107.03,258.84,1105.4,260.47,1103.4,260.47z"/>
	</g>
	<g>
		<path class="st1" d="M1364.95,259.65h-205.67c-2.01,0-3.63-1.63-3.63-3.63c0-2.01,1.63-3.63,3.63-3.63h205.67
			c2.01,0,3.63,1.63,3.63,3.63C1368.58,258.03,1366.96,259.65,1364.95,259.65z"/>
	</g>
	<g>
		<path class="st1" d="M641.26,344.92H469.14c-2.01,0-3.63-1.63-3.63-3.63c0-2.01,1.63-3.63,3.63-3.63h172.12
			c2.01,0,3.63,1.63,3.63,3.63C644.89,343.29,643.26,344.92,641.26,344.92z"/>
	</g>
	<g>
		<path class="st1" d="M967.49,344.92H692.9c-2.01,0-3.63-1.63-3.63-3.63c0-2.01,1.63-3.63,3.63-3.63h274.6
			c2.01,0,3.63,1.63,3.63,3.63C971.12,343.29,969.5,344.92,967.49,344.92z"/>
	</g>
	<g>
		<path class="st1" d="M1055.55,344.92h-52.76c-2.01,0-3.63-1.63-3.63-3.63c0-2.01,1.63-3.63,3.63-3.63h52.76
			c2.01,0,3.63,1.63,3.63,3.63C1059.18,343.29,1057.56,344.92,1055.55,344.92z"/>
	</g>
	<g>
		<path class="st1" d="M1357.3,344.92H1103.4c-2.01,0-3.63-1.63-3.63-3.63c0-2.01,1.63-3.63,3.63-3.63h253.91
			c2.01,0,3.63,1.63,3.63,3.63C1360.93,343.29,1359.31,344.92,1357.3,344.92z"/>
	</g>
</g>
<g>
	<g>
		<path class="st1" d="M964.14,796.85H697.98c-2.01,0-3.63-1.63-3.63-3.63c0-2.01,1.63-3.63,3.63-3.63h266.16
			c2.01,0,3.63,1.63,3.63,3.63C967.77,795.22,966.14,796.85,964.14,796.85z"/>
	</g>
	<g>
		<path class="st1" d="M1083.48,797.66h-63.46c-2.01,0-3.63-1.63-3.63-3.63c0-2.01,1.63-3.63,3.63-3.63h63.46
			c2.01,0,3.63,1.63,3.63,3.63C1087.11,796.04,1085.49,797.66,1083.48,797.66z"/>
	</g>
	<g>
		<path class="st1" d="M1332.23,797.66h-192.87c-2.01,0-3.63-1.63-3.63-3.63c0-2.01,1.63-3.63,3.63-3.63h192.87
			c2.01,0,3.63,1.63,3.63,3.63C1335.86,796.04,1334.24,797.66,1332.23,797.66z"/>
	</g>
	<g>
		<path class="st1" d="M962.69,980.65H696.53c-2.01,0-3.63-1.63-3.63-3.63c0-2.01,1.63-3.63,3.63-3.63h266.16
			c2.01,0,3.63,1.63,3.63,3.63C966.33,979.03,964.7,980.65,962.69,980.65z"/>
	</g>
	<g>
		<path class="st1" d="M1082.04,981.47h-63.46c-2.01,0-3.63-1.63-3.63-3.63c0-2.01,1.63-3.63,3.63-3.63h63.46
			c2.01,0,3.63,1.63,3.63,3.63C1085.67,979.84,1084.04,981.47,1082.04,981.47z"/>
	</g>
	<g>
		<path class="st1" d="M1330.79,981.47h-192.87c-2.01,0-3.63-1.63-3.63-3.63c0-2.01,1.63-3.63,3.63-3.63h192.87
			c2.01,0,3.63,1.63,3.63,3.63C1334.42,979.84,1332.79,981.47,1330.79,981.47z"/>
	</g>
	<g>
		<path class="st1" d="M1592.35,980.65h-205.67c-2.01,0-3.63-1.63-3.63-3.63c0-2.01,1.63-3.63,3.63-3.63h205.67
			c2.01,0,3.63,1.63,3.63,3.63C1595.98,979.03,1594.35,980.65,1592.35,980.65z"/>
	</g>
</g>
<g>
	<g>
		<path class="st1" d="M1524.37,699.97c-28.74,0-52.12-23.38-52.12-52.12s23.38-52.12,52.12-52.12c28.74,0,52.12,23.38,52.12,52.12
			S1553.11,699.97,1524.37,699.97z M1524.37,603c-24.73,0-44.85,20.12-44.85,44.85c0,24.73,20.12,44.85,44.85,44.85
			s44.85-20.12,44.85-44.85C1569.23,623.13,1549.11,603,1524.37,603z"/>
	</g>
	<circle class="st3" cx="1673.05" cy="647.86" r="48.48"/>
	<g>
		<path class="st1" d="M1673.06,699.97c-28.74,0-52.12-23.38-52.12-52.12s23.38-52.12,52.12-52.12s52.12,23.38,52.12,52.12
			S1701.79,699.97,1673.06,699.97z M1673.06,603c-24.73,0-44.85,20.12-44.85,44.85c0,24.73,20.12,44.85,44.85,44.85
			s44.85-20.12,44.85-44.85C1717.91,623.13,1697.79,603,1673.06,603z"/>
	</g>
	<g>
		<path class="st1" d="M1821.74,699.97c-28.74,0-52.12-23.38-52.12-52.12s23.38-52.12,52.12-52.12s52.12,23.38,52.12,52.12
			S1850.47,699.97,1821.74,699.97z M1821.74,603c-24.73,0-44.85,20.12-44.85,44.85c0,24.73,20.12,44.85,44.85,44.85
			c24.73,0,44.85-20.12,44.85-44.85C1866.59,623.13,1846.47,603,1821.74,603z"/>
	</g>
</g>
<g>
	<path class="st1" d="M1784.15,1021.01c-2,0-3.63-1.62-3.63-3.63c0-2.01,1.62-3.63,3.63-3.63c20.02-0.01,39.71-5.29,56.93-15.26
		c1.74-1.01,3.96-0.41,4.96,1.32c1.01,1.74,0.41,3.96-1.32,4.96C1826.39,1015.38,1805.45,1021,1784.15,1021.01
		C1784.15,1021.01,1784.15,1021.01,1784.15,1021.01z M1725.38,1005.32c-0.62,0-1.24-0.16-1.81-0.49
		c-18.38-10.62-33.73-25.94-44.38-44.3c-1.01-1.73-0.41-3.96,1.32-4.96c1.73-1.01,3.96-0.42,4.96,1.32
		c10.01,17.27,24.44,31.67,41.73,41.66c1.74,1,2.33,3.22,1.33,4.96C1727.86,1004.67,1726.64,1005.32,1725.38,1005.32z
		 M1885.9,962.23c-0.62,0-1.24-0.16-1.82-0.49c-1.74-1-2.33-3.23-1.33-4.96c9.96-17.23,15.23-36.92,15.23-56.94v-0.27
		c0-2.01,1.63-3.63,3.63-3.63c2.01,0,3.63,1.63,3.63,3.63v0.27c0,21.3-5.6,42.24-16.21,60.58
		C1888.37,961.58,1887.15,962.23,1885.9,962.23z M1666.55,903.6c-2.01,0-3.63-1.63-3.63-3.63v-0.13c0-21.25,5.58-42.15,16.14-60.46
		c1-1.74,3.23-2.33,4.96-1.33c1.74,1,2.33,3.22,1.33,4.96c-9.92,17.2-15.17,36.85-15.17,56.83v0.13
		C1670.18,901.98,1668.55,903.6,1666.55,903.6z M1885.77,844.48c-1.25,0-2.47-0.65-3.14-1.81c-10.03-17.26-24.48-31.65-41.77-41.61
		c-1.74-1-2.34-3.22-1.33-4.96c1-1.74,3.22-2.34,4.96-1.34c18.4,10.6,33.76,25.9,44.43,44.25c1.01,1.73,0.42,3.96-1.31,4.96
		C1887.02,844.32,1886.39,844.48,1885.77,844.48z M1725.16,801.75c-1.25,0-2.47-0.65-3.14-1.81c-1.01-1.73-0.42-3.96,1.32-4.96
		c18.31-10.63,39.25-16.27,60.55-16.31c0,0,0,0,0.01,0c2,0,3.63,1.62,3.63,3.63c0,2.01-1.62,3.63-3.63,3.64
		c-20.02,0.03-39.7,5.33-56.91,15.33C1726.4,801.59,1725.78,801.75,1725.16,801.75z"/>
</g>
<path class="st1" d="M342.5,492.67c-45.44,33.58-42.01,93.61-41.5,100.5c2.18,29.75,15.11,51.75,23.5,63.5
	c89.49-12.92,178.97-25.84,268.46-38.76c27.75-37.46,34.09-84.63,16.07-122.93c-19.76-42-60.56-55.77-68.97-58.61
	c-74.34-25.1-140.75,34.33-143.58,36.94C385.24,474.12,363.24,477.34,342.5,492.67z"/>
<path class="st0" d="M508.32,895.86c-13.54,34.38-27.07,68.77-40.61,103.15c-44.03-35.92-88.06-71.84-132.09-107.76
	c0,0,13.24-47.6,15.03-69.79c1.79-22.19,5.01-94.86,2.51-104.53c-15.09-1.79-24.7-8.95-30.43-18.97
	c-5.73-10.02-5.93-21.04-1.71-30.03c4.22-8.99,19.39-23.66,48.49-17.94c7.74-5.15,17.25-12.82,25.99-23.93
	c20.47-26.01,23.7-54.31,24.32-66.74c21.65,7.93,51.81,16.17,84.67,16.02c14.02-0.06,27.46-1.65,30.01-1.96
	c19.52-2.36,35.65-6.43,47.4-10.03c7.16,22.91,7.16,36.51,6.8,44.75c-0.36,8.23-2.57,89.49-5.37,105.24
	c-2.8,15.76-7.52,56.56-14.68,71.95c-7.16,15.39-24.96,36.33-41.47,41.3c-16.5,4.97-32.27,9.89-32.27,9.89s-0.76,32.93,0.52,45.82
	c1.27,12.89,8.07,19.69,8.07,19.69L508.32,895.86z"/>
<path class="st0" d="M1068.74,1085.28c0,0,24.1-30.84,30.52-37.23c6.42-6.39,23.62-23.54,28.72-33.74s17.18-35.44,17.18-45.1
	c0-9.66-4.21-23.94-14.99-23.52c-10.78,0.43-16.5,4.4-16.5,4.4s-4.28-15.16-9.49-19.1s-14.7-5.41-20.51-2.59
	c-5.81,2.81-8.86,4.3-8.86,4.3s2.68-18.79-14.5-22.01c-17.18-3.22-25.24,2.15-25.24,2.15l-2.15-1.88c0,0,11.01-28.46,12.62-40.81
	c1.61-12.35,8.21-31.11,4.51-39.45c-3.7-8.34-9.34-13.71-19.81-11.29c-10.47,2.42-17.45,9.66-22.01,21.21
	c-4.56,11.54-17.99,44.57-21.21,55.57c-3.22,11.01-13.42,49.67-15.57,52.35c-2.15,2.68-8.6-0.4-10.07-4.5
	c-1.47-4.09-15.42-31.83-22.85-38.85c-7.43-7.02-20.77-14.11-29.09-9.54c-8.32,4.56-8.89,17.75-9.01,23.1
	c-0.12,5.35,17.87,49.38,20.55,57.97c2.68,8.59,16.91,62.82,16.91,62.82l128.09,47.27L1068.74,1085.28z"/>
<g>
	<path class="st0" d="M581.16,598.55c2.5-3.49,32.94-47.42,14.38-93.28c-15.11-37.34-52.42-50.5-68-56
		c-28.2-9.95-53.16-7.94-66.33-5.91c5.15-2.08,65.28-25.31,115.14,10.02c7.13,5.05,34.15,24.83,41.77,61.35
		c11.96,57.25-35.36,99.95-37.53,101.84C580.6,616.57,581.36,608.98,581.16,598.55z"/>
</g>
<path class="st4" d="M548.97,1099.24c-9.94-24.64-19.87-49.27-29.81-73.91c-16.68-8.62-33.37-17.24-50.05-25.86
	c-22.65,16.18-45.3,32.35-67.95,48.53c-40.81-40.36-81.61-80.72-122.42-121.08c-12.73,7.8-31.24,19.31-53.33,33.66
	c-14.68,9.54-54.32,33.33-69.69,47.2c-25.21,22.74-60.2,73.97-80.65,124.96c-20.45,50.99-61.4,231.38-67.24,264.14
	c-5.84,32.76-1.41,129.97-1.21,133.18c0.2,3.21,11.48,96.64,11.48,96.64L203,1773.26l493.14-3.3c0,0-22.63-393.07-23.11-399.18
	c-0.48-6.11-11.66-133.37-11.66-133.37L548.97,1099.24z"/>
<path class="st4" d="M1076.96,1092.3l-153.56-56.25l-102.45,203.49c0,0-54.95-93.17-109.9-172.05S583.09,933.48,543.17,927.75
	c-7.84,31.86-15.69,63.73-23.53,95.59c-1.72,59.78-3.43,119.55-5.14,179.33c22.12,10.98,53.44,29.16,84.91,58.4
	c39.46,36.66,52.13,55.57,77.12,97.67C697.46,1394,750.17,1470,832.5,1465.38c56.77-3.19,95.1-61.54,143.28-136.02
	C1006.95,1281.17,1049.86,1202.53,1076.96,1092.3z"/>
<g>
	<path class="st0" d="M820.31,1248.15c0,0-68.55-87.21-123.5-166.1c-46.79-67.17-111.02-114.38-152.42-131.27
		c0.2-9.86,0.36-17.8,0.47-23.04c39.91,5.73,112.94,60.85,167.88,139.74c43.82,62.91,87.61,134.84,103.56,161.42L820.31,1248.15z"/>
</g>
<g>
	<path class="st1" d="M466.87,783.96c-12.02-7.85-16.57-17.44-16.03-28.54c0.41-8.48,2.07-12.43,6.08-12.96
		c5.07-0.66,13.59,6.98,27.41,16.76c10.09,7.14,26.68,13.5,24.17,22.21C506.34,788.93,485.96,796.42,466.87,783.96z"/>
	<path class="st0" d="M451.56,760.42c11.33-3.72,34.01,5.01,27.97,27.16C465.19,783.58,452.12,767.13,451.56,760.42z"/>
	<g>
		<path class="st1" d="M488.8,793.61c-6.61,0-14.96-1.62-23.76-7.36c-12.57-8.21-18.62-19.09-17.97-32.34
			c0.23-4.73,0.77-15.82,9.82-17c5.57-0.73,11.61,3.71,21.59,11.08c2.64,1.95,5.63,4.15,8.86,6.44c2.41,1.7,5.35,3.45,8.2,5.13
			c9.57,5.66,20.41,12.08,17.62,21.77c-1.2,4.17-5.36,7.85-11.42,10.1C499.65,792.19,494.99,793.61,488.8,793.61z M458.17,745.41
			c-0.06,0-0.12,0-0.18,0.01c-1.22,0.16-2.08,3.41-2.35,8.91c-0.5,10.27,3.97,18.13,14.08,24.73l0,0c10.87,7.09,22.11,6.88,29,4.31
			c4.01-1.49,5.88-3.47,6.15-4.43c0.95-3.31-7.54-8.33-13.74-12c-2.99-1.77-6.09-3.6-8.78-5.51c-3.3-2.33-6.32-4.57-9-6.54
			C467.34,750.44,460.52,745.41,458.17,745.41z"/>
	</g>
	<g>
		<path class="st1" d="M483.83,790.33l-7.8-3.61c4.01-8.67,0.94-14.41-2.35-17.71c-5.29-5.31-14.41-7.41-20.33-4.69l-3.59-7.81
			c9.22-4.24,22.12-1.47,30,6.43C487.03,770.23,488.51,780.21,483.83,790.33z"/>
	</g>
</g>
<g>
	<path class="st1" d="M489.24,837.84c-4.01,0-8.13-0.18-12.38-0.53l-0.94-0.08c-7.31-0.61-19.55-1.62-40.89-6.76
		c-2.31-0.56-3.73-2.88-3.17-5.18c0.55-2.31,2.88-3.73,5.18-3.17c20.7,4.99,32.53,5.97,39.59,6.55l0.95,0.08
		c31.77,2.66,56.24-5.33,72.72-23.74c14.34-16.03,22.94-40.05,25.55-71.39l10.24-122.98c1.38-16.54-1.12-32.64-7.42-47.87
		c-0.91-2.19,0.13-4.7,2.33-5.61c2.19-0.91,4.71,0.13,5.61,2.33c6.74,16.27,9.52,34.2,8.05,51.87l-10.24,122.98
		c-2.77,33.25-12.09,58.96-27.71,76.41C540.58,828.75,517.92,837.84,489.24,837.84z"/>
</g>
<g>
	<path class="st1" d="M352.94,722.68c-1.12,0-2.24-0.05-3.36-0.14c-21.74-1.81-37.95-20.97-36.14-42.7
		c0.88-10.53,5.8-20.09,13.87-26.91c8.07-6.83,18.31-10.1,28.84-9.22c5.44,0.45,10.63,1.98,15.41,4.55
		c2.09,1.12,2.88,3.73,1.75,5.82c-1.12,2.09-3.72,2.88-5.82,1.75c-3.74-2.01-7.79-3.2-12.06-3.56c-8.25-0.69-16.26,1.88-22.57,7.22
		c-6.31,5.34-10.17,12.83-10.86,21.07c-1.42,17.02,11.27,32.01,28.29,33.43c4.64,0.39,9.18-0.24,13.49-1.87
		c2.22-0.84,4.7,0.28,5.54,2.5c0.84,2.22-0.28,4.7-2.5,5.54C362.34,721.83,357.69,722.68,352.94,722.68z"/>
</g>
<g>
	<path class="st1" d="M335.44,684.82c-0.1,0-0.21,0-0.31-0.01c-2.37-0.17-4.15-2.23-3.98-4.59c0.5-6.99,3.22-12.59,7.86-16.2
		c4.95-3.84,11.77-5.11,19.72-3.67c2.33,0.42,3.88,2.66,3.46,4.99c-0.42,2.33-2.66,3.89-4.99,3.46c-5.48-0.99-9.95-0.3-12.92,2.01
		c-3.36,2.61-4.34,6.89-4.56,10.02C339.56,683.09,337.68,684.82,335.44,684.82z"/>
</g>
<ellipse transform="matrix(0.083 -0.9965 0.9965 0.083 -159.099 1173.2738)" class="st1" cx="557.99" cy="673.09" rx="13.42" ry="7.88"/>
<g>
	<path class="st1" d="M588.1,643.87c-1.12,0-2.24-0.44-3.09-1.31c-10.6-10.94-28.27-17.25-43.95-15.68
		c-2.36,0.23-4.46-1.49-4.7-3.85c-0.24-2.36,1.49-4.46,3.85-4.7c18.44-1.83,38.45,5.33,50.97,18.25c1.65,1.7,1.61,4.42-0.1,6.07
		C590.25,643.47,589.18,643.87,588.1,643.87z"/>
</g>
<ellipse transform="matrix(0.083 -0.9965 0.9965 0.083 -252.3657 1053.2848)" class="st1" cx="446.15" cy="663.77" rx="13.42" ry="7.88"/>
<g>
	<path class="st1" d="M417.78,633.56c-1.14,0-2.28-0.45-3.12-1.35c-1.63-1.72-1.55-4.44,0.17-6.07
		c14.12-13.34,37.93-18.86,57.91-13.42c2.29,0.62,3.64,2.98,3.02,5.27c-0.62,2.29-2.98,3.64-5.27,3.02
		c-17.25-4.69-37.71-0.01-49.76,11.38C419.9,633.17,418.83,633.56,417.78,633.56z"/>
</g>
<g>
	<path class="st1" d="M515.54,731.49c-1.83,0-3.78-0.16-5.86-0.47c-2.35-0.35-3.96-2.54-3.61-4.89c0.35-2.35,2.53-3.96,4.89-3.61
		c6.8,1.03,10.11-0.23,11.7-1.47c1.5-1.17,2.36-3.03,2.62-5.67c0.57-5.87-5.45-12.43-11.35-15.15c-9.24-4.26-12.29-18.16-9.09-41.32
		c0.33-2.35,2.5-3.99,4.84-3.67c2.35,0.33,3.99,2.49,3.67,4.84c-2.48,17.9-0.92,29.99,4.17,32.34c8.85,4.08,17.3,13.56,16.3,23.79
		c-0.49,5.04-2.47,8.95-5.89,11.61C524.82,730.26,520.66,731.49,515.54,731.49z"/>
</g>
<g>
	<path class="st1" d="M502.69,909.51c-1.54,0-3.02-0.83-3.79-2.28c-9.05-16.96-8.32-50.26-6.98-73.83c0.13-2.37,2.16-4.16,4.53-4.05
		c2.37,0.13,4.18,2.16,4.05,4.53c-1.98,34.84,0.04,58.15,5.98,69.3c1.12,2.09,0.33,4.7-1.77,5.81
		C504.07,909.35,503.37,909.51,502.69,909.51z"/>
</g>
<g>
	<path class="st1" d="M336.28,896.56c-0.35,0-0.71-0.04-1.06-0.13c-2.3-0.59-3.69-2.92-3.1-5.22
		c15.4-60.5,17.66-124.16,17.91-172.86c0.01-2.36,1.93-4.27,4.3-4.27c0.01,0,0.02,0,0.02,0c2.37,0.01,4.29,1.95,4.27,4.32
		c-0.25,49.19-2.55,113.52-18.18,174.93C339.94,895.27,338.19,896.56,336.28,896.56z"/>
</g>
<path class="st3" d="M333.19,891.26c21.19,18.8,44.1,38.04,68.8,57.41c22.22,17.42,43.98,33.45,65.07,48.19
	c-21.97,17.05-43.94,34.1-65.91,51.14c-41.27-41.33-82.54-82.66-123.81-123.99L333.19,891.26z"/>
<g>
	<path class="st1" d="M401.17,1052.29c-1.11,0-2.21-0.43-3.04-1.26L274.31,927.04c-0.94-0.94-1.39-2.26-1.22-3.58
		c0.17-1.32,0.94-2.48,2.09-3.16l55.84-32.75c1.6-0.94,3.63-0.74,5.02,0.49c22.18,19.68,45.26,38.94,68.6,57.24
		c21.09,16.53,42.92,32.7,64.88,48.05c1.12,0.78,1.8,2.05,1.83,3.41s-0.58,2.66-1.66,3.5l-65.91,51.14
		C403.02,1052,402.09,1052.29,401.17,1052.29z M284.31,924.9l117.21,117.38l58.31-45.25c-20.48-14.43-40.81-29.55-60.49-44.98
		c-22.66-17.77-45.08-36.43-66.67-55.51L284.31,924.9z"/>
</g>
<path class="st3" d="M467.07,996.85c7.9-12.87,16.34-28.63,23.93-47.19c7.58-18.55,12.6-35.69,15.98-50.4
	c15.44,9.2,30.89,18.4,46.33,27.6c-12.44,34.27-24.87,68.53-37.31,102.8C499.69,1018.73,483.38,1007.79,467.07,996.85z"/>
<g>
	<path class="st1" d="M516,1033.96c-0.84,0-1.68-0.25-2.39-0.73l-48.93-32.81c-1.91-1.28-2.47-3.85-1.27-5.81
		c9.09-14.81,17.04-30.48,23.61-46.57c6.57-16.08,11.88-32.81,15.77-49.74c0.31-1.34,1.24-2.45,2.5-2.99
		c1.26-0.54,2.71-0.44,3.89,0.26l46.33,27.6c1.77,1.05,2.54,3.22,1.84,5.16l-37.31,102.8c-0.45,1.24-1.45,2.21-2.7,2.62
		C516.9,1033.89,516.45,1033.96,516,1033.96z M472.87,995.57l40.96,27.47l34.23-94.3l-38.26-22.8
		c-3.84,15.43-8.82,30.66-14.82,45.35C488.74,966.53,481.31,981.41,472.87,995.57z"/>
</g>
<g>
	<path class="st1" d="M822.08,1248.5c-1.46,0-2.88-0.74-3.68-2.08c-7.4-12.29-14.72-24.55-21.8-36.4
		c-78.28-131.05-145.89-244.24-251-282.84c-2.23-0.82-3.37-3.29-2.55-5.51c0.82-2.23,3.29-3.37,5.51-2.55
		c49.6,18.21,93.58,52.57,138.42,108.11c40.17,49.77,77.49,112.24,117,178.38c7.08,11.85,14.39,24.1,21.79,36.37
		c1.22,2.03,0.57,4.67-1.46,5.9C823.6,1248.31,822.84,1248.5,822.08,1248.5z"/>
</g>
<g>
	<path class="st1" d="M203,1777.56c-2.34,0-4.25-1.87-4.29-4.22l-5.56-313.12l0.17-0.61l61.29-215.5c0.65-2.28,3.02-3.6,5.31-2.96
		c2.28,0.65,3.61,3.03,2.96,5.31l-61.11,214.89l5.54,311.84c0.04,2.37-1.85,4.33-4.22,4.37
		C203.05,1777.56,203.02,1777.56,203,1777.56z"/>
</g>
<g>
	<path class="st1" d="M15.03,1629.45c-2.14,0-3.99-1.6-4.26-3.77c-0.78-6.38-19.02-157.08-6.25-235.75
		c9.17-56.48,41.39-207.27,77.39-287.44c17.05-37.97,40.47-70.19,71.61-98.52c30.8-28.03,71.1-53.98,123.2-79.34
		c2.13-1.04,4.7-0.15,5.74,1.98c1.04,2.13,0.15,4.7-1.98,5.74C178,982.24,122.74,1032.55,89.76,1106
		c-35.66,79.4-67.64,229.17-76.75,285.3c-12.58,77.47,6.11,231.78,6.3,233.33c0.29,2.35-1.39,4.5-3.74,4.79
		C15.39,1629.44,15.21,1629.45,15.03,1629.45z"/>
</g>
<g>
	<path class="st1" d="M828.41,1469.74c-27.13,0-53.25-8.18-77.79-24.39c-28.92-19.1-56.78-50.12-82.82-92.21
		c-1.25-2.02-0.62-4.67,1.39-5.91c2.02-1.25,4.66-0.62,5.91,1.39c49.45,79.93,102.7,116.64,162.78,112.17
		c49.82-3.69,86.57-40.46,131.06-131.13c45.33-92.4,93.09-211.44,102.4-234.85l-145.78-53.4l-99.62,204.67
		c-1.04,2.13-3.61,3.02-5.74,1.98c-2.13-1.04-3.02-3.61-1.98-5.74l103.02-211.65l161.33,59.1l-1.61,4.09
		c-0.53,1.36-53.89,136.84-104.3,239.58c-46.05,93.85-84.78,131.96-138.13,135.91C835.14,1469.61,831.77,1469.74,828.41,1469.74z"/>
</g>
<g>
	<path class="st1" d="M1064.89,1092.17c-1.13,0-2.26-0.45-3.11-1.33c-1.64-1.71-1.58-4.43,0.14-6.07
		c44.38-42.41,69.37-89.13,75.25-103.56c5.82-14.27,4.05-24.42-5.26-30.16c-3.23-2-6.67-1.71-8.98-1.13
		c-3.67,0.93-7.08,3.32-8.7,6.1l-13.09,24.8c-5.74,10.34-14.3,17.55-23.55,19.85c-6.19,1.54-12.18,0.7-16.87-2.35
		c-11.91-7.75-14.36-18.96-7.49-34.25c0.97-2.16,3.52-3.13,5.68-2.16c2.16,0.97,3.13,3.51,2.16,5.68
		c-5.97,13.29-2.59,19.02,4.34,23.53c2.67,1.74,6.26,2.17,10.11,1.22c6.94-1.72,13.52-7.41,18.06-15.6l13.15-24.92
		c2.74-4.79,8.13-8.7,14.07-10.21c5.54-1.41,11.09-0.65,15.61,2.14c13.04,8.04,16.13,22.51,8.7,40.72
		c-6.08,14.9-31.81,63.08-77.27,106.52C1067.02,1091.78,1065.95,1092.17,1064.89,1092.17z"/>
</g>
<path class="st1" d="M1894.07,264.86v-57.5c7.98-2.84,13.74-10.4,13.74-19.35c0-11.36-9.25-20.61-20.61-20.61
	c-2.36,0-4.6,0.48-6.72,1.22l-30.79-38.49c1.96-3.14,3.15-6.83,3.15-10.81c0-11.36-9.25-20.61-20.61-20.61
	c-5.78,0-10.99,2.4-14.74,6.25l-54.16-24.99c0.06-0.63,0.19-1.22,0.19-1.86c0-11.36-9.25-20.61-20.61-20.61
	c-8.95,0-16.5,5.76-19.35,13.74h-78.1c-2.84-7.98-10.4-13.74-19.35-13.74c-11.36,0-20.61,9.25-20.61,20.61
	c0,0.85,0.15,1.67,0.25,2.49l-34.08,17.04c-3.71-3.57-8.73-5.79-14.27-5.79c-11.36,0-20.61,9.25-20.61,20.61
	c0,3.98,1.19,7.67,3.15,10.83l-30.79,38.48c-2.12-0.74-4.35-1.22-6.71-1.22c-11.36,0-20.61,9.25-20.61,20.61
	c0,8.95,5.76,16.5,13.74,19.35v43.76c-7.98,2.84-13.74,10.39-13.74,19.34c0,11.36,9.25,20.61,20.61,20.61
	c7.63,0,14.23-4.22,17.79-10.39l37.51,6.82c1.59,9.79,10.04,17.31,20.27,17.31c0.28,0,0.54-0.07,0.81-0.08l13.11,32.77
	c-4.29,3.79-7.05,9.25-7.05,15.4c0,11.36,9.25,20.61,20.61,20.61c6.91,0,13.01-3.45,16.74-8.68l58.96,16.85
	c0.53,8.37,6.03,15.35,13.61,18.06v50.63c-7.98,2.84-13.74,10.4-13.74,19.35c0,11.36,9.25,20.61,20.61,20.61s20.61-9.25,20.61-20.61
	c0-8.95-5.76-16.5-13.74-19.35v-50.63c7.98-2.84,13.74-10.4,13.74-19.35c0-6.58-3.16-12.39-7.98-16.17l8.2-24.61l61.65,20.55
	c0.16,8.77,5.84,16.15,13.7,18.96v71.24c-7.98,2.84-13.74,10.4-13.74,19.35c0,11.36,9.25,20.61,20.61,20.61s20.61-9.25,20.61-20.61
	c0-8.95-5.76-16.5-13.74-19.35v-71.23c7.98-2.84,13.74-10.4,13.74-19.35c0-2.51-0.52-4.88-1.34-7.11l52.72-43.93
	c3.08,1.83,6.63,2.95,10.46,2.95c11.36,0,20.61-9.25,20.61-20.61C1907.81,275.26,1902.04,267.7,1894.07,264.86z M1598.6,276.95
	c-0.01-0.82-0.14-1.61-0.25-2.41l56.36-29.22l17.43,56.15L1598.6,276.95z M1583.27,257.48l-9.52-73.02l47.08-2.36
	c2.99,7.24,9.99,12.37,18.22,12.7l11.54,37.18l-58.51,30.34C1589.61,260.03,1586.61,258.37,1583.27,257.48z M1521.5,173.32
	c-0.43-1.05-0.99-2.04-1.59-3l30.79-38.48c0.8,0.27,1.58,0.57,2.41,0.75l5.08,38.89L1521.5,173.32z M1566.73,130.74
	c6.68-3.41,11.3-10.29,11.3-18.29c0-0.85-0.15-1.67-0.25-2.49l34.08-17.04c3.71,3.57,8.73,5.79,14.27,5.79
	c4.22,0,8.14-1.28,11.41-3.47l42.66,32l-30.89,28.83c-2.84-1.47-6.03-2.39-9.45-2.39c-9.3,0-17.09,6.23-19.65,14.72l-48.26,2.41
	L1566.73,130.74z M1724.05,86.32l-33.64,31.4l-43.67-32.75h76.84C1723.74,85.42,1723.86,85.88,1724.05,86.32z M1743.2,183.95
	l-55.29,28.67l-29.51-29.51c1.28-2.69,2.07-5.66,2.07-8.84c0-2.93-0.63-5.7-1.73-8.22l32.62-30.45l52.58,39.44
	c-0.6,1.94-1.02,3.96-1.02,6.1C1742.92,182.11,1743.08,183.03,1743.2,183.95z M1646.74,174.28c0,3.79-3.08,6.87-6.87,6.87
	c-3.79,0-6.87-3.08-6.87-6.87s3.08-6.87,6.87-6.87C1643.66,167.41,1646.74,170.5,1646.74,174.28z M1675.12,219.25l-12.15,6.3
	l-8.31-26.76L1675.12,219.25z M1667.11,238.89l18.21-9.44l32.19,32.19c-1.28,2.69-2.06,5.65-2.06,8.83c0,6.59,3.16,12.39,7.98,16.17
	l-9.58,28.73l-25.65-8.55L1667.11,238.89z M1736.05,277.34c-3.79,0-6.87-3.08-6.87-6.87s3.08-6.87,6.87-6.87
	c3.79,0,6.87,3.08,6.87,6.87S1739.84,277.34,1736.05,277.34z M1736.05,249.85c-3.17,0-6.14,0.78-8.83,2.07l-29.11-29.11l51.39-26.65
	c3.68,3.45,8.59,5.6,14.03,5.6c3.83,0,7.39-1.12,10.46-2.95l31.28,26.07l-55.53,30.29C1746.09,251.9,1741.33,249.85,1736.05,249.85z
	 M1822.47,137.35c2.92,1.59,6.22,2.58,9.77,2.58c2.36,0,4.6-0.48,6.71-1.22l30.79,38.49c-1.96,3.15-3.15,6.84-3.15,10.82
	c0,1.11,0.16,2.18,0.33,3.24l-48.66,26.55l-35.45-29.54c0.82-2.23,1.34-4.6,1.34-7.11c0-2.8-0.57-5.46-1.58-7.89L1822.47,137.35z
	 M1876.74,266.54l-47.14-39.28l43.91-23.95c1.97,1.77,4.27,3.15,6.82,4.05v57.5C1879.07,265.31,1877.87,265.87,1876.74,266.54z
	 M1770.4,181.15c0,3.79-3.08,6.87-6.87,6.87c-3.79,0-6.87-3.08-6.87-6.87c0-3.79,3.08-6.87,6.87-6.87
	C1767.32,174.28,1770.4,177.37,1770.4,181.15z M1816.63,234.34l49.23,41.03l-106.67-9.7L1816.63,234.34z M1894.07,188.02
	c0,3.79-3.08,6.87-6.87,6.87c-3.79,0-6.87-3.08-6.87-6.87c0-3.79,3.08-6.87,6.87-6.87C1890.99,181.15,1894.07,184.24,1894.07,188.02
	z M1832.24,112.45c3.79,0,6.87,3.08,6.87,6.87c0,3.79-3.08,6.87-6.87,6.87c-3.79,0-6.87-3.08-6.87-6.87
	C1825.36,115.53,1828.44,112.45,1832.24,112.45z M1811.81,117.46c-0.05,0.63-0.19,1.22-0.19,1.86c0,2.8,0.57,5.46,1.58,7.89
	l-39.91,35.91c-2.91-1.59-6.21-2.58-9.76-2.58c-4.22,0-8.14,1.28-11.41,3.47l-50.55-37.92l31.91-29.78c2.84,1.48,6.02,2.4,9.44,2.4
	c5.78,0,10.99-2.4,14.74-6.25L1811.81,117.46z M1742.92,71.23c3.79,0,6.87,3.08,6.87,6.87s-3.08,6.87-6.87,6.87
	c-3.79,0-6.87-3.08-6.87-6.87S1739.13,71.23,1742.92,71.23z M1626.13,71.23c3.79,0,6.87,3.08,6.87,6.87s-3.08,6.87-6.87,6.87
	c-3.79,0-6.87-3.08-6.87-6.87S1622.33,71.23,1626.13,71.23z M1557.42,105.58c3.79,0,6.87,3.08,6.87,6.87s-3.08,6.87-6.87,6.87
	c-3.79,0-6.87-3.08-6.87-6.87C1550.55,108.66,1553.63,105.58,1557.42,105.58z M1502.46,174.28c3.79,0,6.87,3.08,6.87,6.87
	c0,3.79-3.08,6.87-6.87,6.87c-3.79,0-6.87-3.08-6.87-6.87C1495.59,177.37,1498.67,174.28,1502.46,174.28z M1502.46,270.47
	c-3.79,0-6.87-3.08-6.87-6.87s3.08-6.87,6.87-6.87c3.79,0,6.87,3.08,6.87,6.87S1506.25,270.47,1502.46,270.47z M1509.33,244.25
	v-43.76c6.14-2.19,10.89-7.17,12.78-13.45l37.87-1.9l9.58,73.44c-3.94,1.79-7.17,4.8-9.32,8.52l-37.5-6.81
	C1521.52,252.82,1516.3,246.74,1509.33,244.25z M1571.16,277.34c0-3.79,3.08-6.87,6.87-6.87c3.79,0,6.87,3.08,6.87,6.87
	s-3.08,6.87-6.87,6.87C1574.24,284.21,1571.16,281.12,1571.16,277.34z M1591.6,292.73c0.95-0.84,1.82-1.77,2.6-2.77l82.96,27.65
	l12.25,39.46c-1.7,1.28-3.22,2.78-4.45,4.51l-58.96-16.85c-0.68-10.75-9.56-19.31-20.48-19.31c-0.27,0-0.54,0.07-0.8,0.08
	L1591.6,292.73z M1605.51,352.91c-3.79,0-6.87-3.08-6.87-6.87s3.08-6.87,6.87-6.87c3.79,0,6.87,3.08,6.87,6.87
	S1609.31,352.91,1605.51,352.91z M1701.7,469.7c-3.79,0-6.87-3.08-6.87-6.87s3.08-6.87,6.87-6.87c3.79,0,6.87,3.08,6.87,6.87
	S1705.49,469.7,1701.7,469.7z M1701.7,380.39c-3.79,0-6.87-3.08-6.87-6.87c0-3.79,3.08-6.87,6.87-6.87c3.79,0,6.87,3.08,6.87,6.87
	C1708.57,377.31,1705.49,380.39,1701.7,380.39z M1701.93,351.1l-8.73-28.13l16.3,5.43L1701.93,351.1z M1736.44,291.04
	c8.12-0.15,15.07-5.02,18.29-11.97l112.58,10.24c0.18,0.69,0.38,1.36,0.63,2.02l-52.72,43.93c-3.08-1.83-6.62-2.95-10.46-2.95
	c-6.58,0-12.39,3.16-16.17,7.98l-61.71-20.57L1736.44,291.04z M1804.75,469.7c-3.79,0-6.87-3.08-6.87-6.87s3.08-6.87,6.87-6.87
	c3.79,0,6.87,3.08,6.87,6.87S1808.55,469.7,1804.75,469.7z M1804.75,359.78c-3.79,0-6.87-3.08-6.87-6.87s3.08-6.87,6.87-6.87
	c3.79,0,6.87,3.08,6.87,6.87S1808.55,359.78,1804.75,359.78z M1887.2,291.08c-3.79,0-6.87-3.08-6.87-6.87
	c0-3.79,3.08-6.87,6.87-6.87c3.79,0,6.87,3.08,6.87,6.87C1894.07,287.99,1890.99,291.08,1887.2,291.08z"/>
<g>
	<path class="st1" d="M938.45,1044.69c-1.94,0-3.7-1.32-4.17-3.29c-0.15-0.63-15.44-63.69-29.15-92.48
		c-10.66-22.39-12.28-42.76-4.23-53.15c3.23-4.17,9.52-8.67,21.14-6.41c19.72,3.83,33.18,31.89,44,54.45l0.87,1.82
		c0-0.01,0.01-0.01,0.01-0.02c9.32-23.56,15.33-43.98,20.64-61.99c4.97-16.86,9.26-31.42,14.9-43.67
		c5.99-13.01,13.46-21.18,22.2-24.27c7.9-2.8,14.42-0.58,17.6,1c17.55,8.68,14.16,23.75,9.03,46.55
		c-3.87,17.19-8.88,31.57-12.55,42.07c-0.21,0.59-0.41,1.17-0.61,1.74c6.82-3.63,15.15-4.95,22.58-1.94
		c10.36,4.2,16.21,11.33,17.24,20.87c7.31-4.48,15.92-5.39,23.26-2.07c10.15,4.6,15.19,15.82,13.48,30.03
		c-0.28,2.36-2.43,4.04-4.78,3.75c-2.36-0.28-4.04-2.42-3.75-4.78c1.25-10.45-1.84-18.17-8.5-21.18c-6.4-2.9-14.53-0.59-20.23,5.76
		c-1.45,1.61-3.72,2.07-5.65,1.14c-1.94-0.93-3-2.99-2.64-5.14c1.68-10.18-1.92-16.49-11.66-20.44c-8.3-3.37-19.37,2-23.35,8.86
		c-1.42,2.45-3.83,2.93-5.59,2.31c-1.64-0.58-3.39-2.35-2.91-5.43c0.57-3.66,2.42-8.98,4.99-16.33c3.6-10.3,8.52-24.41,12.28-41.12
		c5.61-24.95,5.91-31.84-4.46-36.97c-1.96-0.97-6-2.34-10.92-0.6c-6.38,2.26-12.35,9.09-17.26,19.76
		c-5.38,11.68-9.59,25.96-14.46,42.5c-5.36,18.19-11.43,38.8-20.89,62.72c-2.27,5.73-6.11,6.48-7.66,6.54
		c-1.52,0.06-5.42-0.41-8.08-5.94l-0.88-1.83c-9.46-19.72-22.41-46.72-37.89-49.73c-5.97-1.16-10.13-0.1-12.72,3.24
		c-5.78,7.46-3.64,25.64,5.2,44.2c14.1,29.6,29.12,91.54,29.75,94.16c0.56,2.31-0.86,4.63-3.17,5.18
		C939.12,1044.65,938.78,1044.69,938.45,1044.69z"/>
</g>
<g>
	<path class="st1" d="M1034.35,987.18c-3.54,0-6.59-0.95-8.97-2.08c-6.01-2.94-10.03-7.41-12-13.32
		c-3.89-11.7,0.3-28.86,13.21-53.99c1.08-2.11,3.67-2.94,5.78-1.86c2.11,1.08,2.94,3.67,1.86,5.78
		c-11.45,22.31-15.72,38.25-12.7,47.36c1.23,3.69,3.7,6.4,7.57,8.29c11.72,5.56,22.18-8.77,28.88-21.78
		c2.94-5.71,11.8-22.83,11.8-22.83l7.63,3.95c0,0-8.85,17.12-11.79,22.82C1054.24,981.62,1042.89,987.18,1034.35,987.18z"/>
</g>
<g>
	<path class="st1" d="M1110.82,1019.05c-2.96,0-5.66-0.71-8.02-1.77c-5.45-2.51-9.09-6.46-10.86-11.75
		c-3.69-11.04,1-28.07,14.75-53.62c1.12-2.09,3.73-2.87,5.82-1.75c2.09,1.12,2.87,3.73,1.75,5.82
		c-12.21,22.67-16.97,38.43-14.17,46.82c1.01,3.04,3,5.15,6.26,6.65c10.74,4.8,21.16-9.31,28.01-21.99
		c1.13-2.09,3.73-2.87,5.82-1.74c2.09,1.13,2.87,3.73,1.74,5.82C1130.35,1012.97,1119.46,1019.05,1110.82,1019.05z"/>
</g>
<g>
	<path class="st1" d="M329.19,660.48c-1.18,0-2.35-0.48-3.2-1.43c-6.54-7.3-11.97-15.37-16.15-23.98
		c-10.62-21.91-14.11-49.52-9.56-75.77c4.95-28.53,18.98-53.38,39.51-69.98c25.75-20.81,42.71-20.54,56.34-20.33
		c0.48,0.01,0.95,0.02,1.42,0.02c16.14-14.12,42.48-31.72,78.21-37.92c15.52-2.69,62.76-10.89,103.12,18.98
		c6.15,4.55,17.78,14.28,26.58,28.3c37.57,59.87-9.58,143.38-11.61,146.91c-1.18,2.06-3.81,2.77-5.86,1.58
		c-2.06-1.18-2.77-3.81-1.58-5.86c1.92-3.34,46.64-82.52,11.78-138.06c-8.05-12.82-18.75-21.77-24.42-25.96
		c-37.41-27.69-81.92-19.96-96.54-17.42c-34.67,6.02-60.03,23.43-75.21,36.97l-1.23,1.1l-1.65-0.01c-1.03-0.01-2.08-0.02-3.13-0.04
		c-12.89-0.2-27.48-0.43-50.8,18.42c-41.38,33.44-46.56,96.27-27.63,135.32c3.83,7.89,8.81,15.3,14.82,22
		c1.58,1.77,1.43,4.48-0.33,6.07C331.24,660.12,330.21,660.48,329.19,660.48z"/>
</g>
<g>
	<path class="st1" d="M370.07,656.42c-1.29,0-2.56-0.57-3.4-1.67c-1.45-1.88-1.1-4.58,0.78-6.02c16-12.35,28.85-28.44,37.15-46.52
		c6.24-13.59,9.92-28.11,10.95-43.17l0.39-5.76l5.4,2.03c41.06,15.45,83.84,19.61,123.72,12.03c12.2-2.32,24.33-5.76,36.05-10.22
		c2.22-0.84,4.7,0.27,5.54,2.49c0.84,2.22-0.27,4.7-2.49,5.54c-12.18,4.64-24.8,8.22-37.5,10.63c-39.71,7.55-82.14,3.92-123.05-10.5
		c-1.56,14.08-5.32,27.69-11.21,40.51c-8.88,19.34-22.61,36.54-39.71,49.73C371.91,656.13,370.99,656.42,370.07,656.42z"/>
</g>
<path class="st0" d="M649.2,1118.57c-7.16,12.26-4.31,72.67-3.94,104.88c1.56,134.29,25.76,502.74,24.15,547.22
	c10.48-0.11,25.06-1.79,25.06-1.79L649.2,1118.57z"/>
<g>
	<path class="st1" d="M696.14,1774.26c-2.26,0-4.16-1.77-4.29-4.05c-0.09-1.5-8.54-150.92-10-208.37
		c-1.2-47.09-15.83-225.88-25.51-344.18c-3.54-43.27-6.6-80.63-8.13-100.91c-0.18-2.37,1.59-4.43,3.96-4.61
		c2.36-0.19,4.43,1.59,4.61,3.96c1.53,20.25,4.59,57.61,8.12,100.86c9.69,118.4,24.33,297.33,25.53,344.66
		c1.46,57.32,9.91,206.6,9.99,208.1c0.13,2.37-1.68,4.4-4.05,4.53C696.3,1774.25,696.22,1774.26,696.14,1774.26z"/>
</g>
<path class="st1" d="M1313.45,751.79c-18.81,14.54-28.15,31.24-34.17,42.24c-15.6,28.5-18.33,54.59-21.43,87.26
	c-3.85,40.59,1.58,46.51-4.47,80.19c-3.92,21.83-8.2,25.92-15.61,54.52c-14.79,57.12-22.19,85.68-20.28,118.66
	c1.15,19.92,6.16,51.54,26.89,89.07c55.23,58.64,110.47,117.29,165.7,175.93c112.11-29.8,224.23-59.6,336.34-89.4
	c4.35-15.86,8.95-38.59,9.06-66.1c0.08-20.72,0.22-54.27-16.48-89.9c-16.31-34.81-42.45-58.32-65.54-79.08
	c-19.2-17.27-26.06-19.71-36.98-34.52c-16.31-22.11-20.22-42.71-25.9-68.25c-10.13-45.55-19.29-86.74-35.56-127.26
	c-25.21-62.78-47.21-73.46-54.53-76.49c-19.23-7.96-38.52-5.13-50.92-1.87c-6.99-8.27-28.01-30.9-63.08-38.13
	C1358.42,718.76,1321.54,745.54,1313.45,751.79z"/>
<g id="person_4_1_">
	<g>
		<path class="st0" d="M1718.5,1170.67c-28.6-54.98-54.56-52-92.67-101.33c-83.97-108.69-36.69-225.04-115-272.54
			c-22.1-13.41-45.35-15.96-61.53-16.02c-22.84-27.27-42.78-44.15-83.86-47.9c-14.14-1.29-42.95,10.74-63.33,26.92
			c19.26-18.87,54.26-29.29,78.5-32.88c27.61-4.09,65.45,12.61,88.29,39.89c13.67-1.61,41.32-2.76,65.45,13.64
			c19.99,13.58,28.45,33.01,32.7,43.23c36.32,87.36,31.33,142.91,60.66,199.37c33.45,64.4,70.87,51.7,103.85,113.14
			c32.29,60.16,25.67,126.85,14.87,174.09C1748.23,1273.67,1745.14,1221.87,1718.5,1170.67z"/>
	</g>
	<g>
		<path class="st1" d="M1742.5,1332.12c-0.26,0-0.52-0.03-0.78-0.09c-1.86-0.43-3.01-2.29-2.58-4.14
			c20.47-88.1,13.92-156.81-19.46-204.23c-13.38-19.01-27.15-29.54-41.73-40.68c-18.7-14.29-38.04-29.08-55.63-62.68
			c-7.13-13.62-8.69-20.18-13.3-39.63c-4.08-17.21-10.25-43.23-24.45-92.57c-18.47-64.19-27.68-86.74-49.29-102.74
			c-15.75-11.66-37.18-16.61-65.5-15.11l-1.86,0.1l-1.1-1.5c-32.69-44.42-97.79-50.52-151.42-14.19
			c-52.71,35.7-54.24,110.98-55.25,160.79c-0.13,6.66-0.26,12.95-0.51,18.55c-0.92,21.22-4.16,39.73-9.9,56.57
			c-8.24,24.18-12.15,37.95-15.92,51.26c-1.18,4.16-2.35,8.27-3.63,12.65c-5.43,18.51-20.99,83.79,6.49,146.82
			c10.13,23.24,25.33,44.38,45.19,62.85c1.39,1.3,1.47,3.48,0.18,4.88c-1.3,1.39-3.48,1.47-4.88,0.18
			c-20.55-19.12-36.3-41.04-46.81-65.15c-28.41-65.17-12.38-132.45-6.79-151.52c1.28-4.35,2.44-8.45,3.61-12.59
			c3.8-13.4,7.73-27.26,16.03-51.61c5.53-16.21,8.65-34.08,9.54-54.64c0.24-5.52,0.37-11.77,0.5-18.39
			c1.04-51.23,2.61-128.65,58.28-166.36c28.23-19.12,60.43-27.62,90.65-23.94c28.35,3.46,52.81,17.02,69.08,38.26
			c29.08-1.27,51.39,4.15,68.13,16.55c23.23,17.2,32.85,40.47,51.82,106.37c14.25,49.5,20.44,75.61,24.54,92.89
			c4.58,19.33,5.97,25.17,12.7,38.03c16.88,32.25,34.77,45.92,53.71,60.4c14.35,10.97,29.19,22.31,43.18,42.19
			c34.56,49.1,41.47,119.67,20.54,209.77C1745.49,1331.04,1744.07,1332.12,1742.5,1332.12z"/>
	</g>
	<path class="st0" d="M1416.04,817.64c-12.42,10.51-36.15,27.66-70.44,36c-22.36,5.43-41.81,5.32-55.45,4.1
		c-2.1,21.75-5.36,55.96-9.18,98.36c-5.36,59.47-6.48,75.78,2.81,93.93c6.1,11.9,22.54,36.03,69.79,49.4
		c0.03,24.46,0.06,48.92,0.09,73.38c0,0,167.73-4.77,169.09-6.82c6.52-9.78-18.52-21.09-28.64-57.27c-0.48-1.71-1.08-4.51-1.6-6.84
		c-1.39-6.22-4.25-19.89-6.58-41.81c-2.16-20.38-2.93-39.16-3.13-54.14c21.83,7.44,43.42-3.07,49.1-19.48
		c3.92-11.35,0.2-25.41-9.58-34.37c-9.1-8.33-22.11-11.03-33.88-7.02c-11.49-5.88-29.02-16.85-44.19-36.22
		C1415.26,871.83,1415.47,830.46,1416.04,817.64z"/>
	<path class="st4" d="M1528.9,1163.26c0,0,5.45-11.93-15.34-8.18c-20.8,3.75-46.36,20.11-87.61,20.11s-76.7-5.8-76.7-5.8
		s-68.86,32.73-97.84,56.25c-28.98,23.52-62.73,61.36-77.73,80.79s-40.91,76.7-45,92.73c-4.09,16.02-60.34,190.23-60.34,190.23
		l37.5,143.52l92.04-1.02l43.64-131.93l26.59,55.91l15.34,76.02c0,0,171.82-5.45,187.5,7.5c15.68,12.95-2.05,31.36-2.05,31.36
		h235.91l-83.18-416.59L1528.9,1163.26z"/>
	<path class="st4" d="M1515.94,1155.08c0,0,22.84,10.57,43.98,17.05c21.14,6.48,101.25,47.39,126.13,67.84
		c24.89,20.45,62.04,75.68,70.23,94.77c8.18,19.09,50.45,126.82,50.45,126.82l37.33,124.77c0,0,15.17,74.32,12.44,105.34
		c-2.73,31.02-24.55,62.73-39.2,70.57c-14.66,7.84-45.34,8.52-54.89,8.52c-9.55,0-131.59-13.64-131.59-13.64l-182.04-29.32
		l22.16-114.37l190.22,10.74l-66.82-188.18L1515.94,1155.08z"/>
	<g>
		<path class="st1" d="M1482.81,1777.66c-1.09,0-2.17-0.52-2.84-1.48c-28.83-41.57-50.35-99.07-63.94-170.91
			c-10.84-57.29-16.71-123.81-17.45-197.71c-1.25-125.74,13-230.78,13.15-231.83c0.26-1.89,1.98-3.22,3.89-2.95
			c1.89,0.26,3.21,2,2.95,3.89c-0.14,1.04-14.34,105.66-13.08,230.91c1.16,115.3,16,272.17,80.16,364.67
			c1.09,1.57,0.7,3.71-0.87,4.8C1484.18,1777.46,1483.49,1777.66,1482.81,1777.66z"/>
	</g>
	<g>
		<path class="st0" d="M1832.82,1701.98c2.73-31.02-5.98-79.62-12.44-105.34c-7.93-31.58-37.67-143-87.78-251.59
			c-14.83-32.13-45.85-72.7-70.74-93.15c-24.89-20.45-87.1-53.56-120.85-67.41c-0.28-0.12-21.47-7.06-38.18-25.23
			c-0.4-6.36,16.7-6.31,16.7-6.31s26.16,12.95,47.3,19.43c21.14,6.48,96.82,48.58,121.7,69.03c24.89,20.45,61.87,70.91,70.06,90
			c8.18,19.09,52.67,126.31,52.67,126.31l32.47,130.14c0,0,16.53,75.34,13.81,106.36c-2.73,31.02-15.51,53.78-30.17,61.62
			c-5.5,2.94-13.27,4.88-21.32,6.15C1818.33,1748.23,1830.8,1724.93,1832.82,1701.98z"/>
	</g>
	<path class="st0" d="M1464.68,1620.36c0,0-76.41-18.9-91.26-17.01c-14.85,1.89-30.78-7.29-56.16,4.86
		c-25.38,12.15-60.48,48.6-67.77,56.16c-7.29,7.56-30.78,34.29-28.62,44.01c2.16,9.72,1.62,18.36,11.07,18.9
		c9.45,0.54,23.49-1.62,23.49-1.62s5.4,6.21,19.71,1.35s40.77-17.01,43.47-18.09c2.7-1.08,19.71-2.43,19.71-2.43
		s30.37,12.02,48.06,18.36c20.14,7.22,42,4.49,42.81,4.49s21.99-3.41,21.99-3.41L1464.68,1620.36z"/>
	<g>
		<path class="st1" d="M1365.84,1101.75c-2.67,0-4.94-0.13-6.91-0.29c-32.75-2.73-56.39-15.27-70.29-37.28
			c-11.83-18.74-16.49-44.22-13.85-75.74l9.82-117.11c0.42-4.96,0.93-9.09,2.18-14.4c0.44-1.85,2.29-3,4.15-2.56
			c1.85,0.44,3,2.3,2.56,4.15c-1.16,4.91-1.62,8.62-2.02,13.38l-9.82,117.11c-2.51,29.99,1.8,54.04,12.81,71.48
			c12.68,20.08,34.56,31.55,65.03,34.09c4.72,0.39,19.08,1.59,49.59-7.58c1.83-0.55,3.75,0.49,4.3,2.31
			c0.55,1.82-0.49,3.75-2.31,4.3C1389,1100.25,1375.07,1101.75,1365.84,1101.75z"/>
	</g>
	<g>
		<path class="st1" d="M1499.73,1013.93c-1.03,0-2.07-0.04-3.12-0.13c-5.54-0.46-10.77-2.11-15.54-4.89
			c-1.65-0.96-2.2-3.07-1.24-4.72c0.96-1.65,3.07-2.2,4.72-1.24c3.88,2.26,8.13,3.6,12.64,3.98c16.54,1.38,31.16-10.95,32.54-27.51
			c0.67-8.02-1.82-15.82-7.01-21.97c-5.2-6.15-12.47-9.9-20.49-10.57c-4.15-0.35-8.24,0.15-12.15,1.47
			c-1.8,0.61-3.76-0.36-4.37-2.17c-0.61-1.8,0.36-3.76,2.17-4.37c4.81-1.62,9.83-2.23,14.93-1.8c9.86,0.83,18.8,5.44,25.19,13
			c6.39,7.55,9.45,17.14,8.62,27C1534.99,999.29,1518.77,1013.93,1499.73,1013.93z"/>
	</g>
	<g>
		<path class="st1" d="M1516.67,981.05c-0.11,0-0.22,0-0.33-0.02c-1.9-0.18-3.29-1.87-3.11-3.76c0.42-4.43-0.92-8.54-3.69-11.29
			c-2.73-2.71-6.69-3.96-11.17-3.49c-1.9,0.19-3.59-1.18-3.79-3.08c-0.2-1.89,1.18-3.59,3.08-3.79c6.55-0.68,12.5,1.26,16.73,5.46
			c4.24,4.21,6.31,10.35,5.69,16.84C1519.93,979.72,1518.43,981.05,1516.67,981.05z"/>
	</g>
	
		<ellipse transform="matrix(0.0836 -0.9965 0.9965 0.0836 267.5316 2161.0037)" class="st1" cx="1308.65" cy="935.05" rx="12.78" ry="7.5"/>
	<g>
		<path class="st1" d="M1286.08,901.97c-1.07,0-2.13-0.5-2.8-1.44c-1.11-1.55-0.76-3.7,0.79-4.81c13.62-9.79,33.16-13.19,49.77-8.66
			c1.84,0.5,2.92,2.4,2.42,4.24c-0.5,1.84-2.39,2.93-4.24,2.42c-14.69-4-31.93-1.02-43.93,7.61
			C1287.48,901.76,1286.77,901.97,1286.08,901.97z"/>
	</g>
	<path class="st1" d="M1407.68,943.35c-0.59,7.04,2.28,13.02,6.41,13.37c4.13,0.35,7.95-5.08,8.54-12.11
		c0.59-7.04-2.28-13.02-6.41-13.37C1412.09,930.9,1408.27,936.32,1407.68,943.35z"/>
	<g>
		<path class="st1" d="M1447.26,919.5c-1.04,0-2.08-0.47-2.75-1.37c-9.65-12.77-28.36-20.5-45.51-18.8c-1.9,0.19-3.58-1.2-3.77-3.09
			c-0.19-1.9,1.2-3.58,3.09-3.77c19.42-1.93,40.67,6.92,51.69,21.51c1.15,1.52,0.85,3.68-0.67,4.83
			C1448.71,919.28,1447.98,919.5,1447.26,919.5z"/>
	</g>
	<g>
		<path class="st1" d="M1344.93,996.45c-0.02,0-0.04,0-0.06,0c-4.14-0.07-10.97-2.86-15.24-7.41c-2.73-2.91-4.1-6.2-3.95-9.51
			c0.32-7.08,5.34-10.5,10.65-14.13c1.99-1.36,4.05-2.76,6.12-4.49c6.74-5.62,10.37-16.04,10.81-30.99c0.06-1.9,1.64-3.41,3.55-3.35
			c1.9,0.06,3.4,1.64,3.35,3.55c-0.5,17.01-4.97,29.15-13.29,36.09c-2.32,1.94-4.62,3.51-6.65,4.89c-5.05,3.45-7.49,5.27-7.65,8.75
			c-0.07,1.43,0.63,2.93,2.08,4.47c2.99,3.19,8.03,5.2,10.33,5.24c1.9,0.03,3.42,1.6,3.39,3.51
			C1348.35,994.94,1346.81,996.45,1344.93,996.45z"/>
	</g>
	<g>
		<path class="st1" d="M1769.69,1772.89c-7.95,0-16.84-0.24-26.7-0.72c-31.86-1.56-73.59-5.64-124.03-12.14
			c-85.8-11.05-168.25-25.45-169.07-25.59l-3.37-0.59l22.07-131.31l187.62,17.7l-48.08-142.92c-0.61-1.81,0.36-3.76,2.17-4.37
			c1.81-0.61,3.76,0.36,4.37,2.17l51.47,152.99L1474.33,1610l-19.87,118.23c73.77,12.82,236.9,37.78,316.41,37.79
			c21.29,0,36.57-1.79,42.55-6.08c39.89-28.6,54.15-61.75,27.29-172.8c-14.83-61.34-46.75-160.92-79.05-232.57
			c-38.21-84.76-83.15-127.55-178.08-169.57c-9.93-4.39-19.5-8.14-27.95-11.45c-18.88-7.39-33.78-13.23-43.5-22.15
			c-28.76-26.42-32.21-110.39-32.36-145.27c-0.01-1.91,1.53-3.46,3.43-3.46c0,0,0.01,0,0.01,0c1.9,0,3.44,1.53,3.45,3.43
			c0.11,26.51,2.62,114.95,30.13,140.22c8.77,8.05,23.15,13.68,41.35,20.81c8.51,3.33,18.16,7.11,28.22,11.56
			c96.74,42.82,142.55,86.48,181.58,173.04c32.48,72.04,64.56,172.14,79.47,233.79c13.5,55.8,17.02,94.6,11.09,122.09
			c-6.39,29.62-23.51,45.35-41.07,57.94C1810.59,1770.46,1794.87,1772.89,1769.69,1772.89z"/>
	</g>
	<g>
		<path class="st1" d="M1488.45,948.52c-0.4,0-0.81-0.07-1.21-0.22c-17.98-6.71-36.97-23.39-50.8-44.63
			c-11.24-17.26-24.31-45.4-23.93-82.54c-47.6,37.75-83.43,43.32-122.38,39.95c-1.9-0.16-3.3-1.84-3.14-3.73
			c0.16-1.9,1.85-3.3,3.73-3.14c38.04,3.29,73.03-2.37,120.23-40.68c1.63-1.32,3.79-1.56,5.65-0.64c1.85,0.92,2.96,2.78,2.89,4.86
			c-2.2,65.97,40.56,113.04,70.16,124.08c1.78,0.67,2.69,2.65,2.03,4.44C1491.16,947.66,1489.85,948.52,1488.45,948.52z"/>
	</g>
	<g>
		<path class="st1" d="M1067.99,1586.03c-0.36,0-0.73-0.06-1.09-0.18c-1.81-0.6-2.78-2.56-2.18-4.37
			c0.61-1.83,61.47-183.68,69.07-204.46c31.65-86.52,79.93-138.58,178.13-192.07c7.87-4.29,30.33-16.87,35.29-19.65
			c7.46-16.92,4.06-53.41,2.93-65.55c-0.18-1.9,1.22-3.58,3.12-3.75c1.9-0.17,3.58,1.22,3.75,3.12c3.25,34.97,1.93,57.92-4.04,70.17
			l-0.47,0.97l-0.94,0.53c-0.27,0.15-27.47,15.41-36.33,20.23c-96.54,52.58-143.96,103.64-174.96,188.38
			c-7.57,20.69-68.39,202.45-69,204.28C1070.78,1585.11,1069.44,1586.03,1067.99,1586.03z M1349.87,1167.77L1349.87,1167.77
			L1349.87,1167.77z"/>
	</g>
	<g>
		<path class="st1" d="M1262.77,1652.64c-1.46,0-2.81-0.93-3.28-2.39c-1.49-4.6-3.01-9.09-4.52-13.33
			c-5.7-16.04-12.83-31.16-19.73-45.79c-12.97-27.49-25.21-53.46-26.87-82.42c-2.62-45.63,10.85-88.1,23.87-129.17
			c0.58-1.82,2.51-2.82,4.33-2.25c1.82,0.58,2.82,2.51,2.25,4.33c-12.83,40.48-26.11,82.33-23.56,126.69
			c1.58,27.62,13.55,53,26.23,79.87c6.97,14.78,14.17,30.06,19.99,46.42c1.53,4.31,3.07,8.86,4.58,13.52
			c0.59,1.81-0.41,3.76-2.22,4.34C1263.48,1652.58,1263.12,1652.64,1262.77,1652.64z"/>
	</g>
	<g>
		<path class="st1" d="M1411.83,1179.64c-21.75,0-43.27-2.71-63.21-8.01c-1.84-0.49-2.94-2.38-2.45-4.22
			c0.49-1.84,2.38-2.93,4.22-2.45c53.46,14.22,116.31,8.52,164.03-14.86c1.71-0.84,3.78-0.13,4.62,1.58
			c0.84,1.71,0.13,3.78-1.58,4.62c-24.92,12.21-54.02,19.97-84.17,22.46C1426.14,1179.35,1418.97,1179.64,1411.83,1179.64z"/>
	</g>
	<g>
		<path class="st1" d="M1196.98,1736.79c-0.38,0-0.77-0.06-1.15-0.2c-1.79-0.64-2.73-2.61-2.1-4.4l46.58-131.33
			c0.64-1.79,2.61-2.74,4.4-2.1c1.79,0.64,2.73,2.61,2.1,4.4l-46.58,131.33C1199.73,1735.91,1198.4,1736.79,1196.98,1736.79z"/>
	</g>
	<g>
		<path class="st1" d="M1241.52,1734.93c-6.84,0-12.56-3.16-15.65-6.02c-5.82-5.38-11.25-14.26-1.48-35.34
			c11.83-25.52,59.72-73.99,86.85-87.9c41.61-21.33,152.19,9.84,156.87,11.18c1.83,0.52,2.89,2.43,2.37,4.26
			c-0.52,1.83-2.43,2.89-4.26,2.37c-1.12-0.32-112.64-31.77-151.83-11.67c-25.63,13.14-72.59,60.62-83.73,84.66
			c-8.91,19.22-3.18,24.53-0.1,27.37c4.27,3.95,14.25,7.92,24.57-2.25c1.36-1.34,3.54-1.32,4.88,0.03c1.34,1.36,1.32,3.54-0.03,4.88
			C1253.6,1732.77,1247.17,1734.93,1241.52,1734.93z"/>
	</g>
	<g>
		<path class="st1" d="M1414.11,1734.73c-3.03,0-5.79-0.13-8.07-0.45c-20.56-2.85-42.49-13.11-57-19.9
			c-4.19-1.96-7.81-3.65-10.52-4.76c-5.74-2.34-16.44,2.63-28.82,8.39c-9.75,4.54-20.81,9.68-32.63,12.78
			c-9.3,2.44-14.09,0.03-17.55-2.64c-4.36-3.37-6.61-8.14-6.51-13.79c0.33-19.49,28.78-46.4,36.39-51.88
			c18.21-13.11,32.73-21.56,67.44-19.53c1.9,0.11,3.35,1.74,3.24,3.64c-0.11,1.9-1.73,3.35-3.64,3.24c-32.5-1.9-45.49,5.63-63,18.24
			c-7.99,5.76-33.26,30.65-33.53,46.4c-0.06,3.53,1.16,6.14,3.83,8.21c2.18,1.69,4.88,3.19,11.58,1.43
			c11.22-2.94,21.98-7.95,31.47-12.36c14.42-6.7,25.8-12,34.33-8.52c2.88,1.17,6.57,2.9,10.84,4.9c14.13,6.61,35.5,16.6,55.03,19.31
			c11.96,1.66,40.67-2.51,40.96-2.55c1.89-0.28,3.64,1.03,3.91,2.91c0.28,1.88-1.03,3.64-2.91,3.91
			C1447.94,1731.87,1428.25,1734.73,1414.11,1734.73z"/>
	</g>
</g>
<g id="laptop_3">
	<path class="st3" d="M1458.33,1773.26c0,0,16.36-6.14,16.36-16.87c0-10.74,0.51-23.01-44.49-21.99
		c-45,1.02-327.78-0.17-327.78-0.17l-85.91-338.35c0,0,4.09-19.94-22.16-19.94s-503.18-0.68-503.18-0.68s-13.64,1.02-13.3,11.25
		c0.34,10.23,22.16,87.61,22.16,87.61l69.89,291.47c0,0,4.77,5.45,11.93,6.48S1458.33,1773.26,1458.33,1773.26z"/>
	<path class="st0" d="M1099.36,1730.14l-85.91-338.35c0,0,4.09-19.94-22.16-19.94c-26.25,0-497.89,5.62-497.89,5.62
		s-12.87,1.79-12.53,12.02c0.08,2.49-3.03-2.76-1.02,5.62c64.34,0.09,456.25,1.28,480.42,1.28c26.25,0,29.91,5.37,33.75,19.69
		c27.41,102.33,85.4,333.15,85.4,333.15h391.7c0,0,15.85-12.27-21.48-12.78c-37.33-0.51-347.21-2.22-347.21-2.22L1099.36,1730.14z"
		/>
	<g>
		<path class="st1" d="M1087.91,1776.2H584.74c-7.58,0-17.27-3.42-20.42-19.7l-90-362.86c-1.16-5.44-0.22-10.29,2.7-14.01
			c2.44-3.1,7.47-6.85,17.62-7.14l503.27,0c15.28,0,19.12,14.73,20.38,19.57l84.58,341.01c0.46,1.85-0.67,3.72-2.52,4.18
			c-1.84,0.46-3.72-0.67-4.18-2.52l-84.57-340.97c-3.3-12.66-8.78-14.37-13.7-14.37H494.74c-5.82,0.17-10.11,1.73-12.29,4.51
			c-1.63,2.08-2.1,4.86-1.39,8.26l90.01,362.87l0.02,0.09c2.4,12.57,8.56,14.18,13.66,14.18h503.18c1.91,0,3.45,1.54,3.45,3.45
			S1089.82,1776.2,1087.91,1776.2z"/>
	</g>
	<g>
		<path class="st1" d="M1456.16,1776.2h-385.42c-1.91,0-3.45-1.54-3.45-3.45s1.54-3.45,3.45-3.45h385.42
			c8.53,0,15.47-6.94,15.47-15.47c0-9.09-7.5-15.48-18.25-15.54h-353.34c-1.91,0-3.45-1.54-3.45-3.45s1.54-3.45,3.45-3.45h353.36
			c14.57,0.08,25.13,9.52,25.13,22.44C1478.53,1766.17,1468.49,1776.2,1456.16,1776.2z"/>
	</g>
	
		<ellipse transform="matrix(0.866 -0.5 0.5 0.866 -689.9772 606.8999)" class="st0" cx="787.5" cy="1590.96" rx="41.31" ry="50.45"/>
	<g>
		<path class="st1" d="M795.11,1642.73c-17.38,0-35.68-10.84-46.38-29.38c-7.14-12.36-9.9-26.29-7.78-39.23
			c2.16-13.19,9.12-23.79,19.59-29.83c10.47-6.04,23.12-6.77,35.63-2.05c12.27,4.63,22.95,13.99,30.09,26.35
			c7.14,12.36,9.9,26.29,7.78,39.23c-2.16,13.19-9.12,23.79-19.59,29.83C808.47,1641.09,801.86,1642.73,795.11,1642.73z
			 M779.96,1546.06c-5.69,0-11.13,1.4-15.96,4.19c-8.64,4.99-14.41,13.86-16.23,24.97c-1.86,11.37,0.6,23.68,6.94,34.66
			c12.96,22.45,38.21,32.21,56.29,21.78c8.64-4.99,14.41-13.86,16.23-24.97c1.86-11.37-0.6-23.68-6.94-34.66
			c-6.34-10.98-15.77-19.27-26.55-23.34C789.1,1546.93,784.44,1546.06,779.96,1546.06z"/>
	</g>
</g>
<g>
	<path class="st1" d="M1370.87,1058.24c13.74-4.18,20.78-12.12,23.36-22.93c1.97-8.26,1.48-12.52-2.22-14.14
		c-4.68-2.05-15,2.91-31,8.44c-11.68,4.04-29.39,5.52-29.41,14.57C1331.58,1052,1349.06,1064.88,1370.87,1058.24z"/>
	<path class="st0" d="M1392.14,1039.92c-9.84-6.73-34.06-4.68-34.44,18.27C1372.59,1058.35,1389.73,1046.21,1392.14,1039.92z"/>
	<g>
		<path class="st1" d="M1358.6,1063.02c-12.21,0-20.52-5.28-23.29-7.34c-5.18-3.85-8.15-8.55-8.14-12.89
			c0.03-10.09,12.23-13.22,23-15.99c3.2-0.82,6.51-1.67,9.3-2.64c3.74-1.29,7.22-2.58,10.3-3.71c11.63-4.28,18.66-6.87,23.82-4.61
			c8.35,3.66,5.78,14.46,4.68,19.07c-3.08,12.91-11.92,21.67-26.28,26.04h0C1367.14,1062.44,1362.65,1063.02,1358.6,1063.02z
			 M1389.17,1023.56c-2.97,0-10.07,2.62-16.43,4.96c-3.12,1.15-6.65,2.45-10.46,3.77c-3.12,1.08-6.6,1.97-9.97,2.84
			c-6.98,1.79-16.54,4.25-16.55,7.69c0,1,1.24,3.42,4.67,5.97c5.91,4.39,16.64,7.73,29.05,3.95h0c11.55-3.52,18.04-9.81,20.43-19.81
			c1.28-5.36,1.36-8.71,0.23-9.21C1389.91,1023.61,1389.58,1023.56,1389.17,1023.56z"/>
	</g>
	<g>
		<path class="st1" d="M1352.8,1059.63c-1.67-11.02,2.54-20.19,11.54-25.16c9.77-5.39,22.93-4.44,30.61,2.2l-5.62,6.5
			c-4.93-4.26-14.27-4.79-20.84-1.17c-4.07,2.24-8.62,6.9-7.2,16.35L1352.8,1059.63z"/>
	</g>
</g>
<ellipse transform="matrix(0.7071 -0.7071 0.7071 0.7071 -435.5169 1372.8823)" class="st1" cx="1439.46" cy="1212.16" rx="15.98" ry="15.98"/>
<g>
	<path class="st1" d="M1439.46,1231.58c-10.71,0-19.42-8.71-19.42-19.42c0-10.71,8.71-19.42,19.42-19.42s19.42,8.71,19.42,19.42
		C1458.88,1222.87,1450.17,1231.58,1439.46,1231.58z M1439.46,1199.63c-6.91,0-12.53,5.62-12.53,12.53
		c0,6.91,5.62,12.53,12.53,12.53c6.91,0,12.53-5.62,12.53-12.53C1451.98,1205.25,1446.36,1199.63,1439.46,1199.63z"/>
</g>
<circle class="st1" cx="1434.51" cy="1320.48" r="15.98"/>
<g>
	<path class="st1" d="M1434.52,1339.9c-10.71,0-19.42-8.71-19.42-19.42c0-10.71,8.71-19.42,19.42-19.42
		c10.71,0,19.42,8.71,19.42,19.42C1453.94,1331.19,1445.23,1339.9,1434.52,1339.9z M1434.52,1307.95c-6.91,0-12.53,5.62-12.53,12.53
		c0,6.91,5.62,12.53,12.53,12.53c6.91,0,12.53-5.62,12.53-12.53C1447.04,1313.57,1441.42,1307.95,1434.52,1307.95z"/>
</g>
<ellipse transform="matrix(0.7071 -0.7071 0.7071 0.7071 -592.2744 1433.7191)" class="st1" cx="1434.51" cy="1431.8" rx="15.98" ry="15.98"/>
<g>
	<path class="st1" d="M1434.52,1451.22c-10.71,0-19.42-8.71-19.42-19.42s8.71-19.42,19.42-19.42c10.71,0,19.42,8.71,19.42,19.42
		S1445.23,1451.22,1434.52,1451.22z M1434.52,1419.27c-6.91,0-12.53,5.62-12.53,12.53s5.62,12.53,12.53,12.53
		c6.91,0,12.53-5.62,12.53-12.53S1441.42,1419.27,1434.52,1419.27z"/>
</g>
<ellipse transform="matrix(0.9239 -0.3827 0.3827 0.9239 -486.5349 670.5946)" class="st1" cx="1442.38" cy="1558.28" rx="15.98" ry="15.98"/>
<g>
	<path class="st1" d="M1442.38,1577.71c-10.71,0-19.42-8.71-19.42-19.42s8.71-19.42,19.42-19.42s19.42,8.71,19.42,19.42
		S1453.1,1577.71,1442.38,1577.71z M1442.38,1545.76c-6.91,0-12.53,5.62-12.53,12.53s5.62,12.53,12.53,12.53
		c6.91,0,12.53-5.62,12.53-12.53S1449.29,1545.76,1442.38,1545.76z"/>
</g>
<g>
	<path class="st1" d="M2272.44,1774.7h-406.88l4.27-150.95l4.16-0.01l393.63-1.22L2272.44,1774.7z M1874.4,1766.11h389.17
		l-4.26-134.97l-381.12,1.18L1874.4,1766.11z"/>
</g>
<path class="st0" d="M1920.31,500.09c-9.33,25.49-13.34,32.31-13.28,47.38c0.06,15.07,5.38,58.51,0.36,73.23
	c-5.03,14.72-9.69,22.61-15.08,31.59c-5.38,8.97-8.67,1.44-9.18,12.56c-0.51,11.13-1.71,10.41,9.18,14.36
	c10.89,3.95,16.51,12.56,16.51,12.56s43.43,81.12,54.56,89.38s29.43,22.25,29.43,38.05c0,15.79-4.28,51.35-11.49,69.64
	c-7.21,18.29-11.49,34.82-11.49,34.82s129.58-8.26,163.68-21.18c34.1-12.92,35.18-42.71,35.18-42.71s-29.79-58.51-30.87-78.97
	c-1.08-20.46-2.87-53.84-2.87-53.84s19.74-107.15-7.72-136.22C2099.79,561.65,1920.31,500.09,1920.31,500.09z"/>
<path class="st4" d="M2165.21,868.12c0,0,7.44,3.95,13.54,12.56c6.1,8.61,38.77,67.12,46.66,87.58
	c7.9,20.46,29.07,105.17,31.95,124.2s7.18,120.97,7.18,120.97l5.63,177.67l1.53,147.53l-2.13,89.13l-409.76-0.11V1489.1l2.71-38.42
	c0,0,94.4,15.8,133.17,15.44c38.77-0.36,79.33-2.51,96.2-8.26c16.87-5.74,35.54-28.72,45.95-50.25
	c10.41-21.54,24.04-118.05,24.04-118.05l-181.26-35.76l-12.05,64.99l-76.61-4.51l-21.6-3.23c0,0,6.88-130.22,10.83-152.19
	c3.95-21.98,22.45-117.2,32.4-134.7c9.95-17.49,48.06-99.88,48.06-99.88s7.07-8.12,8.19-8.43c1.12-0.31,42,2.15,66.05-1.79
	c24.05-3.95,57.06-11.52,67.12-15.81c10.06-4.29,36.26-12.91,36.26-12.91L2165.21,868.12z"/>
<g>
	<path class="st0" d="M2248.01,1536.73l-1.53-147.53l-5.63-177.67c0,0-4.31-101.94-7.18-120.97
		c-2.87-19.02-10.86-112.71-78.61-211.78c-0.25-0.37-0.52-0.67-0.78-1.01l17.39-11.55c0,0,7.44,3.95,13.54,12.56
		c6.1,8.61,35.54,67.12,43.43,87.58c7.9,20.46,32.31,105.17,35.18,124.2c2.87,19.02,7.18,120.97,7.18,120.97l5.63,177.67
		l1.53,147.53l-2.13,89.13l-30.15-0.01L2248.01,1536.73z"/>
</g>
<path class="st1" d="M2110.02,680.1c0,0-4.85,4.58-3.23,16.42c1.62,11.85,12.65,28.81,19.38,36.34c6.73,7.54,14.81,8.35,14.81,8.35
	s35.8-16.96,46.57-42c10.77-25.04,35.1-78.36,34.91-107.69c-0.19-29.34-6.11-81.03-24.68-111.18
	c-18.58-30.15-65.69-59.77-88.84-65.42c-23.15-5.65-46.29-13.49-79.95-10.65c-33.66,2.84-52.5,10.65-66.77,17.65
	c-14.27,7-46.57,22.88-57.34,25.84c-10.77,2.96-19.11,5.92-20.19,8.61c-1.08,2.69-3.77,12.65,2.15,25.04
	c5.92,12.38,12.84,30.35,38.99,33.89s65.46,13.77,82.69,29.65c17.23,15.88,24.07,25.56,25.63,35.8s-4.1,51.16-11.9,65.16
	c-7.81,14-26.65,30.15-44.96,36.07c-18.31,5.92-53.04,7.24-53.04,7.24l-18.37,3.8c0,0-5.59,45.49,5.44,61.11
	c11.04,15.61,20.67,35.38,39.27,39.9c18.61,4.52,35.3,8.29,54.14,5.6c18.84-2.69,38.23-16.96,43.07-25.31
	c4.85-8.35,12.38-52.5,7.54-71.34c-4.85-18.84-4.04-51.42-0.54-63.26c3.5-11.85,2.52-18.49,19.16-21.63
	c16.64-3.14,30.58-2.02,35.86,9.94c5.28,11.96,12.46,15.14,9.32,28.65C2116.03,670.19,2110.02,680.1,2110.02,680.1z"/>
<g>
	<path class="st1" d="M2084.65,693.62c-1.95,0-3.57-1.55-3.63-3.52c-0.06-2,1.51-3.68,3.51-3.75c0.81-0.03,1.63-0.08,2.44-0.17
		c18.07-1.91,31.21-18.17,29.3-36.24c-0.92-8.75-5.2-16.62-12.05-22.16c-6.84-5.53-15.43-8.07-24.19-7.15
		c-4.53,0.48-8.82,1.85-12.75,4.07c-1.75,0.99-3.96,0.37-4.95-1.37c-0.99-1.75-0.37-3.96,1.37-4.95c4.8-2.71,10.04-4.39,15.56-4.97
		c10.68-1.13,21.17,1.97,29.52,8.72c8.35,6.75,13.58,16.36,14.71,27.04c2.33,22.05-13.71,41.89-35.76,44.22
		c-0.99,0.1-1.99,0.17-2.97,0.21C2084.73,693.62,2084.69,693.62,2084.65,693.62z"/>
</g>
<g>
	<path class="st1" d="M2101.8,654.33c-1.85,0-3.44-1.41-3.61-3.29c-0.46-4.86-2.76-9.02-6.31-11.41c-3.51-2.37-8.05-2.89-12.77-1.47
		c-1.93,0.58-3.95-0.51-4.52-2.43c-0.58-1.92,0.51-3.95,2.43-4.52c6.85-2.06,13.56-1.2,18.92,2.4c5.37,3.61,8.82,9.72,9.48,16.76
		c0.19,2-1.28,3.77-3.28,3.96C2102.03,654.33,2101.91,654.33,2101.8,654.33z"/>
</g>
<ellipse transform="matrix(3.985299e-03 -1 1 3.985299e-03 1315.3785 2557.1833)" class="st1" cx="1941.39" cy="618.28" rx="13.93" ry="8.17"/>
<g>
	<path class="st1" d="M1974.6,589.4c-0.85,0-1.7-0.3-2.39-0.9c-13.15-11.51-34.88-15.62-52.83-10c-1.92,0.6-3.95-0.47-4.55-2.38
		c-0.6-1.91,0.47-3.95,2.38-4.55c20.24-6.34,44.83-1.63,59.78,11.46c1.51,1.32,1.66,3.62,0.34,5.12
		C1976.62,588.98,1975.61,589.4,1974.6,589.4z"/>
</g>
<g>
	<path class="st1" d="M1905.82,687.26c-0.21,0-0.41-0.02-0.62-0.05c-12.34-2.14-26.55-6.15-26.96-18.3
		c-0.33-9.71,5.34-15.27,13.2-22.96l0.18-0.18c5.41-5.3,11.54-11.3,11.65-32.34l0.21-53.58c0.01-3.33,0.1-5.9,0.27-8.32
		c0.07-1.72,1.18-27,5.32-40.25c0.6-1.91,2.63-2.98,4.55-2.38c1.92,0.6,2.98,2.64,2.38,4.55c-3.91,12.52-4.99,38.17-5,38.43
		l-0.01,0.11c-0.16,2.27-0.24,4.7-0.25,7.89l-0.21,53.59c-0.11,22.24-6.6,30.43-13.83,37.5l-0.18,0.18
		c-8,7.83-11.24,11.26-11.02,17.52c0.12,3.64,2.62,8.22,20.95,11.4c1.98,0.34,3.3,2.22,2.96,4.2
		C1909.09,686.02,1907.55,687.26,1905.82,687.26z"/>
</g>
<g>
	<path class="st0" d="M1950.91,740.12c-3.68,0-7.39-0.35-11.07-1.08c-1.97-0.39-3.25-2.3-2.86-4.27c0.39-1.97,2.3-3.24,4.27-2.86
		c19.92,3.94,40.58-4.64,50.24-20.87c1.02-1.72,3.25-2.29,4.98-1.26c1.72,1.03,2.29,3.25,1.26,4.98
		C1988.33,730.55,1970.06,740.12,1950.91,740.12z"/>
</g>
<g>
	<path class="st1" d="M2002.75,919.14c-11.04,0-22-0.76-32.7-2.43c-1.98-0.31-3.34-2.17-3.03-4.15c0.31-1.98,2.17-3.34,4.15-3.03
		c73.33,11.42,159.32-20.92,196.96-47.53c1.64-1.16,3.9-0.77,5.06,0.87c1.16,1.64,0.77,3.9-0.87,5.06
		C2139.18,891.38,2069.46,919.14,2002.75,919.14z"/>
</g>
<g>
	<path class="st1" d="M1873.59,1314.35c-0.06,0-0.12,0-0.18,0c-2-0.1-3.55-1.8-3.45-3.8l0.6-12.38
		c2.89-60.39,5.89-122.83,18.34-186.9c14.16-72.85,38.73-136.43,75.13-194.36c13.32-21.2,17.65-31.94,21.05-52.23
		c3.91-23.32,4.3-44.97,1.11-60.96c-0.39-1.97,0.88-3.88,2.85-4.27c1.96-0.39,3.88,0.88,4.27,2.85c4.31,21.57,1.8,46.48-1.07,63.58
		c-3.55,21.18-8.29,32.98-22.07,54.9c-80.39,127.95-86.75,260.66-92.36,377.74l-0.6,12.39
		C1877.12,1312.84,1875.51,1314.35,1873.59,1314.35z"/>
</g>
<g>
	<path class="st1" d="M1859.49,1630.96l-0.01-3.63c0-0.9-0.33-91.36,0.44-178.45c0.02-2,1.64-3.6,3.63-3.6c0.01,0,0.02,0,0.03,0
		c2.01,0.02,3.62,1.66,3.6,3.66c-0.68,77.16-0.51,156.97-0.46,174.72l403.93-1.43c0.52-30.37,3.59-250.56-11.13-487.74
		c-4.41-71.01-23.88-175.09-91.6-267.67l-0.15-0.22c-8.18-13.08-34.98-60.62-36.65-123.32c-0.05-2.01,1.53-3.67,3.53-3.73
		c2.03-0.07,3.67,1.53,3.73,3.53c1.61,60.7,27.46,106.72,35.47,119.55c33.27,45.51,58.24,98.4,74.21,157.21
		c9.98,36.72,16.26,75.14,18.69,114.19c15.8,254.55,11.13,489.54,11.08,491.89l-0.07,3.54L1859.49,1630.96z M2274.23,1625.86
		L2274.23,1625.86L2274.23,1625.86z"/>
</g>
<g>
	<path class="st1" d="M2269.77,1774.38c-1.96,0-3.58-1.57-3.63-3.54l-3.54-144.87c-0.05-2.01,1.54-3.67,3.54-3.72
		c2-0.07,3.67,1.54,3.72,3.54l3.54,144.87c0.05,2.01-1.54,3.67-3.54,3.72C2269.83,1774.38,2269.8,1774.38,2269.77,1774.38z"/>
</g>
<g>
	<path class="st1" d="M1868.94,1776.89c-0.02,0-0.04,0-0.05,0c-2.01-0.03-3.61-1.68-3.58-3.68l2.07-145.22
		c0.03-1.99,1.65-3.58,3.63-3.58c0.02,0,0.04,0,0.05,0c2.01,0.03,3.61,1.68,3.58,3.68l-2.07,145.22
		C1872.54,1775.3,1870.92,1776.89,1868.94,1776.89z"/>
</g>
<g>
	<path class="st1" d="M1986.23,807.08c-4.77,0-9.53-0.46-14.27-1.39c-17-3.34-33.33-12.71-44.83-25.72
		c-22.18-25.1-25.94-52.7-24.82-89.11l0.09-3.04l3.01-0.44c10.74-1.59,20.11-1.9,29.17-2.19c15.85-0.52,30.82-1.01,50.62-8.5
		c33.54-12.68,50.45-62.55,44.8-99.67c-14.39-28.23-36.79-47.76-102.88-57.81c-34.22-5.2-47.76-33.73-48.96-56.58
		c-0.31-5.91,3.56-11.23,9.2-12.64c16.64-4.15,27.52-9.74,42.57-17.48c8.43-4.33,17.98-9.24,30.54-14.96
		c53.86-24.52,115.61-20.36,152.92-5.36c67.14,26.99,104.82,71.75,111.99,133.03c6.79,58-9.07,117.8-44.65,168.37
		c-28.64,40.7-46.81,32.28-48.79,31.19l-0.43-0.28c-1.28-0.97-31.32-24.11-28.48-62.14c0.15-2,1.89-3.51,3.89-3.35
		c2,0.15,3.5,1.89,3.35,3.89c-2.39,32.03,22.21,53.05,25.3,55.55c1.87,0.64,15.97,3.99,39.21-29.04
		c34.56-49.11,49.96-107.11,43.38-163.34c-6.84-58.44-43.01-101.21-107.49-127.14c-35.87-14.42-95.3-18.4-147.2,5.24
		c-12.41,5.65-21.88,10.52-30.23,14.81c-15.48,7.96-26.67,13.71-44.13,18.07c-2.28,0.57-3.83,2.76-3.71,5.21
		c1.05,20.12,12.89,45.23,42.8,49.78c69.34,10.54,93.54,32.5,108.53,62.22l0.25,0.51l0.09,0.56c6.48,40.78-11.79,93.98-49.32,108.17
		c-20.93,7.91-36.49,8.43-52.95,8.97c-7.99,0.26-16.22,0.53-25.33,1.7c-0.76,33.12,3.1,58.4,23.08,81.01
		c16.28,18.42,55.7,40.84,100.23,8.01c28.26-20.83,20.92-71.72,15.55-108.88l-0.29-2.04c-1.14-7.94-3.53-35.21,13.86-52.72
		c1.41-1.43,3.71-1.43,5.14-0.02c1.42,1.41,1.43,3.71,0.02,5.14c-15.02,15.13-12.85,39.47-11.83,46.57l0.29,2.04
		c5.63,38.98,13.33,92.36-18.43,115.77C2020.93,800.96,2003.57,807.08,1986.23,807.08z"/>
</g>
<path class="st1" d="M1702.43,1205.42l-10.77,86.15c0,0-66.76-9.22-82.56-8.56c-15.79,0.66-48.1,4.97-48.1,4.97l-6.46-79.33
	L1702.43,1205.42z"/>
<g>
	<path class="st0" d="M1680.71,1206.68l17.94-1.26l-8.95,86.39c0,0-7.86-1.07-16.65-2.21L1680.71,1206.68z"/>
</g>
<g>
	<path class="st1" d="M1687.23,1393.86h-120.97l-17.74-187.36c-0.19-2,1.28-3.77,3.27-3.96c2.02-0.18,3.77,1.28,3.96,3.27
		l17.12,180.78h107.75l17.12-180.78c0.19-2,1.95-3.46,3.96-3.27c2,0.19,3.46,1.96,3.27,3.96L1687.23,1393.86z"/>
</g>
<polygon class="st0" points="1553.94,1169.13 1700.98,1169.13 1709.7,1206.16 1545.23,1206.16 "/>
<g>
	<path class="st1" d="M1714.28,1209.79h-173.64l10.42-44.3h152.79L1714.28,1209.79z M1549.82,1202.53h155.29l-7-29.77h-141.29
		L1549.82,1202.53z"/>
</g>
<path class="st0" d="M2166.03,1287.85c0,0-13.8,64.26-17.79,86.77c-3.99,22.51-20.09,64.95-37.64,74.59
	c-17.55,9.64-74.19,17.29-105.77,16.37c-31.59-0.92-144.5-17.62-157.93-19.43c-13.43-1.82-122.35-26.14-122.35-26.14
	s-41.02,1.71-67.89,0.36s-45.75-5.08-61.72-5.08c-15.97,0-31.31-5.68-32.9-11.37c-1.59-5.69-3.04-22.39-0.32-24.57
	c2.72-2.18,3.27-5.99,3.27-5.99c-9.85,2.19-19.52-3.2-22.51-11.8c-2.47-7.13,0-15.45,6.27-20.64c-7.1-0.23-13.34-3.92-16.1-9.68
	c-2.14-4.46-1.52-8.76-1.15-10.57c-0.48-1.44-1.49-5.19,0.25-8.75c2.48-5.1,9.64-7.89,17.23-5.78c-0.69-18.24,3.92-26.2,9.16-29.82
	l37.68-0.8l0,0c0,0,52.13,10.52,55.76,10.89c3.63,0.36,45.77,7.12,45.77,7.12l3.79-39.79c0,0,14.34,23.12,23.05,30.98
	c8.71,7.87,15.62,16.13,29.78,16.54c14.15,0.4,124.5,12.01,147.02,12.92s70.81,2.73,70.81,2.73l14.52-64.99L2166.03,1287.85z"/>
<g>
	<path class="st1" d="M2192.95,1295.07l-229.61-46.38l0.19-3.16c3.76-61.18,7.18-93.75,14.61-139.43
		c8.27-50.82,16.07-98.81,35.25-130.64c1.04-1.72,3.27-2.27,4.99-1.24c1.72,1.04,2.27,3.27,1.24,4.99
		c-18.46,30.63-26.15,77.95-34.3,128.06c-7.26,44.61-10.66,76.67-14.33,135.55l216.42,43.71c2.38-10.65,4.89-21.43,7.32-31.89
		c11.16-48.06,22.7-97.76,26.77-150.98c0.15-2,1.87-3.51,3.9-3.34c2,0.15,3.5,1.9,3.34,3.9c-4.11,53.76-15.72,103.74-26.94,152.07
		c-2.69,11.59-5.47,23.57-8.08,35.3L2192.95,1295.07z"/>
</g>
<g>
	<path class="st1" d="M1592.39,1382.73c-0.1,0-0.19,0-0.29-0.01c-3.81-0.3-7.57-0.54-11.2-0.76c-14.21-0.88-26.48-1.65-34.62-5.97
		c-8.67-4.6-11.75-10.14-10.99-19.75c0.88-11.22,12.97-19.64,27.63-19.19c30.68,0.96,80.49,6.43,80.99,6.48
		c1.99,0.22,3.43,2.02,3.21,4.01c-0.22,1.99-2.04,3.42-4.01,3.21c-0.5-0.05-50.03-5.5-80.42-6.44c-10.51-0.31-19.59,5.28-20.16,12.5
		c-0.52,6.68,1.08,9.54,7.16,12.77c6.76,3.59,18.3,4.3,31.67,5.14c3.66,0.23,7.44,0.46,11.32,0.77c2,0.16,3.49,1.91,3.33,3.91
		C1595.86,1381.29,1594.27,1382.73,1592.39,1382.73z"/>
</g>
<g>
	<path class="st1" d="M1574.8,1310.2c-0.04,0-0.08,0-0.12,0c-14.18-0.45-22.29-2.77-26.3-7.51c-3.42-4.04-3.19-9.07-2.73-12.5
		c0.94-6.92,1.88-8.83,5.91-12.05c10.82-8.62,35.62-9.05,82.92-1.45c31.76,5.1,60.84,8.01,61.13,8.04c2,0.2,3.45,1.98,3.26,3.97
		c-0.2,2-1.96,3.45-3.97,3.26c-0.29-0.03-29.58-2.96-61.57-8.1c-27.61-4.44-65.65-9.27-77.24-0.04c-2.28,1.82-2.52,2.01-3.24,7.34
		c-0.46,3.36-0.13,5.4,1.08,6.83c2.46,2.91,9.53,4.58,20.99,4.94c2,0.06,3.58,1.74,3.51,3.75
		C1578.36,1308.65,1576.75,1310.2,1574.8,1310.2z"/>
</g>
<g>
	<path class="st1" d="M1975.32,1321.86l-3.16-0.15c-7.24-0.34-177.98-8.37-229.99-18.84c-14.31-2.88-20.66-14.32-27.38-26.42
		c-4.89-8.81-9.95-17.93-18.59-25.83c-1.48-1.35-1.58-3.65-0.23-5.13c1.36-1.48,3.65-1.58,5.13-0.23
		c9.51,8.7,15.1,18.78,20.03,27.66c6.39,11.52,11.44,20.61,22.46,22.83c47.64,9.58,201.67,17.38,225.73,18.55l11.96-64.42
		c0.37-1.97,2.26-3.27,4.23-2.91c1.97,0.37,3.27,2.26,2.91,4.23L1975.32,1321.86z"/>
</g>
<g>
	<path class="st1" d="M2028.34,1469.25c-36.09,0-82.23-4.29-138.21-12.88c-81.52-12.5-156.26-30.16-164.09-32.03
		c-45.31,6.02-136.97-5.03-154.93-10.27c-11.78-3.44-19.7-14.06-18.03-24.19c0.63-3.79,4.45-16.09,27.74-15.09
		c33.1,1.44,62.5,4.07,62.8,4.1c2,0.18,3.47,1.95,3.29,3.94c-0.18,2-1.93,3.47-3.94,3.29c-0.29-0.03-29.53-2.64-62.46-4.07
		c-11.67-0.52-19.25,2.86-20.26,9.01c-0.93,5.65,4.03,13.44,12.89,16.03c17.69,5.16,108.37,16.06,152.59,9.96l0.68-0.09l0.67,0.16
		c3.1,0.75,310.77,74.53,378.32,31.3c30.42-19.47,42.51-81.42,52.22-131.19c2.18-11.18,4.24-21.73,6.36-31.03
		c0.45-1.96,2.39-3.18,4.35-2.73c1.96,0.45,3.18,2.39,2.73,4.35c-2.1,9.19-4.15,19.69-6.32,30.81
		c-9.98,51.14-22.39,114.78-55.43,135.92C2094,1464.35,2066.91,1469.25,2028.34,1469.25z"/>
</g>
<g>
	<path class="st1" d="M1558.16,1344.3c-2.95,0-19.97-0.46-28.33-10.78c-2.19-2.7-4.18-8.43-3.4-14.64c0.7-5.6,3.47-10.34,8.01-13.72
		c2.19-1.63,6.74-5.01,60.95-0.44c26.19,2.21,51.6,5.28,51.85,5.31c1.99,0.24,3.41,2.05,3.17,4.04c-0.24,1.99-2.05,3.42-4.04,3.17
		c-48.29-5.86-101.75-9.79-107.63-6.23c-2.91,2.17-4.64,5.13-5.1,8.77c-0.51,4.07,0.8,7.87,1.84,9.16
		c6.73,8.3,22.78,8.08,22.95,8.09c0.02,0,0.05,0,0.07,0c1.97,0,3.59,1.58,3.63,3.56c0.04,2-1.55,3.66-3.55,3.71
		C1558.52,1344.3,1558.38,1344.3,1558.16,1344.3z"/>
</g>
<path class="st4" d="M2147.83,798.33c-13.89,15.51-27.35,23.45-36.94,27.81c-8.77,3.99-18.23,6.42-37.14,11.27
	c-23.05,5.91-28.45,5.7-39.75,11.5c-9.65,4.96-15.79,10.29-23.5,17c-15.54,13.51-25.31,27.16-30.5,34.5c-3.39,4.79-6,8.9-7.75,11.75
	c24.88,2.68,64.01,3.81,109.63-8.12c39.39-10.3,69.38-26.61,88.99-39.36c0.31-7.42-0.11-17.76-3.36-29.52
	C2162.59,817.44,2153.62,805.1,2147.83,798.33z"/>
<g>
	<path class="st1" d="M2000.84,918.33c-9.44,0-18.91-0.42-28.38-1.26c-1.19-0.11-2.26-0.79-2.85-1.84
		c-0.59-1.05-0.62-2.31-0.09-3.39c2.24-4.53,4.73-9.01,7.38-13.33c0.63-1.03,15.73-25.35,37.58-42.69
		c19.6-15.56,38.54-19.33,56.85-22.98c19.44-3.87,39.54-7.88,61.87-26c4.21-3.42,8.25-7.13,12-11.03c0.71-0.74,1.69-1.15,2.72-1.11
		c1.02,0.03,1.99,0.49,2.65,1.27c9.5,11.11,16.56,24.33,20.41,38.22c2.75,9.94,3.93,20.25,3.49,30.64c-0.05,1.18-0.67,2.26-1.66,2.9
		c-27.84,17.9-58.12,31.3-90.01,39.81C2055.98,914.72,2028.51,918.33,2000.84,918.33z M1978.51,910.26
		c34.57,2.47,69-0.8,102.43-9.73c30.55-8.16,59.59-20.9,86.35-37.88c0.2-9-0.91-17.91-3.29-26.52
		c-3.22-11.63-8.87-22.75-16.42-32.38c-3.12,3.06-6.4,5.99-9.79,8.74c-23.72,19.25-44.72,23.43-65.02,27.48
		c-18.27,3.64-35.53,7.08-53.76,21.55c-20.82,16.53-35.77,40.57-35.92,40.81C1981.49,904.91,1979.96,907.57,1978.51,910.26z"/>
</g>
<g>
	
		<ellipse transform="matrix(0.2298 -0.9732 0.9732 0.2298 1020.4425 2656.6458)" class="st1" cx="2188.63" cy="683.63" rx="34.35" ry="34.35"/>
	
		<ellipse transform="matrix(0.9239 -0.3827 0.3827 0.9239 -74.7062 891.8958)" class="st1" cx="2204.58" cy="633.73" rx="34.35" ry="34.35"/>
	<circle class="st1" cx="2216.22" cy="585.77" r="34.35"/>
	
		<ellipse transform="matrix(0.2298 -0.9732 0.9732 0.2298 1193.605 2563.2769)" class="st1" cx="2216.22" cy="527.55" rx="34.35" ry="34.35"/>
	
		<ellipse transform="matrix(0.7071 -0.7071 0.7071 0.7071 301.6458 1696.5416)" class="st1" cx="2198.73" cy="484.15" rx="34.35" ry="34.35"/>
	
		<ellipse transform="matrix(0.2298 -0.9732 0.9732 0.2298 1235.3268 2458.5938)" class="st1" cx="2170.95" cy="448.85" rx="34.35" ry="34.35"/>
	
		<ellipse transform="matrix(0.7071 -0.7071 0.7071 0.7071 323.4715 1630.5908)" class="st1" cx="2130.03" cy="424.83" rx="34.35" ry="34.35"/>
	
		<ellipse transform="matrix(0.2298 -0.9732 0.9732 0.2298 1206.2997 2341.8862)" class="st1" cx="2082.7" cy="408.83" rx="34.35" ry="34.35"/>
	
		<ellipse transform="matrix(0.7071 -0.7071 0.7071 0.7071 313.1184 1563.3712)" class="st1" cx="2043.72" cy="403.72" rx="34.35" ry="34.35"/>
	
		<ellipse transform="matrix(0.2298 -0.9732 0.9732 0.2298 1141.3903 2249.6448)" class="st1" cx="1991.97" cy="403.72" rx="34.35" ry="34.35"/>
	
		<ellipse transform="matrix(0.2298 -0.9732 0.9732 0.2298 1088.4923 2225.03)" class="st1" cx="1949.97" cy="424.83" rx="34.35" ry="34.35"/>
	
		<ellipse transform="matrix(0.9239 -0.3827 0.3827 0.9239 -26.5327 764.3019)" class="st1" cx="1907.94" cy="448.85" rx="34.35" ry="34.35"/>
	<circle class="st1" cx="1900.94" cy="477.53" r="34.35"/>
	
		<ellipse transform="matrix(0.2298 -0.9732 0.9732 0.2298 1016.035 2270.21)" class="st1" cx="1942.28" cy="493.2" rx="34.35" ry="34.35"/>
	
		<ellipse transform="matrix(0.2298 -0.9732 0.9732 0.2298 1029.7577 2325.8804)" class="st1" cx="1984.32" cy="512.36" rx="34.35" ry="34.35"/>
	<circle class="st1" cx="2025.76" cy="546.71" r="34.35"/>
	<circle class="st1" cx="2060.11" cy="572.41" r="34.35"/>
	
		<ellipse transform="matrix(0.2298 -0.9732 0.9732 0.2298 950.7711 2619.0356)" class="st1" cx="2130.03" cy="708.84" rx="34.35" ry="34.35"/>
</g>
<ellipse transform="matrix(0.1602 -0.9871 0.9871 0.1602 1102.3552 2745.04)" class="st1" cx="2164.38" cy="724.69" rx="34.35" ry="34.35"/>
<g id="platform">
	<path class="st1" d="M2339.8,1777.66H2.66c-1.47,0-2.66-1.54-2.66-3.45s1.19-3.45,2.66-3.45H2339.8c1.47,0,2.66,1.54,2.66,3.45
		S2341.27,1777.66,2339.8,1777.66z"/>
</g>
</svg>
