<?xml version="1.0" encoding="utf-8"?>
<!-- Generator: Adobe Illustrator 25.3.0, SVG Export Plug-In . SVG Version: 6.00 Build 0)  -->
<svg version="1.1" id="Illustration" xmlns="http://www.w3.org/2000/svg" xmlns:xlink="http://www.w3.org/1999/xlink" x="0px"
	 y="0px" viewBox="0 0 3175.91 2196.36" style="enable-background:new 0 0 3175.91 2196.36;" xml:space="preserve">
<style type="text/css">
	.st0{fill:#F8EFF2;}
	.st1{fill:#2E2E2E;}
	.st2{fill:#C1C7D6;}
	.st3{fill:#FFFFFF;}
	.st4{fill:#BB5A7D;}
</style>
<path id="die" class="st0" d="M179.34,2193.07c145.37-383.52,149.17-679.94,126.1-879.16c-20.65-178.27-92.26-300.35-41.56-486.85
	c8.14-29.93,88.31-309.38,320.61-406.7c134.29-56.26,190.61,2.31,329.52-71.25c119.89-63.48,122.3-130.6,243.44-218.29
	C1288.9,35.65,1433.39,8.04,1507.73,1.78c270.8-22.79,316.65,178.4,703.56,284.99c281.36,77.51,379.36,4.8,528.41,127.65
	c156.65,129.12,186.24,323.06,189.99,350.3c26.1,189.27-74.64,218.19-95,430.45c-31.71,330.64,192.86,467.7,124.68,768.87
	c-23.63,104.4-71.84,181.7-103.57,225.68C1963.66,2190.84,1071.5,2191.96,179.34,2193.07z"/>
<g id="decor">
	<g>
		<path class="st1" d="M333.95,2069.72c-0.84,0-1.7-0.18-2.51-0.57c-2.92-1.39-4.17-4.88-2.78-7.8c3.83-8.07,7.33-16.19,10.42-24.13
			c1.17-3.01,4.56-4.51,7.58-3.34c3.02,1.17,4.51,4.57,3.34,7.58c-3.19,8.21-6.81,16.6-10.76,24.92
			C338.24,2068.49,336.14,2069.72,333.95,2069.72z M353.2,2019.92c-0.55,0-1.11-0.08-1.67-0.24c-3.1-0.92-4.87-4.18-3.95-7.28
			c2.51-8.48,4.63-17.03,6.29-25.4c0.63-3.17,3.71-5.23,6.89-4.6c3.17,0.63,5.23,3.71,4.6,6.89c-1.73,8.72-3.94,17.62-6.55,26.45
			C358.06,2018.27,355.72,2019.92,353.2,2019.92z M363.52,1967.58c-0.19,0-0.37-0.01-0.56-0.03c-3.22-0.31-5.58-3.17-5.27-6.39
			c0.73-7.61,1.09-15.27,1.09-22.77c0-1.09-0.01-2.18-0.02-3.27c-0.04-3.23,2.54-5.89,5.78-5.94c0.03,0,0.06,0,0.08,0
			c3.2,0,5.81,2.57,5.85,5.78c0.02,1.15,0.02,2.29,0.02,3.44c0,7.86-0.39,15.9-1.15,23.88
			C369.05,1965.31,366.5,1967.58,363.52,1967.58z M362.7,1914.27c-2.9,0-5.42-2.15-5.8-5.1c-0.29-2.2-0.61-4.41-0.96-6.6
			c-1.04-6.49-2.36-12.85-3.92-18.88c-0.81-3.13,1.07-6.33,4.2-7.14c3.13-0.81,6.33,1.07,7.14,4.2c1.66,6.39,3.05,13.11,4.15,19.97
			c0.37,2.29,0.71,4.63,1.01,6.94c0.42,3.21-1.85,6.15-5.05,6.56C363.21,1914.25,362.95,1914.27,362.7,1914.27z M349.18,1862.83
			c-2.28,0-4.46-1.35-5.4-3.58c-3.32-7.87-7.17-15.38-11.77-22.95c-1.68-2.77-0.8-6.37,1.97-8.05c2.77-1.68,6.37-0.8,8.05,1.97
			c4.9,8.07,9,16.07,12.55,24.48c1.26,2.98-0.14,6.42-3.12,7.67C350.71,1862.68,349.94,1862.83,349.18,1862.83z M321.81,1817.21
			c-1.75,0-3.47-0.78-4.63-2.26c-4.69-6.03-10.06-12.45-16.9-20.18c-2.14-2.42-1.92-6.12,0.51-8.27c2.42-2.14,6.12-1.91,8.27,0.51
			c7.01,7.93,12.53,14.52,17.38,20.75c1.99,2.55,1.53,6.23-1.03,8.22C324.34,1816.81,323.07,1817.21,321.81,1817.21z M286.81,1776.9
			c-1.6,0-3.2-0.65-4.35-1.94c-5.26-5.84-11.49-12.81-17.74-20.2c-2.09-2.47-1.78-6.17,0.69-8.25c2.47-2.09,6.17-1.78,8.25,0.69
			c6.14,7.27,12.29,14.15,17.49,19.92c2.17,2.4,1.97,6.11-0.43,8.27C289.61,1776.4,288.21,1776.9,286.81,1776.9z M252.56,1735.97
			c-1.79,0-3.55-0.81-4.7-2.35c-5.56-7.44-10.6-14.74-15.43-22.31c-1.74-2.73-0.94-6.35,1.79-8.09c2.73-1.74,6.35-0.94,8.09,1.79
			c4.66,7.32,9.55,14.38,14.93,21.59c1.94,2.59,1.4,6.26-1.19,8.2C255.01,1735.59,253.78,1735.97,252.56,1735.97z M223.92,1690.98
			c-2.09,0-4.12-1.12-5.17-3.1c-1.61-3.01-3.2-6.11-4.75-9.22c-2.47-4.98-4.87-10.09-7.12-15.19c-1.31-2.96,0.04-6.42,3-7.72
			c2.96-1.3,6.42,0.04,7.72,3c2.18,4.94,4.49,9.88,6.89,14.7c1.49,3,3.04,6,4.59,8.91c1.52,2.85,0.44,6.4-2.41,7.92
			C225.8,1690.75,224.85,1690.98,223.92,1690.98z M202.38,1642.15c-2.41,0-4.66-1.5-5.52-3.9c-3-8.43-5.75-17.14-8.18-25.86
			c-0.87-3.12,0.96-6.35,4.08-7.21c3.12-0.87,6.35,0.96,7.21,4.08c2.35,8.46,5.02,16.89,7.93,25.07c1.08,3.05-0.51,6.4-3.55,7.48
			C203.69,1642.04,203.03,1642.15,202.38,1642.15z M188.07,1590.73c-2.72,0-5.16-1.91-5.73-4.68c-1.79-8.73-3.34-17.71-4.58-26.69
			c-0.44-3.2,1.79-6.16,5-6.61c3.21-0.44,6.16,1.79,6.61,5c1.21,8.73,2.71,17.46,4.46,25.94c0.65,3.17-1.39,6.27-4.56,6.92
			C188.85,1590.69,188.46,1590.73,188.07,1590.73z M180.69,1537.87c-3.03,0-5.6-2.34-5.83-5.41c-0.68-8.86-1.11-17.95-1.29-27.02
			c-0.06-3.23,2.51-5.91,5.75-5.97c3.23-0.06,5.91,2.51,5.97,5.74c0.17,8.84,0.59,17.71,1.25,26.34c0.25,3.22-2.17,6.04-5.39,6.29
			C181,1537.86,180.84,1537.87,180.69,1537.87z M179.66,1484.47c-0.07,0-0.14,0-0.21,0c-3.23-0.11-5.76-2.83-5.65-6.06
			c0.31-8.88,0.87-17.95,1.65-26.97c0.28-3.22,3.13-5.61,6.34-5.33c3.22,0.28,5.61,3.12,5.33,6.34c-0.77,8.81-1.31,17.69-1.62,26.37
			C185.4,1481.98,182.8,1484.47,179.66,1484.47z M184.26,1431.25c-0.26,0-0.53-0.02-0.8-0.05c-3.21-0.44-5.45-3.39-5.02-6.59
			c1.2-8.82,2.63-17.78,4.26-26.65c0.58-3.18,3.63-5.29,6.82-4.71c3.18,0.58,5.29,3.64,4.71,6.82c-1.59,8.69-3,17.48-4.17,26.12
			C189.66,1429.12,187.15,1431.25,184.26,1431.25z M193.88,1378.69c-0.43,0-0.88-0.05-1.32-0.15c-3.15-0.73-5.12-3.87-4.4-7.02
			c2.01-8.74,4.24-17.54,6.63-26.16c0.86-3.12,4.09-4.95,7.21-4.08c3.12,0.86,4.94,4.09,4.08,7.21c-2.34,8.45-4.53,17.08-6.5,25.65
			C198.96,1376.86,196.55,1378.69,193.88,1378.69z M208.16,1327.2c-0.6,0-1.22-0.09-1.82-0.29c-3.07-1.01-4.75-4.31-3.75-7.39
			c2.66-8.12,5.45-16.02,8.29-23.47c0.26-0.67,0.51-1.34,0.77-2.01c1.17-3.02,4.56-4.52,7.58-3.35c3.02,1.17,4.52,4.56,3.35,7.58
			c-0.25,0.65-0.5,1.3-0.75,1.96c-2.78,7.28-5.5,15-8.1,22.94C212.92,1325.63,210.63,1327.2,208.16,1327.2z M227.52,1277.44
			c-0.83,0-1.67-0.17-2.46-0.55c-2.93-1.36-4.21-4.85-2.84-7.78c3.89-8.38,8.06-16.5,12.39-24.15c1.59-2.82,5.17-3.81,7.98-2.21
			c2.82,1.59,3.81,5.17,2.21,7.98c-4.17,7.37-8.19,15.22-11.96,23.32C231.85,1276.19,229.73,1277.44,227.52,1277.44z
			 M253.83,1231.09c-1.15,0-2.3-0.34-3.32-1.03c-2.66-1.83-3.34-5.48-1.5-8.15c5.05-7.34,10.4-14.43,16.35-21.69
			c2.05-2.5,5.74-2.87,8.24-0.81c2.5,2.05,2.87,5.74,0.81,8.24c-5.74,7-10.9,13.83-15.76,20.9
			C257.52,1230.21,255.69,1231.09,253.83,1231.09z M287.48,1189.75c-1.43,0-2.86-0.52-3.98-1.57c-2.37-2.2-2.51-5.91-0.31-8.28
			c6.43-6.92,13.02-13.67,18.62-19.37c2.27-2.31,5.98-2.34,8.28-0.07c2.31,2.27,2.34,5.98,0.07,8.28
			c-5.54,5.63-12.06,12.31-18.39,19.13C290.62,1189.12,289.06,1189.75,287.48,1189.75z M324.72,1151.49c-1.48,0-2.95-0.55-4.09-1.67
			c-2.31-2.26-2.36-5.97-0.1-8.28c7.03-7.19,12.86-13.29,18.34-19.19c2.2-2.37,5.91-2.51,8.28-0.3c2.37,2.2,2.51,5.91,0.3,8.28
			c-5.55,5.97-11.44,12.14-18.54,19.4C327.76,1150.9,326.24,1151.49,324.72,1151.49z M360.97,1112.32c-1.36,0-2.72-0.47-3.82-1.42
			c-2.45-2.11-2.72-5.81-0.61-8.26c5.76-6.68,11.44-13.53,16.88-20.37c2.01-2.53,5.7-2.96,8.23-0.94c2.53,2.01,2.95,5.7,0.94,8.23
			c-5.53,6.96-11.31,13.94-17.18,20.74C364.25,1111.64,362.62,1112.32,360.97,1112.32z M394.18,1070.54c-1.2,0-2.41-0.37-3.45-1.13
			c-2.61-1.91-3.18-5.57-1.27-8.19c5.26-7.19,10.36-14.48,15.16-21.67c1.8-2.69,5.44-3.41,8.12-1.62c2.69,1.8,3.41,5.44,1.62,8.12
			c-4.89,7.32-10.09,14.75-15.45,22.07C397.77,1069.71,395.99,1070.54,394.18,1070.54z M423.79,1026.17c-1.03,0-2.07-0.27-3.02-0.84
			c-2.77-1.67-3.66-5.27-1.99-8.04c4.57-7.57,8.97-15.28,13.07-22.91c1.53-2.85,5.08-3.92,7.93-2.38c2.85,1.53,3.92,5.08,2.38,7.93
			c-4.19,7.79-8.69,15.67-13.36,23.41C427.71,1025.16,425.77,1026.17,423.79,1026.17z M449.02,979.21c-0.84,0-1.69-0.18-2.5-0.56
			c-2.93-1.38-4.18-4.87-2.8-7.8c3.75-7.95,7.31-16.06,10.58-24.12c1.22-3,4.63-4.44,7.63-3.22c3,1.22,4.44,4.63,3.22,7.63
			c-3.35,8.26-7,16.57-10.84,24.71C453.32,977.97,451.21,979.21,449.02,979.21z M469.07,929.82c-0.63,0-1.27-0.1-1.9-0.32
			c-3.06-1.05-4.69-4.38-3.64-7.44c2.82-8.22,5.46-16.68,7.84-25.15c0.88-3.11,4.12-4.93,7.23-4.05c3.11,0.88,4.93,4.11,4.05,7.23
			c-2.45,8.67-5.15,17.34-8.04,25.76C473.78,928.29,471.51,929.82,469.07,929.82z M483.58,878.51c-0.43,0-0.87-0.05-1.3-0.15
			c-3.15-0.72-5.13-3.85-4.42-7.01c1.89-8.34,3.65-17.05,5.23-25.88c0.57-3.18,3.61-5.31,6.8-4.74c3.18,0.57,5.3,3.61,4.74,6.8
			c-1.61,9.01-3.41,17.9-5.34,26.41C488.67,876.67,486.26,878.51,483.58,878.51z M493.03,826.01c-0.27,0-0.54-0.02-0.81-0.06
			c-3.2-0.44-5.44-3.4-5-6.61c1.16-8.33,2.21-16.94,3.23-26.32c0.35-3.22,3.24-5.54,6.45-5.19c3.22,0.35,5.54,3.24,5.19,6.45
			c-1.03,9.49-2.1,18.21-3.27,26.66C498.42,823.89,495.91,826.01,493.03,826.01z M498.88,772.96c-0.17,0-0.35-0.01-0.53-0.02
			c-3.22-0.29-5.6-3.13-5.31-6.35c0.81-9.07,1.55-18.08,2.24-26.54c0.26-3.22,3.09-5.63,6.31-5.36c3.22,0.26,5.62,3.09,5.36,6.31
			c-0.69,8.48-1.43,17.51-2.24,26.63C504.44,770.66,501.88,772.96,498.88,772.96z M503.32,719.77c-0.17,0-0.34-0.01-0.51-0.02
			c-3.22-0.28-5.61-3.11-5.34-6.34c0.88-10.21,1.66-18.69,2.47-26.7c0.33-3.22,3.2-5.57,6.42-5.24c3.22,0.33,5.56,3.2,5.24,6.42
			c-0.81,7.94-1.59,16.36-2.46,26.51C508.89,717.46,506.33,719.77,503.32,719.77z M508.81,666.65c-0.25,0-0.5-0.02-0.76-0.05
			c-3.21-0.41-5.47-3.35-5.06-6.56c1.2-9.34,2.48-18.05,3.9-26.61c0.53-3.19,3.55-5.35,6.74-4.82c3.19,0.53,5.35,3.55,4.82,6.74
			c-1.4,8.42-2.66,16.99-3.84,26.19C514.24,664.49,511.72,666.65,508.81,666.65z M517.63,614.03c-0.4,0-0.81-0.04-1.22-0.13
			c-3.16-0.67-5.18-3.78-4.51-6.95c1.89-8.89,4-17.72,6.26-26.23c0.83-3.13,4.04-4.99,7.17-4.15c3.13,0.83,4.99,4.04,4.15,7.17
			c-2.22,8.32-4.28,16.95-6.13,25.66C522.77,612.14,520.34,614.03,517.63,614.03z M531.38,562.51c-0.6,0-1.21-0.09-1.81-0.29
			c-3.08-1-4.76-4.31-3.76-7.38c2.78-8.53,5.83-17.09,9.07-25.42c1.17-3.01,4.57-4.51,7.58-3.34c3.01,1.17,4.51,4.57,3.34,7.58
			c-3.16,8.13-6.14,16.48-8.85,24.8C536.14,560.94,533.85,562.51,531.38,562.51z M550.69,512.83c-0.81,0-1.63-0.17-2.42-0.53
			c-2.94-1.34-4.25-4.81-2.91-7.76c3.68-8.09,7.66-16.25,11.83-24.25c1.5-2.87,5.03-3.98,7.9-2.49c2.87,1.5,3.98,5.03,2.49,7.9
			c-4.07,7.81-7.96,15.78-11.55,23.68C555.05,511.55,552.92,512.83,550.69,512.83z M575.31,465.54c-1.01,0-2.03-0.26-2.96-0.81
			c-2.79-1.64-3.72-5.23-2.08-8.02c2.13-3.62,4.33-7.28,6.56-10.88c2.49-4.03,5.07-8.08,7.66-12.04c1.77-2.71,5.4-3.47,8.11-1.7
			c2.71,1.77,3.47,5.4,1.7,8.11c-2.54,3.88-5.07,7.85-7.51,11.8c-2.18,3.53-4.35,7.11-6.43,10.65
			C579.27,464.51,577.31,465.54,575.31,465.54z M2503.16,422.07c-1.96,0-3.88-0.98-4.98-2.77c-4.71-7.59-9.54-15.1-14.36-22.31
			c-1.8-2.69-1.07-6.33,1.62-8.12c2.69-1.8,6.33-1.07,8.12,1.62c4.89,7.32,9.79,14.93,14.57,22.64c1.71,2.75,0.86,6.36-1.89,8.07
			C2505.28,421.79,2504.22,422.07,2503.16,422.07z M604.51,420.87c-1.19,0-2.39-0.36-3.43-1.11c-2.62-1.89-3.21-5.56-1.32-8.18
			c5.22-7.22,10.69-14.45,16.27-21.49c2.01-2.53,5.7-2.96,8.23-0.95c2.53,2.01,2.96,5.7,0.95,8.23
			c-5.47,6.9-10.84,13.98-15.96,21.06C608.12,420.03,606.33,420.87,604.51,420.87z M637.67,379.06c-1.36,0-2.73-0.47-3.84-1.43
			c-2.44-2.12-2.71-5.82-0.59-8.26c5.83-6.72,11.92-13.44,18.09-19.97c2.22-2.35,5.93-2.45,8.28-0.23c2.35,2.22,2.46,5.93,0.23,8.28
			c-6.06,6.41-12.03,13-17.76,19.6C640.94,378.37,639.31,379.06,637.67,379.06z M2473.46,377.65c-1.82,0-3.61-0.84-4.75-2.43
			c-5.21-7.21-10.56-14.34-15.92-21.17c-1.99-2.55-1.55-6.23,1-8.22c2.54-1.99,6.23-1.55,8.22,1c5.45,6.96,10.9,14.2,16.2,21.54
			c1.89,2.62,1.3,6.28-1.32,8.18C2475.85,377.29,2474.65,377.65,2473.46,377.65z M674.34,340.25c-1.53,0-3.05-0.59-4.2-1.77
			c-2.26-2.32-2.21-6.03,0.11-8.28c6.37-6.21,12.99-12.4,19.68-18.4c2.41-2.16,6.11-1.96,8.27,0.44c2.16,2.41,1.96,6.11-0.44,8.27
			c-6.57,5.9-13.07,11.98-19.33,18.07C677.29,339.7,675.82,340.25,674.34,340.25z M2440.49,335.6c-1.66,0-3.3-0.7-4.46-2.06
			c-5.76-6.75-11.69-13.4-17.61-19.74c-2.21-2.36-2.08-6.07,0.28-8.28c2.36-2.21,6.07-2.08,8.28,0.28
			c6.04,6.47,12.09,13.25,17.96,20.13c2.1,2.46,1.81,6.16-0.65,8.26C2443.19,335.14,2441.84,335.6,2440.49,335.6z M714.07,304.57
			c-1.68,0-3.35-0.72-4.51-2.12c-2.07-2.49-1.72-6.18,0.77-8.25c6.84-5.68,13.93-11.33,21.05-16.79c2.57-1.97,6.24-1.48,8.21,1.08
			c1.97,2.57,1.48,6.24-1.08,8.21c-7,5.37-13.97,10.93-20.7,16.51C716.71,304.13,715.38,304.57,714.07,304.57z M2404.02,296.57
			c-1.47,0-2.95-0.55-4.09-1.66c-6.34-6.18-12.87-12.22-19.38-17.96c-2.43-2.14-2.66-5.84-0.53-8.27c2.14-2.43,5.84-2.66,8.27-0.53
			c6.66,5.86,13.33,12.04,19.81,18.36c2.32,2.26,2.37,5.97,0.11,8.28C2407.06,295.98,2405.54,296.57,2404.02,296.57z M756.42,272.07
			c-1.83,0-3.64-0.86-4.78-2.47c-1.87-2.64-1.25-6.29,1.39-8.17c7.26-5.15,14.74-10.26,22.23-15.17c2.71-1.77,6.34-1.02,8.11,1.68
			c1.77,2.7,1.02,6.34-1.68,8.11c-7.37,4.83-14.73,9.86-21.87,14.93C758.78,271.72,757.6,272.07,756.42,272.07z M2363.91,261.3
			c-1.27,0-2.55-0.41-3.63-1.26c-6.92-5.47-14.04-10.77-21.15-15.77c-2.65-1.86-3.29-5.51-1.43-8.16c1.86-2.65,5.51-3.29,8.16-1.43
			c7.29,5.12,14.58,10.56,21.68,16.16c2.54,2.01,2.97,5.69,0.97,8.23C2367.35,260.54,2365.64,261.3,2363.91,261.3z M1672.61,249.36
			c-3.23,0-5.86-2.62-5.86-5.86c0-3.24,2.62-5.86,5.86-5.86c8.83,0,17.76-0.15,26.51-0.43c0.07,0,0.13,0,0.19,0
			c3.15,0,5.75,2.5,5.85,5.67c0.11,3.23-2.43,5.94-5.66,6.04C1690.62,249.21,1681.57,249.36,1672.61,249.36z M1645.91,248.95
			c-0.06,0-0.12,0-0.18,0c-6.7-0.21-13.53-0.5-20.3-0.86c-2.2-0.12-4.38-0.24-6.55-0.37c-3.23-0.19-5.69-2.97-5.5-6.2
			c0.19-3.23,2.96-5.69,6.2-5.5c2.14,0.13,4.3,0.25,6.48,0.37c6.68,0.36,13.42,0.64,20.04,0.85c3.23,0.1,5.77,2.8,5.67,6.03
			C1651.66,246.45,1649.06,248.95,1645.91,248.95z M1725.97,247.62c-3.06,0-5.64-2.38-5.84-5.47c-0.21-3.23,2.23-6.02,5.46-6.23
			c8.78-0.58,17.67-1.31,26.41-2.18c3.23-0.32,6.09,2.03,6.41,5.25c0.32,3.22-2.03,6.09-5.25,6.41c-8.87,0.88-17.89,1.62-26.8,2.21
			C1726.23,247.62,1726.1,247.62,1725.97,247.62z M1592.61,245.79c-0.17,0-0.34-0.01-0.51-0.02c-9.02-0.78-18.01-1.69-26.72-2.71
			c-3.21-0.38-5.51-3.28-5.14-6.5c0.38-3.21,3.29-5.52,6.5-5.14c8.6,1,17.47,1.9,26.37,2.68c3.22,0.28,5.61,3.12,5.33,6.34
			C1598.18,243.49,1595.62,245.79,1592.61,245.79z M801.05,242.78c-1.98,0-3.91-1-5.02-2.82c-1.68-2.77-0.79-6.37,1.97-8.04
			c7.62-4.62,15.44-9.17,23.24-13.53c2.82-1.58,6.39-0.57,7.97,2.26c1.58,2.82,0.57,6.39-2.26,7.97
			c-7.68,4.29-15.38,8.77-22.89,13.32C803.13,242.51,802.09,242.78,801.05,242.78z M1779.1,242.35c-2.89,0-5.41-2.14-5.8-5.09
			c-0.43-3.21,1.83-6.15,5.03-6.58c8.66-1.15,17.48-2.47,26.22-3.92c3.19-0.53,6.21,1.63,6.74,4.82c0.53,3.19-1.63,6.21-4.82,6.74
			c-8.86,1.47-17.8,2.81-26.59,3.98C1779.62,242.33,1779.36,242.35,1779.1,242.35z M1539.62,239.59c-0.29,0-0.58-0.02-0.87-0.06
			c-8.92-1.33-17.84-2.82-26.52-4.43c-3.18-0.59-5.28-3.64-4.69-6.83c0.59-3.18,3.64-5.28,6.83-4.69
			c8.54,1.58,17.33,3.05,26.11,4.36c3.2,0.48,5.41,3.46,4.93,6.66C1544.97,237.5,1542.47,239.59,1539.62,239.59z M1831.77,233.61
			c-2.74,0-5.19-1.93-5.74-4.72c-0.63-3.17,1.44-6.25,4.61-6.88c8.45-1.67,17.19-3.53,25.96-5.52c3.16-0.72,6.29,1.26,7.01,4.42
			c0.71,3.15-1.26,6.29-4.42,7.01c-8.88,2.01-17.72,3.89-26.28,5.59C1832.53,233.57,1832.15,233.61,1831.77,233.61z M2320.2,230.62
			c-1.05,0-2.12-0.28-3.07-0.88c-7.49-4.63-15.16-9.06-22.82-13.18c-2.85-1.53-3.92-5.08-2.39-7.93c1.53-2.85,5.09-3.92,7.93-2.39
			c7.87,4.23,15.75,8.78,23.44,13.53c2.75,1.7,3.6,5.31,1.9,8.06C2324.08,229.64,2322.16,230.62,2320.2,230.62z M1487.16,229.86
			c-0.42,0-0.85-0.05-1.28-0.14c-8.74-1.96-17.54-4.1-26.14-6.37c-3.13-0.83-4.99-4.03-4.17-7.16c0.83-3.13,4.03-4.99,7.16-4.17
			c8.46,2.23,17.1,4.34,25.7,6.27c3.16,0.71,5.14,3.84,4.44,6.99C1492.27,228,1489.85,229.86,1487.16,229.86z M1883.86,221.84
			c-2.62,0-5.01-1.77-5.68-4.43c-0.79-3.14,1.11-6.32,4.25-7.11c8.14-2.05,16.56-4.25,25.73-6.73c3.12-0.84,6.34,1,7.18,4.12
			c0.84,3.12-1,6.34-4.12,7.18c-9.24,2.5-17.72,4.72-25.93,6.79C1884.82,221.78,1884.34,221.84,1883.86,221.84z M847.63,216.75
			c-2.13,0-4.18-1.16-5.21-3.18c-1.48-2.88-0.34-6.41,2.53-7.89c7.95-4.08,16.08-8.08,24.15-11.89c2.93-1.38,6.42-0.12,7.79,2.8
			c1.38,2.93,0.12,6.42-2.8,7.79c-7.96,3.75-15.96,7.69-23.79,11.71C849.45,216.54,848.53,216.75,847.63,216.75z M1435.59,216.23
			c-0.57,0-1.14-0.08-1.71-0.26c-8.48-2.59-16.85-5.31-25.57-8.32c-3.06-1.05-4.68-4.39-3.63-7.45c1.06-3.06,4.39-4.68,7.45-3.63
			c8.59,2.96,16.82,5.64,25.17,8.19c3.09,0.95,4.84,4.22,3.89,7.31C1440.42,214.6,1438.09,216.23,1435.59,216.23z M1935.43,207.95
			c-2.56,0-4.91-1.69-5.63-4.27c-0.88-3.11,0.93-6.35,4.05-7.23c5.51-1.55,10.97-3.1,16.37-4.64l9.31-2.64
			c3.12-0.88,6.35,0.93,7.23,4.04c0.88,3.11-0.93,6.35-4.04,7.23l-9.31,2.64c-5.41,1.54-10.88,3.09-16.4,4.64
			C1936.49,207.88,1935.96,207.95,1935.43,207.95z M2273.16,205.37c-0.82,0-1.65-0.17-2.44-0.54c-7.96-3.66-16.13-7.1-24.26-10.22
			c-3.02-1.16-4.53-4.55-3.37-7.57c1.16-3.02,4.55-4.53,7.57-3.37c8.37,3.21,16.76,6.75,24.95,10.51c2.94,1.35,4.23,4.83,2.88,7.77
			C2277.5,204.1,2275.38,205.37,2273.16,205.37z M1385.13,198.88c-0.69,0-1.39-0.12-2.07-0.38c-7.6-2.88-15.53-5.97-24.96-9.75
			c-3-1.2-4.46-4.61-3.26-7.62c1.2-3,4.61-4.46,7.62-3.26c9.36,3.75,17.22,6.82,24.75,9.67c3.03,1.15,4.55,4.53,3.41,7.55
			C1389.72,197.43,1387.5,198.88,1385.13,198.88z M895.97,193.99c-2.27,0-4.43-1.33-5.39-3.55c-1.28-2.97,0.1-6.42,3.07-7.69
			c8.22-3.53,16.61-6.96,24.92-10.19c3.01-1.17,6.41,0.32,7.58,3.34c1.17,3.02-0.32,6.41-3.34,7.58
			c-8.19,3.18-16.45,6.56-24.54,10.03C897.52,193.83,896.74,193.99,895.97,193.99z M1986.85,193.48c-2.58,0-4.94-1.71-5.65-4.32
			c-0.85-3.12,0.99-6.34,4.11-7.19c9.58-2.61,18.07-4.84,25.96-6.81c3.13-0.78,6.32,1.13,7.1,4.27c0.78,3.14-1.13,6.32-4.27,7.1
			c-7.8,1.94-16.21,4.15-25.71,6.74C1987.88,193.42,1987.36,193.48,1986.85,193.48z M2223.33,186.24c-0.57,0-1.16-0.08-1.74-0.26
			c-8.47-2.62-17-4.93-25.36-6.86c-3.15-0.73-5.12-3.87-4.39-7.02c0.73-3.15,3.87-5.12,7.02-4.39c8.64,1.99,17.46,4.38,26.2,7.09
			c3.09,0.96,4.82,4.24,3.86,7.33C2228.15,184.63,2225.83,186.24,2223.33,186.24z M2038.69,180.69c-2.71,0-5.14-1.89-5.73-4.65
			c-0.67-3.17,1.36-6.27,4.52-6.94c9.3-1.96,17.98-3.58,26.54-4.94c3.19-0.5,6.2,1.67,6.7,4.87c0.51,3.2-1.67,6.2-4.87,6.7
			c-8.36,1.33-16.85,2.91-25.95,4.83C2039.5,180.65,2039.09,180.69,2038.69,180.69z M1335.54,179.15c-0.73,0-1.48-0.14-2.2-0.43
			c-7.89-3.2-16.35-6.61-24.71-9.86c-3.01-1.17-4.51-4.57-3.34-7.58c1.17-3.02,4.56-4.51,7.58-3.34c8.43,3.28,16.93,6.71,24.87,9.93
			c3,1.22,4.44,4.63,3.23,7.63C1340.05,177.77,1337.86,179.15,1335.54,179.15z M945.77,174.64c-2.42,0-4.69-1.51-5.53-3.93
			c-1.06-3.05,0.55-6.39,3.6-7.46c8.47-2.95,17.07-5.78,25.58-8.41c3.09-0.95,6.37,0.78,7.33,3.87c0.96,3.09-0.78,6.37-3.87,7.33
			c-8.38,2.59-16.85,5.37-25.18,8.28C947.06,174.53,946.41,174.64,945.77,174.64z M2171.32,174.3c-0.28,0-0.57-0.02-0.86-0.06
			c-8.63-1.27-17.41-2.2-26.08-2.74c-3.23-0.2-5.68-2.99-5.48-6.22c0.2-3.23,3.01-5.69,6.22-5.48c9,0.57,18.1,1.53,27.05,2.85
			c3.2,0.47,5.41,3.45,4.94,6.65C2176.68,172.21,2174.17,174.3,2171.32,174.3z M2091.4,172.43c-2.99,0-5.54-2.28-5.83-5.31
			c-0.3-3.22,2.06-6.08,5.29-6.38c9.14-0.86,18.26-1.38,27.08-1.54c3.26-0.1,5.9,2.51,5.96,5.75c0.06,3.23-2.51,5.9-5.75,5.96
			c-8.53,0.16-17.35,0.66-26.21,1.49C2091.77,172.43,2091.58,172.43,2091.4,172.43z M1285.74,159.98c-0.64,0-1.29-0.11-1.93-0.33
			c-8.81-3.07-17.02-5.71-25.1-8.05c-3.11-0.9-4.9-4.15-4-7.26c0.9-3.11,4.15-4.89,7.26-4c8.28,2.4,16.69,5.09,25.7,8.24
			c3.05,1.07,4.67,4.41,3.6,7.46C1290.43,158.47,1288.16,159.98,1285.74,159.98z M996.82,158.87c-2.58,0-4.95-1.72-5.65-4.34
			c-0.84-3.12,1.01-6.34,4.13-7.18c8.69-2.34,17.48-4.53,26.14-6.51c3.15-0.73,6.29,1.25,7.02,4.4c0.72,3.15-1.25,6.3-4.4,7.02
			c-8.52,1.95-17.17,4.11-25.71,6.41C997.83,158.8,997.32,158.87,996.82,158.87z M1048.9,146.95c-2.76,0-5.22-1.96-5.75-4.78
			c-0.6-3.18,1.5-6.24,4.68-6.84c8.88-1.67,17.83-3.16,26.6-4.43c3.2-0.47,6.17,1.75,6.64,4.96c0.46,3.2-1.75,6.17-4.96,6.64
			c-8.61,1.25-17.39,2.71-26.12,4.35C1049.62,146.92,1049.26,146.95,1048.9,146.95z M1234.5,145.26c-0.41,0-0.83-0.04-1.26-0.14
			c-8.55-1.87-17.24-3.44-25.82-4.67c-3.2-0.46-5.43-3.43-4.97-6.63c0.46-3.2,3.42-5.43,6.63-4.97c8.86,1.27,17.83,2.9,26.65,4.82
			c3.16,0.69,5.16,3.81,4.47,6.97C1239.62,143.39,1237.2,145.26,1234.5,145.26z M1101.77,139.31c-2.97,0-5.52-2.25-5.82-5.27
			c-0.32-3.22,2.02-6.09,5.24-6.42c9.15-0.92,18.21-1.62,26.92-2.06c3.27-0.17,5.98,2.32,6.15,5.55c0.17,3.23-2.32,5.98-5.55,6.15
			c-8.52,0.44-17.39,1.12-26.34,2.02C1102.17,139.3,1101.97,139.31,1101.77,139.31z M1181.77,137.67c-0.14,0-0.28,0-0.43-0.02
			c-8.54-0.61-17.37-0.95-26.26-1.01c-3.24-0.02-5.84-2.66-5.82-5.89c0.02-3.23,2.68-5.8,5.89-5.82c9.14,0.06,18.24,0.41,27.02,1.04
			c3.23,0.23,5.66,3.03,5.42,6.26C1187.38,135.32,1184.81,137.67,1181.77,137.67z"/>
	</g>
	<g>
		<path class="st1" d="M985.99,1831.69c-8.15,0-14.77-6.64-14.77-14.8c0-8.15,6.62-14.79,14.77-14.79c8.15,0,14.78,6.64,14.78,14.79
			C1000.77,1825.05,994.15,1831.69,985.99,1831.69z"/>
		<path class="st1" d="M1144.45,1831.69c-8.15,0-14.77-6.64-14.77-14.8c0-8.15,6.62-14.79,14.77-14.79
			c8.15,0,14.77,6.64,14.77,14.79C1159.22,1825.05,1152.6,1831.69,1144.45,1831.69z"/>
		<path class="st1" d="M1302.91,1831.69c-8.15,0-14.78-6.64-14.78-14.8c0-8.15,6.62-14.79,14.78-14.79
			c8.15,0,14.77,6.64,14.77,14.79C1317.68,1825.05,1311.05,1831.69,1302.91,1831.69z"/>
		<path class="st1" d="M985.99,1988.4c-8.15,0-14.77-6.64-14.77-14.79s6.62-14.79,14.77-14.79c8.15,0,14.78,6.64,14.78,14.79
			S994.15,1988.4,985.99,1988.4z"/>
		<ellipse class="st1" cx="1144.45" cy="1973.61" rx="14.77" ry="14.79"/>
		<path class="st1" d="M1302.91,1988.4c-8.15,0-14.78-6.64-14.78-14.79s6.62-14.79,14.78-14.79c8.15,0,14.77,6.64,14.77,14.79
			S1311.05,1988.4,1302.91,1988.4z"/>
		<path class="st1" d="M985.99,2145.36c-8.15,0-14.77-6.64-14.77-14.8c0-8.15,6.62-14.79,14.77-14.79c8.15,0,14.78,6.64,14.78,14.79
			C1000.77,2138.72,994.15,2145.36,985.99,2145.36z"/>
		<path class="st1" d="M1144.45,2145.36c-8.15,0-14.77-6.64-14.77-14.8c0-8.15,6.62-14.79,14.77-14.79
			c8.15,0,14.77,6.64,14.77,14.79C1159.22,2138.72,1152.6,2145.36,1144.45,2145.36z"/>
		<path class="st1" d="M1302.91,2145.36c-8.15,0-14.78-6.64-14.78-14.8c0-8.15,6.62-14.79,14.78-14.79
			c8.15,0,14.77,6.64,14.77,14.79C1317.68,2138.72,1311.05,2145.36,1302.91,2145.36z"/>
	</g>
	<g>
		<g>
			<path class="st1" d="M1523.83,668.01c-1.01,0-2.04-0.26-2.97-0.81c-2.79-1.64-3.71-5.23-2.07-8.02l49.71-84.27
				c1.64-2.79,5.23-3.71,8.02-2.07c2.79,1.64,3.71,5.23,2.07,8.02l-49.71,84.27C1527.79,666.98,1525.84,668.01,1523.83,668.01z"/>
		</g>
		<g>
			<path class="st1" d="M1308.69,714.33c-1.01,0-2.04-0.26-2.97-0.81l-84.27-49.71c-2.79-1.64-3.71-5.23-2.07-8.02
				c1.64-2.79,5.23-3.71,8.02-2.07l84.27,49.71c2.79,1.64,3.71,5.23,2.07,8.02C1312.65,713.3,1310.7,714.33,1308.69,714.33z"/>
		</g>
		<g>
			<path class="st1" d="M1402.93,654.3c-2.61,0-4.99-1.75-5.67-4.4l-24.43-94.74c-0.81-3.13,1.08-6.33,4.21-7.13
				c3.13-0.81,6.33,1.08,7.13,4.21l24.43,94.74c0.81,3.13-1.08,6.33-4.21,7.13C1403.91,654.24,1403.41,654.3,1402.93,654.3z"/>
		</g>
	</g>
	<g>
		<path class="st1" d="M2063.71,2133.24h-661.82c-3.24,0-5.86-2.62-5.86-5.86s2.62-5.86,5.86-5.86h661.82
			c3.24,0,5.86,2.62,5.86,5.86S2066.94,2133.24,2063.71,2133.24z"/>
	</g>
	<g>
		<path class="st1" d="M2063.71,2082.4h-392.62c-3.24,0-5.86-2.62-5.86-5.86s2.62-5.86,5.86-5.86h392.62c3.24,0,5.86,2.62,5.86,5.86
			S2066.94,2082.4,2063.71,2082.4z"/>
	</g>
	<g>
		<path class="st2" d="M2489.92,393.14l-73.2,14.27c-0.68,0.15-0.83,1.05-0.25,1.42l148.79,88.73c0.58,0.37,1.32-0.15,1.17-0.82
			l-34.39-174.18c-0.16-0.73-1.15-0.84-1.46-0.16l-40.13,70.31C2490.35,392.93,2490.16,393.09,2489.92,393.14z"/>
		<polygon class="st3" points="2521.63,340.07 2563.32,496.67 2530.59,322.4 		"/>
		<g>
			<path class="st1" d="M2565.68,503.54c-1.19,0-2.39-0.32-3.45-0.97l-38.08-22.71c-2.78-1.66-3.69-5.25-2.03-8.03
				c1.66-2.78,5.25-3.69,8.03-2.03l28.33,16.9l-29.54-149.61l-33.35,58.43c-0.91,1.69-2.54,2.93-4.42,3.35l-0.14,0.03l-60.14,11.73
				l56.17,33.5c2.78,1.66,3.69,5.25,2.03,8.03c-1.66,2.78-5.25,3.69-8.03,2.03l-67.73-40.39c-2.28-1.44-3.46-4.09-3-6.75
				c0.46-2.66,2.46-4.76,5.1-5.34l0.15-0.03l70.89-13.82l38.94-68.23c1.27-2.39,3.86-3.78,6.59-3.48c2.84,0.31,5.15,2.4,5.76,5.19
				l0.02,0.1l34.38,174.15c0.53,2.6-0.52,5.25-2.7,6.77C2568.34,503.14,2567.01,503.54,2565.68,503.54z"/>
		</g>
		<g>
			<path class="st1" d="M2533.01,459.36c-1.84,0-3.65-0.86-4.79-2.48l-42.71-60.45c-1.87-2.64-1.24-6.3,1.4-8.16
				c2.64-1.87,6.3-1.24,8.16,1.4l42.71,60.45c1.87,2.64,1.24,6.3-1.4,8.16C2535.36,459.01,2534.18,459.36,2533.01,459.36z"/>
		</g>
	</g>
	<g>
		<g>
			<path class="st1" d="M3027.76,1259.02c-1.5,0-3-0.57-4.14-1.72l-55.71-55.71c-2.29-2.29-2.29-6,0-8.28c2.29-2.29,6-2.29,8.28,0
				l55.71,55.71c2.29,2.29,2.29,6,0,8.28C3030.76,1258.45,3029.26,1259.02,3027.76,1259.02z"/>
		</g>
		<g>
			<path class="st1" d="M2972.04,1259.02c-1.5,0-3-0.57-4.14-1.72c-2.29-2.29-2.29-6,0-8.28l55.71-55.71c2.29-2.29,6-2.29,8.28,0
				c2.29,2.29,2.29,6,0,8.28l-55.71,55.71C2975.04,1258.45,2973.54,1259.02,2972.04,1259.02z"/>
		</g>
	</g>
	<g>
		<g>
			<path class="st1" d="M72.72,1934.09c-1.06,0-2.13-0.29-3.09-0.89l-66.87-41.68c-2.75-1.71-3.58-5.32-1.87-8.07
				c1.71-2.75,5.32-3.59,8.07-1.87l66.87,41.68c2.75,1.71,3.58,5.32,1.87,8.07C76.59,1933.11,74.68,1934.09,72.72,1934.09z"/>
		</g>
		<g>
			<path class="st1" d="M18.45,1946.69c-1.06,0-2.13-0.29-3.09-0.89c-2.75-1.71-3.58-5.32-1.87-8.07l41.68-66.87
				c1.71-2.74,5.32-3.58,8.07-1.87c2.75,1.71,3.58,5.32,1.87,8.07l-41.68,66.87C22.31,1945.71,20.4,1946.69,18.45,1946.69z"/>
		</g>
	</g>
	<g>
		<g>
			<path class="st1" d="M1799.66,1785.16c-1.06,0-2.13-0.29-3.09-0.89l-66.87-41.68c-2.75-1.71-3.58-5.32-1.87-8.07
				c1.71-2.75,5.32-3.59,8.07-1.87l66.87,41.68c2.75,1.71,3.58,5.32,1.87,8.07C1803.53,1784.18,1801.62,1785.16,1799.66,1785.16z"/>
		</g>
		<g>
			<path class="st1" d="M1745.39,1797.75c-1.06,0-2.13-0.29-3.09-0.89c-2.75-1.71-3.58-5.32-1.87-8.07l41.68-66.87
				c1.71-2.75,5.32-3.59,8.07-1.87c2.75,1.71,3.58,5.32,1.87,8.07l-41.68,66.87C1749.26,1796.77,1747.35,1797.75,1745.39,1797.75z"
				/>
		</g>
	</g>
	<g>
		<g>
			<path class="st1" d="M383.4,871.44c-1.06,0-2.13-0.29-3.09-0.89l-66.87-41.68c-2.75-1.71-3.58-5.32-1.87-8.07
				c1.71-2.75,5.32-3.58,8.07-1.87l66.87,41.68c2.75,1.71,3.58,5.32,1.87,8.07C387.26,870.46,385.35,871.44,383.4,871.44z"/>
		</g>
		<g>
			<path class="st1" d="M329.13,884.03c-1.06,0-2.13-0.29-3.09-0.89c-2.75-1.71-3.58-5.32-1.87-8.07l41.68-66.87
				c1.71-2.75,5.32-3.58,8.07-1.87c2.75,1.71,3.58,5.32,1.87,8.07l-41.68,66.87C332.99,883.05,331.08,884.03,329.13,884.03z"/>
		</g>
	</g>
	<g>
		<g>
			<path class="st1" d="M1640.85,157.48c-1.06,0-2.13-0.29-3.09-0.89l-66.87-41.68c-2.75-1.71-3.58-5.32-1.87-8.07
				c1.71-2.75,5.32-3.58,8.07-1.87l66.87,41.68c2.75,1.71,3.58,5.32,1.87,8.07C1644.71,156.5,1642.8,157.48,1640.85,157.48z"/>
		</g>
		<g>
			<path class="st1" d="M1586.58,170.08c-1.06,0-2.13-0.29-3.09-0.89c-2.75-1.71-3.58-5.32-1.87-8.07l41.68-66.87
				c1.71-2.75,5.32-3.58,8.07-1.87c2.75,1.71,3.58,5.32,1.87,8.07l-41.68,66.87C1590.44,169.1,1588.53,170.08,1586.58,170.08z"/>
		</g>
	</g>
	<g>
		<path class="st1" d="M2271.58,466.63c8.21,0,14.89-6.69,14.89-14.92c0-8.21-6.68-14.9-14.89-14.9c-8.22,0-14.9,6.69-14.9,14.9
			C2256.69,459.94,2263.37,466.63,2271.58,466.63z"/>
		<path class="st1" d="M2111.86,466.63c8.21,0,14.89-6.69,14.89-14.92c0-8.21-6.68-14.9-14.89-14.9s-14.89,6.69-14.89,14.9
			C2096.97,459.94,2103.65,466.63,2111.86,466.63z"/>
		<path class="st1" d="M1952.13,466.63c8.22,0,14.9-6.69,14.9-14.92c0-8.21-6.68-14.9-14.9-14.9c-8.21,0-14.89,6.69-14.89,14.9
			C1937.24,459.94,1943.92,466.63,1952.13,466.63z"/>
		<path class="st1" d="M2271.58,624.59c8.21,0,14.89-6.69,14.89-14.9c0-8.21-6.68-14.9-14.89-14.9c-8.22,0-14.9,6.69-14.9,14.9
			C2256.69,617.9,2263.37,624.59,2271.58,624.59z"/>
		<ellipse class="st1" cx="2111.86" cy="609.69" rx="14.89" ry="14.9"/>
		<path class="st1" d="M1952.13,624.59c8.22,0,14.9-6.69,14.9-14.9c0-8.21-6.68-14.9-14.9-14.9c-8.21,0-14.89,6.69-14.89,14.9
			C1937.24,617.9,1943.92,624.59,1952.13,624.59z"/>
		<path class="st1" d="M2271.58,782.81c8.21,0,14.89-6.69,14.89-14.92c0-8.21-6.68-14.9-14.89-14.9c-8.22,0-14.9,6.69-14.9,14.9
			C2256.69,776.12,2263.37,782.81,2271.58,782.81z"/>
		<path class="st1" d="M2111.86,782.81c8.21,0,14.89-6.69,14.89-14.92c0-8.21-6.68-14.9-14.89-14.9s-14.89,6.69-14.89,14.9
			C2096.97,776.12,2103.65,782.81,2111.86,782.81z"/>
		<path class="st1" d="M1952.13,782.81c8.22,0,14.9-6.69,14.9-14.92c0-8.21-6.68-14.9-14.9-14.9c-8.21,0-14.89,6.69-14.89,14.9
			C1937.24,776.12,1943.92,782.81,1952.13,782.81z"/>
	</g>
	<g>
		<path class="st1" d="M2829.89,1812.66c-1.42,0-2.84-0.51-3.97-1.55c-2.38-2.19-2.53-5.9-0.33-8.28
			c4.62-5.01,9.17-10.09,13.51-15.11c2.12-2.44,5.82-2.71,8.26-0.59c2.45,2.12,2.71,5.82,0.59,8.26
			c-4.42,5.1-9.05,10.28-13.75,15.38C2833.04,1812.03,2831.46,1812.66,2829.89,1812.66z M2860.55,1776.83
			c-1.27,0-2.55-0.41-3.63-1.26c-2.54-2-2.97-5.69-0.97-8.23c5.53-7.01,10.87-14.12,15.85-21.14c1.88-2.64,5.53-3.26,8.17-1.38
			c2.64,1.87,3.26,5.53,1.38,8.17c-5.1,7.18-10.55,14.45-16.21,21.61C2864,1776.07,2862.28,1776.83,2860.55,1776.83z
			 M2891.45,1733.26c-1.07,0-2.14-0.29-3.11-0.9c-2.74-1.72-3.56-5.34-1.84-8.08c4.74-7.53,9.23-15.18,13.35-22.72
			c1.55-2.84,5.11-3.89,7.95-2.34c2.84,1.55,3.89,5.11,2.34,7.95c-4.23,7.76-8.85,15.61-13.71,23.35
			C2895.3,1732.29,2893.4,1733.26,2891.45,1733.26z M2916.98,1686.35c-0.82,0-1.65-0.17-2.44-0.54c-2.94-1.35-4.23-4.83-2.88-7.77
			c3.7-8.05,7.09-16.21,10.08-24.26c1.12-3.03,4.5-4.58,7.53-3.45c3.03,1.12,4.58,4.5,3.45,7.53c-3.09,8.32-6.59,16.76-10.41,25.08
			C2921.32,1685.09,2919.2,1686.35,2916.98,1686.35z M2935.5,1636.3c-0.52,0-1.06-0.07-1.58-0.22c-3.12-0.87-4.93-4.11-4.06-7.22
			c2.37-8.46,4.38-17.04,5.96-25.5c0.59-3.18,3.65-5.27,6.84-4.68c3.18,0.6,5.27,3.66,4.68,6.84c-1.65,8.8-3.73,17.71-6.2,26.5
			C2940.41,1634.6,2938.06,1636.3,2935.5,1636.3z M2945.29,1583.85c-0.18,0-0.36-0.01-0.55-0.03c-3.22-0.3-5.59-3.15-5.29-6.37
			c0.78-8.4,1.17-16.92,1.17-25.31l0-0.8c-0.01-3.23,2.6-5.87,5.84-5.88c0.01,0,0.01,0,0.02,0c3.22,0,5.84,2.61,5.86,5.84l0,0.82
			c0,8.77-0.41,17.65-1.23,26.41C2950.83,1581.57,2948.28,1583.85,2945.29,1583.85z M2945.01,1530.56c-2.94,0-5.48-2.21-5.81-5.21
			c-0.99-8.82-2.47-17.15-4.53-25.48c-0.78-3.14,1.14-6.32,4.28-7.09c3.14-0.78,6.32,1.14,7.09,4.28c2.19,8.83,3.76,17.66,4.8,26.99
			c0.36,3.21-1.95,6.11-5.17,6.47C2945.45,1530.54,2945.23,1530.56,2945.01,1530.56z M2932.3,1478.92c-2.36,0-4.58-1.43-5.47-3.76
			c-2.73-7.13-5.94-14.56-10.4-24.11c-1.37-2.93-0.1-6.42,2.83-7.79c2.93-1.37,6.42-0.11,7.79,2.83
			c4.58,9.81,7.89,17.48,10.73,24.87c1.16,3.02-0.35,6.41-3.37,7.57C2933.71,1478.79,2933,1478.92,2932.3,1478.92z M2910.26,1430.34
			c-2.19,0-4.3-1.24-5.3-3.35c-3.02-6.39-7.02-14.96-11.07-24.55c-1.26-2.98,0.13-6.42,3.12-7.68c2.98-1.26,6.42,0.14,7.68,3.12
			c3.97,9.38,7.89,17.81,10.87,24.1c1.38,2.92,0.13,6.42-2.79,7.8C2911.95,1430.16,2911.1,1430.34,2910.26,1430.34z
			 M2889.65,1381.15c-2.42,0-4.68-1.51-5.53-3.92c-2.95-8.41-5.69-17.09-8.14-25.8c-0.87-3.11,0.94-6.35,4.06-7.22
			c3.12-0.87,6.35,0.94,7.22,4.06c2.38,8.47,5.04,16.91,7.91,25.09c1.07,3.05-0.53,6.4-3.58,7.47
			C2890.95,1381.04,2890.29,1381.15,2889.65,1381.15z M2875.18,1329.81c-2.69,0-5.12-1.87-5.72-4.61c-1.41-6.47-2.75-13.2-3.96-20
			c-0.39-2.19-0.76-4.36-1.12-6.5c-0.53-3.19,1.63-6.21,4.83-6.73c3.2-0.53,6.21,1.63,6.73,4.83c0.35,2.09,0.71,4.21,1.09,6.36
			c1.18,6.66,2.49,13.24,3.87,19.56c0.69,3.16-1.31,6.28-4.47,6.97C2876.02,1329.76,2875.59,1329.81,2875.18,1329.81z
			 M2866.54,1277.13c-2.96,0-5.5-2.23-5.82-5.24c-0.98-9.16-1.64-18.26-1.98-27.04c-0.12-3.23,2.4-5.95,5.63-6.08
			c0.08,0,0.15,0,0.23,0c3.13,0,5.73,2.48,5.85,5.63c0.33,8.51,0.97,17.34,1.92,26.24c0.34,3.22-1.99,6.1-5.2,6.45
			C2866.96,1277.12,2866.75,1277.13,2866.54,1277.13z M2864.57,1223.79c-0.07,0-0.14,0-0.22,0c-3.23-0.12-5.76-2.83-5.64-6.07
			c0.32-8.79,0.96-17.63,1.95-27.03c0.34-3.22,3.23-5.56,6.44-5.21c3.22,0.34,5.55,3.22,5.21,6.44c-0.97,9.13-1.59,17.7-1.9,26.22
			C2870.31,1221.31,2867.71,1223.79,2864.57,1223.79z M2869.97,1170.7c-0.29,0-0.58-0.02-0.88-0.07c-3.2-0.48-5.4-3.46-4.92-6.66
			c0.77-5.13,1.58-10.24,2.38-15.36c0.58-3.66,1.16-7.33,1.73-11.03c0.49-3.2,3.48-5.39,6.68-4.9c3.2,0.49,5.39,3.48,4.9,6.68
			c-0.57,3.72-1.15,7.4-1.73,11.08c-0.8,5.1-1.61,10.18-2.37,15.28C2875.32,1168.62,2872.82,1170.7,2869.97,1170.7z
			 M2877.75,1117.88c-0.23,0-0.46-0.01-0.7-0.04c-3.21-0.38-5.51-3.29-5.13-6.51c1.08-9.16,1.86-17.74,2.38-26.25
			c0.19-3.23,2.96-5.71,6.2-5.49c3.23,0.2,5.69,2.97,5.49,6.2c-0.53,8.74-1.33,17.54-2.44,26.92
			C2883.21,1115.69,2880.68,1117.88,2877.75,1117.88z M2880.92,1064.61c-3.23,0-5.85-2.61-5.86-5.84
			c-0.03-8.57-0.32-17.44-0.88-26.35c-0.2-3.23,2.25-6.01,5.48-6.21c3.21-0.2,6.01,2.25,6.21,5.48c0.57,9.14,0.88,18.24,0.9,27.04
			c0.01,3.24-2.6,5.87-5.84,5.88C2880.93,1064.61,2880.92,1064.61,2880.92,1064.61z M2877.64,1011.31c-2.94,0-5.47-2.2-5.81-5.19
			c-0.97-8.45-2.18-17.27-3.59-26.21c-0.51-3.2,1.67-6.2,4.87-6.7c3.2-0.5,6.2,1.67,6.7,4.87c1.45,9.11,2.68,18.1,3.66,26.72
			c0.37,3.21-1.94,6.12-5.15,6.49C2878.09,1011.3,2877.86,1011.31,2877.64,1011.31z M2869.32,958.55c-2.74,0-5.19-1.93-5.74-4.72
			c-1.71-8.62-3.61-17.33-5.65-25.88c-0.75-3.15,1.19-6.31,4.34-7.06c3.15-0.76,6.31,1.19,7.06,4.34c2.08,8.7,4.01,17.56,5.75,26.32
			c0.63,3.17-1.43,6.26-4.61,6.89C2870.08,958.51,2869.7,958.55,2869.32,958.55z M2856.93,906.58c-2.56,0-4.91-1.69-5.64-4.28
			c-2.37-8.48-4.94-17.02-7.63-25.37c-0.99-3.08,0.7-6.38,3.78-7.37c3.08-0.99,6.38,0.7,7.37,3.78c2.74,8.5,5.35,17.18,7.76,25.81
			c0.87,3.12-0.95,6.35-4.06,7.22C2857.98,906.51,2857.45,906.58,2856.93,906.58z M2840.54,855.73c-2.39,0-4.63-1.47-5.5-3.84
			c-3.06-8.34-6.3-16.64-9.63-24.66c-1.24-2.99,0.18-6.42,3.17-7.65c2.99-1.24,6.42,0.18,7.66,3.17c3.39,8.18,6.69,16.63,9.81,25.12
			c1.11,3.04-0.45,6.4-3.48,7.52C2841.89,855.61,2841.21,855.73,2840.54,855.73z M2820.03,806.39c-2.2,0-4.31-1.25-5.31-3.37
			c-5.8-12.35-10.37-20.81-11.87-23.59c-1.54-2.85-0.48-6.4,2.37-7.94c2.84-1.54,6.4-0.48,7.94,2.37
			c1.54,2.85,6.22,11.52,12.17,24.17c1.38,2.93,0.12,6.42-2.81,7.79C2821.72,806.21,2820.87,806.39,2820.03,806.39z M2794.78,759.31
			c-1.99,0-3.93-1.01-5.03-2.84c-4.52-7.51-9.28-15.03-14.15-22.34c-1.79-2.69-1.06-6.33,1.63-8.12c2.69-1.79,6.33-1.07,8.12,1.63
			c4.97,7.46,9.83,15.13,14.44,22.8c1.67,2.77,0.77,6.37-2,8.04C2796.85,759.03,2795.81,759.31,2794.78,759.31z M2765.18,714.85
			c-1.8,0-3.58-0.83-4.73-2.39c-5.19-7.06-10.62-14.11-16.14-20.95c-2.03-2.52-1.64-6.2,0.88-8.24c2.52-2.03,6.21-1.64,8.24,0.88
			c5.63,6.98,11.17,14.17,16.46,21.37c1.92,2.61,1.35,6.27-1.25,8.19C2767.59,714.48,2766.38,714.85,2765.18,714.85z
			 M2731.63,673.28c-1.62,0-3.23-0.67-4.39-1.98c-5.8-6.56-11.85-13.1-17.96-19.42c-2.25-2.33-2.19-6.03,0.14-8.28
			c2.33-2.25,6.03-2.19,8.28,0.14c6.24,6.45,12.4,13.11,18.32,19.8c2.14,2.42,1.92,6.12-0.51,8.27
			C2734.39,672.8,2733,673.28,2731.63,673.28z M2694.49,634.89c-1.45,0-2.89-0.53-4.02-1.6c-6.38-6.03-12.98-12.01-19.61-17.76
			c-2.45-2.12-2.71-5.82-0.59-8.26c2.12-2.44,5.82-2.71,8.26-0.59c6.77,5.86,13.49,11.96,19.99,18.11c2.35,2.22,2.45,5.93,0.23,8.28
			C2697.59,634.27,2696.04,634.89,2694.49,634.89z M2654.11,599.9c-1.28,0-2.56-0.42-3.64-1.27c-6.86-5.44-13.96-10.83-21.08-16
			c-2.62-1.9-3.2-5.56-1.3-8.18c1.9-2.62,5.56-3.2,8.18-1.3c7.26,5.27,14.49,10.76,21.48,16.31c2.53,2.01,2.96,5.7,0.95,8.23
			C2657.55,599.14,2655.84,599.9,2654.11,599.9z"/>
	</g>
</g>
<path class="st3" d="M924.81,848.35c-3.8,32.93,1.72,39.49,4.33,112.28c2.62,72.94-1.51,105.42-19.45,126.97
	c-11.49,13.79-26.81,24.05-26.81,24.05c-14.78,9.89-28.77,14.78-38.28,17.32c0.14,11.8,0.97,29.7,4.28,51.29
	c2.01,13.12,4.59,25.23,7.41,36.23c6.94,43.54-8.98,83.51-39.11,100.71c-31.17,17.8-65.95,4.63-78.22-0.02
	c-65.13-24.67-84.16-99-86.57-109.07c4.46-24.43,8.06-52.15,9.6-82.68c2.11-41.98-0.16-79.44-4.09-111.01
	c-5.29,0.16-20.38-0.09-32.49-10.63c-15.89-13.83-20.2-39.76-9.21-63.46c8.54-61.05,17.08-122.09,25.62-183.14
	c103.42,0,206.83,0,310.25,0C941.93,777.69,929.35,808.95,924.81,848.35z"/>
<path class="st1" d="M983.4,719.7c15.27,0.58,28.18,10.92,31.62,24.76c3.97,15.98-5.47,33.49-22.37,39.37
	c10.09,8.62,13.52,22.61,8.65,34.3c-5.46,13.12-20.27,20.69-34.9,17.3c2.87,11.58-1.39,23.73-10.74,30.72
	c-8.58,6.43-20.17,7.54-30.05,2.94c-0.72-6.45-1.45-12.9-2.17-19.34c-2.11-0.71-17-6.03-23.27-22.07
	c-5.66-14.49-0.15-27.17,0.89-29.46c-2.21,1.62-11.76,8.26-24.53,6.52c-18.88-2.57-26.73-20.98-27.07-21.8
	c-1.46,2.06-10.09,13.86-25.85,15.9c-13.37,1.73-26.84-4.21-35.3-15.4c-3.15,2.16-13.36,8.56-27.74,7.85
	c-13.96-0.69-23.3-7.68-26.3-10.13c0.14,3.95-0.04,13.86-6.21,24.15c-6.71,11.19-16.44,16.04-19.99,17.6
	c10.69,6.95,15.92,19.7,13.12,31.62c-3.13,13.35-15.72,23.02-30.13,22.67c10.29,10.73,11.76,27.02,3.88,38.78
	c-7.02,10.48-20.26,15.55-33.03,12.53c-4.85-1-13.61-2.13-23.96,0.48c-14.27,3.6-23.08,12.17-26.52,15.93
	c-1.41-0.33-24.35-6.18-32.07-29.01c-5.19-15.35-1.49-32.44,9.6-44.47c-1.77-1.68-13.7-13.4-12.71-31.57
	c1.13-20.78,18.16-31.54,19.67-32.46c-12.88-10.16-17.02-27.5-10.44-41.16c5.45-11.32,17.48-18.54,30.72-18.49
	c-6.25-10.76-5.55-24.26,1.79-34.3c7.35-10.06,20.03-14.83,32.2-12.11c-0.41-12.76,6.57-24.68,17.91-30.54
	c11.31-5.85,25.03-4.68,35.2,2.98c10.56-19.11,29.93-31.04,50.41-30.72c21.06,0.32,34.93,13.45,38.18,16.7
	c0.92-2.06,10.67-22.88,33.66-27.42c18.13-3.58,37.14,4.43,48.17,20.36c0.88-0.98,16.47-17.62,38.48-13.51
	c16.84,3.14,30.27,17.09,33.31,34.89c11.4-5.42,24.59-4.16,33.45,3.23C990.42,686.86,993.01,705.36,983.4,719.7z"/>
<g id="person_1_1_">
	<path class="st3" d="M1373.66,1187.94c0,0-12.79-31.98-22.04-41.36s-61.13-62.93-70.08-72.88c-8.95-9.95-24.36-29.81-17.85-40.62
		c6.51-10.81,24.42-14.05,40.84-2.77c16.42,11.29,36.31,23.06,40.48,25.05c4.17,1.99,4.8,4.5,5.74-7.41
		c0.94-11.91-17.99-69.44-25.05-91.74c-7.65-24.15-11.42-65.52-8.22-72.9c3.2-7.39,3.81-12.34,11.37-11.88
		c21.92,1.36,26.83,25.66,26.83,25.66s-4.06-41.39,2.33-50.54c6.38-9.15,7.38-9.07,16.06-9.39c8.68-0.31,23.09,17.83,26.17,27.04
		c3.08,9.2,14.06-13.54,14.06-13.54s22.42-11.54,35.14,25.62c9.73-0.9,23.25-31.37,43.61,10.13c2.52,5.13,13.12,71.33,16.16,95.88
		s6.69,93.94,6.75,97.28s-3.8,91.68-3.8,91.68L1373.66,1187.94z"/>
	<g>
		<path class="st1" d="M1515.4,1176.73c-3.23,0-5.85-2.61-5.86-5.84c0-0.78-0.22-78.84-3.57-147.09
			c-3.35-68.39-7.57-91.46-19.41-130.42c-2.98-9.82-10.56-18.75-17.63-20.75c-2.99-0.85-5.4-0.36-7.56,1.55
			c-4.83,4.25-5.12,4.51-2.09,34.78l0.72,7.22c1.26,12.76,3.33,50.53,3.41,52.13c0.18,3.23-2.3,5.99-5.53,6.17
			c-3.21,0.17-5.99-2.3-6.17-5.53c-0.02-0.39-2.14-39.12-3.37-51.62l-0.72-7.21c-3.14-31.43-3.63-36.26,6-44.74
			c5.14-4.53,11.71-5.96,18.51-4.02c10.92,3.1,21.46,14.87,25.64,28.62c12.81,42.17,16.72,68.32,19.9,133.25
			c3.36,68.53,3.58,146.86,3.58,147.64c0.01,3.24-2.61,5.86-5.84,5.87C1515.41,1176.73,1515.41,1176.73,1515.4,1176.73z"/>
	</g>
	<g>
		<path class="st1" d="M1374.89,989.74c-2.79,0-5.27-2.01-5.76-4.85c-2.16-12.41-8.09-46.32-17.63-100.79
			c-2.17-12.4-7.26-41.44,15.4-52.25c6.05-2.89,12.25-3.17,17.92-0.81c11.31,4.71,17.6,18.52,20.34,26.34
			c6.59,18.79,18.97,85.79,20.54,116.62c0.17,3.23-2.32,5.98-5.55,6.15c-3.23,0.16-5.98-2.32-6.15-5.55
			c-1.53-30.06-13.52-95.16-19.89-113.34c-3.51-10.02-8.66-17.27-13.78-19.4c-2.62-1.09-5.29-0.91-8.38,0.56
			c-12.89,6.15-11.73,23.5-8.9,39.65c9.54,54.48,15.48,88.39,17.63,100.8c0.55,3.19-1.58,6.22-4.77,6.77
			C1375.56,989.71,1375.22,989.74,1374.89,989.74z"/>
	</g>
	<g>
		<path class="st1" d="M1373.27,1192.14c-2.44,0-4.71-1.53-5.54-3.97c-9.04-26.47-37.5-55.45-62.61-81.03
			c-25.6-26.07-47.7-48.58-48.8-66.85c-0.56-9.25,1.89-15.94,7.27-19.9c7.85-5.77,20.86-4.91,40.95,2.71
			c17.8,6.75,28.72,15.74,35.95,21.69c2.38,1.96,5.24,4.31,6.89,5.2c0.29-4.51-4.36-17.45-8.5-28.98
			c-3.69-10.27-8.29-23.05-12.49-37.37c-5.46-18.59-12.66-45.68-15.94-69.13c-3.8-27.18-1.23-42.04,8.11-46.75
			c6.49-3.27,16.19-7.11,25.54-2.71c10.6,4.99,17.8,18.85,24.08,46.34c0.72,3.15-1.25,6.29-4.41,7.01
			c-3.16,0.72-6.29-1.25-7.01-4.41c-5.17-22.65-10.94-35.19-17.64-38.35c-2.26-1.06-6.3-1.95-15.28,2.57
			c-0.25,0.13-6.15,3.48-1.78,34.66c2.48,17.75,8.01,41.7,15.58,67.46c4.1,13.98,8.45,26.05,12.28,36.7
			c3.9,10.85,6.98,19.42,8.35,26.05c1.98,9.56-0.04,15.66-6,18.13c-6.79,2.82-12.55-1.91-19.21-7.4
			c-7.03-5.79-16.66-13.71-32.66-19.78c-20.44-7.75-27.48-5.98-29.86-4.23c-1.97,1.45-2.82,4.73-2.52,9.76
			c0.84,13.89,22.52,35.97,45.47,59.34c25.99,26.47,55.44,56.46,65.34,85.45c1.05,3.06-0.59,6.39-3.65,7.44
			C1374.53,1192.04,1373.89,1192.14,1373.27,1192.14z"/>
	</g>
	<g>
		<path class="st1" d="M1412.2,920.31c-2.1,0-3.97-1.48-4.39-3.62c-6.95-35.75-10.44-69.63,10.92-75.45
			c7.15-1.95,13.92-0.96,19.58,2.86c8.68,5.85,14.53,18.06,16.47,34.36l1.43,12.27c0.29,2.46-1.47,4.68-3.93,4.97
			c-2.47,0.28-4.68-1.47-4.97-3.93l-1.43-12.26c-1.6-13.47-6.19-23.67-12.59-27.98c-3.53-2.38-7.53-2.92-12.22-1.64
			c-14.43,3.93-9.98,36.85-4.48,65.09c0.47,2.43-1.11,4.78-3.54,5.25C1412.77,920.29,1412.48,920.31,1412.2,920.31z"/>
	</g>
</g>
<path class="st3" d="M316.34,1572.81c-11.24,46.67-30.12,175.64-34.77,225.67c-4.65,50.02-11.04,167.61-11.04,191.81
	s6.05,203.55,6.05,203.55l213.92-4.1l5.62-297.12l82.11-321.53L316.34,1572.81z"/>
<path class="st4" d="M1533.33,1147.28l-193.88,22.03l-8.68,257.72c0,0-139.72-59.07-171.7-83.27c-31.98-24.2-161.2-86-187.13-97.67
	c-25.93-11.67-87.73-27.66-114.96-28.09c3.59,50.99-20.41,94.95-55.5,107.27c-42.76,15.01-85.87-22.6-102.17-36.82
	c-30.63-26.72-43.78-58.63-49.37-75.74c-37.18,8.42-100.78,27.93-164.97,76.72c-15.46,11.75-65.88,54.77-111.59,126.72
	c-31.98,50.35-52.72,141.11-62.23,178.27s-29.12,202.28-32.71,235.11c-3.59,32.83-7.91,217.21-7.91,217.21l9.29,144.6l794.89,1.73
	l-8.47-587.81c0,0,226.21,54.35,292.95,61.73c66.74,7.38,122.28,8.43,162.58-25.16c35.99-30,37-80.99,37.7-125.64
	C1560.82,1431.81,1557.21,1307.28,1533.33,1147.28z"/>
<g>
	<path class="st3" d="M1486.55,1641.84c40.3-33.59,36.7-88.05,37.7-125.64c0.94-35.1-22.66-326.2-25.8-364.65l37.6-4.27
		c0,0,27.15,331.33,26.15,368.92c-1.01,37.59,2.59,92.05-37.7,125.64c-31.25,26.05-71.71,31.23-119.41,28.81
		C1436.56,1668.61,1463.96,1660.67,1486.55,1641.84z"/>
	<path class="st3" d="M1040.55,2193.07c0,0-2.63-417.52-2.92-559.33c-0.07-34.68,5.73-143.48,17.18-149.31l19.9,706.92l-792.17-0.98
		l-0.01-0.14L1040.55,2193.07z"/>
</g>
<g>
	<path class="st1" d="M650.7,1017.35c-12.06,0-23.5-4.47-32.4-12.71c-9.36-8.67-14.79-20.46-15.28-33.21
		c-0.49-12.75,4.01-24.92,12.68-34.28c8.67-9.36,20.46-14.79,33.21-15.28c6.59-0.25,13.03,0.82,19.13,3.19
		c2.67,1.04,3.99,4.04,2.95,6.71c-1.04,2.67-4.04,3.99-6.71,2.95c-4.77-1.86-9.8-2.69-14.97-2.5c-9.98,0.38-19.21,4.63-25.99,11.96
		c-6.78,7.33-10.31,16.86-9.92,26.84c0.39,9.98,4.63,19.21,11.96,25.99c7.33,6.78,16.86,10.31,26.84,9.92
		c5.61-0.22,10.96-1.64,15.89-4.22c2.54-1.33,5.67-0.35,7,2.19c1.33,2.54,0.35,5.67-2.19,7c-6.31,3.31-13.14,5.12-20.31,5.4
		C651.96,1017.34,651.33,1017.35,650.7,1017.35z"/>
</g>
<g>
	<path class="st1" d="M629.49,974.88c-3.1,0-5.69-2.43-5.85-5.56c-0.43-8.65,2.07-15.93,7.25-21.07c3.84-3.81,11.06-8.21,23.6-7.49
		c3.23,0.18,5.7,2.95,5.51,6.18c-0.19,3.23-2.97,5.7-6.18,5.51c-6.52-0.37-11.6,1.04-14.68,4.1c-3.47,3.45-3.98,8.52-3.8,12.17
		c0.16,3.23-2.33,5.98-5.56,6.14C629.69,974.88,629.59,974.88,629.49,974.88z"/>
</g>
<ellipse transform="matrix(0.9993 -0.0386 0.0386 0.9993 -35.099 35.2049)" class="st1" cx="895.1" cy="927.51" rx="9.51" ry="16.21"/>
<g>
	<path class="st1" d="M926.27,888.79c-1.29,0-2.59-0.43-3.68-1.3c-14.16-11.44-36.02-16.34-54.4-12.22c-3.15,0.71-6.29-1.27-7-4.43
		c-0.71-3.16,1.27-6.29,4.43-7c22.02-4.95,47.27,0.76,64.33,14.53c2.52,2.03,2.91,5.72,0.88,8.24
		C929.67,888.05,927.98,888.79,926.27,888.79z"/>
</g>
<path class="st1" d="M769.21,932.37c0.35,8.94-3.63,16.36-8.88,16.56c-5.25,0.2-9.78-6.88-10.13-15.83
	c-0.35-8.94,3.63-16.36,8.88-16.56C764.34,916.33,768.87,923.42,769.21,932.37z"/>
<g>
	<path class="st1" d="M720.65,901.39c-1.32,0-2.64-0.44-3.73-1.35c-2.49-2.06-2.84-5.76-0.77-8.25
		c15.1-18.22,43.08-28.42,68.05-24.81c3.2,0.46,5.42,3.43,4.96,6.64c-0.46,3.2-3.43,5.42-6.64,4.96
		c-21.13-3.06-44.72,5.45-57.35,20.69C724,900.67,722.33,901.39,720.65,901.39z"/>
</g>
<g>
	<path class="st1" d="M847.26,1004.7c-0.52,0-1.05-0.01-1.58-0.02c-3.23-0.09-5.78-2.79-5.69-6.02c0.09-3.23,2.8-5.82,6.02-5.69
		c8.04,0.23,11.69-1.66,13.31-3.28c1.5-1.49,2.19-3.68,2.11-6.69c-0.17-6.82-8.1-13.55-15.35-15.87
		c-12.01-3.85-17.87-20.28-17.41-48.84c0.05-3.2,2.66-5.76,5.85-5.76c0.03,0,0.06,0,0.09,0c3.24,0.05,5.82,2.72,5.76,5.95
		c-0.4,25.32,4.53,35.97,9.27,37.5c11.43,3.67,23.17,14.03,23.49,26.74c0.16,6.31-1.71,11.45-5.55,15.27
		C863.12,1002.44,856.28,1004.7,847.26,1004.7z"/>
</g>
<g>
	<path class="st1" d="M854.58,1220.9c-2.04,0-4.03-1.07-5.11-2.98c-10.45-18.5-11.3-55.4-10.74-89.05c0.05-3.2,2.66-5.76,5.85-5.76
		c0.03,0,0.07,0,0.1,0c3.23,0.05,5.81,2.72,5.76,5.95c-0.29,17.74-1.07,64.88,9.23,83.09c1.59,2.82,0.6,6.39-2.22,7.98
		C856.55,1220.66,855.56,1220.9,854.58,1220.9z"/>
</g>
<g>
	<path class="st1" d="M651.47,1217.27c-0.53,0-1.08-0.07-1.62-0.23c-3.11-0.89-4.91-4.13-4.02-7.24
		c17.12-59.76,8.74-163.59,5.99-197.71c-0.26-3.22,2.14-6.05,5.37-6.31c3.23-0.27,6.05,2.14,6.31,5.37
		c2.8,34.64,11.31,140.07-6.4,201.88C656.36,1215.6,654.02,1217.27,651.47,1217.27z"/>
</g>
<g>
	<path class="st1" d="M808.23,1137.2c-12.63,0-25.27-0.81-37.59-2.41c-3.21-0.42-5.47-3.36-5.05-6.56c0.42-3.21,3.35-5.47,6.56-5.05
		c12.18,1.58,24.68,2.34,37.19,2.31c4.49-0.02,8.14-0.16,11.07-0.28l1.11-0.04c38.25-1.45,66.22-14.52,83.14-38.82
		c14.76-21.19,21.5-51.1,20.04-88.89l-5.59-144.73c-6.64-2.45-18.71-8.69-24.38-22.87c-2.56-6.4-3.31-13.32-2.39-20.05
		c-0.71,0.22-1.42,0.42-2.14,0.59c-14.8,3.48-30.94-3.66-41.45-17.68c-5.74,5.55-15.79,12.52-29.86,12.19
		c-15.4-0.37-25.56-9.21-30.73-15.28c-5.31,3.83-13.62,8.2-24.33,8.71c-9.17,0.44-16.91-2.05-22.94-5.28
		c0.08,4.11-0.51,8.66-2.28,13.41c-3.85,10.31-11.23,16.26-16.89,19.47c3.78,6.43,8.05,17.14,5.19,29.88
		c-2.85,12.69-12.01,23.31-24.09,28.49c4.49,13.17,2.24,27.44-6.35,37.8c-10.32,12.45-25.24,13.62-29.57,13.68
		c-3.27,0.06-5.89-2.54-5.94-5.77c-0.05-3.23,2.54-5.89,5.77-5.94c2.18-0.03,13.41-0.63,20.71-9.44c6.94-8.37,7.84-20.59,2.31-31.12
		l-3.48-6.62l7.26-1.79c10.95-2.7,19.56-11.27,21.94-21.85c3.15-14-5.95-24.66-7-25.83l-6.1-6.81l8.74-2.7
		c1.24-0.38,12.24-4.07,16.52-15.54c4.02-10.76-0.84-20.07-1.85-21.82l9.59-6.66c1.15,1.39,11.64,13.52,27.9,12.75
		c11.29-0.54,19.04-6.95,21.84-9.68l5.44-5.3l3.74,6.61c0.08,0.14,8.5,14.54,24.87,14.93c16.17,0.38,25.28-13.29,25.37-13.43
		l5.4-8.31l4.68,8.73c7.32,13.67,21.15,21.58,32.89,18.82c5.42-1.28,9.49-4.66,12.15-7.63c0.83-1.16,1.73-2.29,2.68-3.37l9.17,7.27
		c-0.84,1.19-1.73,2.33-2.67,3.4c-5.43,7.92-6.74,18.09-3.24,26.84c5.45,13.63,19.86,17,20.47,17.13l4.4,0.98L936.41,997
		c1.56,40.4-5.89,72.71-22.13,96.04c-19.14,27.48-50.19,42.23-92.31,43.83l-1.1,0.04c-3.02,0.12-6.78,0.27-11.48,0.28
		C809,1137.2,808.61,1137.2,808.23,1137.2z"/>
</g>
<g>
	<path class="st1" d="M1072.64,2196.36c-3.2,0-5.81-2.57-5.86-5.78c-0.08-6.14-8.07-615.31-14.89-705.7
		c-0.24-3.23,2.17-6.04,5.4-6.28c3.23-0.24,6.04,2.17,6.28,5.4c6.85,90.75,14.84,700.28,14.92,706.43c0.04,3.23-2.55,5.89-5.78,5.93
		C1072.69,2196.36,1072.66,2196.36,1072.64,2196.36z"/>
</g>
<g>
	<path class="st1" d="M493.58,2193.59c-0.02,0-0.04,0-0.06,0c-3.23-0.03-5.83-2.68-5.8-5.91l2.72-291.04l0.16-0.65l65.46-270.32
		c0.76-3.14,3.93-5.07,7.07-4.31c3.14,0.76,5.08,3.93,4.31,7.07l-65.3,269.67l-2.71,289.69
		C499.41,2191.01,496.79,2193.59,493.58,2193.59z"/>
</g>
<g>
	<path class="st1" d="M275.5,2194.33c-3.1,0-5.69-2.44-5.85-5.57c-0.09-1.8-8.6-181.71,1.13-336.27
		c4.73-75.1,34.54-303.79,76.89-398.11c36.27-80.76,107.11-194.33,302.7-247.86c3.12-0.85,6.34,0.98,7.2,4.1
		c0.85,3.12-0.98,6.34-4.1,7.2c-190.82,52.22-259.81,162.76-295.11,241.36c-41.74,92.96-71.2,319.56-75.89,394.05
		c-9.68,153.91-1.2,333.17-1.12,334.97c0.16,3.23-2.34,5.98-5.57,6.13C275.69,2194.33,275.6,2194.33,275.5,2194.33z"/>
</g>
<g>
	<path class="st1" d="M1425.63,1677.57c-87.42,0-223.5-33.27-312.4-55c-20.69-5.06-38.55-9.42-52.24-12.49
		c-3.16-0.71-5.14-3.84-4.44-7c0.71-3.16,3.85-5.14,6.99-4.44c13.8,3.09,31.72,7.47,52.46,12.54c54.8,13.4,129.85,31.74,199.23,43.4
		c80.91,13.59,136.19,14.92,164.3,3.96c52.01-20.29,82.94-44.42,73.87-208.14c-6.72-121.38-21.28-267.82-24.43-298.88l-183.84,22.99
		l-8.79,260.98l-7.7-2.99c-78.26-30.4-136.71-64.4-193.25-97.29c-81.68-47.51-158.84-92.39-280.11-112.94
		c-3.19-0.54-5.34-3.56-4.8-6.75c0.54-3.19,3.57-5.33,6.75-4.8c123.37,20.91,201.41,66.3,284.04,114.37
		c54.26,31.56,110.32,64.17,183.9,93.47l8.57-254.42l205.64-25.71l0.62,5.95c0.17,1.68,17.55,169.23,25.08,305.39
		c4.4,79.54-0.14,129.67-14.73,162.55c-13.94,31.41-35.81,45.16-66.58,57.16C1469.19,1675.16,1449.17,1677.57,1425.63,1677.57z"/>
</g>
<g>
	<path class="st1" d="M613.69,953.2c-0.42,0-0.85-0.05-1.27-0.16c-19.42-4.89-34.3-19.7-38.84-38.64
		c-4.69-19.56,3.88-35.61,8.68-42.67c-4.64-5.65-10.94-15.83-11.21-29.63c-0.34-17.36,9.23-29.66,15.27-35.69
		c-5.04-5.34-12.19-15.34-11.28-28.41c1.14-16.45,14.21-30.29,31.55-34.5c-4.77-12.77-2.18-27.35,7.21-37.47
		c8.36-9.01,20.83-12.97,32.83-10.92c-0.07-6.92,1.37-16.72,8.53-24.47c11.57-12.53,32.09-14.05,48.82-4.35
		c12.34-21.36,34.25-34.01,56.11-31.9c13.67,1.32,24.01,8.08,30.55,13.9c6.33-7.94,20.58-21.83,42.91-21.88c0.04,0,0.09,0,0.13,0
		c20.54,0,34.36,11.9,40.62,18.77c7.01-5.64,21.89-14.78,41.08-10.7c15.97,3.39,29.26,15.07,35.02,30.37
		c15.5-2.6,31.15,3.96,39.35,16.97c6.38,10.13,7.39,22.72,3.01,34.09c16.31,6.27,27.51,21.5,27.35,38.24
		c-0.14,15.49-9.87,25.91-16.14,31.03c7.58,9.95,9.65,23.15,5.02,34.52c-5.37,13.17-18.78,21.53-33.12,21.53
		c-0.24,0-0.47,0-0.71-0.01c1.13,13.95-5.92,27.44-18.18,33.25c-10.91,5.17-24.54,3.33-34.71-4.69c-2.25-1.77-2.63-5.03-0.86-7.28
		c1.77-2.25,5.03-2.63,7.28-0.86c7.1,5.6,16.46,6.96,23.84,3.46c9.86-4.67,14.71-16.87,11.28-28.37l-2.54-8.52l8.67,1.99
		c12.29,2.82,24.94-3.38,29.44-14.4c3.78-9.28,1.09-20.39-6.69-27.66l-5.15-4.81l6.12-3.49c0.16-0.09,15.93-9.36,16.08-25.77
		c0.13-13.92-10.56-26.49-25.41-29.9l-6.85-1.57l3.52-6.08c5.41-9.36,5.4-20.53-0.03-29.15c-6.6-10.48-20-15.17-32.57-11.41
		l-5.15,1.54l-1.36-5.2c-3.62-13.87-14.87-24.73-28.67-27.66c-20.67-4.39-35.52,11.4-35.67,11.56l-4.37,4.74l-3.7-5.28
		c-1.35-1.93-13.83-18.86-35.8-18.86c-0.04,0-0.07,0-0.1,0c-24.66,0.06-37.61,21.86-37.74,22.08l-3.55,6.1l-4.77-5.2
		c-4.61-5.04-14.43-13.69-28.43-15.05c-19.27-1.86-38.76,10.71-48.51,31.29l-2.74,5.78l-5.09-3.87c-14.58-11.1-32.1-8.77-39.97-0.24
		c-7.93,8.59-5.49,21.96-5.18,23.46l1.94,9.54l-9-3.72c-10.14-4.19-21.85-1.73-29.13,6.12c-7.92,8.54-9.02,21.56-2.69,31.67
		l4.55,7.25l-8.54,0.67c-15.78,1.24-28.39,12.44-29.34,26.04c-0.95,13.65,11.3,23.28,11.82,23.68l5.41,4.18l-5.48,4.08
		c-1.65,1.23-16.08,12.53-15.72,31.23c0.26,13.46,7.93,22.58,11.21,25.87l3.38,3.39l-3.1,3.64c-1.45,1.7-14.03,17.2-9.24,37.19
		c3.64,15.18,15.63,27.06,31.29,31c2.78,0.7,4.46,3.52,3.76,6.3C618.12,951.63,616.01,953.2,613.69,953.2z"/>
</g>
<g>
	<path class="st1" d="M796.48,1079.16c-16.73-4.54-25.52-13.86-29.03-26.81c-2.68-9.9-2.25-15.05,2.16-17.14
		c5.58-2.65,18.21,2.96,37.72,9.05c14.24,4.44,35.66,5.58,36.03,16.5C843.67,1070.17,823.05,1086.37,796.48,1079.16z"/>
	<path class="st3" d="M770.14,1057.84c11.62-8.49,40.93-6.9,42.23,20.78C794.41,1079.36,773.28,1065.33,770.14,1057.84z"/>
	<g>
		<path class="st1" d="M809.9,1084.49c-4.48,0-9.38-0.58-14.67-2.02l0,0c-17.49-4.74-28.49-14.99-32.68-30.45
			c-1.5-5.52-5-18.46,4.94-23.18c6.15-2.92,14.72-0.06,28.91,4.68c3.76,1.25,8.01,2.68,12.57,4.1c3.4,1.06,7.43,1.96,11.32,2.84
			c13.1,2.94,27.94,6.27,28.34,18.44c0.17,5.24-3.23,11.02-9.35,15.86C835.92,1077.43,825.5,1084.49,809.9,1084.49z M797.94,1072.47
			c15.12,4.1,27.95-0.33,34.92-5.84c4.05-3.21,5.46-6.17,5.42-7.38c-0.14-4.15-11.76-6.76-20.25-8.67
			c-4.1-0.92-8.33-1.87-12.14-3.06c-4.66-1.45-8.97-2.89-12.77-4.16c-8.81-2.94-18.81-6.28-21.18-5.15
			c-1.35,0.64-1.12,4.69,0.62,11.1C775.81,1061.3,783.87,1068.65,797.94,1072.47L797.94,1072.47z"/>
	</g>
	<g>
		<path class="st1" d="M818.33,1080.17l-10.3-1.24c1.38-11.45-4.29-16.9-9.29-19.46c-8.05-4.12-19.31-3.14-25.1,2.18l-7.03-7.63
			c9.02-8.3,24.86-9.93,36.85-3.79C814.53,1055.89,819.94,1066.8,818.33,1080.17z"/>
	</g>
</g>
<g>
	<path class="st1" d="M782.28,1333.93c-13.09,0-27.29-3.16-41.42-9.4c-19.32-8.53-37.78-22.41-53.39-40.14
		c-17.47-19.85-30.94-43.75-40.02-71.02c-1.02-3.07,0.64-6.39,3.71-7.41c3.07-1.02,6.39,0.64,7.41,3.71
		c16.31,48.96,48.03,86.92,87.03,104.14c21.69,9.58,43.18,11.06,58.95,4.07c26.85-11.91,44.71-52.56,44.43-101.14
		c-0.02-3.24,2.59-5.87,5.82-5.89c0.01,0,0.02,0,0.03,0c3.22,0,5.84,2.6,5.86,5.82c0.31,54-19.87,97.93-51.4,111.92
		C801.25,1332.16,792.08,1333.93,782.28,1333.93z"/>
</g>
<g>
	<path class="st1" d="M1337.75,1225.59c-3.01,0-5.56-2.3-5.83-5.35c-0.28-3.22,2.11-6.06,5.33-6.34l202.08-17.51
		c3.22-0.27,6.06,2.11,6.34,5.33c0.28,3.22-2.11,6.06-5.33,6.34l-202.08,17.51C1338.09,1225.58,1337.92,1225.59,1337.75,1225.59z"/>
</g>
<g>
	<path class="st1" d="M1408.46,1136.6c-0.47,0-0.94-0.06-1.42-0.17c-3.14-0.78-5.05-3.96-4.27-7.1c2.21-8.88,3.9-22.81-0.55-38.77
		c-4.42-15.83-12.98-26.81-19.39-33.24c-2.28-2.29-2.28-6,0.01-8.28c2.29-2.28,6-2.28,8.28,0.01c7.39,7.42,17.27,20.09,22.37,38.35
		c5.14,18.42,3.19,34.5,0.64,44.75C1413.48,1134.82,1411.09,1136.6,1408.46,1136.6z"/>
</g>
<g>
	<path class="st1" d="M782.16,2194.67c-0.67,0-1.36-0.12-2.02-0.36c-3.04-1.12-4.59-4.49-3.47-7.52
		c42.05-114.24,7.75-850.97,7.39-858.4c-0.15-3.23,2.34-5.97,5.57-6.13c3.26-0.16,5.98,2.34,6.13,5.57
		c0.09,1.86,8.84,188.39,12.24,386.77c4.57,266.93-2.28,427.16-20.34,476.23C786.78,2193.2,784.54,2194.67,782.16,2194.67z"/>
</g>
<g id="person_1_2_">
	<path class="st3" d="M1710.47,1040.88c0,0-6.43-31.53-4.03-43.6c2.4-12.08,15.41-80.51,17.29-92.87
		c1.88-12.36,3.71-35.78-6.92-40.87c-10.63-5.09-26.28,1.57-33.3,18.81c-7.03,17.24-16.51,36.64-18.74,40.34
		c-2.23,3.7-1.44,5.97-8.29-2.84c-6.85-8.82-21.61-63.44-27.54-84.47c-6.43-22.78-24.72-57.01-31.01-61.13
		c-6.29-4.12-9.31-7.68-14.97-3.43c-16.42,12.31-7.77,33.81-7.77,33.81s-18.08-34.39-27.76-38.26c-9.68-3.87-10.42-3.3-17.35,0.92
		c-6.94,4.21-8.87,25.78-6.54,34.54c2.32,8.77-17.92-3.35-17.92-3.35s-23.43,2.5-14.28,38.04c-8.05,4.29-34.25-12.55-28.85,30.3
		c0.67,5.29,26.37,62.42,36.6,83.14c10.23,20.73,43.01,76.77,44.67,79.41c1.66,2.64,50.03,69.61,50.03,69.61L1710.47,1040.88z"/>
	<g>
		<path class="st1" d="M1591.06,1106.19c-1.91,0-3.78-0.93-4.91-2.65c-0.4-0.61-40.45-61.88-73.01-117.11
			c-30.87-52.35-41.25-74.79-52.92-114.32c-3.83-12.99-1.61-27.74,5.4-35.86c4.4-5.1,10.39-7.4,16.86-6.49
			c12.07,1.71,14.49,6.34,27.94,32.05l3.14,5.99c5.45,10.39,23.68,41.7,23.86,42.01c1.63,2.8,0.68,6.38-2.11,8.01
			c-2.8,1.63-6.38,0.68-8.01-2.11c-0.75-1.3-18.54-31.85-24.11-42.46l-3.14-6c-13.09-25.02-13.44-25.07-19.21-25.88
			c-2.53-0.35-4.54,0.45-6.35,2.54c-4.41,5.11-5.71,15.81-3.03,24.89c10.75,36.45,19.29,56.61,51.77,111.69
			c32.42,54.99,72.32,116.03,72.72,116.64c1.77,2.71,1.01,6.34-1.69,8.11C1593.28,1105.88,1592.16,1106.19,1591.06,1106.19z"/>
	</g>
	<g>
		<path class="st1" d="M1564.75,903.68c-2.01,0-3.97-1.03-5.06-2.89c-14.92-25.42-39.27-83.18-43.88-101.69
			c-1.89-7.57-4.09-21.71,2.41-31.31c3.28-4.85,8.35-7.87,14.67-8.74c23.54-3.24,34.54,22.24,39.25,33.11
			c9.76,22.56,31.35,72.46,37.98,87.73c1.29,2.97-0.07,6.42-3.04,7.71c-2.97,1.29-6.42-0.07-7.71-3.04
			c-6.63-15.27-28.22-65.18-37.99-87.75c-8.55-19.75-16.6-27.57-26.9-26.16c-3.06,0.42-5.14,1.59-6.56,3.7
			c-2.84,4.2-3.12,12.39-0.75,21.91c4.35,17.45,28.39,74.36,42.62,98.59c1.64,2.79,0.71,6.38-2.08,8.02
			C1566.78,903.41,1565.76,903.68,1564.75,903.68z"/>
	</g>
	<g>
		<path class="st1" d="M1709.92,1045.25c-2.61,0-4.99-1.75-5.67-4.4c-7.17-27.79,0.43-66.38,7.13-100.42
			c5.64-28.64,11.48-58.26,5.07-69.4c-2.27-3.96-4.51-6.02-6.66-6.13c-2.18-0.11-8.5,1.46-20.8,18.47
			c-9.34,12.9-12.77,24-15.28,32.1c-2.42,7.82-4.52,14.57-11.5,15.9c-6.13,1.17-10.98-2.64-14.42-11.31
			c-2.34-5.91-4.34-14.19-6.87-24.68c-2.48-10.28-5.28-21.92-9.25-34.93c-7.31-23.97-15.29-45.49-22.45-60.6
			c-12.49-26.34-18.71-25.93-18.8-25.92c-9.16,1.06-11.79,3.73-12.96,5.66c-3.55,5.8-1.6,18.44,5.95,38.66
			c1.13,3.03-0.41,6.4-3.44,7.54c-3.03,1.13-6.4-0.41-7.54-3.44c-9.26-24.81-10.75-39.42-4.96-48.87
			c5.13-8.38,14.79-10.39,21.61-11.18c10.02-1.16,19.5,8.88,30.72,32.54c9.49,20.01,17.78,44.87,23.07,62.2
			c4.07,13.34,7.05,25.69,9.44,35.6c2.54,10.55,5.39,22.35,7.82,26.3c0.75-1.66,1.64-4.52,2.39-6.94c2.6-8.38,6.52-21.04,16.98-35.5
			c11.85-16.38,21.68-23.78,30.91-23.3c6.37,0.33,11.82,4.37,16.2,11.99c8.59,14.95,2.88,43.94-3.74,77.51
			c-6.46,32.82-13.79,70.01-7.28,95.23c0.81,3.13-1.08,6.33-4.21,7.14C1710.9,1045.18,1710.41,1045.25,1709.92,1045.25z"/>
	</g>
	<g>
		<path class="st1" d="M1497.18,855.23c-2.14,0-4.21-1.18-5.24-3.23l-5.18-10.3c-7.08-14.18-8.79-27.2-4.83-36.68
			c2.65-6.35,7.79-10.92,14.84-13.23c20.97-6.85,36.1,22.02,49.33,54.24c1.23,2.99-0.2,6.41-3.19,7.64
			c-2.99,1.23-6.41-0.2-7.64-3.19c-5.84-14.21-21.37-51.97-34.85-47.56c-3.83,1.25-6.34,3.41-7.67,6.61
			c-2.55,6.11-0.87,16.17,4.5,26.92l5.17,10.29c1.45,2.89,0.29,6.41-2.6,7.86C1498.96,855.03,1498.06,855.23,1497.18,855.23z"/>
	</g>
</g>
<path class="st4" d="M2294.85,1267.53c-139.22,15.26-278.45,30.51-417.67,45.77c-50.11-98.22-100.22-196.45-150.34-294.67
	c-50.95,26.45-101.9,52.9-152.86,79.35c36.66,98.48,62.17,168.94,81.21,222.71c14.27,40.3,32.57,79.09,46.84,119.38
	c14.99,42.32,19.46,59.77,36.74,77.26c29.17,29.54,68.78,32.78,101.9,36.18c51.98,5.34,124.62,14.84,220.08,33.46
	c3.15,25.71,8.77,64.24,19.11,110.39c16.84,75.16,32.4,108.96,46.73,164.55c10.92,42.35,22.8,103.89,24.26,182.62
	c190.22,9.6,380.45,19.19,570.67,28.79c10.98,2.1,87.41,15.51,138.41-33.81c32.28-31.22,37.81-71.56,40.85-93.77
	c6.75-49.26-6.51-82.08-47.38-202.31c-16.37-48.17-29.03-86.43-35.84-107.1c-110.46-111.03-220.92-222.06-331.38-333.08
	C2422.4,1291.33,2358.62,1279.43,2294.85,1267.53z"/>
<path class="st3" d="M2215.48,824.93c0,0-12.7,20.89-14.2,37.39c-1.51,16.51-4.89,59.48-6.54,76.68
	c-1.65,17.2-1.35,39.8-11.93,50.09c-10.59,10.28-24.32,10.37-27.04,19.76c-2.73,9.39,2.55,17.2,11.01,20.37s17.54,9.15,17.54,9.15
	s4.21,62.3,18.79,89.89c14.92,28.22,41.98,40.14,51.91,44.71c26.43,12.17,50.62,12.08,63.05,11.12c0.14,10.08-0.62,22.78-3.75,37.06
	c-4.27,19.46-11.4,34.78-17.41,45.38c18.17,6.66,38.89,13.14,61.97,18.53c27.29,6.38,52.41,9.96,74.44,11.89
	c4.62-34.58,5.59-87.93-4.25-120.42c-9.84-32.49-36.37-98.93-37.96-100.76c-1.59-1.84-6.71-18.97-6.71-18.97
	s22.56-14.26,30.62-28.62s1.8-35.74-7.64-46.37c-9.44-10.63-19.53-20.9-55.72-16.69c-29.54-14.57-70.55-49.31-81.68-57.44
	c-12.02-8.77-30.45-31.32-46.45-64.18C2219.85,835.99,2217.23,829.53,2215.48,824.93z"/>
<path class="st1" d="M2609.77,784.73c5.25,8.68,16.55,29.02,29.76,105.01c13.19,75.86,3.14,86.01,16.27,149.21
	c6.65,32.04,15.6,73.52,41.63,119.87c19.33,34.43,29.8,38.97,60.26,86.47c29.27,45.65,46.5,83.4,50.12,91.45
	c28.57,63.48,56.03,124.49,44.66,198.52c-2.73,17.76-11.88,72.48-55.78,120.47c-63.16,69.03-150.93,72.42-179.92,73.54
	c-26.1,1.01-99.19,0.24-168.59-46.73c-22.81-15.44-79.4-52.87-101.16-123.83c-15.43-50.33-7.02-96.64-3.14-118.01
	c1.24-6.85,4.72-24.53,23.27-73.71c27.83-73.77,41.86-91.88,50.37-118.07c12.12-37.33,14.56-95.78-34.27-185.44
	c26.26-8.34,41.38-36.26,34.12-62.58c-7.35-26.66-35.23-42.9-62.28-36.03c-41.71-17.76-69.09-41.03-85.15-57.2
	c-18.5-18.63-79.14-79.7-61.54-137.11c4.16-13.56,11.3-22.42,15.94-28.18c36.14-44.82,107.78-53,107.78-53
	c20.41-5.14,78.92-19.06,148.5,2.95C2503.03,699.42,2571.17,720.98,2609.77,784.73z"/>
<path class="st1" d="M2710.64,2044.51c0,0,28.16,119.76,23.04,142.46c-50.52,1.46-591.38,1.42-591.38,1.42l12.22-141.26
	L2710.64,2044.51z"/>
<path class="st3" d="M2700.72,2186.97c5.04-22.31-22.08-138.37-22.99-142.27l32.9-0.18c0,0,28.16,119.76,23.04,142.46
	c-50.52,1.46-591.38,1.42-591.38,1.42v0C2267.81,2188.36,2658.53,2188.19,2700.72,2186.97z"/>
<g>
	<path class="st1" d="M2736.96,2195.76c-2.89,0-5.4-2.13-5.8-5.07c-0.09-0.67-9.33-68.42-26.64-146.69l-0.13-0.6l-0.01-0.61
		c-1.43-157.31-4.2-260.04-8.48-314.09c-0.26-3.22,2.15-6.05,5.38-6.3c3.23-0.25,6.05,2.15,6.3,5.38
		c4.29,54.25,7.08,157.05,8.51,314.29c17.34,78.51,26.59,146.37,26.68,147.05c0.43,3.21-1.81,6.16-5.02,6.59
		C2737.49,2195.74,2737.22,2195.76,2736.96,2195.76z"/>
</g>
<g>
	<path class="st1" d="M2142.3,2194.24c-0.2,0-0.39-0.01-0.59-0.03c-3.22-0.32-5.57-3.19-5.24-6.41c0.05-0.52,5.27-53.21,8.52-143.18
		c-7.04-99.63-28.72-223.63-48.36-276.54c-25.8-69.49-42.18-140.6-41.73-181.18c0.04-3.23,2.71-5.79,5.92-5.79
		c3.24,0.04,5.83,2.69,5.79,5.92c-0.43,38.65,16.05,109.77,41,176.97c20.33,54.75,41.89,177.79,49.09,280.11l0.02,0.31l-0.01,0.31
		c-3.27,90.58-8.53,143.71-8.59,144.24C2147.82,2191.99,2145.27,2194.24,2142.3,2194.24z"/>
</g>
<path class="st1" d="M2222.72,954.01c-0.89,10.07,3.18,18.66,9.09,19.18c5.91,0.52,11.42-7.22,12.31-17.29
	c0.89-10.07-3.18-18.66-9.09-19.18C2229.12,936.2,2223.61,943.94,2222.72,954.01z"/>
<g>
	<path class="st1" d="M2257.88,901.25c-0.74,0-1.5-0.14-2.23-0.44c-15.71-6.47-31.08-8.25-45.67-5.27c-3.18,0.65-6.26-1.4-6.91-4.57
		c-0.65-3.17,1.4-6.26,4.57-6.91c16.91-3.44,34.56-1.45,52.47,5.92c2.99,1.23,4.42,4.66,3.19,7.65
		C2262.37,899.88,2260.19,901.25,2257.88,901.25z"/>
</g>
<g>
	<path class="st1" d="M2312.04,1189.95c-4.09,0-7.55-0.2-10.51-0.46c-83.66-7.35-125.57-59.35-121.45-150.5
		c-1.42-0.21-2.68-0.38-3.33-0.43c-9.86-0.82-28.64-10.49-27.9-25.29c0.53-10.59,8.26-15.82,15.75-20.88
		c2.84-1.92,5.78-3.91,8.72-6.34c8.9-7.36,14.07-22.09,15.35-43.78c1.23-20.79,7.04-83.15,7.1-83.78
		c0.55-6.28,2.77-22.81,11.28-39.91c1.44-2.9,4.96-4.08,7.85-2.63c2.9,1.44,4.08,4.96,2.63,7.85c-7.62,15.31-9.6,30.1-10.1,35.75
		c-0.06,0.65-5.85,62.82-7.07,83.41c-1.5,25.42-7.91,42.47-19.58,52.12c-3.37,2.79-6.69,5.03-9.62,7.01
		c-7,4.74-10.38,7.22-10.61,11.76c-0.3,6.09,11.48,12.56,17.17,13.04c2.43,0.2,8.75,1.25,9.46,1.36l5.22,0.87l-0.34,5.28
		c-5.62,88.24,31.56,136.5,110.5,143.43c6.71,0.59,27.13,2.38,70.71-10.51c3.11-0.92,6.36,0.85,7.28,3.96
		c0.92,3.1-0.85,6.36-3.96,7.28C2345.26,1187.81,2325.32,1189.95,2312.04,1189.95z"/>
</g>
<g>
	<path class="st1" d="M2296.88,1272.38c-1.13,0-2.27-0.33-3.28-1.01c-2.68-1.81-3.38-5.45-1.57-8.13
		c14.6-21.59,18.62-47.37,20.16-79.44c0.16-3.23,2.89-5.73,6.13-5.57c3.23,0.16,5.72,2.9,5.57,6.13
		c-1.64,34.04-6.03,61.59-22.16,85.44C2300.61,1271.48,2298.76,1272.38,2296.88,1272.38z"/>
</g>
<g>
	<path class="st1" d="M2234.46,1111.89c-6.98,0-13.97-0.94-20.71-2.87c-3.11-0.89-4.91-4.14-4.02-7.25c0.89-3.11,4.14-4.9,7.25-4.02
		c20.33,5.83,43.35,1,58.65-12.3c2.44-2.12,6.14-1.87,8.26,0.58s1.87,6.14-0.58,8.26
		C2270.21,1105.7,2252.39,1111.89,2234.46,1111.89z"/>
</g>
<g>
	<path class="st1" d="M2743.56,2078.63c-5.96,0-12.03-0.16-18.25-0.48c-3.23-0.17-5.71-2.92-5.55-6.15s2.91-5.72,6.15-5.55
		c45.23,2.33,83.12-4.11,112.63-19.14c25.21-12.84,42.71-31.39,50.63-53.65c19.57-55.02-9.22-176.76-88.02-372.19
		c-81.4-201.87-120.54-273.18-269.35-337.27c-79.43,32.83-173.24,9.84-237.57-10.72c-114.47,12.28-413.4,45.3-416.42,45.63
		l-4.02,0.44l-149.5-293.02l-143.1,74.29c15.49,43.81,132.16,372.21,162.28,413.02c5.88,7.97,28.76,20.52,104.37,35.1
		c54.02,10.41,118.25,18.88,174.92,26.35c35.95,4.74,66.99,8.83,89.24,12.62c3.19,0.54,5.33,3.57,4.79,6.76
		c-0.54,3.19-3.56,5.34-6.76,4.79c-22.03-3.75-52.98-7.83-88.8-12.55c-144.48-19.04-265.82-37.16-287.19-66.11
		c-33.16-44.92-160.21-405.55-165.6-420.88l-1.69-4.8l162.61-84.41l151.18,296.32c36.3-4.01,307.29-33.92,413.67-45.32l1.23-0.13
		l1.18,0.38c63.19,20.28,156.09,43.43,232.89,10.5l2.3-0.99l2.3,0.98c77.97,33.29,128.26,70.19,168.18,123.39
		c41.02,54.66,72.64,129.33,109.71,221.25c36.09,89.5,61.13,161.73,76.55,220.84c19.49,74.69,23.3,126.92,11.65,159.66
		c-8.94,25.12-28.42,45.93-56.35,60.16C2816.63,2071.63,2782.95,2078.63,2743.56,2078.63z"/>
</g>
<path class="st3" d="M2724.11,1252.99c-14.73-18.79-44.89-53.99-68.98-111.48c-10.73-25.61-17.38-50.52-23.82-79.65
	c-10.83-48.98-8-159.99-34.74-221.78c-31.22-72.15-69.6-97.57-126.77-122.98c-57.17-25.41-142.82-15.55-168.53-9.85
	c-13.28,2.94-33.26,10.33-52.66,19.84c25.61-17.63,62.73-33.09,83.53-37.71c25.71-5.7,111.36-15.56,168.53,9.85
	c57.17,25.41,95.55,50.83,126.77,122.98c26.73,61.79,20.42,176.69,31.25,225.67c5.96,26.95,11.53,47.87,20.03,68.81
	c23.81,58.63,54.64,95.95,66.23,110.48c9.28,11.63,130.08,166.39,108.22,303.68c-4.75,29.85-22.92,100.82-117.79,172.45
	c63.18-61.22,79.75-118.42,85.18-148.59C2846.2,1412.26,2732.98,1264.31,2724.11,1252.99z"/>
<g>
	<path class="st1" d="M2370.37,1064.46c-1.61,0-3.22-0.07-4.84-0.21c-8.07-0.71-15.67-3.14-22.6-7.22
		c-2.79-1.64-3.72-5.23-2.07-8.02c1.64-2.79,5.23-3.71,8.02-2.08c5.42,3.19,11.37,5.09,17.69,5.65c11.24,1,22.19-2.45,30.83-9.69
		c8.65-7.24,13.95-17.42,14.95-28.65c0.99-11.24-2.45-22.18-9.69-30.83c-7.24-8.65-17.42-13.95-28.65-14.95
		c-3.24-0.29-6.92,0.68-10.81,1.7c-2.59,0.68-5.26,1.38-7.96,1.74c-3.2,0.43-6.15-1.83-6.58-5.03c-0.43-3.21,1.83-6.15,5.03-6.58
		c1.98-0.26,4.19-0.84,6.54-1.46c4.47-1.17,9.54-2.51,14.82-2.04c14.35,1.27,27.35,8.05,36.6,19.09
		c9.25,11.04,13.65,25.03,12.38,39.38c-1.27,14.35-8.05,27.35-19.09,36.6C2395.11,1060.07,2383,1064.46,2370.37,1064.46z"/>
</g>
<g>
	<path class="st1" d="M2394.56,1017.49c-0.2,0-0.39-0.01-0.59-0.03c-3.22-0.32-5.57-3.19-5.25-6.41c0.61-6.06-1.19-11.69-4.94-15.44
		c-3.7-3.71-9.11-5.41-15.23-4.81c-3.22,0.32-6.09-2.03-6.4-5.25c-0.32-3.22,2.04-6.09,5.25-6.4c9.68-0.96,18.44,1.95,24.67,8.19
		c6.24,6.25,9.27,15.32,8.31,24.89C2400.08,1015.24,2397.54,1017.49,2394.56,1017.49z"/>
</g>
<g>
	<path class="st1" d="M2607.79,1738.02c-14.15,0-28.21-1.01-41.94-3.06c-52.03-7.75-103.86-31.29-145.96-66.27
		c-42.9-35.65-72.87-81.05-84.37-127.83c-17.27-70.28,11.1-133.25,38.54-194.15c30.59-67.89,62.22-138.08,33.97-221.45
		c-7.39-21.82-18.2-42.68-32.11-62.02c-1.89-2.63-1.29-6.29,1.33-8.18c2.62-1.89,6.29-1.29,8.18,1.33
		c14.59,20.28,25.93,42.18,33.7,65.1c29.73,87.74-2.86,160.07-34.38,230.02c-27.85,61.81-54.16,120.19-37.85,186.54
		c22.17,90.2,117.04,169.86,220.67,185.31c86.3,12.86,200.57-17.55,251.99-100.56c45.59-73.59,26.19-169.59,1.88-237.16
		c-29.88-83.07-73.82-146.24-83.96-158.6l-0.56-0.68c-22.45-27.3-39.12-54.62-49.16-72.73c-7.1-12.82-13.44-26.01-19.39-40.34
		c-15.43-37.16-21.62-83.21-32.42-202.73c-6.92-76.66-29.23-161.23-142.22-207.24c-69.28-28.21-164.07-21.92-230.52,15.3
		c-31.91,17.88-61.45,50.24-48.65,87.49c20.49,59.64,52.67,108.56,143.15,153.5c2.9,1.44,4.08,4.95,2.64,7.85
		c-1.44,2.9-4.96,4.08-7.85,2.64c-94.05-46.71-127.59-97.82-149.02-160.19c-6.56-19.11-4.22-39.11,6.77-57.83
		c9.86-16.8,26.2-31.9,47.23-43.69c32.83-18.39,74.31-30.28,116.8-33.48c44.6-3.36,87.43,2.71,123.86,17.55
		c51.9,21.13,89.05,51.34,113.58,92.35c19.8,33.1,31.21,72.72,35.9,124.68c10.5,116.24,16.85,163.82,31.57,199.29
		c5.78,13.92,11.94,26.73,18.82,39.16c9.8,17.68,26.07,44.35,47.96,70.96l0.57,0.69c16.07,19.61,58.21,85.03,85.92,162.06
		c16.2,45.03,25.06,87.25,26.35,125.5c1.58,46.88-8.28,87.86-29.3,121.79c-24.4,39.39-64.04,70.35-114.64,89.54
		C2680.94,1731.39,2644.03,1738.02,2607.79,1738.02z"/>
</g>
<g>
	<path class="st1" d="M2152.92,2051.33c-3.23,0-5.85-2.61-5.86-5.84c-0.01-3.24,2.6-5.87,5.84-5.88l554.88-1.93
		c0.01,0,0.01,0,0.02,0c3.23,0,5.85,2.61,5.86,5.84c0.01,3.24-2.6,5.87-5.84,5.88l-554.88,1.93
		C2152.93,2051.33,2152.92,2051.33,2152.92,2051.33z"/>
</g>
<g>
	<path class="st1" d="M2707.8,2021.92h-559.28c-3.24,0-5.86-2.62-5.86-5.86c0-3.24,2.62-5.86,5.86-5.86h559.28
		c3.24,0,5.86,2.62,5.86,5.86C2713.66,2019.29,2711.04,2021.92,2707.8,2021.92z"/>
</g>
<g id="platform">
	<path class="st1" d="M2938.47,2195.57H5.86c-3.23,0-5.86-2.62-5.86-5.86s2.62-5.86,5.86-5.86h2932.61c3.24,0,5.86,2.62,5.86,5.86
		S2941.7,2195.57,2938.47,2195.57z"/>
</g>
<g id="bubble_speech_1">
	<path class="st3" d="M748.91,259.6h-3.86c23.15,0,41.92,18.77,41.92,41.92v149.53c0,23.15-18.77,41.92-41.92,41.92h-27.13
		l24.21,100.42L628.7,492.97H378.46c-23.15,0-41.92-18.77-41.92-41.92V301.52c0-23.15,18.77-41.92,41.92-41.92h287.09H748.91z"/>
	<g>
		<path class="st1" d="M739.54,594.81c-1.36,0-2.71-0.49-3.78-1.44l-108.65-96.19H378.46c-25.44,0-46.13-20.69-46.13-46.13V301.52
			c0-25.44,20.69-46.13,46.13-46.13h329.87c2.32,0,4.21,1.88,4.21,4.21c0,2.32-1.88,4.21-4.21,4.21H378.46
			c-20.8,0-37.72,16.92-37.72,37.72v149.53c0,20.8,16.92,37.72,37.72,37.72H630.3l104.6,92.61l-22.32-92.61h32.47
			c20.8,0,37.72-16.92,37.72-37.72V303.56c0-2.32,1.88-4.21,4.21-4.21c2.32,0,4.21,1.88,4.21,4.21v147.48
			c0,25.44-20.69,46.13-46.13,46.13h-21.79l21.83,90.58c0.59,2.44-0.46,4.94-2.61,6.23C741.57,594.54,740.55,594.81,739.54,594.81z"
			/>
	</g>
	<g>
		<path class="st1" d="M716.12,351.55H653.5c-2.32,0-4.21-1.88-4.21-4.21c0-2.32,1.88-4.21,4.21-4.21h62.63
			c2.32,0,4.21,1.88,4.21,4.21C720.33,349.67,718.45,351.55,716.12,351.55z"/>
	</g>
	<g>
		<path class="st1" d="M600.9,351.55H400.89c-2.32,0-4.21-1.88-4.21-4.21c0-2.32,1.88-4.21,4.21-4.21H600.9
			c2.32,0,4.21,1.88,4.21,4.21C605.1,349.67,603.22,351.55,600.9,351.55z"/>
	</g>
	<g>
		<path class="st1" d="M716.12,417.35h-181.8c-2.32,0-4.21-1.88-4.21-4.21c0-2.32,1.88-4.21,4.21-4.21h181.8
			c2.32,0,4.21,1.88,4.21,4.21C720.33,415.46,718.45,417.35,716.12,417.35z"/>
	</g>
</g>
<g id="bubble_speech_2">
	<path class="st3" d="M2759.33,682.47h3.86c-23.15,0-41.92,18.77-41.92,41.92v149.53c0,23.15,18.77,41.92,41.92,41.92h27.13
		l-24.21,100.42l113.42-100.42h250.24c23.15,0,41.92-18.77,41.92-41.92V724.4c0-23.15-18.77-41.92-41.92-41.92h-287.09H2759.33z"/>
	<g>
		<path class="st1" d="M2768.7,1017.69c-1.01,0-2.03-0.27-2.95-0.82c-2.15-1.29-3.2-3.8-2.61-6.23l21.83-90.58h-21.79
			c-25.44,0-46.13-20.69-46.13-46.13V726.44c0-2.32,1.88-4.21,4.21-4.21s4.21,1.88,4.21,4.21v147.48c0,20.8,16.92,37.72,37.72,37.72
			h32.47l-22.32,92.61l104.6-92.61h251.83c20.8,0,37.72-16.92,37.72-37.72V724.4c0-20.8-16.92-37.72-37.72-37.72h-329.87
			c-2.32,0-4.21-1.88-4.21-4.21c0-2.32,1.88-4.21,4.21-4.21h329.87c25.44,0,46.13,20.69,46.13,46.13v149.53
			c0,25.44-20.69,46.13-46.13,46.13h-248.65l-108.65,96.19C2771.41,1017.2,2770.06,1017.69,2768.7,1017.69z"/>
	</g>
	<g>
		<path class="st1" d="M2854.74,774.43h-62.63c-2.32,0-4.21-1.88-4.21-4.21c0-2.32,1.88-4.21,4.21-4.21h62.63
			c2.32,0,4.21,1.88,4.21,4.21C2858.95,772.55,2857.07,774.43,2854.74,774.43z"/>
	</g>
	<g>
		<path class="st1" d="M3107.35,774.43h-200.01c-2.32,0-4.21-1.88-4.21-4.21c0-2.32,1.88-4.21,4.21-4.21h200.01
			c2.32,0,4.21,1.88,4.21,4.21C3111.56,772.55,3109.68,774.43,3107.35,774.43z"/>
	</g>
	<g>
		<path class="st1" d="M2973.92,840.22h-181.8c-2.32,0-4.21-1.88-4.21-4.21c0-2.32,1.88-4.21,4.21-4.21h181.8
			c2.32,0,4.21,1.88,4.21,4.21C2978.12,838.34,2976.24,840.22,2973.92,840.22z"/>
	</g>
</g>
</svg>
